M48
; DRILL file {KiCad (5.1.10)-1} date 12/01/21 19:11:30
; FORMAT={-:-/ absolute / metric / decimal}
; #@! TF.CreationDate,2021-12-01T19:11:30-06:00
; #@! TF.GenerationSoftware,Kicad,Pcbnew,(5.1.10)-1
; #@! TF.FileFunction,Plated,1,2,PTH
FMAT,2
METRIC
T1C0.400
T2C0.800
T3C0.900
T4C0.920
T5C1.000
T6C1.100
T7C2.330
%
G90
G05
T1
X138.43Y-95.25
X143.51Y-109.22
X144.78Y-115.57
X144.903Y-78.617
X148.59Y-87.63
X152.4Y-88.9
X154.545Y-59.116
X154.601Y-75.256
X155.793Y-72.91
X156.223Y-46.965
X158.75Y-25.4
X159.939Y-25.506
X160.02Y-109.22
X160.598Y-47.658
X161.207Y-59.783
X161.303Y-76.113
X162.844Y-66.93
X163.83Y-85.09
X163.917Y-61.695
X165.972Y-36.056
X166.254Y-73.946
X166.37Y-17.78
X171.162Y-36.035
X171.45Y-64.77
X173.068Y-26.271
X173.99Y-58.42
X173.99Y-60.96
X173.99Y-82.55
X180.223Y-78.061
X180.829Y-21.01
X180.829Y-23.839
X180.888Y-27.937
X185.42Y-63.5
X187.945Y-52.236
X191.181Y-49.025
X196.53Y-38.672
X197.982Y-68.852
X200.368Y-22.932
X200.368Y-90.099
X201.672Y-44.282
X203.2Y-60.96
X205.314Y-32.53
X206.074Y-62.193
X207.769Y-76.287
X208.611Y-55.542
X209.55Y-60.96
X210.82Y-54.316
X212.653Y-40.81
X213.092Y-43.86
X213.231Y-30.577
X213.791Y-80.874
X214.63Y-92.71
X217.17Y-86.36
X217.894Y-33.089
X220.321Y-74.704
X220.98Y-96.52
X222.25Y-87.63
X224.275Y-56.569
X224.847Y-74.779
X225.487Y-52.949
X226.06Y-71.12
X226.06Y-77.47
X226.089Y-49.679
X227.073Y-69.023
X228.362Y-49.221
X230.804Y-50.501
X236.18Y-16.55
X254.0Y-109.22
X256.54Y-16.51
X259.08Y-105.41
X261.62Y-80.01
X265.43Y-68.58
X265.43Y-82.55
X266.803Y-87.683
X275.59Y-82.55
X278.956Y-44.263
X284.48Y-82.55
T2
X141.01Y-85.09
X143.51Y-27.94
X143.51Y-30.48
X143.51Y-33.02
X143.51Y-35.56
X143.51Y-38.1
X143.51Y-40.64
X143.51Y-43.18
X143.51Y-45.72
X143.51Y-48.26
X143.51Y-50.8
X143.51Y-53.34
X143.51Y-55.88
X143.51Y-58.42
X143.51Y-60.96
X143.51Y-63.5
X143.51Y-66.04
X143.51Y-68.58
X143.51Y-71.12
X143.51Y-73.66
X143.51Y-76.2
X143.51Y-85.09
X147.32Y-96.52
X147.32Y-104.14
X147.32Y-109.22
X147.32Y-111.76
X147.32Y-114.3
X147.32Y-116.84
X147.32Y-119.38
X147.32Y-121.92
X148.77Y-85.09
X149.86Y-96.52
X149.86Y-104.14
X152.4Y-96.52
X152.4Y-104.14
X153.67Y-85.09
X154.94Y-96.52
X154.94Y-104.14
X157.48Y-96.52
X157.48Y-104.14
X158.75Y-27.94
X158.75Y-30.48
X158.75Y-33.02
X158.75Y-35.56
X158.75Y-38.1
X158.75Y-40.64
X158.75Y-43.18
X158.75Y-45.72
X158.75Y-48.26
X158.75Y-50.8
X158.75Y-53.34
X158.75Y-55.88
X158.75Y-58.42
X158.75Y-60.96
X158.75Y-63.5
X158.75Y-66.04
X158.75Y-68.58
X158.75Y-71.12
X158.75Y-73.66
X158.75Y-76.2
X158.75Y-85.09
X160.02Y-96.52
X160.02Y-104.14
X161.25Y-85.09
X162.56Y-96.52
X162.56Y-104.14
X166.41Y-21.59
X168.91Y-21.59
X168.91Y-27.94
X168.91Y-30.48
X168.91Y-33.02
X168.91Y-35.56
X168.91Y-38.1
X168.91Y-40.64
X168.91Y-43.18
X168.91Y-45.72
X168.91Y-48.26
X168.91Y-50.8
X168.91Y-53.34
X168.91Y-58.46
X168.91Y-60.96
X168.91Y-66.04
X168.91Y-68.58
X168.91Y-71.12
X168.91Y-73.66
X168.91Y-76.2
X168.91Y-101.64
X168.91Y-104.14
X175.26Y-102.87
X175.3Y-115.57
X177.76Y-102.87
X177.8Y-27.94
X177.8Y-30.48
X177.8Y-33.02
X177.8Y-35.56
X177.8Y-38.1
X177.8Y-40.64
X177.8Y-43.18
X177.8Y-45.72
X177.8Y-48.26
X177.8Y-50.8
X177.8Y-53.34
X177.8Y-55.88
X177.8Y-58.42
X177.8Y-60.96
X177.8Y-63.5
X177.8Y-66.04
X177.8Y-68.58
X177.8Y-71.12
X177.8Y-73.66
X177.8Y-76.2
X177.8Y-78.74
X177.8Y-81.28
X177.8Y-83.82
X177.8Y-86.36
X177.8Y-115.57
X193.04Y-27.94
X193.04Y-30.48
X193.04Y-33.02
X193.04Y-35.56
X193.04Y-38.1
X193.04Y-40.64
X193.04Y-43.18
X193.04Y-45.72
X193.04Y-48.26
X193.04Y-50.8
X193.04Y-53.34
X193.04Y-55.88
X193.04Y-58.42
X193.04Y-60.96
X193.04Y-63.5
X193.04Y-66.04
X193.04Y-68.58
X193.04Y-71.12
X193.04Y-73.66
X193.04Y-76.2
X193.04Y-78.74
X193.04Y-81.28
X193.04Y-83.82
X193.04Y-86.36
X198.12Y-102.87
X200.62Y-102.87
X203.2Y-27.94
X203.2Y-30.48
X203.2Y-33.02
X203.2Y-35.56
X203.2Y-38.1
X203.2Y-40.64
X203.2Y-43.18
X203.2Y-45.72
X203.2Y-48.26
X203.2Y-50.8
X203.2Y-63.5
X203.2Y-66.04
X203.2Y-68.58
X203.2Y-71.12
X203.2Y-73.66
X203.2Y-76.2
X203.2Y-78.74
X203.2Y-81.28
X203.2Y-83.82
X203.2Y-86.36
X208.32Y-21.59
X208.32Y-57.15
X210.82Y-21.59
X210.82Y-27.94
X210.82Y-30.48
X210.82Y-33.02
X210.82Y-35.56
X210.82Y-38.1
X210.82Y-40.64
X210.82Y-43.18
X210.82Y-45.72
X210.82Y-48.26
X210.82Y-50.8
X210.82Y-57.15
X210.82Y-63.5
X210.82Y-66.04
X210.82Y-68.58
X210.82Y-71.12
X210.82Y-73.66
X210.82Y-76.2
X210.82Y-78.74
X210.82Y-81.28
X210.82Y-83.82
X210.82Y-86.36
X217.21Y-90.17
X219.71Y-76.2
X219.71Y-83.82
X219.71Y-90.17
X220.805Y-28.245
X220.805Y-30.785
X220.805Y-33.325
X220.805Y-35.865
X220.805Y-38.405
X220.805Y-40.945
X220.805Y-43.485
X220.805Y-46.025
X220.805Y-48.565
X220.805Y-51.105
X220.805Y-53.645
X220.805Y-56.185
X220.805Y-58.725
X220.805Y-61.265
X220.805Y-63.805
X220.805Y-66.345
X221.02Y-102.87
X223.52Y-102.87
X229.87Y-100.33
X229.87Y-102.83
X233.68Y-21.59
X234.95Y-76.2
X234.95Y-83.82
X236.045Y-28.245
X236.045Y-30.785
X236.045Y-33.325
X236.045Y-35.865
X236.045Y-38.405
X236.045Y-40.945
X236.045Y-43.485
X236.045Y-46.025
X236.045Y-48.565
X236.045Y-51.105
X236.045Y-53.645
X236.045Y-56.185
X236.045Y-58.725
X236.045Y-61.265
X236.045Y-63.805
X236.045Y-66.345
X236.18Y-21.59
X236.22Y-95.25
X236.22Y-102.87
X238.76Y-95.25
X238.76Y-102.87
X241.3Y-28.245
X241.3Y-30.785
X241.3Y-33.325
X241.3Y-35.865
X241.3Y-38.405
X241.3Y-40.945
X241.3Y-43.485
X241.3Y-46.025
X241.3Y-48.565
X241.3Y-51.105
X241.3Y-53.645
X241.3Y-56.185
X241.3Y-58.725
X241.3Y-61.265
X241.3Y-63.805
X241.3Y-66.345
X241.3Y-95.25
X241.3Y-102.87
X243.84Y-71.16
X243.84Y-73.66
X243.84Y-77.47
X243.84Y-85.09
X243.84Y-88.94
X243.84Y-91.44
X243.84Y-95.25
X243.84Y-102.87
X246.38Y-77.47
X246.38Y-85.09
X246.38Y-95.25
X246.38Y-102.87
X248.92Y-77.47
X248.92Y-85.09
X248.92Y-95.25
X248.92Y-102.87
X251.46Y-77.47
X251.46Y-85.09
X251.46Y-95.25
X251.46Y-102.87
X254.0Y-77.47
X254.0Y-85.09
X254.04Y-21.59
X256.54Y-21.59
X256.54Y-28.245
X256.54Y-30.785
X256.54Y-33.325
X256.54Y-35.865
X256.54Y-38.405
X256.54Y-40.945
X256.54Y-43.485
X256.54Y-46.025
X256.54Y-48.565
X256.54Y-51.105
X256.54Y-53.645
X256.54Y-56.185
X256.54Y-58.725
X256.54Y-61.265
X256.54Y-63.805
X256.54Y-66.345
X256.54Y-77.47
X256.54Y-85.09
X259.08Y-77.47
X259.08Y-85.09
X259.08Y-91.44
X259.08Y-93.98
X259.08Y-96.52
X259.08Y-99.06
X259.08Y-101.6
X259.08Y-111.76
X259.08Y-114.26
X265.43Y-28.245
X265.43Y-30.785
X265.43Y-33.325
X265.43Y-35.865
X265.43Y-38.405
X265.43Y-40.945
X265.43Y-43.485
X265.43Y-46.025
X265.43Y-48.565
X265.43Y-51.105
X265.43Y-53.645
X265.43Y-56.185
X265.43Y-58.725
X265.43Y-61.265
X265.43Y-74.93
X265.43Y-77.43
X265.43Y-99.06
X265.43Y-106.68
X265.47Y-95.25
X267.97Y-95.25
X267.97Y-99.06
X267.97Y-106.68
X270.51Y-99.06
X270.51Y-106.68
X270.55Y-95.25
X271.018Y-80.01
X271.018Y-87.63
X273.05Y-95.25
X273.05Y-99.06
X273.05Y-106.68
X273.558Y-80.01
X273.558Y-87.63
X276.098Y-80.01
X276.098Y-87.63
X278.638Y-80.01
X278.638Y-87.63
X279.4Y-101.64
X279.4Y-104.14
X280.67Y-28.245
X280.67Y-30.785
X280.67Y-33.325
X280.67Y-35.865
X280.67Y-38.405
X280.67Y-40.945
X280.67Y-43.485
X280.67Y-46.025
X280.67Y-48.565
X280.67Y-51.105
X280.67Y-53.645
X280.67Y-56.185
X280.67Y-58.725
X280.67Y-61.265
X287.02Y-27.94
X287.02Y-30.44
T3
X150.31Y-15.24
X152.85Y-15.24
X156.21Y-15.24
X158.75Y-15.24
T4
X243.84Y-109.59
X243.84Y-111.59
X246.34Y-109.59
X246.34Y-111.59
T5
X146.05Y-21.59
X148.59Y-21.59
X151.13Y-21.59
X153.67Y-21.59
X156.21Y-21.59
X158.75Y-21.59
X161.29Y-21.59
X175.26Y-21.59
X177.8Y-21.59
X223.52Y-116.84
X226.06Y-116.84
X228.6Y-116.84
X271.018Y-73.66
X271.018Y-76.2
X273.558Y-73.66
X273.558Y-76.2
X276.098Y-73.66
X276.098Y-76.2
X278.638Y-73.66
X278.638Y-76.2
T6
X185.42Y-115.72
X187.96Y-115.72
X190.5Y-115.72
X208.28Y-102.87
X210.82Y-102.87
X213.36Y-102.87
X265.43Y-112.34
X265.43Y-116.84
X271.93Y-112.34
X271.93Y-116.84
T7
X239.07Y-114.3
X251.11Y-114.3
T5
X208.55Y-110.49G85X210.55Y-110.49
G05
X208.55Y-116.49G85X210.55Y-116.49
G05
X214.25Y-114.49G85X214.25Y-112.49
G05
T0
M30
