G04 #@! TF.GenerationSoftware,KiCad,Pcbnew,(5.1.10)-1*
G04 #@! TF.CreationDate,2021-12-04T16:57:34-06:00*
G04 #@! TF.ProjectId,68k8,36386b38-2e6b-4696-9361-645f70636258,rev?*
G04 #@! TF.SameCoordinates,Original*
G04 #@! TF.FileFunction,Legend,Bot*
G04 #@! TF.FilePolarity,Positive*
%FSLAX46Y46*%
G04 Gerber Fmt 4.6, Leading zero omitted, Abs format (unit mm)*
G04 Created by KiCad (PCBNEW (5.1.10)-1) date 2021-12-04 16:57:34*
%MOMM*%
%LPD*%
G01*
G04 APERTURE LIST*
%ADD10C,0.150000*%
%ADD11C,0.010000*%
%ADD12O,2.200000X2.200000*%
%ADD13R,2.200000X2.200000*%
%ADD14O,1.600000X1.600000*%
%ADD15C,1.600000*%
%ADD16C,1.800000*%
%ADD17R,1.800000X1.800000*%
%ADD18R,3.500000X3.500000*%
%ADD19R,2.400000X1.600000*%
%ADD20O,2.400000X1.600000*%
%ADD21C,4.000000*%
%ADD22R,1.600000X1.600000*%
%ADD23R,1.700000X1.700000*%
%ADD24O,1.700000X1.700000*%
%ADD25C,1.700000*%
%ADD26C,3.500000*%
%ADD27C,2.000000*%
%ADD28O,3.500000X3.500000*%
%ADD29R,1.905000X2.000000*%
%ADD30O,1.905000X2.000000*%
%ADD31R,1.600000X2.400000*%
%ADD32O,1.600000X2.400000*%
%ADD33C,1.500000*%
G04 APERTURE END LIST*
D10*
X253568476Y-15636761D02*
X253568476Y-13636761D01*
X252711333Y-15636761D02*
X252711333Y-14589142D01*
X252806571Y-14398666D01*
X252997047Y-14303428D01*
X253282761Y-14303428D01*
X253473238Y-14398666D01*
X253568476Y-14493904D01*
X252044666Y-14303428D02*
X251282761Y-14303428D01*
X251758952Y-13636761D02*
X251758952Y-15351047D01*
X251663714Y-15541523D01*
X251473238Y-15636761D01*
X251282761Y-15636761D01*
X250901809Y-14303428D02*
X250139904Y-14303428D01*
X250616095Y-13636761D02*
X250616095Y-15351047D01*
X250520857Y-15541523D01*
X250330380Y-15636761D01*
X250139904Y-15636761D01*
X249473238Y-14303428D02*
X249473238Y-16303428D01*
X249473238Y-14398666D02*
X249282761Y-14303428D01*
X248901809Y-14303428D01*
X248711333Y-14398666D01*
X248616095Y-14493904D01*
X248520857Y-14684380D01*
X248520857Y-15255809D01*
X248616095Y-15446285D01*
X248711333Y-15541523D01*
X248901809Y-15636761D01*
X249282761Y-15636761D01*
X249473238Y-15541523D01*
X247758952Y-15541523D02*
X247568476Y-15636761D01*
X247187523Y-15636761D01*
X246997047Y-15541523D01*
X246901809Y-15351047D01*
X246901809Y-15255809D01*
X246997047Y-15065333D01*
X247187523Y-14970095D01*
X247473238Y-14970095D01*
X247663714Y-14874857D01*
X247758952Y-14684380D01*
X247758952Y-14589142D01*
X247663714Y-14398666D01*
X247473238Y-14303428D01*
X247187523Y-14303428D01*
X246997047Y-14398666D01*
X246044666Y-15446285D02*
X245949428Y-15541523D01*
X246044666Y-15636761D01*
X246139904Y-15541523D01*
X246044666Y-15446285D01*
X246044666Y-15636761D01*
X246044666Y-14398666D02*
X245949428Y-14493904D01*
X246044666Y-14589142D01*
X246139904Y-14493904D01*
X246044666Y-14398666D01*
X246044666Y-14589142D01*
X243663714Y-13541523D02*
X245378000Y-16112952D01*
X241568476Y-13541523D02*
X243282761Y-16112952D01*
X240044666Y-14303428D02*
X240044666Y-15922476D01*
X240139904Y-16112952D01*
X240235142Y-16208190D01*
X240425619Y-16303428D01*
X240711333Y-16303428D01*
X240901809Y-16208190D01*
X240044666Y-15541523D02*
X240235142Y-15636761D01*
X240616095Y-15636761D01*
X240806571Y-15541523D01*
X240901809Y-15446285D01*
X240997047Y-15255809D01*
X240997047Y-14684380D01*
X240901809Y-14493904D01*
X240806571Y-14398666D01*
X240616095Y-14303428D01*
X240235142Y-14303428D01*
X240044666Y-14398666D01*
X239092285Y-15636761D02*
X239092285Y-14303428D01*
X239092285Y-13636761D02*
X239187523Y-13732000D01*
X239092285Y-13827238D01*
X238997047Y-13732000D01*
X239092285Y-13636761D01*
X239092285Y-13827238D01*
X238425619Y-14303428D02*
X237663714Y-14303428D01*
X238139904Y-13636761D02*
X238139904Y-15351047D01*
X238044666Y-15541523D01*
X237854190Y-15636761D01*
X237663714Y-15636761D01*
X236997047Y-15636761D02*
X236997047Y-13636761D01*
X236139904Y-15636761D02*
X236139904Y-14589142D01*
X236235142Y-14398666D01*
X236425619Y-14303428D01*
X236711333Y-14303428D01*
X236901809Y-14398666D01*
X236997047Y-14493904D01*
X234330380Y-14303428D02*
X234330380Y-15636761D01*
X235187523Y-14303428D02*
X235187523Y-15351047D01*
X235092285Y-15541523D01*
X234901809Y-15636761D01*
X234616095Y-15636761D01*
X234425619Y-15541523D01*
X234330380Y-15446285D01*
X233378000Y-15636761D02*
X233378000Y-13636761D01*
X233378000Y-14398666D02*
X233187523Y-14303428D01*
X232806571Y-14303428D01*
X232616095Y-14398666D01*
X232520857Y-14493904D01*
X232425619Y-14684380D01*
X232425619Y-15255809D01*
X232520857Y-15446285D01*
X232616095Y-15541523D01*
X232806571Y-15636761D01*
X233187523Y-15636761D01*
X233378000Y-15541523D01*
X231568476Y-15446285D02*
X231473238Y-15541523D01*
X231568476Y-15636761D01*
X231663714Y-15541523D01*
X231568476Y-15446285D01*
X231568476Y-15636761D01*
X229758952Y-15541523D02*
X229949428Y-15636761D01*
X230330380Y-15636761D01*
X230520857Y-15541523D01*
X230616095Y-15446285D01*
X230711333Y-15255809D01*
X230711333Y-14684380D01*
X230616095Y-14493904D01*
X230520857Y-14398666D01*
X230330380Y-14303428D01*
X229949428Y-14303428D01*
X229758952Y-14398666D01*
X228616095Y-15636761D02*
X228806571Y-15541523D01*
X228901809Y-15446285D01*
X228997047Y-15255809D01*
X228997047Y-14684380D01*
X228901809Y-14493904D01*
X228806571Y-14398666D01*
X228616095Y-14303428D01*
X228330380Y-14303428D01*
X228139904Y-14398666D01*
X228044666Y-14493904D01*
X227949428Y-14684380D01*
X227949428Y-15255809D01*
X228044666Y-15446285D01*
X228139904Y-15541523D01*
X228330380Y-15636761D01*
X228616095Y-15636761D01*
X227092285Y-15636761D02*
X227092285Y-14303428D01*
X227092285Y-14493904D02*
X226997047Y-14398666D01*
X226806571Y-14303428D01*
X226520857Y-14303428D01*
X226330380Y-14398666D01*
X226235142Y-14589142D01*
X226235142Y-15636761D01*
X226235142Y-14589142D02*
X226139904Y-14398666D01*
X225949428Y-14303428D01*
X225663714Y-14303428D01*
X225473238Y-14398666D01*
X225378000Y-14589142D01*
X225378000Y-15636761D01*
X222997047Y-13541523D02*
X224711333Y-16112952D01*
X221473238Y-15636761D02*
X221473238Y-14589142D01*
X221568476Y-14398666D01*
X221758952Y-14303428D01*
X222139904Y-14303428D01*
X222330380Y-14398666D01*
X221473238Y-15541523D02*
X221663714Y-15636761D01*
X222139904Y-15636761D01*
X222330380Y-15541523D01*
X222425619Y-15351047D01*
X222425619Y-15160571D01*
X222330380Y-14970095D01*
X222139904Y-14874857D01*
X221663714Y-14874857D01*
X221473238Y-14779619D01*
X220520857Y-14303428D02*
X220520857Y-15636761D01*
X220520857Y-14493904D02*
X220425619Y-14398666D01*
X220235142Y-14303428D01*
X219949428Y-14303428D01*
X219758952Y-14398666D01*
X219663714Y-14589142D01*
X219663714Y-15636761D01*
X218711333Y-14303428D02*
X218711333Y-16017714D01*
X218806571Y-16208190D01*
X218997047Y-16303428D01*
X219092285Y-16303428D01*
X218711333Y-13636761D02*
X218806571Y-13732000D01*
X218711333Y-13827238D01*
X218616095Y-13732000D01*
X218711333Y-13636761D01*
X218711333Y-13827238D01*
X216997047Y-15541523D02*
X217187523Y-15636761D01*
X217568476Y-15636761D01*
X217758952Y-15541523D01*
X217854190Y-15351047D01*
X217854190Y-14589142D01*
X217758952Y-14398666D01*
X217568476Y-14303428D01*
X217187523Y-14303428D01*
X216997047Y-14398666D01*
X216901809Y-14589142D01*
X216901809Y-14779619D01*
X217854190Y-14970095D01*
X216044666Y-14303428D02*
X216044666Y-15636761D01*
X216044666Y-14493904D02*
X215949428Y-14398666D01*
X215758952Y-14303428D01*
X215473238Y-14303428D01*
X215282761Y-14398666D01*
X215187523Y-14589142D01*
X215187523Y-15636761D01*
X214235142Y-14303428D02*
X214235142Y-15636761D01*
X214235142Y-14493904D02*
X214139904Y-14398666D01*
X213949428Y-14303428D01*
X213663714Y-14303428D01*
X213473238Y-14398666D01*
X213378000Y-14589142D01*
X213378000Y-15636761D01*
X212425619Y-15636761D02*
X212425619Y-14303428D01*
X212425619Y-13636761D02*
X212520857Y-13732000D01*
X212425619Y-13827238D01*
X212330380Y-13732000D01*
X212425619Y-13636761D01*
X212425619Y-13827238D01*
X211473238Y-14303428D02*
X211473238Y-15636761D01*
X211473238Y-14493904D02*
X211378000Y-14398666D01*
X211187523Y-14303428D01*
X210901809Y-14303428D01*
X210711333Y-14398666D01*
X210616095Y-14589142D01*
X210616095Y-15636761D01*
X208806571Y-14303428D02*
X208806571Y-15922476D01*
X208901809Y-16112952D01*
X208997047Y-16208190D01*
X209187523Y-16303428D01*
X209473238Y-16303428D01*
X209663714Y-16208190D01*
X208806571Y-15541523D02*
X208997047Y-15636761D01*
X209378000Y-15636761D01*
X209568476Y-15541523D01*
X209663714Y-15446285D01*
X209758952Y-15255809D01*
X209758952Y-14684380D01*
X209663714Y-14493904D01*
X209568476Y-14398666D01*
X209378000Y-14303428D01*
X208997047Y-14303428D01*
X208806571Y-14398666D01*
X207949428Y-15541523D02*
X207758952Y-15636761D01*
X207378000Y-15636761D01*
X207187523Y-15541523D01*
X207092285Y-15351047D01*
X207092285Y-15255809D01*
X207187523Y-15065333D01*
X207378000Y-14970095D01*
X207663714Y-14970095D01*
X207854190Y-14874857D01*
X207949428Y-14684380D01*
X207949428Y-14589142D01*
X207854190Y-14398666D01*
X207663714Y-14303428D01*
X207378000Y-14303428D01*
X207187523Y-14398666D01*
D11*
G36*
X265836400Y-12475054D02*
G01*
X265825535Y-12588993D01*
X265793918Y-12696616D01*
X265743015Y-12795615D01*
X265674293Y-12883684D01*
X265589219Y-12958516D01*
X265492232Y-13016384D01*
X265385964Y-13056005D01*
X265278950Y-13074573D01*
X265173300Y-13073434D01*
X265071125Y-13053930D01*
X264974534Y-13017406D01*
X264885638Y-12965205D01*
X264806546Y-12898673D01*
X264739369Y-12819152D01*
X264686217Y-12727987D01*
X264649199Y-12626523D01*
X264630427Y-12516102D01*
X264628489Y-12466206D01*
X264628489Y-12378267D01*
X264576560Y-12378267D01*
X264540253Y-12381111D01*
X264513355Y-12392911D01*
X264486249Y-12416649D01*
X264447867Y-12455031D01*
X264447867Y-14646602D01*
X264447876Y-14908739D01*
X264447908Y-15149241D01*
X264447972Y-15369048D01*
X264448076Y-15569101D01*
X264448227Y-15750344D01*
X264448434Y-15913716D01*
X264448706Y-16060160D01*
X264449050Y-16190617D01*
X264449474Y-16306029D01*
X264449987Y-16407338D01*
X264450597Y-16495484D01*
X264451312Y-16571410D01*
X264452140Y-16636057D01*
X264453089Y-16690367D01*
X264454167Y-16735280D01*
X264455383Y-16771740D01*
X264456745Y-16800687D01*
X264458261Y-16823063D01*
X264459938Y-16839809D01*
X264461786Y-16851868D01*
X264463813Y-16860180D01*
X264466025Y-16865687D01*
X264467108Y-16867537D01*
X264471271Y-16874549D01*
X264474805Y-16880996D01*
X264478635Y-16886900D01*
X264483682Y-16892286D01*
X264490871Y-16897178D01*
X264501123Y-16901598D01*
X264515364Y-16905572D01*
X264534514Y-16909121D01*
X264559499Y-16912270D01*
X264591240Y-16915042D01*
X264630662Y-16917461D01*
X264678686Y-16919551D01*
X264736237Y-16921335D01*
X264804237Y-16922837D01*
X264883610Y-16924080D01*
X264975279Y-16925089D01*
X265080166Y-16925885D01*
X265199196Y-16926494D01*
X265333290Y-16926939D01*
X265483373Y-16927243D01*
X265650367Y-16927430D01*
X265835196Y-16927524D01*
X266038783Y-16927548D01*
X266262050Y-16927525D01*
X266505922Y-16927480D01*
X266771321Y-16927437D01*
X266809704Y-16927432D01*
X267076682Y-16927389D01*
X267322002Y-16927318D01*
X267546583Y-16927213D01*
X267751345Y-16927066D01*
X267937206Y-16926869D01*
X268105088Y-16926616D01*
X268255908Y-16926300D01*
X268390587Y-16925913D01*
X268510044Y-16925447D01*
X268615199Y-16924897D01*
X268706971Y-16924253D01*
X268786279Y-16923511D01*
X268854043Y-16922661D01*
X268911182Y-16921697D01*
X268958617Y-16920611D01*
X268997266Y-16919397D01*
X269028049Y-16918047D01*
X269051885Y-16916555D01*
X269069694Y-16914911D01*
X269082395Y-16913111D01*
X269090908Y-16911145D01*
X269095266Y-16909477D01*
X269103728Y-16905906D01*
X269111497Y-16903270D01*
X269118602Y-16900634D01*
X269125073Y-16897062D01*
X269130939Y-16891621D01*
X269136229Y-16883375D01*
X269140974Y-16871390D01*
X269145202Y-16854731D01*
X269148943Y-16832463D01*
X269152227Y-16803652D01*
X269155083Y-16767363D01*
X269157540Y-16722661D01*
X269159629Y-16668611D01*
X269161378Y-16604279D01*
X269162817Y-16528730D01*
X269163976Y-16441030D01*
X269164883Y-16340243D01*
X269165569Y-16225434D01*
X269166063Y-16095670D01*
X269166395Y-15950015D01*
X269166593Y-15787535D01*
X269166687Y-15607295D01*
X269166708Y-15408360D01*
X269166685Y-15189796D01*
X269166646Y-14950668D01*
X269166622Y-14690040D01*
X269166622Y-14647889D01*
X269166636Y-14384992D01*
X269166661Y-14143732D01*
X269166671Y-13923165D01*
X269166642Y-13722352D01*
X269166548Y-13540349D01*
X269166362Y-13376216D01*
X269166059Y-13229011D01*
X269165614Y-13097792D01*
X269165034Y-12987867D01*
X268862197Y-12987867D01*
X268822407Y-13045711D01*
X268811236Y-13061479D01*
X268801166Y-13075441D01*
X268792138Y-13088784D01*
X268784097Y-13102693D01*
X268776986Y-13118356D01*
X268770747Y-13136958D01*
X268765325Y-13159686D01*
X268760662Y-13187727D01*
X268756701Y-13222267D01*
X268753385Y-13264492D01*
X268750659Y-13315589D01*
X268748464Y-13376744D01*
X268746745Y-13449144D01*
X268745444Y-13533975D01*
X268744505Y-13632422D01*
X268743870Y-13745674D01*
X268743484Y-13874916D01*
X268743288Y-14021334D01*
X268743227Y-14186116D01*
X268743243Y-14370447D01*
X268743280Y-14575513D01*
X268743289Y-14698133D01*
X268743265Y-14915082D01*
X268743231Y-15110642D01*
X268743243Y-15285999D01*
X268743358Y-15442341D01*
X268743630Y-15580857D01*
X268744118Y-15702734D01*
X268744876Y-15809160D01*
X268745962Y-15901322D01*
X268747431Y-15980409D01*
X268749340Y-16047608D01*
X268751744Y-16104107D01*
X268754701Y-16151093D01*
X268758266Y-16189755D01*
X268762495Y-16221280D01*
X268767446Y-16246855D01*
X268773173Y-16267670D01*
X268779733Y-16284911D01*
X268787183Y-16299765D01*
X268795579Y-16313422D01*
X268804976Y-16327069D01*
X268815432Y-16341893D01*
X268821523Y-16350783D01*
X268860296Y-16408400D01*
X268328732Y-16408400D01*
X268205483Y-16408365D01*
X268102987Y-16408215D01*
X268019420Y-16407878D01*
X267952956Y-16407286D01*
X267901771Y-16406367D01*
X267864041Y-16405051D01*
X267837940Y-16403269D01*
X267821644Y-16400951D01*
X267813328Y-16398026D01*
X267811168Y-16394424D01*
X267813339Y-16390075D01*
X267814535Y-16388645D01*
X267839685Y-16351573D01*
X267865583Y-16298772D01*
X267889192Y-16236770D01*
X267897461Y-16210357D01*
X267902078Y-16192416D01*
X267905979Y-16171355D01*
X267909248Y-16145089D01*
X267911966Y-16111532D01*
X267914215Y-16068599D01*
X267916077Y-16014204D01*
X267917636Y-15946262D01*
X267918972Y-15862688D01*
X267920169Y-15761395D01*
X267921308Y-15640300D01*
X267921685Y-15595600D01*
X267922702Y-15470449D01*
X267923460Y-15366082D01*
X267923903Y-15280707D01*
X267923970Y-15212533D01*
X267923605Y-15159765D01*
X267922748Y-15120614D01*
X267921341Y-15093285D01*
X267919325Y-15075986D01*
X267916643Y-15066926D01*
X267913236Y-15064312D01*
X267909044Y-15066351D01*
X267904571Y-15070667D01*
X267894216Y-15083602D01*
X267872158Y-15112676D01*
X267839957Y-15155759D01*
X267799174Y-15210718D01*
X267751370Y-15275423D01*
X267698105Y-15347742D01*
X267640940Y-15425544D01*
X267581437Y-15506698D01*
X267521155Y-15589072D01*
X267461655Y-15670536D01*
X267404498Y-15748957D01*
X267351245Y-15822204D01*
X267303457Y-15888147D01*
X267262693Y-15944654D01*
X267230516Y-15989593D01*
X267208485Y-16020834D01*
X267203917Y-16027466D01*
X267180996Y-16064369D01*
X267154188Y-16112359D01*
X267128789Y-16161897D01*
X267125568Y-16168577D01*
X267103890Y-16216772D01*
X267091304Y-16254334D01*
X267085574Y-16290160D01*
X267084456Y-16332200D01*
X267085090Y-16408400D01*
X265930651Y-16408400D01*
X266021815Y-16314669D01*
X266068612Y-16264775D01*
X266118899Y-16208295D01*
X266164944Y-16154026D01*
X266185369Y-16128673D01*
X266215807Y-16089128D01*
X266255862Y-16035916D01*
X266304361Y-15970667D01*
X266360135Y-15895011D01*
X266422011Y-15810577D01*
X266488819Y-15718994D01*
X266559387Y-15621892D01*
X266632545Y-15520901D01*
X266707121Y-15417650D01*
X266781944Y-15313768D01*
X266855843Y-15210885D01*
X266927646Y-15110631D01*
X266996184Y-15014636D01*
X267060284Y-14924527D01*
X267118775Y-14841936D01*
X267170486Y-14768492D01*
X267214247Y-14705824D01*
X267248885Y-14655561D01*
X267273230Y-14619334D01*
X267286111Y-14598771D01*
X267287869Y-14594668D01*
X267279910Y-14583342D01*
X267259115Y-14556162D01*
X267226847Y-14514829D01*
X267184470Y-14461044D01*
X267133347Y-14396506D01*
X267074841Y-14322918D01*
X267010314Y-14241978D01*
X266941131Y-14155388D01*
X266868653Y-14064848D01*
X266794246Y-13972060D01*
X266734517Y-13897702D01*
X265723511Y-13897702D01*
X265717602Y-13910659D01*
X265703272Y-13932908D01*
X265702225Y-13934391D01*
X265683438Y-13964544D01*
X265663791Y-14001375D01*
X265659892Y-14009511D01*
X265656356Y-14017940D01*
X265653230Y-14028059D01*
X265650486Y-14041260D01*
X265648092Y-14058938D01*
X265646019Y-14082484D01*
X265644235Y-14113293D01*
X265642712Y-14152757D01*
X265641419Y-14202269D01*
X265640326Y-14263223D01*
X265639403Y-14337011D01*
X265638619Y-14425028D01*
X265637945Y-14528665D01*
X265637350Y-14649316D01*
X265636805Y-14788374D01*
X265636279Y-14947232D01*
X265635745Y-15126089D01*
X265635206Y-15311207D01*
X265634772Y-15475145D01*
X265634509Y-15619303D01*
X265634484Y-15745079D01*
X265634765Y-15853871D01*
X265635419Y-15947077D01*
X265636514Y-16026097D01*
X265638118Y-16092328D01*
X265640297Y-16147170D01*
X265643119Y-16192021D01*
X265646651Y-16228278D01*
X265650961Y-16257341D01*
X265656117Y-16280609D01*
X265662185Y-16299479D01*
X265669233Y-16315351D01*
X265677329Y-16329622D01*
X265686540Y-16343691D01*
X265695040Y-16356158D01*
X265712176Y-16382452D01*
X265722322Y-16400037D01*
X265723511Y-16403257D01*
X265712604Y-16404334D01*
X265681411Y-16405335D01*
X265632223Y-16406235D01*
X265567333Y-16407010D01*
X265489030Y-16407637D01*
X265399607Y-16408091D01*
X265301356Y-16408349D01*
X265232445Y-16408400D01*
X265127452Y-16408180D01*
X265030610Y-16407548D01*
X264944107Y-16406549D01*
X264870132Y-16405227D01*
X264810874Y-16403626D01*
X264768520Y-16401791D01*
X264745260Y-16399765D01*
X264741378Y-16398493D01*
X264749076Y-16383591D01*
X264757074Y-16375560D01*
X264770246Y-16358434D01*
X264787485Y-16328183D01*
X264799407Y-16303622D01*
X264826045Y-16244711D01*
X264829120Y-15067845D01*
X264832195Y-13890978D01*
X265277853Y-13890978D01*
X265375670Y-13891142D01*
X265466064Y-13891611D01*
X265546630Y-13892347D01*
X265614962Y-13893316D01*
X265668656Y-13894480D01*
X265705305Y-13895803D01*
X265722504Y-13897249D01*
X265723511Y-13897702D01*
X266734517Y-13897702D01*
X266719270Y-13878722D01*
X266645090Y-13786537D01*
X266573069Y-13697204D01*
X266504569Y-13612424D01*
X266440955Y-13533898D01*
X266383588Y-13463326D01*
X266333833Y-13402409D01*
X266293052Y-13352847D01*
X266275888Y-13332178D01*
X266189596Y-13231516D01*
X266112997Y-13148259D01*
X266044183Y-13080438D01*
X265981248Y-13026089D01*
X265971867Y-13018722D01*
X265932356Y-12988117D01*
X267064116Y-12987867D01*
X267058827Y-13035844D01*
X267062130Y-13093188D01*
X267083661Y-13161463D01*
X267123635Y-13241212D01*
X267168943Y-13313495D01*
X267185161Y-13336140D01*
X267213214Y-13373696D01*
X267251430Y-13424021D01*
X267298137Y-13484973D01*
X267351661Y-13554411D01*
X267410331Y-13630194D01*
X267472475Y-13710180D01*
X267536421Y-13792228D01*
X267600495Y-13874196D01*
X267663027Y-13953943D01*
X267722343Y-14029327D01*
X267776771Y-14098207D01*
X267824639Y-14158442D01*
X267864275Y-14207889D01*
X267894006Y-14244408D01*
X267912161Y-14265858D01*
X267915220Y-14269156D01*
X267918079Y-14261149D01*
X267920293Y-14230855D01*
X267921857Y-14178556D01*
X267922767Y-14104531D01*
X267923020Y-14009063D01*
X267922613Y-13892434D01*
X267921704Y-13772445D01*
X267920382Y-13640333D01*
X267918857Y-13528594D01*
X267916881Y-13435025D01*
X267914206Y-13357419D01*
X267910582Y-13293574D01*
X267905761Y-13241283D01*
X267899494Y-13198344D01*
X267891532Y-13162551D01*
X267881627Y-13131700D01*
X267869531Y-13103586D01*
X267854993Y-13076005D01*
X267840311Y-13050966D01*
X267802314Y-12987867D01*
X268862197Y-12987867D01*
X269165034Y-12987867D01*
X269165001Y-12981617D01*
X269164195Y-12879544D01*
X269163170Y-12790633D01*
X269161900Y-12713941D01*
X269160360Y-12648527D01*
X269158524Y-12593449D01*
X269156367Y-12547765D01*
X269153863Y-12510534D01*
X269150987Y-12480813D01*
X269147713Y-12457662D01*
X269144015Y-12440139D01*
X269139869Y-12427301D01*
X269135247Y-12418208D01*
X269130126Y-12411918D01*
X269124478Y-12407488D01*
X269118279Y-12403978D01*
X269111504Y-12400445D01*
X269105508Y-12396876D01*
X269100275Y-12394300D01*
X269092099Y-12391972D01*
X269079886Y-12389878D01*
X269062541Y-12388007D01*
X269038969Y-12386347D01*
X269008077Y-12384884D01*
X268968768Y-12383608D01*
X268919950Y-12382504D01*
X268860527Y-12381561D01*
X268789404Y-12380767D01*
X268705488Y-12380109D01*
X268607683Y-12379575D01*
X268494894Y-12379153D01*
X268366029Y-12378829D01*
X268219991Y-12378592D01*
X268055686Y-12378430D01*
X267872020Y-12378330D01*
X267667897Y-12378280D01*
X267456753Y-12378267D01*
X265836400Y-12378267D01*
X265836400Y-12475054D01*
G37*
X265836400Y-12475054D02*
X265825535Y-12588993D01*
X265793918Y-12696616D01*
X265743015Y-12795615D01*
X265674293Y-12883684D01*
X265589219Y-12958516D01*
X265492232Y-13016384D01*
X265385964Y-13056005D01*
X265278950Y-13074573D01*
X265173300Y-13073434D01*
X265071125Y-13053930D01*
X264974534Y-13017406D01*
X264885638Y-12965205D01*
X264806546Y-12898673D01*
X264739369Y-12819152D01*
X264686217Y-12727987D01*
X264649199Y-12626523D01*
X264630427Y-12516102D01*
X264628489Y-12466206D01*
X264628489Y-12378267D01*
X264576560Y-12378267D01*
X264540253Y-12381111D01*
X264513355Y-12392911D01*
X264486249Y-12416649D01*
X264447867Y-12455031D01*
X264447867Y-14646602D01*
X264447876Y-14908739D01*
X264447908Y-15149241D01*
X264447972Y-15369048D01*
X264448076Y-15569101D01*
X264448227Y-15750344D01*
X264448434Y-15913716D01*
X264448706Y-16060160D01*
X264449050Y-16190617D01*
X264449474Y-16306029D01*
X264449987Y-16407338D01*
X264450597Y-16495484D01*
X264451312Y-16571410D01*
X264452140Y-16636057D01*
X264453089Y-16690367D01*
X264454167Y-16735280D01*
X264455383Y-16771740D01*
X264456745Y-16800687D01*
X264458261Y-16823063D01*
X264459938Y-16839809D01*
X264461786Y-16851868D01*
X264463813Y-16860180D01*
X264466025Y-16865687D01*
X264467108Y-16867537D01*
X264471271Y-16874549D01*
X264474805Y-16880996D01*
X264478635Y-16886900D01*
X264483682Y-16892286D01*
X264490871Y-16897178D01*
X264501123Y-16901598D01*
X264515364Y-16905572D01*
X264534514Y-16909121D01*
X264559499Y-16912270D01*
X264591240Y-16915042D01*
X264630662Y-16917461D01*
X264678686Y-16919551D01*
X264736237Y-16921335D01*
X264804237Y-16922837D01*
X264883610Y-16924080D01*
X264975279Y-16925089D01*
X265080166Y-16925885D01*
X265199196Y-16926494D01*
X265333290Y-16926939D01*
X265483373Y-16927243D01*
X265650367Y-16927430D01*
X265835196Y-16927524D01*
X266038783Y-16927548D01*
X266262050Y-16927525D01*
X266505922Y-16927480D01*
X266771321Y-16927437D01*
X266809704Y-16927432D01*
X267076682Y-16927389D01*
X267322002Y-16927318D01*
X267546583Y-16927213D01*
X267751345Y-16927066D01*
X267937206Y-16926869D01*
X268105088Y-16926616D01*
X268255908Y-16926300D01*
X268390587Y-16925913D01*
X268510044Y-16925447D01*
X268615199Y-16924897D01*
X268706971Y-16924253D01*
X268786279Y-16923511D01*
X268854043Y-16922661D01*
X268911182Y-16921697D01*
X268958617Y-16920611D01*
X268997266Y-16919397D01*
X269028049Y-16918047D01*
X269051885Y-16916555D01*
X269069694Y-16914911D01*
X269082395Y-16913111D01*
X269090908Y-16911145D01*
X269095266Y-16909477D01*
X269103728Y-16905906D01*
X269111497Y-16903270D01*
X269118602Y-16900634D01*
X269125073Y-16897062D01*
X269130939Y-16891621D01*
X269136229Y-16883375D01*
X269140974Y-16871390D01*
X269145202Y-16854731D01*
X269148943Y-16832463D01*
X269152227Y-16803652D01*
X269155083Y-16767363D01*
X269157540Y-16722661D01*
X269159629Y-16668611D01*
X269161378Y-16604279D01*
X269162817Y-16528730D01*
X269163976Y-16441030D01*
X269164883Y-16340243D01*
X269165569Y-16225434D01*
X269166063Y-16095670D01*
X269166395Y-15950015D01*
X269166593Y-15787535D01*
X269166687Y-15607295D01*
X269166708Y-15408360D01*
X269166685Y-15189796D01*
X269166646Y-14950668D01*
X269166622Y-14690040D01*
X269166622Y-14647889D01*
X269166636Y-14384992D01*
X269166661Y-14143732D01*
X269166671Y-13923165D01*
X269166642Y-13722352D01*
X269166548Y-13540349D01*
X269166362Y-13376216D01*
X269166059Y-13229011D01*
X269165614Y-13097792D01*
X269165034Y-12987867D01*
X268862197Y-12987867D01*
X268822407Y-13045711D01*
X268811236Y-13061479D01*
X268801166Y-13075441D01*
X268792138Y-13088784D01*
X268784097Y-13102693D01*
X268776986Y-13118356D01*
X268770747Y-13136958D01*
X268765325Y-13159686D01*
X268760662Y-13187727D01*
X268756701Y-13222267D01*
X268753385Y-13264492D01*
X268750659Y-13315589D01*
X268748464Y-13376744D01*
X268746745Y-13449144D01*
X268745444Y-13533975D01*
X268744505Y-13632422D01*
X268743870Y-13745674D01*
X268743484Y-13874916D01*
X268743288Y-14021334D01*
X268743227Y-14186116D01*
X268743243Y-14370447D01*
X268743280Y-14575513D01*
X268743289Y-14698133D01*
X268743265Y-14915082D01*
X268743231Y-15110642D01*
X268743243Y-15285999D01*
X268743358Y-15442341D01*
X268743630Y-15580857D01*
X268744118Y-15702734D01*
X268744876Y-15809160D01*
X268745962Y-15901322D01*
X268747431Y-15980409D01*
X268749340Y-16047608D01*
X268751744Y-16104107D01*
X268754701Y-16151093D01*
X268758266Y-16189755D01*
X268762495Y-16221280D01*
X268767446Y-16246855D01*
X268773173Y-16267670D01*
X268779733Y-16284911D01*
X268787183Y-16299765D01*
X268795579Y-16313422D01*
X268804976Y-16327069D01*
X268815432Y-16341893D01*
X268821523Y-16350783D01*
X268860296Y-16408400D01*
X268328732Y-16408400D01*
X268205483Y-16408365D01*
X268102987Y-16408215D01*
X268019420Y-16407878D01*
X267952956Y-16407286D01*
X267901771Y-16406367D01*
X267864041Y-16405051D01*
X267837940Y-16403269D01*
X267821644Y-16400951D01*
X267813328Y-16398026D01*
X267811168Y-16394424D01*
X267813339Y-16390075D01*
X267814535Y-16388645D01*
X267839685Y-16351573D01*
X267865583Y-16298772D01*
X267889192Y-16236770D01*
X267897461Y-16210357D01*
X267902078Y-16192416D01*
X267905979Y-16171355D01*
X267909248Y-16145089D01*
X267911966Y-16111532D01*
X267914215Y-16068599D01*
X267916077Y-16014204D01*
X267917636Y-15946262D01*
X267918972Y-15862688D01*
X267920169Y-15761395D01*
X267921308Y-15640300D01*
X267921685Y-15595600D01*
X267922702Y-15470449D01*
X267923460Y-15366082D01*
X267923903Y-15280707D01*
X267923970Y-15212533D01*
X267923605Y-15159765D01*
X267922748Y-15120614D01*
X267921341Y-15093285D01*
X267919325Y-15075986D01*
X267916643Y-15066926D01*
X267913236Y-15064312D01*
X267909044Y-15066351D01*
X267904571Y-15070667D01*
X267894216Y-15083602D01*
X267872158Y-15112676D01*
X267839957Y-15155759D01*
X267799174Y-15210718D01*
X267751370Y-15275423D01*
X267698105Y-15347742D01*
X267640940Y-15425544D01*
X267581437Y-15506698D01*
X267521155Y-15589072D01*
X267461655Y-15670536D01*
X267404498Y-15748957D01*
X267351245Y-15822204D01*
X267303457Y-15888147D01*
X267262693Y-15944654D01*
X267230516Y-15989593D01*
X267208485Y-16020834D01*
X267203917Y-16027466D01*
X267180996Y-16064369D01*
X267154188Y-16112359D01*
X267128789Y-16161897D01*
X267125568Y-16168577D01*
X267103890Y-16216772D01*
X267091304Y-16254334D01*
X267085574Y-16290160D01*
X267084456Y-16332200D01*
X267085090Y-16408400D01*
X265930651Y-16408400D01*
X266021815Y-16314669D01*
X266068612Y-16264775D01*
X266118899Y-16208295D01*
X266164944Y-16154026D01*
X266185369Y-16128673D01*
X266215807Y-16089128D01*
X266255862Y-16035916D01*
X266304361Y-15970667D01*
X266360135Y-15895011D01*
X266422011Y-15810577D01*
X266488819Y-15718994D01*
X266559387Y-15621892D01*
X266632545Y-15520901D01*
X266707121Y-15417650D01*
X266781944Y-15313768D01*
X266855843Y-15210885D01*
X266927646Y-15110631D01*
X266996184Y-15014636D01*
X267060284Y-14924527D01*
X267118775Y-14841936D01*
X267170486Y-14768492D01*
X267214247Y-14705824D01*
X267248885Y-14655561D01*
X267273230Y-14619334D01*
X267286111Y-14598771D01*
X267287869Y-14594668D01*
X267279910Y-14583342D01*
X267259115Y-14556162D01*
X267226847Y-14514829D01*
X267184470Y-14461044D01*
X267133347Y-14396506D01*
X267074841Y-14322918D01*
X267010314Y-14241978D01*
X266941131Y-14155388D01*
X266868653Y-14064848D01*
X266794246Y-13972060D01*
X266734517Y-13897702D01*
X265723511Y-13897702D01*
X265717602Y-13910659D01*
X265703272Y-13932908D01*
X265702225Y-13934391D01*
X265683438Y-13964544D01*
X265663791Y-14001375D01*
X265659892Y-14009511D01*
X265656356Y-14017940D01*
X265653230Y-14028059D01*
X265650486Y-14041260D01*
X265648092Y-14058938D01*
X265646019Y-14082484D01*
X265644235Y-14113293D01*
X265642712Y-14152757D01*
X265641419Y-14202269D01*
X265640326Y-14263223D01*
X265639403Y-14337011D01*
X265638619Y-14425028D01*
X265637945Y-14528665D01*
X265637350Y-14649316D01*
X265636805Y-14788374D01*
X265636279Y-14947232D01*
X265635745Y-15126089D01*
X265635206Y-15311207D01*
X265634772Y-15475145D01*
X265634509Y-15619303D01*
X265634484Y-15745079D01*
X265634765Y-15853871D01*
X265635419Y-15947077D01*
X265636514Y-16026097D01*
X265638118Y-16092328D01*
X265640297Y-16147170D01*
X265643119Y-16192021D01*
X265646651Y-16228278D01*
X265650961Y-16257341D01*
X265656117Y-16280609D01*
X265662185Y-16299479D01*
X265669233Y-16315351D01*
X265677329Y-16329622D01*
X265686540Y-16343691D01*
X265695040Y-16356158D01*
X265712176Y-16382452D01*
X265722322Y-16400037D01*
X265723511Y-16403257D01*
X265712604Y-16404334D01*
X265681411Y-16405335D01*
X265632223Y-16406235D01*
X265567333Y-16407010D01*
X265489030Y-16407637D01*
X265399607Y-16408091D01*
X265301356Y-16408349D01*
X265232445Y-16408400D01*
X265127452Y-16408180D01*
X265030610Y-16407548D01*
X264944107Y-16406549D01*
X264870132Y-16405227D01*
X264810874Y-16403626D01*
X264768520Y-16401791D01*
X264745260Y-16399765D01*
X264741378Y-16398493D01*
X264749076Y-16383591D01*
X264757074Y-16375560D01*
X264770246Y-16358434D01*
X264787485Y-16328183D01*
X264799407Y-16303622D01*
X264826045Y-16244711D01*
X264829120Y-15067845D01*
X264832195Y-13890978D01*
X265277853Y-13890978D01*
X265375670Y-13891142D01*
X265466064Y-13891611D01*
X265546630Y-13892347D01*
X265614962Y-13893316D01*
X265668656Y-13894480D01*
X265705305Y-13895803D01*
X265722504Y-13897249D01*
X265723511Y-13897702D01*
X266734517Y-13897702D01*
X266719270Y-13878722D01*
X266645090Y-13786537D01*
X266573069Y-13697204D01*
X266504569Y-13612424D01*
X266440955Y-13533898D01*
X266383588Y-13463326D01*
X266333833Y-13402409D01*
X266293052Y-13352847D01*
X266275888Y-13332178D01*
X266189596Y-13231516D01*
X266112997Y-13148259D01*
X266044183Y-13080438D01*
X265981248Y-13026089D01*
X265971867Y-13018722D01*
X265932356Y-12988117D01*
X267064116Y-12987867D01*
X267058827Y-13035844D01*
X267062130Y-13093188D01*
X267083661Y-13161463D01*
X267123635Y-13241212D01*
X267168943Y-13313495D01*
X267185161Y-13336140D01*
X267213214Y-13373696D01*
X267251430Y-13424021D01*
X267298137Y-13484973D01*
X267351661Y-13554411D01*
X267410331Y-13630194D01*
X267472475Y-13710180D01*
X267536421Y-13792228D01*
X267600495Y-13874196D01*
X267663027Y-13953943D01*
X267722343Y-14029327D01*
X267776771Y-14098207D01*
X267824639Y-14158442D01*
X267864275Y-14207889D01*
X267894006Y-14244408D01*
X267912161Y-14265858D01*
X267915220Y-14269156D01*
X267918079Y-14261149D01*
X267920293Y-14230855D01*
X267921857Y-14178556D01*
X267922767Y-14104531D01*
X267923020Y-14009063D01*
X267922613Y-13892434D01*
X267921704Y-13772445D01*
X267920382Y-13640333D01*
X267918857Y-13528594D01*
X267916881Y-13435025D01*
X267914206Y-13357419D01*
X267910582Y-13293574D01*
X267905761Y-13241283D01*
X267899494Y-13198344D01*
X267891532Y-13162551D01*
X267881627Y-13131700D01*
X267869531Y-13103586D01*
X267854993Y-13076005D01*
X267840311Y-13050966D01*
X267802314Y-12987867D01*
X268862197Y-12987867D01*
X269165034Y-12987867D01*
X269165001Y-12981617D01*
X269164195Y-12879544D01*
X269163170Y-12790633D01*
X269161900Y-12713941D01*
X269160360Y-12648527D01*
X269158524Y-12593449D01*
X269156367Y-12547765D01*
X269153863Y-12510534D01*
X269150987Y-12480813D01*
X269147713Y-12457662D01*
X269144015Y-12440139D01*
X269139869Y-12427301D01*
X269135247Y-12418208D01*
X269130126Y-12411918D01*
X269124478Y-12407488D01*
X269118279Y-12403978D01*
X269111504Y-12400445D01*
X269105508Y-12396876D01*
X269100275Y-12394300D01*
X269092099Y-12391972D01*
X269079886Y-12389878D01*
X269062541Y-12388007D01*
X269038969Y-12386347D01*
X269008077Y-12384884D01*
X268968768Y-12383608D01*
X268919950Y-12382504D01*
X268860527Y-12381561D01*
X268789404Y-12380767D01*
X268705488Y-12380109D01*
X268607683Y-12379575D01*
X268494894Y-12379153D01*
X268366029Y-12378829D01*
X268219991Y-12378592D01*
X268055686Y-12378430D01*
X267872020Y-12378330D01*
X267667897Y-12378280D01*
X267456753Y-12378267D01*
X265836400Y-12378267D01*
X265836400Y-12475054D01*
G36*
X262561571Y-12935071D02*
G01*
X262401430Y-12956245D01*
X262237490Y-12996385D01*
X262067687Y-13055889D01*
X261889957Y-13135154D01*
X261878690Y-13140699D01*
X261820995Y-13168725D01*
X261769448Y-13192802D01*
X261727809Y-13211249D01*
X261699838Y-13222386D01*
X261690267Y-13224933D01*
X261671050Y-13229941D01*
X261666439Y-13234147D01*
X261671542Y-13244580D01*
X261687582Y-13270868D01*
X261712712Y-13310257D01*
X261745086Y-13359991D01*
X261782857Y-13417315D01*
X261824178Y-13479476D01*
X261867202Y-13543718D01*
X261910083Y-13607285D01*
X261950974Y-13667425D01*
X261988029Y-13721380D01*
X262019400Y-13766397D01*
X262043241Y-13799721D01*
X262057706Y-13818597D01*
X262059691Y-13820787D01*
X262069809Y-13816138D01*
X262092150Y-13798962D01*
X262122720Y-13772440D01*
X262138464Y-13757964D01*
X262234953Y-13682682D01*
X262341664Y-13627241D01*
X262457168Y-13592141D01*
X262580038Y-13577880D01*
X262649439Y-13579051D01*
X262770577Y-13596212D01*
X262879795Y-13632094D01*
X262977418Y-13686959D01*
X263063772Y-13761070D01*
X263139185Y-13854688D01*
X263203982Y-13968076D01*
X263241399Y-14054667D01*
X263285252Y-14190366D01*
X263317572Y-14337850D01*
X263338443Y-14493314D01*
X263347949Y-14652956D01*
X263346173Y-14812973D01*
X263333197Y-14969561D01*
X263309106Y-15118918D01*
X263273982Y-15257240D01*
X263227908Y-15380724D01*
X263211627Y-15414978D01*
X263143380Y-15529064D01*
X263062921Y-15625557D01*
X262971430Y-15703670D01*
X262870089Y-15762617D01*
X262760080Y-15801612D01*
X262642585Y-15819868D01*
X262601117Y-15821211D01*
X262479559Y-15810290D01*
X262359122Y-15777474D01*
X262241334Y-15723439D01*
X262127723Y-15648865D01*
X262036315Y-15570539D01*
X261989785Y-15526008D01*
X261808517Y-15823271D01*
X261763420Y-15897433D01*
X261722181Y-15965646D01*
X261686265Y-16025459D01*
X261657134Y-16074420D01*
X261636250Y-16110079D01*
X261625076Y-16129984D01*
X261623625Y-16133079D01*
X261631854Y-16142718D01*
X261657433Y-16159999D01*
X261697127Y-16183283D01*
X261747703Y-16210934D01*
X261805926Y-16241315D01*
X261868563Y-16272790D01*
X261932379Y-16303722D01*
X261994140Y-16332473D01*
X262050612Y-16357408D01*
X262098562Y-16376889D01*
X262122014Y-16385318D01*
X262255779Y-16423133D01*
X262393673Y-16448136D01*
X262541378Y-16461140D01*
X262668167Y-16463468D01*
X262736122Y-16462373D01*
X262801723Y-16460275D01*
X262859153Y-16457434D01*
X262902597Y-16454106D01*
X262916702Y-16452422D01*
X263055716Y-16423587D01*
X263197243Y-16378468D01*
X263334725Y-16319750D01*
X263461606Y-16250120D01*
X263539111Y-16197441D01*
X263666519Y-16089239D01*
X263784822Y-15962671D01*
X263891828Y-15820866D01*
X263985348Y-15666951D01*
X264063190Y-15504053D01*
X264107044Y-15386756D01*
X264157292Y-15203128D01*
X264190791Y-15008581D01*
X264207551Y-14807325D01*
X264207584Y-14603568D01*
X264190899Y-14401521D01*
X264157507Y-14205392D01*
X264107420Y-14019391D01*
X264103603Y-14007803D01*
X264040719Y-13845750D01*
X263963972Y-13697832D01*
X263870758Y-13559865D01*
X263758473Y-13427661D01*
X263714608Y-13382399D01*
X263578466Y-13258457D01*
X263438509Y-13155915D01*
X263292589Y-13073656D01*
X263138558Y-13010564D01*
X262974268Y-12965523D01*
X262878711Y-12948033D01*
X262719977Y-12932466D01*
X262561571Y-12935071D01*
G37*
X262561571Y-12935071D02*
X262401430Y-12956245D01*
X262237490Y-12996385D01*
X262067687Y-13055889D01*
X261889957Y-13135154D01*
X261878690Y-13140699D01*
X261820995Y-13168725D01*
X261769448Y-13192802D01*
X261727809Y-13211249D01*
X261699838Y-13222386D01*
X261690267Y-13224933D01*
X261671050Y-13229941D01*
X261666439Y-13234147D01*
X261671542Y-13244580D01*
X261687582Y-13270868D01*
X261712712Y-13310257D01*
X261745086Y-13359991D01*
X261782857Y-13417315D01*
X261824178Y-13479476D01*
X261867202Y-13543718D01*
X261910083Y-13607285D01*
X261950974Y-13667425D01*
X261988029Y-13721380D01*
X262019400Y-13766397D01*
X262043241Y-13799721D01*
X262057706Y-13818597D01*
X262059691Y-13820787D01*
X262069809Y-13816138D01*
X262092150Y-13798962D01*
X262122720Y-13772440D01*
X262138464Y-13757964D01*
X262234953Y-13682682D01*
X262341664Y-13627241D01*
X262457168Y-13592141D01*
X262580038Y-13577880D01*
X262649439Y-13579051D01*
X262770577Y-13596212D01*
X262879795Y-13632094D01*
X262977418Y-13686959D01*
X263063772Y-13761070D01*
X263139185Y-13854688D01*
X263203982Y-13968076D01*
X263241399Y-14054667D01*
X263285252Y-14190366D01*
X263317572Y-14337850D01*
X263338443Y-14493314D01*
X263347949Y-14652956D01*
X263346173Y-14812973D01*
X263333197Y-14969561D01*
X263309106Y-15118918D01*
X263273982Y-15257240D01*
X263227908Y-15380724D01*
X263211627Y-15414978D01*
X263143380Y-15529064D01*
X263062921Y-15625557D01*
X262971430Y-15703670D01*
X262870089Y-15762617D01*
X262760080Y-15801612D01*
X262642585Y-15819868D01*
X262601117Y-15821211D01*
X262479559Y-15810290D01*
X262359122Y-15777474D01*
X262241334Y-15723439D01*
X262127723Y-15648865D01*
X262036315Y-15570539D01*
X261989785Y-15526008D01*
X261808517Y-15823271D01*
X261763420Y-15897433D01*
X261722181Y-15965646D01*
X261686265Y-16025459D01*
X261657134Y-16074420D01*
X261636250Y-16110079D01*
X261625076Y-16129984D01*
X261623625Y-16133079D01*
X261631854Y-16142718D01*
X261657433Y-16159999D01*
X261697127Y-16183283D01*
X261747703Y-16210934D01*
X261805926Y-16241315D01*
X261868563Y-16272790D01*
X261932379Y-16303722D01*
X261994140Y-16332473D01*
X262050612Y-16357408D01*
X262098562Y-16376889D01*
X262122014Y-16385318D01*
X262255779Y-16423133D01*
X262393673Y-16448136D01*
X262541378Y-16461140D01*
X262668167Y-16463468D01*
X262736122Y-16462373D01*
X262801723Y-16460275D01*
X262859153Y-16457434D01*
X262902597Y-16454106D01*
X262916702Y-16452422D01*
X263055716Y-16423587D01*
X263197243Y-16378468D01*
X263334725Y-16319750D01*
X263461606Y-16250120D01*
X263539111Y-16197441D01*
X263666519Y-16089239D01*
X263784822Y-15962671D01*
X263891828Y-15820866D01*
X263985348Y-15666951D01*
X264063190Y-15504053D01*
X264107044Y-15386756D01*
X264157292Y-15203128D01*
X264190791Y-15008581D01*
X264207551Y-14807325D01*
X264207584Y-14603568D01*
X264190899Y-14401521D01*
X264157507Y-14205392D01*
X264107420Y-14019391D01*
X264103603Y-14007803D01*
X264040719Y-13845750D01*
X263963972Y-13697832D01*
X263870758Y-13559865D01*
X263758473Y-13427661D01*
X263714608Y-13382399D01*
X263578466Y-13258457D01*
X263438509Y-13155915D01*
X263292589Y-13073656D01*
X263138558Y-13010564D01*
X262974268Y-12965523D01*
X262878711Y-12948033D01*
X262719977Y-12932466D01*
X262561571Y-12935071D01*
G36*
X260216426Y-13852552D02*
G01*
X260064508Y-13872567D01*
X259929244Y-13906202D01*
X259809761Y-13953725D01*
X259705185Y-14015405D01*
X259627576Y-14078965D01*
X259558735Y-14153099D01*
X259504994Y-14232871D01*
X259462090Y-14325091D01*
X259446616Y-14368161D01*
X259433756Y-14407142D01*
X259422554Y-14443289D01*
X259412880Y-14478434D01*
X259404604Y-14514410D01*
X259397597Y-14553050D01*
X259391728Y-14596185D01*
X259386869Y-14645649D01*
X259382890Y-14703273D01*
X259379660Y-14770891D01*
X259377051Y-14850334D01*
X259374933Y-14943436D01*
X259373176Y-15052027D01*
X259371651Y-15177942D01*
X259370228Y-15323012D01*
X259368975Y-15465778D01*
X259367649Y-15621968D01*
X259366444Y-15757239D01*
X259365234Y-15873246D01*
X259363894Y-15971645D01*
X259362300Y-16054093D01*
X259360325Y-16122246D01*
X259357844Y-16177760D01*
X259354731Y-16222292D01*
X259350862Y-16257498D01*
X259346111Y-16285034D01*
X259340352Y-16306556D01*
X259333461Y-16323722D01*
X259325311Y-16338186D01*
X259315777Y-16351606D01*
X259304734Y-16365638D01*
X259300434Y-16371071D01*
X259284614Y-16393910D01*
X259277578Y-16409463D01*
X259277556Y-16409922D01*
X259288433Y-16412121D01*
X259319418Y-16414147D01*
X259368043Y-16415942D01*
X259431837Y-16417451D01*
X259508331Y-16418616D01*
X259595056Y-16419380D01*
X259689543Y-16419686D01*
X259700450Y-16419689D01*
X260123343Y-16419689D01*
X260126605Y-16323622D01*
X260129867Y-16227556D01*
X260191956Y-16278543D01*
X260289286Y-16346057D01*
X260399187Y-16400749D01*
X260485651Y-16430978D01*
X260554722Y-16445666D01*
X260638075Y-16455659D01*
X260727841Y-16460646D01*
X260816155Y-16460313D01*
X260895149Y-16454351D01*
X260931378Y-16448638D01*
X261071397Y-16410776D01*
X261197822Y-16355932D01*
X261309740Y-16284924D01*
X261406238Y-16198568D01*
X261486400Y-16097679D01*
X261549313Y-15983076D01*
X261593688Y-15856984D01*
X261606022Y-15800401D01*
X261613632Y-15738202D01*
X261617261Y-15663363D01*
X261617755Y-15629467D01*
X261617690Y-15626282D01*
X260857752Y-15626282D01*
X260848459Y-15701333D01*
X260820272Y-15765160D01*
X260771803Y-15820798D01*
X260766746Y-15825211D01*
X260718452Y-15860037D01*
X260666743Y-15882620D01*
X260606011Y-15894540D01*
X260530648Y-15897383D01*
X260512541Y-15896978D01*
X260458722Y-15894325D01*
X260418692Y-15888909D01*
X260383676Y-15878745D01*
X260344897Y-15861850D01*
X260334255Y-15856672D01*
X260273604Y-15820844D01*
X260226785Y-15778212D01*
X260214048Y-15762973D01*
X260169378Y-15706462D01*
X260169378Y-15510586D01*
X260169914Y-15431939D01*
X260171604Y-15373988D01*
X260174572Y-15334875D01*
X260178943Y-15312741D01*
X260183028Y-15306274D01*
X260198953Y-15303111D01*
X260232736Y-15300488D01*
X260279660Y-15298655D01*
X260335007Y-15297857D01*
X260343894Y-15297842D01*
X260464670Y-15303096D01*
X260567340Y-15319263D01*
X260653894Y-15346961D01*
X260726319Y-15386808D01*
X260781249Y-15433758D01*
X260825796Y-15491645D01*
X260850520Y-15554693D01*
X260857752Y-15626282D01*
X261617690Y-15626282D01*
X261615822Y-15535712D01*
X261607478Y-15456812D01*
X261591232Y-15385590D01*
X261565595Y-15314864D01*
X261541599Y-15262493D01*
X261482980Y-15167196D01*
X261404883Y-15079170D01*
X261309685Y-15000017D01*
X261199762Y-14931340D01*
X261077490Y-14874741D01*
X260945245Y-14831821D01*
X260880578Y-14816882D01*
X260744396Y-14794777D01*
X260595951Y-14780194D01*
X260444495Y-14773813D01*
X260317936Y-14775445D01*
X260156050Y-14782224D01*
X260163470Y-14723245D01*
X260182762Y-14624092D01*
X260213896Y-14543372D01*
X260257731Y-14480466D01*
X260315129Y-14434756D01*
X260386952Y-14405622D01*
X260474059Y-14392447D01*
X260577314Y-14394611D01*
X260615289Y-14398612D01*
X260756480Y-14423780D01*
X260893293Y-14464814D01*
X260987822Y-14502815D01*
X261032982Y-14522190D01*
X261071415Y-14537760D01*
X261097766Y-14547405D01*
X261105454Y-14549452D01*
X261115198Y-14540374D01*
X261131917Y-14511405D01*
X261155768Y-14462217D01*
X261186907Y-14392484D01*
X261225493Y-14301879D01*
X261232090Y-14286089D01*
X261262147Y-14213772D01*
X261289126Y-14148425D01*
X261311864Y-14092906D01*
X261329194Y-14050072D01*
X261339952Y-14022781D01*
X261343059Y-14013942D01*
X261333060Y-14009187D01*
X261306783Y-14003910D01*
X261278511Y-14000231D01*
X261248354Y-13995474D01*
X261200567Y-13986028D01*
X261139388Y-13972820D01*
X261069054Y-13956776D01*
X260993806Y-13938820D01*
X260965245Y-13931797D01*
X260860184Y-13906209D01*
X260772520Y-13886147D01*
X260697932Y-13870969D01*
X260632097Y-13860035D01*
X260570693Y-13852704D01*
X260509398Y-13848335D01*
X260443890Y-13846287D01*
X260385872Y-13845889D01*
X260216426Y-13852552D01*
G37*
X260216426Y-13852552D02*
X260064508Y-13872567D01*
X259929244Y-13906202D01*
X259809761Y-13953725D01*
X259705185Y-14015405D01*
X259627576Y-14078965D01*
X259558735Y-14153099D01*
X259504994Y-14232871D01*
X259462090Y-14325091D01*
X259446616Y-14368161D01*
X259433756Y-14407142D01*
X259422554Y-14443289D01*
X259412880Y-14478434D01*
X259404604Y-14514410D01*
X259397597Y-14553050D01*
X259391728Y-14596185D01*
X259386869Y-14645649D01*
X259382890Y-14703273D01*
X259379660Y-14770891D01*
X259377051Y-14850334D01*
X259374933Y-14943436D01*
X259373176Y-15052027D01*
X259371651Y-15177942D01*
X259370228Y-15323012D01*
X259368975Y-15465778D01*
X259367649Y-15621968D01*
X259366444Y-15757239D01*
X259365234Y-15873246D01*
X259363894Y-15971645D01*
X259362300Y-16054093D01*
X259360325Y-16122246D01*
X259357844Y-16177760D01*
X259354731Y-16222292D01*
X259350862Y-16257498D01*
X259346111Y-16285034D01*
X259340352Y-16306556D01*
X259333461Y-16323722D01*
X259325311Y-16338186D01*
X259315777Y-16351606D01*
X259304734Y-16365638D01*
X259300434Y-16371071D01*
X259284614Y-16393910D01*
X259277578Y-16409463D01*
X259277556Y-16409922D01*
X259288433Y-16412121D01*
X259319418Y-16414147D01*
X259368043Y-16415942D01*
X259431837Y-16417451D01*
X259508331Y-16418616D01*
X259595056Y-16419380D01*
X259689543Y-16419686D01*
X259700450Y-16419689D01*
X260123343Y-16419689D01*
X260126605Y-16323622D01*
X260129867Y-16227556D01*
X260191956Y-16278543D01*
X260289286Y-16346057D01*
X260399187Y-16400749D01*
X260485651Y-16430978D01*
X260554722Y-16445666D01*
X260638075Y-16455659D01*
X260727841Y-16460646D01*
X260816155Y-16460313D01*
X260895149Y-16454351D01*
X260931378Y-16448638D01*
X261071397Y-16410776D01*
X261197822Y-16355932D01*
X261309740Y-16284924D01*
X261406238Y-16198568D01*
X261486400Y-16097679D01*
X261549313Y-15983076D01*
X261593688Y-15856984D01*
X261606022Y-15800401D01*
X261613632Y-15738202D01*
X261617261Y-15663363D01*
X261617755Y-15629467D01*
X261617690Y-15626282D01*
X260857752Y-15626282D01*
X260848459Y-15701333D01*
X260820272Y-15765160D01*
X260771803Y-15820798D01*
X260766746Y-15825211D01*
X260718452Y-15860037D01*
X260666743Y-15882620D01*
X260606011Y-15894540D01*
X260530648Y-15897383D01*
X260512541Y-15896978D01*
X260458722Y-15894325D01*
X260418692Y-15888909D01*
X260383676Y-15878745D01*
X260344897Y-15861850D01*
X260334255Y-15856672D01*
X260273604Y-15820844D01*
X260226785Y-15778212D01*
X260214048Y-15762973D01*
X260169378Y-15706462D01*
X260169378Y-15510586D01*
X260169914Y-15431939D01*
X260171604Y-15373988D01*
X260174572Y-15334875D01*
X260178943Y-15312741D01*
X260183028Y-15306274D01*
X260198953Y-15303111D01*
X260232736Y-15300488D01*
X260279660Y-15298655D01*
X260335007Y-15297857D01*
X260343894Y-15297842D01*
X260464670Y-15303096D01*
X260567340Y-15319263D01*
X260653894Y-15346961D01*
X260726319Y-15386808D01*
X260781249Y-15433758D01*
X260825796Y-15491645D01*
X260850520Y-15554693D01*
X260857752Y-15626282D01*
X261617690Y-15626282D01*
X261615822Y-15535712D01*
X261607478Y-15456812D01*
X261591232Y-15385590D01*
X261565595Y-15314864D01*
X261541599Y-15262493D01*
X261482980Y-15167196D01*
X261404883Y-15079170D01*
X261309685Y-15000017D01*
X261199762Y-14931340D01*
X261077490Y-14874741D01*
X260945245Y-14831821D01*
X260880578Y-14816882D01*
X260744396Y-14794777D01*
X260595951Y-14780194D01*
X260444495Y-14773813D01*
X260317936Y-14775445D01*
X260156050Y-14782224D01*
X260163470Y-14723245D01*
X260182762Y-14624092D01*
X260213896Y-14543372D01*
X260257731Y-14480466D01*
X260315129Y-14434756D01*
X260386952Y-14405622D01*
X260474059Y-14392447D01*
X260577314Y-14394611D01*
X260615289Y-14398612D01*
X260756480Y-14423780D01*
X260893293Y-14464814D01*
X260987822Y-14502815D01*
X261032982Y-14522190D01*
X261071415Y-14537760D01*
X261097766Y-14547405D01*
X261105454Y-14549452D01*
X261115198Y-14540374D01*
X261131917Y-14511405D01*
X261155768Y-14462217D01*
X261186907Y-14392484D01*
X261225493Y-14301879D01*
X261232090Y-14286089D01*
X261262147Y-14213772D01*
X261289126Y-14148425D01*
X261311864Y-14092906D01*
X261329194Y-14050072D01*
X261339952Y-14022781D01*
X261343059Y-14013942D01*
X261333060Y-14009187D01*
X261306783Y-14003910D01*
X261278511Y-14000231D01*
X261248354Y-13995474D01*
X261200567Y-13986028D01*
X261139388Y-13972820D01*
X261069054Y-13956776D01*
X260993806Y-13938820D01*
X260965245Y-13931797D01*
X260860184Y-13906209D01*
X260772520Y-13886147D01*
X260697932Y-13870969D01*
X260632097Y-13860035D01*
X260570693Y-13852704D01*
X260509398Y-13848335D01*
X260443890Y-13846287D01*
X260385872Y-13845889D01*
X260216426Y-13852552D01*
G36*
X256703493Y-14458245D02*
G01*
X256703474Y-14692662D01*
X256703448Y-14905603D01*
X256703375Y-15098168D01*
X256703218Y-15271459D01*
X256702936Y-15426576D01*
X256702491Y-15564620D01*
X256701844Y-15686692D01*
X256700955Y-15793894D01*
X256699787Y-15887326D01*
X256698299Y-15968090D01*
X256696454Y-16037286D01*
X256694211Y-16096015D01*
X256691531Y-16145379D01*
X256688377Y-16186478D01*
X256684708Y-16220413D01*
X256680487Y-16248286D01*
X256675673Y-16271198D01*
X256670227Y-16290249D01*
X256664112Y-16306540D01*
X256657288Y-16321173D01*
X256649715Y-16335249D01*
X256641355Y-16349868D01*
X256636161Y-16358974D01*
X256601896Y-16419689D01*
X257460045Y-16419689D01*
X257460045Y-16323733D01*
X257460776Y-16280370D01*
X257462728Y-16247205D01*
X257465537Y-16229424D01*
X257466779Y-16227778D01*
X257478201Y-16234662D01*
X257500916Y-16252505D01*
X257523615Y-16271879D01*
X257578200Y-16312614D01*
X257647679Y-16353617D01*
X257724730Y-16391123D01*
X257802035Y-16421364D01*
X257832887Y-16431012D01*
X257901384Y-16445578D01*
X257984236Y-16455539D01*
X258073629Y-16460583D01*
X258161752Y-16460396D01*
X258240793Y-16454666D01*
X258278489Y-16448858D01*
X258416586Y-16410797D01*
X258543887Y-16353073D01*
X258659708Y-16276211D01*
X258763363Y-16180739D01*
X258854167Y-16067179D01*
X258920969Y-15956381D01*
X258975836Y-15839625D01*
X259017837Y-15720276D01*
X259047833Y-15594283D01*
X259066689Y-15457594D01*
X259075268Y-15306158D01*
X259075994Y-15228711D01*
X259073900Y-15171934D01*
X258244783Y-15171934D01*
X258244576Y-15265002D01*
X258241663Y-15352692D01*
X258236000Y-15429772D01*
X258227545Y-15491009D01*
X258224962Y-15503350D01*
X258193160Y-15610633D01*
X258151502Y-15697658D01*
X258099637Y-15764642D01*
X258037219Y-15811805D01*
X257963900Y-15839365D01*
X257879331Y-15847541D01*
X257783165Y-15836551D01*
X257719689Y-15820829D01*
X257670546Y-15802639D01*
X257616417Y-15776791D01*
X257575756Y-15753089D01*
X257505200Y-15706721D01*
X257505200Y-14556530D01*
X257572608Y-14512962D01*
X257651133Y-14472040D01*
X257735319Y-14445389D01*
X257820443Y-14433465D01*
X257901784Y-14436722D01*
X257974620Y-14455615D01*
X258006574Y-14471184D01*
X258064499Y-14514181D01*
X258113456Y-14570953D01*
X258154610Y-14643575D01*
X258189126Y-14734121D01*
X258218167Y-14844666D01*
X258219448Y-14850533D01*
X258229619Y-14912788D01*
X258237261Y-14990594D01*
X258242330Y-15078720D01*
X258244783Y-15171934D01*
X259073900Y-15171934D01*
X259068143Y-15015895D01*
X259046198Y-14820059D01*
X259010214Y-14641332D01*
X258960241Y-14479845D01*
X258896332Y-14335726D01*
X258818538Y-14209106D01*
X258726911Y-14100115D01*
X258621503Y-14008883D01*
X258576338Y-13977932D01*
X258475389Y-13921785D01*
X258372099Y-13882174D01*
X258262011Y-13858014D01*
X258140670Y-13848219D01*
X258048164Y-13849265D01*
X257918510Y-13860231D01*
X257805916Y-13882046D01*
X257707125Y-13915714D01*
X257618879Y-13962236D01*
X257570014Y-13996448D01*
X257540647Y-14018362D01*
X257518957Y-14033333D01*
X257510747Y-14037733D01*
X257509132Y-14026904D01*
X257507841Y-13996251D01*
X257506862Y-13948526D01*
X257506183Y-13886479D01*
X257505790Y-13812862D01*
X257505670Y-13730427D01*
X257505812Y-13641925D01*
X257506203Y-13550107D01*
X257506829Y-13457724D01*
X257507680Y-13367528D01*
X257508740Y-13282271D01*
X257509999Y-13204703D01*
X257511444Y-13137576D01*
X257513062Y-13083641D01*
X257514839Y-13045650D01*
X257515331Y-13038667D01*
X257522908Y-12968251D01*
X257534469Y-12913102D01*
X257552208Y-12865981D01*
X257578318Y-12819647D01*
X257584585Y-12810067D01*
X257609017Y-12773378D01*
X256703689Y-12773378D01*
X256703493Y-14458245D01*
G37*
X256703493Y-14458245D02*
X256703474Y-14692662D01*
X256703448Y-14905603D01*
X256703375Y-15098168D01*
X256703218Y-15271459D01*
X256702936Y-15426576D01*
X256702491Y-15564620D01*
X256701844Y-15686692D01*
X256700955Y-15793894D01*
X256699787Y-15887326D01*
X256698299Y-15968090D01*
X256696454Y-16037286D01*
X256694211Y-16096015D01*
X256691531Y-16145379D01*
X256688377Y-16186478D01*
X256684708Y-16220413D01*
X256680487Y-16248286D01*
X256675673Y-16271198D01*
X256670227Y-16290249D01*
X256664112Y-16306540D01*
X256657288Y-16321173D01*
X256649715Y-16335249D01*
X256641355Y-16349868D01*
X256636161Y-16358974D01*
X256601896Y-16419689D01*
X257460045Y-16419689D01*
X257460045Y-16323733D01*
X257460776Y-16280370D01*
X257462728Y-16247205D01*
X257465537Y-16229424D01*
X257466779Y-16227778D01*
X257478201Y-16234662D01*
X257500916Y-16252505D01*
X257523615Y-16271879D01*
X257578200Y-16312614D01*
X257647679Y-16353617D01*
X257724730Y-16391123D01*
X257802035Y-16421364D01*
X257832887Y-16431012D01*
X257901384Y-16445578D01*
X257984236Y-16455539D01*
X258073629Y-16460583D01*
X258161752Y-16460396D01*
X258240793Y-16454666D01*
X258278489Y-16448858D01*
X258416586Y-16410797D01*
X258543887Y-16353073D01*
X258659708Y-16276211D01*
X258763363Y-16180739D01*
X258854167Y-16067179D01*
X258920969Y-15956381D01*
X258975836Y-15839625D01*
X259017837Y-15720276D01*
X259047833Y-15594283D01*
X259066689Y-15457594D01*
X259075268Y-15306158D01*
X259075994Y-15228711D01*
X259073900Y-15171934D01*
X258244783Y-15171934D01*
X258244576Y-15265002D01*
X258241663Y-15352692D01*
X258236000Y-15429772D01*
X258227545Y-15491009D01*
X258224962Y-15503350D01*
X258193160Y-15610633D01*
X258151502Y-15697658D01*
X258099637Y-15764642D01*
X258037219Y-15811805D01*
X257963900Y-15839365D01*
X257879331Y-15847541D01*
X257783165Y-15836551D01*
X257719689Y-15820829D01*
X257670546Y-15802639D01*
X257616417Y-15776791D01*
X257575756Y-15753089D01*
X257505200Y-15706721D01*
X257505200Y-14556530D01*
X257572608Y-14512962D01*
X257651133Y-14472040D01*
X257735319Y-14445389D01*
X257820443Y-14433465D01*
X257901784Y-14436722D01*
X257974620Y-14455615D01*
X258006574Y-14471184D01*
X258064499Y-14514181D01*
X258113456Y-14570953D01*
X258154610Y-14643575D01*
X258189126Y-14734121D01*
X258218167Y-14844666D01*
X258219448Y-14850533D01*
X258229619Y-14912788D01*
X258237261Y-14990594D01*
X258242330Y-15078720D01*
X258244783Y-15171934D01*
X259073900Y-15171934D01*
X259068143Y-15015895D01*
X259046198Y-14820059D01*
X259010214Y-14641332D01*
X258960241Y-14479845D01*
X258896332Y-14335726D01*
X258818538Y-14209106D01*
X258726911Y-14100115D01*
X258621503Y-14008883D01*
X258576338Y-13977932D01*
X258475389Y-13921785D01*
X258372099Y-13882174D01*
X258262011Y-13858014D01*
X258140670Y-13848219D01*
X258048164Y-13849265D01*
X257918510Y-13860231D01*
X257805916Y-13882046D01*
X257707125Y-13915714D01*
X257618879Y-13962236D01*
X257570014Y-13996448D01*
X257540647Y-14018362D01*
X257518957Y-14033333D01*
X257510747Y-14037733D01*
X257509132Y-14026904D01*
X257507841Y-13996251D01*
X257506862Y-13948526D01*
X257506183Y-13886479D01*
X257505790Y-13812862D01*
X257505670Y-13730427D01*
X257505812Y-13641925D01*
X257506203Y-13550107D01*
X257506829Y-13457724D01*
X257507680Y-13367528D01*
X257508740Y-13282271D01*
X257509999Y-13204703D01*
X257511444Y-13137576D01*
X257513062Y-13083641D01*
X257514839Y-13045650D01*
X257515331Y-13038667D01*
X257522908Y-12968251D01*
X257534469Y-12913102D01*
X257552208Y-12865981D01*
X257578318Y-12819647D01*
X257584585Y-12810067D01*
X257609017Y-12773378D01*
X256703689Y-12773378D01*
X256703493Y-14458245D01*
G36*
X265163043Y-12012571D02*
G01*
X265066768Y-12036809D01*
X264980184Y-12079641D01*
X264905373Y-12139419D01*
X264844418Y-12214494D01*
X264799399Y-12303220D01*
X264773136Y-12399530D01*
X264767286Y-12496795D01*
X264782140Y-12590654D01*
X264815840Y-12678511D01*
X264866528Y-12757770D01*
X264932345Y-12825836D01*
X265011434Y-12880112D01*
X265101934Y-12918002D01*
X265153200Y-12930426D01*
X265197698Y-12937947D01*
X265231999Y-12940919D01*
X265264960Y-12939094D01*
X265305434Y-12932225D01*
X265338531Y-12925250D01*
X265431947Y-12893741D01*
X265515619Y-12842617D01*
X265587665Y-12773429D01*
X265646200Y-12687728D01*
X265660148Y-12660489D01*
X265676586Y-12624122D01*
X265686894Y-12593582D01*
X265692460Y-12561450D01*
X265694669Y-12520307D01*
X265694948Y-12474222D01*
X265690861Y-12389865D01*
X265677446Y-12320586D01*
X265652256Y-12259961D01*
X265612846Y-12201567D01*
X265574298Y-12157302D01*
X265502406Y-12091484D01*
X265427313Y-12046053D01*
X265344562Y-12018850D01*
X265266928Y-12008576D01*
X265163043Y-12012571D01*
G37*
X265163043Y-12012571D02*
X265066768Y-12036809D01*
X264980184Y-12079641D01*
X264905373Y-12139419D01*
X264844418Y-12214494D01*
X264799399Y-12303220D01*
X264773136Y-12399530D01*
X264767286Y-12496795D01*
X264782140Y-12590654D01*
X264815840Y-12678511D01*
X264866528Y-12757770D01*
X264932345Y-12825836D01*
X265011434Y-12880112D01*
X265101934Y-12918002D01*
X265153200Y-12930426D01*
X265197698Y-12937947D01*
X265231999Y-12940919D01*
X265264960Y-12939094D01*
X265305434Y-12932225D01*
X265338531Y-12925250D01*
X265431947Y-12893741D01*
X265515619Y-12842617D01*
X265587665Y-12773429D01*
X265646200Y-12687728D01*
X265660148Y-12660489D01*
X265676586Y-12624122D01*
X265686894Y-12593582D01*
X265692460Y-12561450D01*
X265694669Y-12520307D01*
X265694948Y-12474222D01*
X265690861Y-12389865D01*
X265677446Y-12320586D01*
X265652256Y-12259961D01*
X265612846Y-12201567D01*
X265574298Y-12157302D01*
X265502406Y-12091484D01*
X265427313Y-12046053D01*
X265344562Y-12018850D01*
X265266928Y-12008576D01*
X265163043Y-12012571D01*
G36*
X269011371Y-17255066D02*
G01*
X268971889Y-17255467D01*
X268856200Y-17258259D01*
X268759311Y-17266550D01*
X268677919Y-17281232D01*
X268608723Y-17303193D01*
X268548420Y-17333322D01*
X268493708Y-17372510D01*
X268474167Y-17389532D01*
X268441750Y-17429363D01*
X268412520Y-17483413D01*
X268389991Y-17543323D01*
X268377679Y-17600739D01*
X268376400Y-17621956D01*
X268384417Y-17680769D01*
X268405899Y-17745013D01*
X268436999Y-17805821D01*
X268473866Y-17854330D01*
X268479854Y-17860182D01*
X268530579Y-17901321D01*
X268586125Y-17933435D01*
X268649696Y-17957365D01*
X268724494Y-17973953D01*
X268813722Y-17984041D01*
X268920582Y-17988469D01*
X268969528Y-17988845D01*
X269031762Y-17988545D01*
X269075528Y-17987292D01*
X269104931Y-17984554D01*
X269124079Y-17979801D01*
X269137077Y-17972501D01*
X269144045Y-17966267D01*
X269150626Y-17958694D01*
X269155788Y-17948924D01*
X269159703Y-17934340D01*
X269162543Y-17912326D01*
X269164480Y-17880264D01*
X269165684Y-17835536D01*
X269166328Y-17775526D01*
X269166583Y-17697617D01*
X269166622Y-17621956D01*
X269166870Y-17521041D01*
X269166817Y-17440427D01*
X269165857Y-17401822D01*
X269019867Y-17401822D01*
X269019867Y-17842089D01*
X268926734Y-17842004D01*
X268870693Y-17840396D01*
X268811999Y-17836256D01*
X268763028Y-17830464D01*
X268761538Y-17830226D01*
X268682392Y-17811090D01*
X268621002Y-17781287D01*
X268574305Y-17738878D01*
X268544635Y-17692961D01*
X268526353Y-17642026D01*
X268527771Y-17594200D01*
X268548988Y-17542933D01*
X268590489Y-17489899D01*
X268647998Y-17450600D01*
X268722750Y-17424331D01*
X268772708Y-17415035D01*
X268829416Y-17408507D01*
X268889519Y-17403782D01*
X268940639Y-17401817D01*
X268943667Y-17401808D01*
X269019867Y-17401822D01*
X269165857Y-17401822D01*
X269165260Y-17377851D01*
X269160998Y-17331055D01*
X269152830Y-17297778D01*
X269139556Y-17275759D01*
X269119974Y-17262739D01*
X269092883Y-17256457D01*
X269057082Y-17254653D01*
X269011371Y-17255066D01*
G37*
X269011371Y-17255066D02*
X268971889Y-17255467D01*
X268856200Y-17258259D01*
X268759311Y-17266550D01*
X268677919Y-17281232D01*
X268608723Y-17303193D01*
X268548420Y-17333322D01*
X268493708Y-17372510D01*
X268474167Y-17389532D01*
X268441750Y-17429363D01*
X268412520Y-17483413D01*
X268389991Y-17543323D01*
X268377679Y-17600739D01*
X268376400Y-17621956D01*
X268384417Y-17680769D01*
X268405899Y-17745013D01*
X268436999Y-17805821D01*
X268473866Y-17854330D01*
X268479854Y-17860182D01*
X268530579Y-17901321D01*
X268586125Y-17933435D01*
X268649696Y-17957365D01*
X268724494Y-17973953D01*
X268813722Y-17984041D01*
X268920582Y-17988469D01*
X268969528Y-17988845D01*
X269031762Y-17988545D01*
X269075528Y-17987292D01*
X269104931Y-17984554D01*
X269124079Y-17979801D01*
X269137077Y-17972501D01*
X269144045Y-17966267D01*
X269150626Y-17958694D01*
X269155788Y-17948924D01*
X269159703Y-17934340D01*
X269162543Y-17912326D01*
X269164480Y-17880264D01*
X269165684Y-17835536D01*
X269166328Y-17775526D01*
X269166583Y-17697617D01*
X269166622Y-17621956D01*
X269166870Y-17521041D01*
X269166817Y-17440427D01*
X269165857Y-17401822D01*
X269019867Y-17401822D01*
X269019867Y-17842089D01*
X268926734Y-17842004D01*
X268870693Y-17840396D01*
X268811999Y-17836256D01*
X268763028Y-17830464D01*
X268761538Y-17830226D01*
X268682392Y-17811090D01*
X268621002Y-17781287D01*
X268574305Y-17738878D01*
X268544635Y-17692961D01*
X268526353Y-17642026D01*
X268527771Y-17594200D01*
X268548988Y-17542933D01*
X268590489Y-17489899D01*
X268647998Y-17450600D01*
X268722750Y-17424331D01*
X268772708Y-17415035D01*
X268829416Y-17408507D01*
X268889519Y-17403782D01*
X268940639Y-17401817D01*
X268943667Y-17401808D01*
X269019867Y-17401822D01*
X269165857Y-17401822D01*
X269165260Y-17377851D01*
X269160998Y-17331055D01*
X269152830Y-17297778D01*
X269139556Y-17275759D01*
X269119974Y-17262739D01*
X269092883Y-17256457D01*
X269057082Y-17254653D01*
X269011371Y-17255066D01*
G36*
X267602794Y-17255146D02*
G01*
X267533386Y-17255518D01*
X267480997Y-17256385D01*
X267442847Y-17257946D01*
X267416159Y-17260403D01*
X267398153Y-17263957D01*
X267386049Y-17268810D01*
X267377069Y-17275161D01*
X267373818Y-17278084D01*
X267354043Y-17309142D01*
X267350482Y-17344828D01*
X267363491Y-17376510D01*
X267369506Y-17382913D01*
X267379235Y-17389121D01*
X267394901Y-17393910D01*
X267419408Y-17397514D01*
X267455661Y-17400164D01*
X267506565Y-17402095D01*
X267575026Y-17403539D01*
X267637617Y-17404418D01*
X267885334Y-17407467D01*
X267888719Y-17472378D01*
X267892105Y-17537289D01*
X267723958Y-17537289D01*
X267650959Y-17537919D01*
X267597517Y-17540553D01*
X267560628Y-17546309D01*
X267537288Y-17556304D01*
X267524494Y-17571656D01*
X267519242Y-17593482D01*
X267518445Y-17613738D01*
X267520923Y-17638592D01*
X267530277Y-17656906D01*
X267549383Y-17669637D01*
X267581118Y-17677741D01*
X267628359Y-17682176D01*
X267693983Y-17683899D01*
X267729801Y-17684045D01*
X267890978Y-17684045D01*
X267890978Y-17842089D01*
X267642622Y-17842089D01*
X267561213Y-17842202D01*
X267499342Y-17842712D01*
X267453968Y-17843870D01*
X267422054Y-17845930D01*
X267400559Y-17849146D01*
X267386443Y-17853772D01*
X267376668Y-17860059D01*
X267371689Y-17864667D01*
X267354610Y-17891560D01*
X267349111Y-17915467D01*
X267356963Y-17944667D01*
X267371689Y-17966267D01*
X267379546Y-17973066D01*
X267389688Y-17978346D01*
X267404844Y-17982298D01*
X267427741Y-17985113D01*
X267461109Y-17986982D01*
X267507675Y-17988098D01*
X267570167Y-17988651D01*
X267651314Y-17988833D01*
X267693422Y-17988845D01*
X267783598Y-17988765D01*
X267853924Y-17988398D01*
X267907129Y-17987552D01*
X267945940Y-17986036D01*
X267973087Y-17983659D01*
X267991298Y-17980229D01*
X268003300Y-17975554D01*
X268011822Y-17969444D01*
X268015156Y-17966267D01*
X268021755Y-17958670D01*
X268026927Y-17948870D01*
X268030846Y-17934239D01*
X268033684Y-17912152D01*
X268035615Y-17879982D01*
X268036812Y-17835103D01*
X268037448Y-17774889D01*
X268037697Y-17696713D01*
X268037734Y-17623923D01*
X268037700Y-17530707D01*
X268037465Y-17457431D01*
X268036830Y-17401458D01*
X268035594Y-17360151D01*
X268033556Y-17330872D01*
X268030517Y-17310984D01*
X268026277Y-17297850D01*
X268020635Y-17288832D01*
X268013391Y-17281293D01*
X268011606Y-17279612D01*
X268002945Y-17272172D01*
X267992882Y-17266409D01*
X267978625Y-17262112D01*
X267957383Y-17259064D01*
X267926364Y-17257051D01*
X267882777Y-17255860D01*
X267823831Y-17255275D01*
X267746734Y-17255083D01*
X267692001Y-17255067D01*
X267602794Y-17255146D01*
G37*
X267602794Y-17255146D02*
X267533386Y-17255518D01*
X267480997Y-17256385D01*
X267442847Y-17257946D01*
X267416159Y-17260403D01*
X267398153Y-17263957D01*
X267386049Y-17268810D01*
X267377069Y-17275161D01*
X267373818Y-17278084D01*
X267354043Y-17309142D01*
X267350482Y-17344828D01*
X267363491Y-17376510D01*
X267369506Y-17382913D01*
X267379235Y-17389121D01*
X267394901Y-17393910D01*
X267419408Y-17397514D01*
X267455661Y-17400164D01*
X267506565Y-17402095D01*
X267575026Y-17403539D01*
X267637617Y-17404418D01*
X267885334Y-17407467D01*
X267888719Y-17472378D01*
X267892105Y-17537289D01*
X267723958Y-17537289D01*
X267650959Y-17537919D01*
X267597517Y-17540553D01*
X267560628Y-17546309D01*
X267537288Y-17556304D01*
X267524494Y-17571656D01*
X267519242Y-17593482D01*
X267518445Y-17613738D01*
X267520923Y-17638592D01*
X267530277Y-17656906D01*
X267549383Y-17669637D01*
X267581118Y-17677741D01*
X267628359Y-17682176D01*
X267693983Y-17683899D01*
X267729801Y-17684045D01*
X267890978Y-17684045D01*
X267890978Y-17842089D01*
X267642622Y-17842089D01*
X267561213Y-17842202D01*
X267499342Y-17842712D01*
X267453968Y-17843870D01*
X267422054Y-17845930D01*
X267400559Y-17849146D01*
X267386443Y-17853772D01*
X267376668Y-17860059D01*
X267371689Y-17864667D01*
X267354610Y-17891560D01*
X267349111Y-17915467D01*
X267356963Y-17944667D01*
X267371689Y-17966267D01*
X267379546Y-17973066D01*
X267389688Y-17978346D01*
X267404844Y-17982298D01*
X267427741Y-17985113D01*
X267461109Y-17986982D01*
X267507675Y-17988098D01*
X267570167Y-17988651D01*
X267651314Y-17988833D01*
X267693422Y-17988845D01*
X267783598Y-17988765D01*
X267853924Y-17988398D01*
X267907129Y-17987552D01*
X267945940Y-17986036D01*
X267973087Y-17983659D01*
X267991298Y-17980229D01*
X268003300Y-17975554D01*
X268011822Y-17969444D01*
X268015156Y-17966267D01*
X268021755Y-17958670D01*
X268026927Y-17948870D01*
X268030846Y-17934239D01*
X268033684Y-17912152D01*
X268035615Y-17879982D01*
X268036812Y-17835103D01*
X268037448Y-17774889D01*
X268037697Y-17696713D01*
X268037734Y-17623923D01*
X268037700Y-17530707D01*
X268037465Y-17457431D01*
X268036830Y-17401458D01*
X268035594Y-17360151D01*
X268033556Y-17330872D01*
X268030517Y-17310984D01*
X268026277Y-17297850D01*
X268020635Y-17288832D01*
X268013391Y-17281293D01*
X268011606Y-17279612D01*
X268002945Y-17272172D01*
X267992882Y-17266409D01*
X267978625Y-17262112D01*
X267957383Y-17259064D01*
X267926364Y-17257051D01*
X267882777Y-17255860D01*
X267823831Y-17255275D01*
X267746734Y-17255083D01*
X267692001Y-17255067D01*
X267602794Y-17255146D01*
G36*
X266581703Y-17256351D02*
G01*
X266506888Y-17261581D01*
X266437306Y-17269750D01*
X266377002Y-17280550D01*
X266330020Y-17293673D01*
X266300406Y-17308813D01*
X266295860Y-17313269D01*
X266280054Y-17347850D01*
X266284847Y-17383351D01*
X266309364Y-17413725D01*
X266310534Y-17414596D01*
X266324954Y-17423954D01*
X266340008Y-17428876D01*
X266361005Y-17429473D01*
X266393257Y-17425861D01*
X266442073Y-17418154D01*
X266446000Y-17417505D01*
X266518739Y-17408569D01*
X266597217Y-17404161D01*
X266675927Y-17404119D01*
X266749361Y-17408279D01*
X266812011Y-17416479D01*
X266858370Y-17428557D01*
X266861416Y-17429771D01*
X266895048Y-17448615D01*
X266906864Y-17467685D01*
X266897614Y-17486439D01*
X266868047Y-17504337D01*
X266818911Y-17520837D01*
X266750957Y-17535396D01*
X266705645Y-17542406D01*
X266611456Y-17555889D01*
X266536544Y-17568214D01*
X266477717Y-17580449D01*
X266431785Y-17593661D01*
X266395555Y-17608917D01*
X266365838Y-17627285D01*
X266339442Y-17649831D01*
X266318230Y-17671971D01*
X266293065Y-17702819D01*
X266280681Y-17729345D01*
X266276808Y-17762026D01*
X266276667Y-17773995D01*
X266279576Y-17813712D01*
X266291202Y-17843259D01*
X266311323Y-17869486D01*
X266352216Y-17909576D01*
X266397817Y-17940149D01*
X266451513Y-17962203D01*
X266516692Y-17976735D01*
X266596744Y-17984741D01*
X266695057Y-17987218D01*
X266711289Y-17987177D01*
X266776849Y-17985818D01*
X266841866Y-17982730D01*
X266899252Y-17978356D01*
X266941922Y-17973140D01*
X266945372Y-17972541D01*
X266987796Y-17962491D01*
X267023780Y-17949796D01*
X267044150Y-17938190D01*
X267063107Y-17907572D01*
X267064427Y-17871918D01*
X267048085Y-17840144D01*
X267044429Y-17836551D01*
X267029315Y-17825876D01*
X267010415Y-17821276D01*
X266981162Y-17822059D01*
X266945651Y-17826127D01*
X266905970Y-17829762D01*
X266850345Y-17832828D01*
X266785406Y-17835053D01*
X266717785Y-17836164D01*
X266700000Y-17836237D01*
X266632128Y-17835964D01*
X266582454Y-17834646D01*
X266546610Y-17831827D01*
X266520224Y-17827050D01*
X266498926Y-17819857D01*
X266486126Y-17813867D01*
X266458000Y-17797233D01*
X266440068Y-17782168D01*
X266437447Y-17777897D01*
X266442976Y-17760263D01*
X266469260Y-17743192D01*
X266514478Y-17727458D01*
X266576808Y-17713838D01*
X266595171Y-17710804D01*
X266691090Y-17695738D01*
X266767641Y-17683146D01*
X266827780Y-17672111D01*
X266874460Y-17661720D01*
X266910637Y-17651056D01*
X266939265Y-17639205D01*
X266963298Y-17625251D01*
X266985692Y-17608281D01*
X267009402Y-17587378D01*
X267017380Y-17580049D01*
X267045353Y-17552699D01*
X267060160Y-17531029D01*
X267065952Y-17506232D01*
X267066889Y-17474983D01*
X267056575Y-17413705D01*
X267025752Y-17361640D01*
X266974595Y-17318958D01*
X266903283Y-17285825D01*
X266852400Y-17270964D01*
X266797100Y-17261366D01*
X266730853Y-17255936D01*
X266657706Y-17254367D01*
X266581703Y-17256351D01*
G37*
X266581703Y-17256351D02*
X266506888Y-17261581D01*
X266437306Y-17269750D01*
X266377002Y-17280550D01*
X266330020Y-17293673D01*
X266300406Y-17308813D01*
X266295860Y-17313269D01*
X266280054Y-17347850D01*
X266284847Y-17383351D01*
X266309364Y-17413725D01*
X266310534Y-17414596D01*
X266324954Y-17423954D01*
X266340008Y-17428876D01*
X266361005Y-17429473D01*
X266393257Y-17425861D01*
X266442073Y-17418154D01*
X266446000Y-17417505D01*
X266518739Y-17408569D01*
X266597217Y-17404161D01*
X266675927Y-17404119D01*
X266749361Y-17408279D01*
X266812011Y-17416479D01*
X266858370Y-17428557D01*
X266861416Y-17429771D01*
X266895048Y-17448615D01*
X266906864Y-17467685D01*
X266897614Y-17486439D01*
X266868047Y-17504337D01*
X266818911Y-17520837D01*
X266750957Y-17535396D01*
X266705645Y-17542406D01*
X266611456Y-17555889D01*
X266536544Y-17568214D01*
X266477717Y-17580449D01*
X266431785Y-17593661D01*
X266395555Y-17608917D01*
X266365838Y-17627285D01*
X266339442Y-17649831D01*
X266318230Y-17671971D01*
X266293065Y-17702819D01*
X266280681Y-17729345D01*
X266276808Y-17762026D01*
X266276667Y-17773995D01*
X266279576Y-17813712D01*
X266291202Y-17843259D01*
X266311323Y-17869486D01*
X266352216Y-17909576D01*
X266397817Y-17940149D01*
X266451513Y-17962203D01*
X266516692Y-17976735D01*
X266596744Y-17984741D01*
X266695057Y-17987218D01*
X266711289Y-17987177D01*
X266776849Y-17985818D01*
X266841866Y-17982730D01*
X266899252Y-17978356D01*
X266941922Y-17973140D01*
X266945372Y-17972541D01*
X266987796Y-17962491D01*
X267023780Y-17949796D01*
X267044150Y-17938190D01*
X267063107Y-17907572D01*
X267064427Y-17871918D01*
X267048085Y-17840144D01*
X267044429Y-17836551D01*
X267029315Y-17825876D01*
X267010415Y-17821276D01*
X266981162Y-17822059D01*
X266945651Y-17826127D01*
X266905970Y-17829762D01*
X266850345Y-17832828D01*
X266785406Y-17835053D01*
X266717785Y-17836164D01*
X266700000Y-17836237D01*
X266632128Y-17835964D01*
X266582454Y-17834646D01*
X266546610Y-17831827D01*
X266520224Y-17827050D01*
X266498926Y-17819857D01*
X266486126Y-17813867D01*
X266458000Y-17797233D01*
X266440068Y-17782168D01*
X266437447Y-17777897D01*
X266442976Y-17760263D01*
X266469260Y-17743192D01*
X266514478Y-17727458D01*
X266576808Y-17713838D01*
X266595171Y-17710804D01*
X266691090Y-17695738D01*
X266767641Y-17683146D01*
X266827780Y-17672111D01*
X266874460Y-17661720D01*
X266910637Y-17651056D01*
X266939265Y-17639205D01*
X266963298Y-17625251D01*
X266985692Y-17608281D01*
X267009402Y-17587378D01*
X267017380Y-17580049D01*
X267045353Y-17552699D01*
X267060160Y-17531029D01*
X267065952Y-17506232D01*
X267066889Y-17474983D01*
X267056575Y-17413705D01*
X267025752Y-17361640D01*
X266974595Y-17318958D01*
X266903283Y-17285825D01*
X266852400Y-17270964D01*
X266797100Y-17261366D01*
X266730853Y-17255936D01*
X266657706Y-17254367D01*
X266581703Y-17256351D01*
G36*
X265813822Y-17277645D02*
G01*
X265807242Y-17285218D01*
X265802079Y-17294987D01*
X265798164Y-17309571D01*
X265795324Y-17331585D01*
X265793387Y-17363648D01*
X265792183Y-17408375D01*
X265791539Y-17468385D01*
X265791284Y-17546294D01*
X265791245Y-17621956D01*
X265791314Y-17715802D01*
X265791638Y-17789689D01*
X265792386Y-17846232D01*
X265793732Y-17888049D01*
X265795846Y-17917757D01*
X265798900Y-17937973D01*
X265803066Y-17951314D01*
X265808516Y-17960398D01*
X265813822Y-17966267D01*
X265846826Y-17985947D01*
X265881991Y-17984181D01*
X265913455Y-17962717D01*
X265920684Y-17954337D01*
X265926334Y-17944614D01*
X265930599Y-17930861D01*
X265933673Y-17910389D01*
X265935752Y-17880512D01*
X265937030Y-17838541D01*
X265937701Y-17781789D01*
X265937959Y-17707567D01*
X265938000Y-17623537D01*
X265938000Y-17310485D01*
X265910291Y-17282776D01*
X265876137Y-17259463D01*
X265843006Y-17258623D01*
X265813822Y-17277645D01*
G37*
X265813822Y-17277645D02*
X265807242Y-17285218D01*
X265802079Y-17294987D01*
X265798164Y-17309571D01*
X265795324Y-17331585D01*
X265793387Y-17363648D01*
X265792183Y-17408375D01*
X265791539Y-17468385D01*
X265791284Y-17546294D01*
X265791245Y-17621956D01*
X265791314Y-17715802D01*
X265791638Y-17789689D01*
X265792386Y-17846232D01*
X265793732Y-17888049D01*
X265795846Y-17917757D01*
X265798900Y-17937973D01*
X265803066Y-17951314D01*
X265808516Y-17960398D01*
X265813822Y-17966267D01*
X265846826Y-17985947D01*
X265881991Y-17984181D01*
X265913455Y-17962717D01*
X265920684Y-17954337D01*
X265926334Y-17944614D01*
X265930599Y-17930861D01*
X265933673Y-17910389D01*
X265935752Y-17880512D01*
X265937030Y-17838541D01*
X265937701Y-17781789D01*
X265937959Y-17707567D01*
X265938000Y-17623537D01*
X265938000Y-17310485D01*
X265910291Y-17282776D01*
X265876137Y-17259463D01*
X265843006Y-17258623D01*
X265813822Y-17277645D01*
G36*
X264840081Y-17260599D02*
G01*
X264771565Y-17272095D01*
X264718943Y-17289967D01*
X264684708Y-17313499D01*
X264675379Y-17326924D01*
X264665893Y-17358148D01*
X264672277Y-17386395D01*
X264692430Y-17413182D01*
X264723745Y-17425713D01*
X264769183Y-17424696D01*
X264804326Y-17417906D01*
X264882419Y-17404971D01*
X264962226Y-17403742D01*
X265051555Y-17414241D01*
X265076229Y-17418690D01*
X265159291Y-17442108D01*
X265224273Y-17476945D01*
X265270461Y-17522604D01*
X265297145Y-17578494D01*
X265302663Y-17607388D01*
X265299051Y-17666012D01*
X265275729Y-17717879D01*
X265234824Y-17761978D01*
X265178459Y-17797299D01*
X265108760Y-17822829D01*
X265027852Y-17837559D01*
X264937860Y-17840478D01*
X264840910Y-17830575D01*
X264835436Y-17829641D01*
X264796875Y-17822459D01*
X264775494Y-17815521D01*
X264766227Y-17805227D01*
X264764006Y-17787976D01*
X264763956Y-17778841D01*
X264763956Y-17740489D01*
X264832431Y-17740489D01*
X264892900Y-17736347D01*
X264934165Y-17723147D01*
X264958175Y-17699730D01*
X264966877Y-17664936D01*
X264966983Y-17660394D01*
X264961892Y-17630654D01*
X264944433Y-17609419D01*
X264911939Y-17595366D01*
X264861743Y-17587173D01*
X264813123Y-17584161D01*
X264742456Y-17582433D01*
X264691198Y-17585070D01*
X264656239Y-17594800D01*
X264634470Y-17614353D01*
X264622780Y-17646456D01*
X264618060Y-17693838D01*
X264617200Y-17756071D01*
X264618609Y-17825535D01*
X264622848Y-17872786D01*
X264629936Y-17898012D01*
X264631311Y-17899988D01*
X264670228Y-17931508D01*
X264727286Y-17956470D01*
X264798869Y-17974340D01*
X264881358Y-17984586D01*
X264971139Y-17986673D01*
X265064592Y-17980068D01*
X265119556Y-17971956D01*
X265205766Y-17947554D01*
X265285892Y-17907662D01*
X265352977Y-17855887D01*
X265363173Y-17845539D01*
X265396302Y-17802035D01*
X265426194Y-17748118D01*
X265449357Y-17691592D01*
X265462298Y-17640259D01*
X265463858Y-17620544D01*
X265457218Y-17579419D01*
X265439568Y-17528252D01*
X265414297Y-17474394D01*
X265384789Y-17425195D01*
X265358719Y-17392334D01*
X265297765Y-17343452D01*
X265218969Y-17304545D01*
X265125157Y-17276494D01*
X265019150Y-17260179D01*
X264922000Y-17256192D01*
X264840081Y-17260599D01*
G37*
X264840081Y-17260599D02*
X264771565Y-17272095D01*
X264718943Y-17289967D01*
X264684708Y-17313499D01*
X264675379Y-17326924D01*
X264665893Y-17358148D01*
X264672277Y-17386395D01*
X264692430Y-17413182D01*
X264723745Y-17425713D01*
X264769183Y-17424696D01*
X264804326Y-17417906D01*
X264882419Y-17404971D01*
X264962226Y-17403742D01*
X265051555Y-17414241D01*
X265076229Y-17418690D01*
X265159291Y-17442108D01*
X265224273Y-17476945D01*
X265270461Y-17522604D01*
X265297145Y-17578494D01*
X265302663Y-17607388D01*
X265299051Y-17666012D01*
X265275729Y-17717879D01*
X265234824Y-17761978D01*
X265178459Y-17797299D01*
X265108760Y-17822829D01*
X265027852Y-17837559D01*
X264937860Y-17840478D01*
X264840910Y-17830575D01*
X264835436Y-17829641D01*
X264796875Y-17822459D01*
X264775494Y-17815521D01*
X264766227Y-17805227D01*
X264764006Y-17787976D01*
X264763956Y-17778841D01*
X264763956Y-17740489D01*
X264832431Y-17740489D01*
X264892900Y-17736347D01*
X264934165Y-17723147D01*
X264958175Y-17699730D01*
X264966877Y-17664936D01*
X264966983Y-17660394D01*
X264961892Y-17630654D01*
X264944433Y-17609419D01*
X264911939Y-17595366D01*
X264861743Y-17587173D01*
X264813123Y-17584161D01*
X264742456Y-17582433D01*
X264691198Y-17585070D01*
X264656239Y-17594800D01*
X264634470Y-17614353D01*
X264622780Y-17646456D01*
X264618060Y-17693838D01*
X264617200Y-17756071D01*
X264618609Y-17825535D01*
X264622848Y-17872786D01*
X264629936Y-17898012D01*
X264631311Y-17899988D01*
X264670228Y-17931508D01*
X264727286Y-17956470D01*
X264798869Y-17974340D01*
X264881358Y-17984586D01*
X264971139Y-17986673D01*
X265064592Y-17980068D01*
X265119556Y-17971956D01*
X265205766Y-17947554D01*
X265285892Y-17907662D01*
X265352977Y-17855887D01*
X265363173Y-17845539D01*
X265396302Y-17802035D01*
X265426194Y-17748118D01*
X265449357Y-17691592D01*
X265462298Y-17640259D01*
X265463858Y-17620544D01*
X265457218Y-17579419D01*
X265439568Y-17528252D01*
X265414297Y-17474394D01*
X265384789Y-17425195D01*
X265358719Y-17392334D01*
X265297765Y-17343452D01*
X265218969Y-17304545D01*
X265125157Y-17276494D01*
X265019150Y-17260179D01*
X264922000Y-17256192D01*
X264840081Y-17260599D01*
G36*
X264190114Y-17259448D02*
G01*
X264166548Y-17273273D01*
X264135735Y-17295881D01*
X264096078Y-17328338D01*
X264045980Y-17371708D01*
X263983843Y-17427058D01*
X263908072Y-17495451D01*
X263821334Y-17574084D01*
X263640711Y-17737878D01*
X263635067Y-17518029D01*
X263633029Y-17442351D01*
X263631063Y-17385994D01*
X263628734Y-17345706D01*
X263625606Y-17318235D01*
X263621245Y-17300329D01*
X263615216Y-17288737D01*
X263607084Y-17280208D01*
X263602772Y-17276623D01*
X263568241Y-17257670D01*
X263535383Y-17260441D01*
X263509318Y-17276633D01*
X263482667Y-17298199D01*
X263479352Y-17613151D01*
X263478435Y-17705779D01*
X263477968Y-17778544D01*
X263478113Y-17834161D01*
X263479032Y-17875342D01*
X263480887Y-17904803D01*
X263483839Y-17925255D01*
X263488050Y-17939413D01*
X263493682Y-17949991D01*
X263499927Y-17958474D01*
X263513439Y-17974207D01*
X263526883Y-17984636D01*
X263542124Y-17988639D01*
X263561026Y-17985094D01*
X263585455Y-17972879D01*
X263617273Y-17950871D01*
X263658348Y-17917949D01*
X263710542Y-17872991D01*
X263775722Y-17814875D01*
X263849556Y-17748099D01*
X264114845Y-17507458D01*
X264120489Y-17726589D01*
X264122531Y-17802128D01*
X264124502Y-17858354D01*
X264126839Y-17898524D01*
X264129981Y-17925896D01*
X264134364Y-17943728D01*
X264140424Y-17955279D01*
X264148600Y-17963807D01*
X264152784Y-17967282D01*
X264189765Y-17986372D01*
X264224708Y-17983493D01*
X264255136Y-17959100D01*
X264262097Y-17949286D01*
X264267523Y-17937826D01*
X264271603Y-17921968D01*
X264274529Y-17898963D01*
X264276492Y-17866062D01*
X264277683Y-17820516D01*
X264278292Y-17759573D01*
X264278511Y-17680486D01*
X264278534Y-17621956D01*
X264278460Y-17530407D01*
X264278113Y-17458687D01*
X264277301Y-17404045D01*
X264275833Y-17363732D01*
X264273519Y-17334998D01*
X264270167Y-17315093D01*
X264265588Y-17301268D01*
X264259589Y-17290772D01*
X264255136Y-17284811D01*
X264243850Y-17270691D01*
X264233301Y-17260029D01*
X264221893Y-17253892D01*
X264208030Y-17253343D01*
X264190114Y-17259448D01*
G37*
X264190114Y-17259448D02*
X264166548Y-17273273D01*
X264135735Y-17295881D01*
X264096078Y-17328338D01*
X264045980Y-17371708D01*
X263983843Y-17427058D01*
X263908072Y-17495451D01*
X263821334Y-17574084D01*
X263640711Y-17737878D01*
X263635067Y-17518029D01*
X263633029Y-17442351D01*
X263631063Y-17385994D01*
X263628734Y-17345706D01*
X263625606Y-17318235D01*
X263621245Y-17300329D01*
X263615216Y-17288737D01*
X263607084Y-17280208D01*
X263602772Y-17276623D01*
X263568241Y-17257670D01*
X263535383Y-17260441D01*
X263509318Y-17276633D01*
X263482667Y-17298199D01*
X263479352Y-17613151D01*
X263478435Y-17705779D01*
X263477968Y-17778544D01*
X263478113Y-17834161D01*
X263479032Y-17875342D01*
X263480887Y-17904803D01*
X263483839Y-17925255D01*
X263488050Y-17939413D01*
X263493682Y-17949991D01*
X263499927Y-17958474D01*
X263513439Y-17974207D01*
X263526883Y-17984636D01*
X263542124Y-17988639D01*
X263561026Y-17985094D01*
X263585455Y-17972879D01*
X263617273Y-17950871D01*
X263658348Y-17917949D01*
X263710542Y-17872991D01*
X263775722Y-17814875D01*
X263849556Y-17748099D01*
X264114845Y-17507458D01*
X264120489Y-17726589D01*
X264122531Y-17802128D01*
X264124502Y-17858354D01*
X264126839Y-17898524D01*
X264129981Y-17925896D01*
X264134364Y-17943728D01*
X264140424Y-17955279D01*
X264148600Y-17963807D01*
X264152784Y-17967282D01*
X264189765Y-17986372D01*
X264224708Y-17983493D01*
X264255136Y-17959100D01*
X264262097Y-17949286D01*
X264267523Y-17937826D01*
X264271603Y-17921968D01*
X264274529Y-17898963D01*
X264276492Y-17866062D01*
X264277683Y-17820516D01*
X264278292Y-17759573D01*
X264278511Y-17680486D01*
X264278534Y-17621956D01*
X264278460Y-17530407D01*
X264278113Y-17458687D01*
X264277301Y-17404045D01*
X264275833Y-17363732D01*
X264273519Y-17334998D01*
X264270167Y-17315093D01*
X264265588Y-17301268D01*
X264259589Y-17290772D01*
X264255136Y-17284811D01*
X264243850Y-17270691D01*
X264233301Y-17260029D01*
X264221893Y-17253892D01*
X264208030Y-17253343D01*
X264190114Y-17259448D01*
G36*
X262659657Y-17255260D02*
G01*
X262583299Y-17256174D01*
X262524783Y-17258311D01*
X262481745Y-17262175D01*
X262451817Y-17268267D01*
X262432632Y-17277090D01*
X262421824Y-17289146D01*
X262417027Y-17304939D01*
X262415873Y-17324970D01*
X262415867Y-17327335D01*
X262416869Y-17349992D01*
X262421604Y-17367503D01*
X262432667Y-17380574D01*
X262452652Y-17389913D01*
X262484154Y-17396227D01*
X262529768Y-17400222D01*
X262592087Y-17402606D01*
X262673707Y-17404086D01*
X262698723Y-17404414D01*
X262940800Y-17407467D01*
X262944186Y-17472378D01*
X262947571Y-17537289D01*
X262779424Y-17537289D01*
X262713734Y-17537531D01*
X262666828Y-17538556D01*
X262634917Y-17540811D01*
X262614209Y-17544742D01*
X262600916Y-17550798D01*
X262591245Y-17559424D01*
X262591183Y-17559493D01*
X262573644Y-17593112D01*
X262574278Y-17629448D01*
X262592686Y-17660423D01*
X262596329Y-17663607D01*
X262609259Y-17671812D01*
X262626976Y-17677521D01*
X262653430Y-17681162D01*
X262692568Y-17683167D01*
X262748338Y-17683964D01*
X262784006Y-17684045D01*
X262946445Y-17684045D01*
X262946445Y-17842089D01*
X262699839Y-17842089D01*
X262618420Y-17842231D01*
X262556590Y-17842814D01*
X262511363Y-17844068D01*
X262479752Y-17846227D01*
X262458769Y-17849523D01*
X262445427Y-17854189D01*
X262436739Y-17860457D01*
X262434550Y-17862733D01*
X262418386Y-17894280D01*
X262417203Y-17930168D01*
X262430464Y-17961285D01*
X262440957Y-17971271D01*
X262451871Y-17976769D01*
X262468783Y-17981022D01*
X262494367Y-17984180D01*
X262531299Y-17986392D01*
X262582254Y-17987806D01*
X262649906Y-17988572D01*
X262736931Y-17988838D01*
X262756606Y-17988845D01*
X262845089Y-17988787D01*
X262913773Y-17988467D01*
X262965436Y-17987667D01*
X263002855Y-17986167D01*
X263028810Y-17983749D01*
X263046078Y-17980194D01*
X263057438Y-17975282D01*
X263065668Y-17968795D01*
X263070183Y-17964138D01*
X263076979Y-17955889D01*
X263082288Y-17945669D01*
X263086294Y-17930800D01*
X263089179Y-17908602D01*
X263091126Y-17876393D01*
X263092319Y-17831496D01*
X263092939Y-17771228D01*
X263093171Y-17692911D01*
X263093200Y-17626994D01*
X263093129Y-17534628D01*
X263092792Y-17462117D01*
X263092002Y-17406737D01*
X263090574Y-17365765D01*
X263088321Y-17336478D01*
X263085057Y-17316153D01*
X263080596Y-17302066D01*
X263074752Y-17291495D01*
X263069803Y-17284811D01*
X263046406Y-17255067D01*
X262756226Y-17255067D01*
X262659657Y-17255260D01*
G37*
X262659657Y-17255260D02*
X262583299Y-17256174D01*
X262524783Y-17258311D01*
X262481745Y-17262175D01*
X262451817Y-17268267D01*
X262432632Y-17277090D01*
X262421824Y-17289146D01*
X262417027Y-17304939D01*
X262415873Y-17324970D01*
X262415867Y-17327335D01*
X262416869Y-17349992D01*
X262421604Y-17367503D01*
X262432667Y-17380574D01*
X262452652Y-17389913D01*
X262484154Y-17396227D01*
X262529768Y-17400222D01*
X262592087Y-17402606D01*
X262673707Y-17404086D01*
X262698723Y-17404414D01*
X262940800Y-17407467D01*
X262944186Y-17472378D01*
X262947571Y-17537289D01*
X262779424Y-17537289D01*
X262713734Y-17537531D01*
X262666828Y-17538556D01*
X262634917Y-17540811D01*
X262614209Y-17544742D01*
X262600916Y-17550798D01*
X262591245Y-17559424D01*
X262591183Y-17559493D01*
X262573644Y-17593112D01*
X262574278Y-17629448D01*
X262592686Y-17660423D01*
X262596329Y-17663607D01*
X262609259Y-17671812D01*
X262626976Y-17677521D01*
X262653430Y-17681162D01*
X262692568Y-17683167D01*
X262748338Y-17683964D01*
X262784006Y-17684045D01*
X262946445Y-17684045D01*
X262946445Y-17842089D01*
X262699839Y-17842089D01*
X262618420Y-17842231D01*
X262556590Y-17842814D01*
X262511363Y-17844068D01*
X262479752Y-17846227D01*
X262458769Y-17849523D01*
X262445427Y-17854189D01*
X262436739Y-17860457D01*
X262434550Y-17862733D01*
X262418386Y-17894280D01*
X262417203Y-17930168D01*
X262430464Y-17961285D01*
X262440957Y-17971271D01*
X262451871Y-17976769D01*
X262468783Y-17981022D01*
X262494367Y-17984180D01*
X262531299Y-17986392D01*
X262582254Y-17987806D01*
X262649906Y-17988572D01*
X262736931Y-17988838D01*
X262756606Y-17988845D01*
X262845089Y-17988787D01*
X262913773Y-17988467D01*
X262965436Y-17987667D01*
X263002855Y-17986167D01*
X263028810Y-17983749D01*
X263046078Y-17980194D01*
X263057438Y-17975282D01*
X263065668Y-17968795D01*
X263070183Y-17964138D01*
X263076979Y-17955889D01*
X263082288Y-17945669D01*
X263086294Y-17930800D01*
X263089179Y-17908602D01*
X263091126Y-17876393D01*
X263092319Y-17831496D01*
X263092939Y-17771228D01*
X263093171Y-17692911D01*
X263093200Y-17626994D01*
X263093129Y-17534628D01*
X263092792Y-17462117D01*
X263092002Y-17406737D01*
X263090574Y-17365765D01*
X263088321Y-17336478D01*
X263085057Y-17316153D01*
X263080596Y-17302066D01*
X263074752Y-17291495D01*
X263069803Y-17284811D01*
X263046406Y-17255067D01*
X262756226Y-17255067D01*
X262659657Y-17255260D01*
G36*
X261871691Y-17255275D02*
G01*
X261742712Y-17259636D01*
X261633009Y-17272861D01*
X261540774Y-17295741D01*
X261464198Y-17329070D01*
X261401473Y-17373638D01*
X261350788Y-17430236D01*
X261310337Y-17499658D01*
X261309541Y-17501351D01*
X261285399Y-17563483D01*
X261276797Y-17618509D01*
X261283769Y-17673887D01*
X261306346Y-17737073D01*
X261310628Y-17746689D01*
X261339828Y-17802966D01*
X261372644Y-17846451D01*
X261414998Y-17883417D01*
X261472810Y-17920135D01*
X261476169Y-17922052D01*
X261526496Y-17946227D01*
X261583379Y-17964282D01*
X261650473Y-17976839D01*
X261731435Y-17984522D01*
X261829918Y-17987953D01*
X261864714Y-17988251D01*
X262030406Y-17988845D01*
X262053803Y-17959100D01*
X262060743Y-17949319D01*
X262066158Y-17937897D01*
X262070235Y-17922095D01*
X262073163Y-17899175D01*
X262075133Y-17866396D01*
X262075775Y-17842089D01*
X261919156Y-17842089D01*
X261825274Y-17842089D01*
X261770336Y-17840483D01*
X261713940Y-17836255D01*
X261667655Y-17830292D01*
X261664861Y-17829790D01*
X261582652Y-17807736D01*
X261518886Y-17774600D01*
X261471548Y-17728847D01*
X261438618Y-17668939D01*
X261432892Y-17653061D01*
X261427279Y-17628333D01*
X261429709Y-17603902D01*
X261441533Y-17571400D01*
X261448660Y-17555434D01*
X261472000Y-17513006D01*
X261500120Y-17483240D01*
X261531060Y-17462511D01*
X261593034Y-17435537D01*
X261672349Y-17415998D01*
X261764747Y-17404746D01*
X261831667Y-17402270D01*
X261919156Y-17401822D01*
X261919156Y-17842089D01*
X262075775Y-17842089D01*
X262076332Y-17821021D01*
X262076950Y-17760311D01*
X262077175Y-17681526D01*
X262077200Y-17619920D01*
X262077200Y-17310485D01*
X262049491Y-17282776D01*
X262037194Y-17271544D01*
X262023897Y-17263853D01*
X262005328Y-17259040D01*
X261977214Y-17256446D01*
X261935283Y-17255410D01*
X261875263Y-17255270D01*
X261871691Y-17255275D01*
G37*
X261871691Y-17255275D02*
X261742712Y-17259636D01*
X261633009Y-17272861D01*
X261540774Y-17295741D01*
X261464198Y-17329070D01*
X261401473Y-17373638D01*
X261350788Y-17430236D01*
X261310337Y-17499658D01*
X261309541Y-17501351D01*
X261285399Y-17563483D01*
X261276797Y-17618509D01*
X261283769Y-17673887D01*
X261306346Y-17737073D01*
X261310628Y-17746689D01*
X261339828Y-17802966D01*
X261372644Y-17846451D01*
X261414998Y-17883417D01*
X261472810Y-17920135D01*
X261476169Y-17922052D01*
X261526496Y-17946227D01*
X261583379Y-17964282D01*
X261650473Y-17976839D01*
X261731435Y-17984522D01*
X261829918Y-17987953D01*
X261864714Y-17988251D01*
X262030406Y-17988845D01*
X262053803Y-17959100D01*
X262060743Y-17949319D01*
X262066158Y-17937897D01*
X262070235Y-17922095D01*
X262073163Y-17899175D01*
X262075133Y-17866396D01*
X262075775Y-17842089D01*
X261919156Y-17842089D01*
X261825274Y-17842089D01*
X261770336Y-17840483D01*
X261713940Y-17836255D01*
X261667655Y-17830292D01*
X261664861Y-17829790D01*
X261582652Y-17807736D01*
X261518886Y-17774600D01*
X261471548Y-17728847D01*
X261438618Y-17668939D01*
X261432892Y-17653061D01*
X261427279Y-17628333D01*
X261429709Y-17603902D01*
X261441533Y-17571400D01*
X261448660Y-17555434D01*
X261472000Y-17513006D01*
X261500120Y-17483240D01*
X261531060Y-17462511D01*
X261593034Y-17435537D01*
X261672349Y-17415998D01*
X261764747Y-17404746D01*
X261831667Y-17402270D01*
X261919156Y-17401822D01*
X261919156Y-17842089D01*
X262075775Y-17842089D01*
X262076332Y-17821021D01*
X262076950Y-17760311D01*
X262077175Y-17681526D01*
X262077200Y-17619920D01*
X262077200Y-17310485D01*
X262049491Y-17282776D01*
X262037194Y-17271544D01*
X262023897Y-17263853D01*
X262005328Y-17259040D01*
X261977214Y-17256446D01*
X261935283Y-17255410D01*
X261875263Y-17255270D01*
X261871691Y-17255275D01*
G36*
X259145335Y-17257034D02*
G01*
X259125745Y-17264035D01*
X259124990Y-17264377D01*
X259098387Y-17284678D01*
X259083730Y-17305561D01*
X259080862Y-17315352D01*
X259081004Y-17328361D01*
X259085039Y-17346895D01*
X259093854Y-17373257D01*
X259108331Y-17409752D01*
X259129355Y-17458687D01*
X259157812Y-17522365D01*
X259194585Y-17603093D01*
X259214825Y-17647216D01*
X259251375Y-17725985D01*
X259285685Y-17798423D01*
X259316448Y-17861880D01*
X259342352Y-17913708D01*
X259362090Y-17951259D01*
X259374350Y-17971884D01*
X259376776Y-17974733D01*
X259407817Y-17987302D01*
X259442879Y-17985619D01*
X259471000Y-17970332D01*
X259472146Y-17969089D01*
X259483332Y-17952154D01*
X259502096Y-17919170D01*
X259526125Y-17874380D01*
X259553103Y-17822032D01*
X259562799Y-17802742D01*
X259635986Y-17656150D01*
X259715760Y-17815393D01*
X259744233Y-17870415D01*
X259770650Y-17918132D01*
X259792852Y-17954893D01*
X259808681Y-17977044D01*
X259814046Y-17981741D01*
X259855743Y-17988102D01*
X259890151Y-17974733D01*
X259900272Y-17960446D01*
X259917786Y-17928692D01*
X259941265Y-17882597D01*
X259969280Y-17825285D01*
X260000401Y-17759880D01*
X260033201Y-17689507D01*
X260066250Y-17617291D01*
X260098119Y-17546355D01*
X260127381Y-17479825D01*
X260152605Y-17420826D01*
X260172364Y-17372481D01*
X260185228Y-17337915D01*
X260189769Y-17320253D01*
X260189723Y-17319613D01*
X260178674Y-17297388D01*
X260156590Y-17274753D01*
X260155290Y-17273768D01*
X260128147Y-17258425D01*
X260103042Y-17258574D01*
X260093632Y-17261466D01*
X260082166Y-17267718D01*
X260069990Y-17280014D01*
X260055643Y-17300908D01*
X260037664Y-17332949D01*
X260014593Y-17378688D01*
X259984970Y-17440677D01*
X259958255Y-17497898D01*
X259927520Y-17564226D01*
X259899979Y-17623874D01*
X259877062Y-17673725D01*
X259860202Y-17710664D01*
X259850827Y-17731573D01*
X259849460Y-17734845D01*
X259843311Y-17729497D01*
X259829178Y-17707109D01*
X259808943Y-17670946D01*
X259784485Y-17624277D01*
X259774752Y-17605022D01*
X259741783Y-17540004D01*
X259716357Y-17492654D01*
X259696388Y-17460219D01*
X259679790Y-17439946D01*
X259664476Y-17429082D01*
X259648360Y-17424875D01*
X259637857Y-17424400D01*
X259619330Y-17426042D01*
X259603096Y-17432831D01*
X259586965Y-17447566D01*
X259568749Y-17473044D01*
X259546261Y-17512061D01*
X259517311Y-17567414D01*
X259501338Y-17598903D01*
X259475430Y-17649087D01*
X259452833Y-17690704D01*
X259435542Y-17720242D01*
X259425550Y-17734189D01*
X259424191Y-17734770D01*
X259417739Y-17723793D01*
X259403292Y-17695290D01*
X259382297Y-17652244D01*
X259356203Y-17597638D01*
X259326454Y-17534454D01*
X259311820Y-17503071D01*
X259273750Y-17422078D01*
X259243095Y-17359756D01*
X259218263Y-17314071D01*
X259197663Y-17282989D01*
X259179702Y-17264478D01*
X259162790Y-17256504D01*
X259145335Y-17257034D01*
G37*
X259145335Y-17257034D02*
X259125745Y-17264035D01*
X259124990Y-17264377D01*
X259098387Y-17284678D01*
X259083730Y-17305561D01*
X259080862Y-17315352D01*
X259081004Y-17328361D01*
X259085039Y-17346895D01*
X259093854Y-17373257D01*
X259108331Y-17409752D01*
X259129355Y-17458687D01*
X259157812Y-17522365D01*
X259194585Y-17603093D01*
X259214825Y-17647216D01*
X259251375Y-17725985D01*
X259285685Y-17798423D01*
X259316448Y-17861880D01*
X259342352Y-17913708D01*
X259362090Y-17951259D01*
X259374350Y-17971884D01*
X259376776Y-17974733D01*
X259407817Y-17987302D01*
X259442879Y-17985619D01*
X259471000Y-17970332D01*
X259472146Y-17969089D01*
X259483332Y-17952154D01*
X259502096Y-17919170D01*
X259526125Y-17874380D01*
X259553103Y-17822032D01*
X259562799Y-17802742D01*
X259635986Y-17656150D01*
X259715760Y-17815393D01*
X259744233Y-17870415D01*
X259770650Y-17918132D01*
X259792852Y-17954893D01*
X259808681Y-17977044D01*
X259814046Y-17981741D01*
X259855743Y-17988102D01*
X259890151Y-17974733D01*
X259900272Y-17960446D01*
X259917786Y-17928692D01*
X259941265Y-17882597D01*
X259969280Y-17825285D01*
X260000401Y-17759880D01*
X260033201Y-17689507D01*
X260066250Y-17617291D01*
X260098119Y-17546355D01*
X260127381Y-17479825D01*
X260152605Y-17420826D01*
X260172364Y-17372481D01*
X260185228Y-17337915D01*
X260189769Y-17320253D01*
X260189723Y-17319613D01*
X260178674Y-17297388D01*
X260156590Y-17274753D01*
X260155290Y-17273768D01*
X260128147Y-17258425D01*
X260103042Y-17258574D01*
X260093632Y-17261466D01*
X260082166Y-17267718D01*
X260069990Y-17280014D01*
X260055643Y-17300908D01*
X260037664Y-17332949D01*
X260014593Y-17378688D01*
X259984970Y-17440677D01*
X259958255Y-17497898D01*
X259927520Y-17564226D01*
X259899979Y-17623874D01*
X259877062Y-17673725D01*
X259860202Y-17710664D01*
X259850827Y-17731573D01*
X259849460Y-17734845D01*
X259843311Y-17729497D01*
X259829178Y-17707109D01*
X259808943Y-17670946D01*
X259784485Y-17624277D01*
X259774752Y-17605022D01*
X259741783Y-17540004D01*
X259716357Y-17492654D01*
X259696388Y-17460219D01*
X259679790Y-17439946D01*
X259664476Y-17429082D01*
X259648360Y-17424875D01*
X259637857Y-17424400D01*
X259619330Y-17426042D01*
X259603096Y-17432831D01*
X259586965Y-17447566D01*
X259568749Y-17473044D01*
X259546261Y-17512061D01*
X259517311Y-17567414D01*
X259501338Y-17598903D01*
X259475430Y-17649087D01*
X259452833Y-17690704D01*
X259435542Y-17720242D01*
X259425550Y-17734189D01*
X259424191Y-17734770D01*
X259417739Y-17723793D01*
X259403292Y-17695290D01*
X259382297Y-17652244D01*
X259356203Y-17597638D01*
X259326454Y-17534454D01*
X259311820Y-17503071D01*
X259273750Y-17422078D01*
X259243095Y-17359756D01*
X259218263Y-17314071D01*
X259197663Y-17282989D01*
X259179702Y-17264478D01*
X259162790Y-17256504D01*
X259145335Y-17257034D01*
G36*
X258701386Y-17261877D02*
G01*
X258677673Y-17276647D01*
X258651022Y-17298227D01*
X258651022Y-17619773D01*
X258651107Y-17713830D01*
X258651471Y-17787932D01*
X258652276Y-17844704D01*
X258653687Y-17886768D01*
X258655867Y-17916748D01*
X258658979Y-17937267D01*
X258663186Y-17950949D01*
X258668652Y-17960416D01*
X258672528Y-17965082D01*
X258703966Y-17985575D01*
X258739767Y-17984739D01*
X258771127Y-17967264D01*
X258797778Y-17945684D01*
X258797778Y-17298227D01*
X258771127Y-17276647D01*
X258745406Y-17260949D01*
X258724400Y-17255067D01*
X258701386Y-17261877D01*
G37*
X258701386Y-17261877D02*
X258677673Y-17276647D01*
X258651022Y-17298227D01*
X258651022Y-17619773D01*
X258651107Y-17713830D01*
X258651471Y-17787932D01*
X258652276Y-17844704D01*
X258653687Y-17886768D01*
X258655867Y-17916748D01*
X258658979Y-17937267D01*
X258663186Y-17950949D01*
X258668652Y-17960416D01*
X258672528Y-17965082D01*
X258703966Y-17985575D01*
X258739767Y-17984739D01*
X258771127Y-17967264D01*
X258797778Y-17945684D01*
X258797778Y-17298227D01*
X258771127Y-17276647D01*
X258745406Y-17260949D01*
X258724400Y-17255067D01*
X258701386Y-17261877D01*
G36*
X257926935Y-17255163D02*
G01*
X257848228Y-17255542D01*
X257787137Y-17256333D01*
X257741183Y-17257670D01*
X257707886Y-17259683D01*
X257684764Y-17262506D01*
X257669338Y-17266269D01*
X257659129Y-17271105D01*
X257654187Y-17274822D01*
X257628543Y-17307358D01*
X257625441Y-17341138D01*
X257641289Y-17371826D01*
X257651652Y-17384089D01*
X257662804Y-17392450D01*
X257678965Y-17397657D01*
X257704358Y-17400457D01*
X257743202Y-17401596D01*
X257799720Y-17401821D01*
X257810820Y-17401822D01*
X257956756Y-17401822D01*
X257956756Y-17672756D01*
X257956852Y-17758154D01*
X257957289Y-17823864D01*
X257958288Y-17872774D01*
X257960072Y-17907773D01*
X257962863Y-17931749D01*
X257966883Y-17947593D01*
X257972355Y-17958191D01*
X257979334Y-17966267D01*
X258012266Y-17986112D01*
X258046646Y-17984548D01*
X258077824Y-17961906D01*
X258080114Y-17959100D01*
X258087571Y-17948492D01*
X258093253Y-17936081D01*
X258097399Y-17918850D01*
X258100250Y-17893784D01*
X258102046Y-17857867D01*
X258103028Y-17808083D01*
X258103436Y-17741417D01*
X258103511Y-17665589D01*
X258103511Y-17401822D01*
X258242873Y-17401822D01*
X258302678Y-17401418D01*
X258344082Y-17399840D01*
X258371252Y-17396547D01*
X258388354Y-17390992D01*
X258399557Y-17382631D01*
X258400917Y-17381178D01*
X258417275Y-17347939D01*
X258415828Y-17310362D01*
X258397022Y-17277645D01*
X258389750Y-17271298D01*
X258380373Y-17266266D01*
X258366391Y-17262396D01*
X258345304Y-17259537D01*
X258314611Y-17257535D01*
X258271811Y-17256239D01*
X258214405Y-17255498D01*
X258139890Y-17255158D01*
X258045767Y-17255068D01*
X258025740Y-17255067D01*
X257926935Y-17255163D01*
G37*
X257926935Y-17255163D02*
X257848228Y-17255542D01*
X257787137Y-17256333D01*
X257741183Y-17257670D01*
X257707886Y-17259683D01*
X257684764Y-17262506D01*
X257669338Y-17266269D01*
X257659129Y-17271105D01*
X257654187Y-17274822D01*
X257628543Y-17307358D01*
X257625441Y-17341138D01*
X257641289Y-17371826D01*
X257651652Y-17384089D01*
X257662804Y-17392450D01*
X257678965Y-17397657D01*
X257704358Y-17400457D01*
X257743202Y-17401596D01*
X257799720Y-17401821D01*
X257810820Y-17401822D01*
X257956756Y-17401822D01*
X257956756Y-17672756D01*
X257956852Y-17758154D01*
X257957289Y-17823864D01*
X257958288Y-17872774D01*
X257960072Y-17907773D01*
X257962863Y-17931749D01*
X257966883Y-17947593D01*
X257972355Y-17958191D01*
X257979334Y-17966267D01*
X258012266Y-17986112D01*
X258046646Y-17984548D01*
X258077824Y-17961906D01*
X258080114Y-17959100D01*
X258087571Y-17948492D01*
X258093253Y-17936081D01*
X258097399Y-17918850D01*
X258100250Y-17893784D01*
X258102046Y-17857867D01*
X258103028Y-17808083D01*
X258103436Y-17741417D01*
X258103511Y-17665589D01*
X258103511Y-17401822D01*
X258242873Y-17401822D01*
X258302678Y-17401418D01*
X258344082Y-17399840D01*
X258371252Y-17396547D01*
X258388354Y-17390992D01*
X258399557Y-17382631D01*
X258400917Y-17381178D01*
X258417275Y-17347939D01*
X258415828Y-17310362D01*
X258397022Y-17277645D01*
X258389750Y-17271298D01*
X258380373Y-17266266D01*
X258366391Y-17262396D01*
X258345304Y-17259537D01*
X258314611Y-17257535D01*
X258271811Y-17256239D01*
X258214405Y-17255498D01*
X258139890Y-17255158D01*
X258045767Y-17255068D01*
X258025740Y-17255067D01*
X257926935Y-17255163D01*
G36*
X256661177Y-17260533D02*
G01*
X256629798Y-17282776D01*
X256602089Y-17310485D01*
X256602089Y-17619920D01*
X256602162Y-17711799D01*
X256602505Y-17783840D01*
X256603308Y-17838780D01*
X256604759Y-17879360D01*
X256607048Y-17908317D01*
X256610364Y-17928391D01*
X256614895Y-17942321D01*
X256620831Y-17952845D01*
X256625486Y-17959100D01*
X256656217Y-17983673D01*
X256691504Y-17986341D01*
X256723755Y-17971271D01*
X256734412Y-17962374D01*
X256741536Y-17950557D01*
X256745833Y-17931526D01*
X256748009Y-17900992D01*
X256748772Y-17854662D01*
X256748845Y-17818871D01*
X256748845Y-17684045D01*
X257245556Y-17684045D01*
X257245556Y-17806700D01*
X257246069Y-17862787D01*
X257248124Y-17901333D01*
X257252492Y-17927361D01*
X257259944Y-17945897D01*
X257268953Y-17959100D01*
X257299856Y-17983604D01*
X257334804Y-17986506D01*
X257368262Y-17969089D01*
X257377396Y-17959959D01*
X257383848Y-17947855D01*
X257388103Y-17929001D01*
X257390648Y-17899620D01*
X257391971Y-17855937D01*
X257392557Y-17794175D01*
X257392625Y-17780000D01*
X257393109Y-17663631D01*
X257393359Y-17567727D01*
X257393277Y-17490177D01*
X257392769Y-17428869D01*
X257391738Y-17381690D01*
X257390087Y-17346530D01*
X257387721Y-17321276D01*
X257384543Y-17303817D01*
X257380456Y-17292041D01*
X257375366Y-17283835D01*
X257369734Y-17277645D01*
X257337872Y-17257844D01*
X257304643Y-17260533D01*
X257273265Y-17282776D01*
X257260567Y-17297126D01*
X257252474Y-17312978D01*
X257247958Y-17335554D01*
X257245994Y-17370078D01*
X257245556Y-17421776D01*
X257245556Y-17537289D01*
X256748845Y-17537289D01*
X256748845Y-17418756D01*
X256748338Y-17364148D01*
X256746302Y-17327275D01*
X256741965Y-17303307D01*
X256734553Y-17287415D01*
X256726267Y-17277645D01*
X256694406Y-17257844D01*
X256661177Y-17260533D01*
G37*
X256661177Y-17260533D02*
X256629798Y-17282776D01*
X256602089Y-17310485D01*
X256602089Y-17619920D01*
X256602162Y-17711799D01*
X256602505Y-17783840D01*
X256603308Y-17838780D01*
X256604759Y-17879360D01*
X256607048Y-17908317D01*
X256610364Y-17928391D01*
X256614895Y-17942321D01*
X256620831Y-17952845D01*
X256625486Y-17959100D01*
X256656217Y-17983673D01*
X256691504Y-17986341D01*
X256723755Y-17971271D01*
X256734412Y-17962374D01*
X256741536Y-17950557D01*
X256745833Y-17931526D01*
X256748009Y-17900992D01*
X256748772Y-17854662D01*
X256748845Y-17818871D01*
X256748845Y-17684045D01*
X257245556Y-17684045D01*
X257245556Y-17806700D01*
X257246069Y-17862787D01*
X257248124Y-17901333D01*
X257252492Y-17927361D01*
X257259944Y-17945897D01*
X257268953Y-17959100D01*
X257299856Y-17983604D01*
X257334804Y-17986506D01*
X257368262Y-17969089D01*
X257377396Y-17959959D01*
X257383848Y-17947855D01*
X257388103Y-17929001D01*
X257390648Y-17899620D01*
X257391971Y-17855937D01*
X257392557Y-17794175D01*
X257392625Y-17780000D01*
X257393109Y-17663631D01*
X257393359Y-17567727D01*
X257393277Y-17490177D01*
X257392769Y-17428869D01*
X257391738Y-17381690D01*
X257390087Y-17346530D01*
X257387721Y-17321276D01*
X257384543Y-17303817D01*
X257380456Y-17292041D01*
X257375366Y-17283835D01*
X257369734Y-17277645D01*
X257337872Y-17257844D01*
X257304643Y-17260533D01*
X257273265Y-17282776D01*
X257260567Y-17297126D01*
X257252474Y-17312978D01*
X257247958Y-17335554D01*
X257245994Y-17370078D01*
X257245556Y-17421776D01*
X257245556Y-17537289D01*
X256748845Y-17537289D01*
X256748845Y-17418756D01*
X256748338Y-17364148D01*
X256746302Y-17327275D01*
X256741965Y-17303307D01*
X256734553Y-17287415D01*
X256726267Y-17277645D01*
X256694406Y-17257844D01*
X256661177Y-17260533D01*
%LPC*%
D12*
X249174000Y-110490000D03*
D13*
X259334000Y-110490000D03*
D14*
X274574000Y-71628000D03*
D15*
X272034000Y-71628000D03*
D16*
X277876000Y-71628000D03*
D17*
X280416000Y-71628000D03*
G36*
G01*
X246367000Y-117018000D02*
X244617000Y-117018000D01*
G75*
G02*
X243742000Y-116143000I0J875000D01*
G01*
X243742000Y-114393000D01*
G75*
G02*
X244617000Y-113518000I875000J0D01*
G01*
X246367000Y-113518000D01*
G75*
G02*
X247242000Y-114393000I0J-875000D01*
G01*
X247242000Y-116143000D01*
G75*
G02*
X246367000Y-117018000I-875000J0D01*
G01*
G37*
G36*
G01*
X241792000Y-119768000D02*
X239792000Y-119768000D01*
G75*
G02*
X239042000Y-119018000I0J750000D01*
G01*
X239042000Y-117518000D01*
G75*
G02*
X239792000Y-116768000I750000J0D01*
G01*
X241792000Y-116768000D01*
G75*
G02*
X242542000Y-117518000I0J-750000D01*
G01*
X242542000Y-119018000D01*
G75*
G02*
X241792000Y-119768000I-750000J0D01*
G01*
G37*
D18*
X240792000Y-112268000D03*
D15*
X233680000Y-21590000D03*
X236180000Y-21590000D03*
D19*
X220805000Y-28245000D03*
D20*
X236045000Y-66345000D03*
X220805000Y-30785000D03*
X236045000Y-63805000D03*
X220805000Y-33325000D03*
X236045000Y-61265000D03*
X220805000Y-35865000D03*
X236045000Y-58725000D03*
X220805000Y-38405000D03*
X236045000Y-56185000D03*
X220805000Y-40945000D03*
X236045000Y-53645000D03*
X220805000Y-43485000D03*
X236045000Y-51105000D03*
X220805000Y-46025000D03*
X236045000Y-48565000D03*
X220805000Y-48565000D03*
X236045000Y-46025000D03*
X220805000Y-51105000D03*
X236045000Y-43485000D03*
X220805000Y-53645000D03*
X236045000Y-40945000D03*
X220805000Y-56185000D03*
X236045000Y-38405000D03*
X220805000Y-58725000D03*
X236045000Y-35865000D03*
X220805000Y-61265000D03*
X236045000Y-33325000D03*
X220805000Y-63805000D03*
X236045000Y-30785000D03*
X220805000Y-66345000D03*
X236045000Y-28245000D03*
D16*
X139700000Y-88900000D03*
D17*
X139700000Y-86360000D03*
D16*
X139700000Y-82550000D03*
D17*
X139700000Y-80010000D03*
D21*
X139700000Y-17780000D03*
X139700000Y-115570000D03*
X284480000Y-115570000D03*
X284480000Y-17780000D03*
D20*
X193040000Y-27940000D03*
X177800000Y-86360000D03*
X193040000Y-30480000D03*
X177800000Y-83820000D03*
X193040000Y-33020000D03*
X177800000Y-81280000D03*
X193040000Y-35560000D03*
X177800000Y-78740000D03*
X193040000Y-38100000D03*
X177800000Y-76200000D03*
X193040000Y-40640000D03*
X177800000Y-73660000D03*
X193040000Y-43180000D03*
X177800000Y-71120000D03*
X193040000Y-45720000D03*
X177800000Y-68580000D03*
X193040000Y-48260000D03*
X177800000Y-66040000D03*
X193040000Y-50800000D03*
X177800000Y-63500000D03*
X193040000Y-53340000D03*
X177800000Y-60960000D03*
X193040000Y-55880000D03*
X177800000Y-58420000D03*
X193040000Y-58420000D03*
X177800000Y-55880000D03*
X193040000Y-60960000D03*
X177800000Y-53340000D03*
X193040000Y-63500000D03*
X177800000Y-50800000D03*
X193040000Y-66040000D03*
X177800000Y-48260000D03*
X193040000Y-68580000D03*
X177800000Y-45720000D03*
X193040000Y-71120000D03*
X177800000Y-43180000D03*
X193040000Y-73660000D03*
X177800000Y-40640000D03*
X193040000Y-76200000D03*
X177800000Y-38100000D03*
X193040000Y-78740000D03*
X177800000Y-35560000D03*
X193040000Y-81280000D03*
X177800000Y-33020000D03*
X193040000Y-83820000D03*
X177800000Y-30480000D03*
X193040000Y-86360000D03*
D19*
X177800000Y-27940000D03*
D15*
X153670000Y-90210000D03*
X153670000Y-92710000D03*
X148590000Y-92670000D03*
X148590000Y-90170000D03*
X212130000Y-101600000D03*
D22*
X214630000Y-101600000D03*
X269240000Y-91440000D03*
D15*
X266740000Y-91440000D03*
X201970000Y-97790000D03*
D22*
X204470000Y-97790000D03*
X279400000Y-91440000D03*
D15*
X281900000Y-91440000D03*
X247690000Y-92710000D03*
X250190000Y-92710000D03*
X168910000Y-58460000D03*
X168910000Y-60960000D03*
X189230000Y-97790000D03*
X186730000Y-97790000D03*
X208320000Y-57150000D03*
X210820000Y-57150000D03*
X219710000Y-90170000D03*
X217210000Y-90170000D03*
X256540000Y-83820000D03*
X256540000Y-81320000D03*
X247690000Y-74930000D03*
X250190000Y-74930000D03*
X245110000Y-74930000D03*
X242610000Y-74930000D03*
X267970000Y-78780000D03*
X267970000Y-81280000D03*
X256540000Y-21590000D03*
X254040000Y-21590000D03*
X287020000Y-27940000D03*
X287020000Y-30440000D03*
X158750000Y-21590000D03*
X156250000Y-21590000D03*
X237490000Y-102910000D03*
X237490000Y-105410000D03*
X170180000Y-92710000D03*
X167680000Y-92710000D03*
X158790000Y-92710000D03*
X161290000Y-92710000D03*
X210820000Y-21590000D03*
X208320000Y-21590000D03*
D22*
X219710000Y-83820000D03*
D15*
X219710000Y-76200000D03*
X234950000Y-76200000D03*
X234950000Y-83820000D03*
D23*
X137414000Y-50800000D03*
D24*
X137414000Y-53340000D03*
D23*
X255270000Y-119380000D03*
D24*
X255270000Y-116840000D03*
X255270000Y-114300000D03*
D23*
X270470000Y-110860000D03*
D25*
X267970000Y-110860000D03*
X267970000Y-112860000D03*
X270470000Y-112860000D03*
D26*
X275240000Y-115570000D03*
X263200000Y-115570000D03*
D23*
X139700000Y-92710000D03*
D24*
X139700000Y-95250000D03*
X139700000Y-97790000D03*
X139700000Y-100330000D03*
X139700000Y-102870000D03*
X139700000Y-105410000D03*
X139700000Y-107950000D03*
D23*
X161290000Y-119380000D03*
D24*
X161290000Y-116840000D03*
X163830000Y-119380000D03*
X163830000Y-116840000D03*
X166370000Y-119380000D03*
X166370000Y-116840000D03*
X168910000Y-119380000D03*
X168910000Y-116840000D03*
D22*
X168910000Y-53340000D03*
D14*
X168910000Y-50800000D03*
X168910000Y-48260000D03*
X168910000Y-45720000D03*
X168910000Y-43180000D03*
X168910000Y-40640000D03*
X168910000Y-38100000D03*
X168910000Y-35560000D03*
X168910000Y-33020000D03*
X168910000Y-30480000D03*
X168910000Y-27940000D03*
X175260000Y-115570000D03*
X175260000Y-113030000D03*
X175260000Y-110490000D03*
X175260000Y-107950000D03*
D22*
X175260000Y-105410000D03*
X168910000Y-76200000D03*
D14*
X168910000Y-73660000D03*
X168910000Y-71120000D03*
X168910000Y-68580000D03*
X168910000Y-66040000D03*
D22*
X195580000Y-105410000D03*
D14*
X195580000Y-107950000D03*
X195580000Y-110490000D03*
X195580000Y-113030000D03*
X195580000Y-115570000D03*
X195580000Y-118110000D03*
D27*
X272900000Y-81970000D03*
X272900000Y-77470000D03*
X279400000Y-81970000D03*
X279400000Y-77470000D03*
D28*
X227330000Y-100180000D03*
D29*
X224790000Y-116840000D03*
D30*
X227330000Y-116840000D03*
X229870000Y-116840000D03*
D29*
X269240000Y-102870000D03*
D30*
X271780000Y-102870000D03*
X274320000Y-102870000D03*
D14*
X189230000Y-104140000D03*
X181610000Y-119380000D03*
X189230000Y-106680000D03*
X181610000Y-116840000D03*
X189230000Y-109220000D03*
X181610000Y-114300000D03*
X189230000Y-111760000D03*
X181610000Y-111760000D03*
X189230000Y-114300000D03*
X181610000Y-109220000D03*
X189230000Y-116840000D03*
X181610000Y-106680000D03*
X189230000Y-119380000D03*
D22*
X181610000Y-104140000D03*
D19*
X203200000Y-63500000D03*
D20*
X210820000Y-86360000D03*
X203200000Y-66040000D03*
X210820000Y-83820000D03*
X203200000Y-68580000D03*
X210820000Y-81280000D03*
X203200000Y-71120000D03*
X210820000Y-78740000D03*
X203200000Y-73660000D03*
X210820000Y-76200000D03*
X203200000Y-76200000D03*
X210820000Y-73660000D03*
X203200000Y-78740000D03*
X210820000Y-71120000D03*
X203200000Y-81280000D03*
X210820000Y-68580000D03*
X203200000Y-83820000D03*
X210820000Y-66040000D03*
X203200000Y-86360000D03*
X210820000Y-63500000D03*
D31*
X242570000Y-86360000D03*
D32*
X250190000Y-78740000D03*
X245110000Y-86360000D03*
X247650000Y-78740000D03*
X247650000Y-86360000D03*
X245110000Y-78740000D03*
X250190000Y-86360000D03*
X242570000Y-78740000D03*
D20*
X256540000Y-28245000D03*
X241300000Y-66345000D03*
X256540000Y-30785000D03*
X241300000Y-63805000D03*
X256540000Y-33325000D03*
X241300000Y-61265000D03*
X256540000Y-35865000D03*
X241300000Y-58725000D03*
X256540000Y-38405000D03*
X241300000Y-56185000D03*
X256540000Y-40945000D03*
X241300000Y-53645000D03*
X256540000Y-43485000D03*
X241300000Y-51105000D03*
X256540000Y-46025000D03*
X241300000Y-48565000D03*
X256540000Y-48565000D03*
X241300000Y-46025000D03*
X256540000Y-51105000D03*
X241300000Y-43485000D03*
X256540000Y-53645000D03*
X241300000Y-40945000D03*
X256540000Y-56185000D03*
X241300000Y-38405000D03*
X256540000Y-58725000D03*
X241300000Y-35865000D03*
X256540000Y-61265000D03*
X241300000Y-33325000D03*
X256540000Y-63805000D03*
X241300000Y-30785000D03*
X256540000Y-66345000D03*
D19*
X241300000Y-28245000D03*
X265430000Y-28245000D03*
D20*
X280670000Y-61265000D03*
X265430000Y-30785000D03*
X280670000Y-58725000D03*
X265430000Y-33325000D03*
X280670000Y-56185000D03*
X265430000Y-35865000D03*
X280670000Y-53645000D03*
X265430000Y-38405000D03*
X280670000Y-51105000D03*
X265430000Y-40945000D03*
X280670000Y-48565000D03*
X265430000Y-43485000D03*
X280670000Y-46025000D03*
X265430000Y-46025000D03*
X280670000Y-43485000D03*
X265430000Y-48565000D03*
X280670000Y-40945000D03*
X265430000Y-51105000D03*
X280670000Y-38405000D03*
X265430000Y-53645000D03*
X280670000Y-35865000D03*
X265430000Y-56185000D03*
X280670000Y-33325000D03*
X265430000Y-58725000D03*
X280670000Y-30785000D03*
X265430000Y-61265000D03*
X280670000Y-28245000D03*
D19*
X143510000Y-27940000D03*
D20*
X158750000Y-76200000D03*
X143510000Y-30480000D03*
X158750000Y-73660000D03*
X143510000Y-33020000D03*
X158750000Y-71120000D03*
X143510000Y-35560000D03*
X158750000Y-68580000D03*
X143510000Y-38100000D03*
X158750000Y-66040000D03*
X143510000Y-40640000D03*
X158750000Y-63500000D03*
X143510000Y-43180000D03*
X158750000Y-60960000D03*
X143510000Y-45720000D03*
X158750000Y-58420000D03*
X143510000Y-48260000D03*
X158750000Y-55880000D03*
X143510000Y-50800000D03*
X158750000Y-53340000D03*
X143510000Y-53340000D03*
X158750000Y-50800000D03*
X143510000Y-55880000D03*
X158750000Y-48260000D03*
X143510000Y-58420000D03*
X158750000Y-45720000D03*
X143510000Y-60960000D03*
X158750000Y-43180000D03*
X143510000Y-63500000D03*
X158750000Y-40640000D03*
X143510000Y-66040000D03*
X158750000Y-38100000D03*
X143510000Y-68580000D03*
X158750000Y-35560000D03*
X143510000Y-71120000D03*
X158750000Y-33020000D03*
X143510000Y-73660000D03*
X158750000Y-30480000D03*
X143510000Y-76200000D03*
X158750000Y-27940000D03*
D31*
X242570000Y-104140000D03*
D32*
X257810000Y-96520000D03*
X245110000Y-104140000D03*
X255270000Y-96520000D03*
X247650000Y-104140000D03*
X252730000Y-96520000D03*
X250190000Y-104140000D03*
X250190000Y-96520000D03*
X252730000Y-104140000D03*
X247650000Y-96520000D03*
X255270000Y-104140000D03*
X245110000Y-96520000D03*
X257810000Y-104140000D03*
X242570000Y-96520000D03*
D22*
X161290000Y-104140000D03*
D14*
X168910000Y-111760000D03*
X161290000Y-106680000D03*
X168910000Y-109220000D03*
X161290000Y-109220000D03*
X168910000Y-106680000D03*
X161290000Y-111760000D03*
X168910000Y-104140000D03*
D22*
X147320000Y-104140000D03*
D14*
X154940000Y-119380000D03*
X147320000Y-106680000D03*
X154940000Y-116840000D03*
X147320000Y-109220000D03*
X154940000Y-114300000D03*
X147320000Y-111760000D03*
X154940000Y-111760000D03*
X147320000Y-114300000D03*
X154940000Y-109220000D03*
X147320000Y-116840000D03*
X154940000Y-106680000D03*
X147320000Y-119380000D03*
X154940000Y-104140000D03*
D20*
X210820000Y-27940000D03*
X203200000Y-50800000D03*
X210820000Y-30480000D03*
X203200000Y-48260000D03*
X210820000Y-33020000D03*
X203200000Y-45720000D03*
X210820000Y-35560000D03*
X203200000Y-43180000D03*
X210820000Y-38100000D03*
X203200000Y-40640000D03*
X210820000Y-40640000D03*
X203200000Y-38100000D03*
X210820000Y-43180000D03*
X203200000Y-35560000D03*
X210820000Y-45720000D03*
X203200000Y-33020000D03*
X210820000Y-48260000D03*
X203200000Y-30480000D03*
X210820000Y-50800000D03*
D19*
X203200000Y-27940000D03*
D33*
X153670000Y-85090000D03*
X148770000Y-85090000D03*
M02*
