G04 #@! TF.GenerationSoftware,KiCad,Pcbnew,(5.1.10)-1*
G04 #@! TF.CreationDate,2021-12-01T19:10:52-06:00*
G04 #@! TF.ProjectId,68k8,36386b38-2e6b-4696-9361-645f70636258,rev?*
G04 #@! TF.SameCoordinates,Original*
G04 #@! TF.FileFunction,Legend,Top*
G04 #@! TF.FilePolarity,Positive*
%FSLAX46Y46*%
G04 Gerber Fmt 4.6, Leading zero omitted, Abs format (unit mm)*
G04 Created by KiCad (PCBNEW (5.1.10)-1) date 2021-12-01 19:10:52*
%MOMM*%
%LPD*%
G01*
G04 APERTURE LIST*
%ADD10C,0.120000*%
%ADD11C,0.150000*%
%ADD12C,1.600000*%
%ADD13R,2.400000X1.600000*%
%ADD14O,2.400000X1.600000*%
%ADD15C,1.800000*%
%ADD16R,1.800000X1.800000*%
%ADD17C,4.000000*%
%ADD18R,1.600000X1.600000*%
%ADD19R,3.500000X3.500000*%
%ADD20R,1.700000X1.700000*%
%ADD21O,1.700000X1.700000*%
%ADD22C,1.700000*%
%ADD23C,3.500000*%
%ADD24R,0.850000X1.100000*%
%ADD25R,0.750000X1.100000*%
%ADD26R,1.170000X1.800000*%
%ADD27R,1.550000X1.350000*%
%ADD28R,1.200000X1.000000*%
%ADD29R,1.900000X1.350000*%
%ADD30O,1.600000X1.600000*%
%ADD31C,2.000000*%
%ADD32O,3.500000X3.500000*%
%ADD33R,1.905000X2.000000*%
%ADD34O,1.905000X2.000000*%
%ADD35R,1.600000X2.400000*%
%ADD36O,1.600000X2.400000*%
%ADD37C,1.500000*%
G04 APERTURE END LIST*
D10*
X237050000Y-22960000D02*
X232810000Y-22960000D01*
X237050000Y-20220000D02*
X232810000Y-20220000D01*
X237050000Y-22960000D02*
X237050000Y-22255000D01*
X237050000Y-20925000D02*
X237050000Y-20220000D01*
X232810000Y-22960000D02*
X232810000Y-22255000D01*
X232810000Y-20925000D02*
X232810000Y-20220000D01*
X234485000Y-26915000D02*
X229425000Y-26915000D01*
X234485000Y-67675000D02*
X234485000Y-26915000D01*
X222365000Y-67675000D02*
X234485000Y-67675000D01*
X222365000Y-26915000D02*
X222365000Y-67675000D01*
X227425000Y-26915000D02*
X222365000Y-26915000D01*
X229425000Y-26915000D02*
G75*
G02*
X227425000Y-26915000I-1000000J0D01*
G01*
X153140000Y-14160000D02*
X153140000Y-14004000D01*
X153140000Y-16476000D02*
X153140000Y-16320000D01*
X150538870Y-14160163D02*
G75*
G02*
X152620961Y-14160000I1041130J-1079837D01*
G01*
X150538870Y-16319837D02*
G75*
G03*
X152620961Y-16320000I1041130J1079837D01*
G01*
X149907665Y-14161392D02*
G75*
G02*
X153140000Y-14004484I1672335J-1078608D01*
G01*
X149907665Y-16318608D02*
G75*
G03*
X153140000Y-16475516I1672335J1078608D01*
G01*
X159040000Y-14160000D02*
X159040000Y-14004000D01*
X159040000Y-16476000D02*
X159040000Y-16320000D01*
X156438870Y-14160163D02*
G75*
G02*
X158520961Y-14160000I1041130J-1079837D01*
G01*
X156438870Y-16319837D02*
G75*
G03*
X158520961Y-16320000I1041130J1079837D01*
G01*
X155807665Y-14161392D02*
G75*
G02*
X159040000Y-14004484I1672335J-1078608D01*
G01*
X155807665Y-16318608D02*
G75*
G03*
X159040000Y-16475516I1672335J1078608D01*
G01*
X191480000Y-26610000D02*
X186420000Y-26610000D01*
X191480000Y-87690000D02*
X191480000Y-26610000D01*
X179360000Y-87690000D02*
X191480000Y-87690000D01*
X179360000Y-26610000D02*
X179360000Y-87690000D01*
X184420000Y-26610000D02*
X179360000Y-26610000D01*
X186420000Y-26610000D02*
G75*
G02*
X184420000Y-26610000I-1000000J0D01*
G01*
X162120000Y-86460000D02*
X157880000Y-86460000D01*
X162120000Y-83720000D02*
X157880000Y-83720000D01*
X162120000Y-86460000D02*
X162120000Y-85755000D01*
X162120000Y-84425000D02*
X162120000Y-83720000D01*
X157880000Y-86460000D02*
X157880000Y-85755000D01*
X157880000Y-84425000D02*
X157880000Y-83720000D01*
X144380000Y-85755000D02*
X144380000Y-86460000D01*
X144380000Y-83720000D02*
X144380000Y-84425000D01*
X140140000Y-85755000D02*
X140140000Y-86460000D01*
X140140000Y-83720000D02*
X140140000Y-84425000D01*
X140140000Y-86460000D02*
X144380000Y-86460000D01*
X140140000Y-83720000D02*
X144380000Y-83720000D01*
X180670000Y-115570000D02*
G75*
G03*
X180670000Y-115570000I-4120000J0D01*
G01*
X176550000Y-119650000D02*
X176550000Y-111490000D01*
X176510000Y-119650000D02*
X176510000Y-111490000D01*
X176470000Y-119650000D02*
X176470000Y-111490000D01*
X176430000Y-119649000D02*
X176430000Y-111491000D01*
X176390000Y-119647000D02*
X176390000Y-111493000D01*
X176350000Y-119646000D02*
X176350000Y-111494000D01*
X176310000Y-119644000D02*
X176310000Y-116610000D01*
X176310000Y-114530000D02*
X176310000Y-111496000D01*
X176270000Y-119641000D02*
X176270000Y-116610000D01*
X176270000Y-114530000D02*
X176270000Y-111499000D01*
X176230000Y-119638000D02*
X176230000Y-116610000D01*
X176230000Y-114530000D02*
X176230000Y-111502000D01*
X176190000Y-119635000D02*
X176190000Y-116610000D01*
X176190000Y-114530000D02*
X176190000Y-111505000D01*
X176150000Y-119631000D02*
X176150000Y-116610000D01*
X176150000Y-114530000D02*
X176150000Y-111509000D01*
X176110000Y-119627000D02*
X176110000Y-116610000D01*
X176110000Y-114530000D02*
X176110000Y-111513000D01*
X176070000Y-119622000D02*
X176070000Y-116610000D01*
X176070000Y-114530000D02*
X176070000Y-111518000D01*
X176030000Y-119618000D02*
X176030000Y-116610000D01*
X176030000Y-114530000D02*
X176030000Y-111522000D01*
X175990000Y-119612000D02*
X175990000Y-116610000D01*
X175990000Y-114530000D02*
X175990000Y-111528000D01*
X175950000Y-119607000D02*
X175950000Y-116610000D01*
X175950000Y-114530000D02*
X175950000Y-111533000D01*
X175910000Y-119600000D02*
X175910000Y-116610000D01*
X175910000Y-114530000D02*
X175910000Y-111540000D01*
X175870000Y-119594000D02*
X175870000Y-116610000D01*
X175870000Y-114530000D02*
X175870000Y-111546000D01*
X175829000Y-119587000D02*
X175829000Y-116610000D01*
X175829000Y-114530000D02*
X175829000Y-111553000D01*
X175789000Y-119580000D02*
X175789000Y-116610000D01*
X175789000Y-114530000D02*
X175789000Y-111560000D01*
X175749000Y-119572000D02*
X175749000Y-116610000D01*
X175749000Y-114530000D02*
X175749000Y-111568000D01*
X175709000Y-119564000D02*
X175709000Y-116610000D01*
X175709000Y-114530000D02*
X175709000Y-111576000D01*
X175669000Y-119555000D02*
X175669000Y-116610000D01*
X175669000Y-114530000D02*
X175669000Y-111585000D01*
X175629000Y-119546000D02*
X175629000Y-116610000D01*
X175629000Y-114530000D02*
X175629000Y-111594000D01*
X175589000Y-119537000D02*
X175589000Y-116610000D01*
X175589000Y-114530000D02*
X175589000Y-111603000D01*
X175549000Y-119527000D02*
X175549000Y-116610000D01*
X175549000Y-114530000D02*
X175549000Y-111613000D01*
X175509000Y-119517000D02*
X175509000Y-116610000D01*
X175509000Y-114530000D02*
X175509000Y-111623000D01*
X175469000Y-119506000D02*
X175469000Y-116610000D01*
X175469000Y-114530000D02*
X175469000Y-111634000D01*
X175429000Y-119495000D02*
X175429000Y-116610000D01*
X175429000Y-114530000D02*
X175429000Y-111645000D01*
X175389000Y-119484000D02*
X175389000Y-116610000D01*
X175389000Y-114530000D02*
X175389000Y-111656000D01*
X175349000Y-119472000D02*
X175349000Y-116610000D01*
X175349000Y-114530000D02*
X175349000Y-111668000D01*
X175309000Y-119459000D02*
X175309000Y-116610000D01*
X175309000Y-114530000D02*
X175309000Y-111681000D01*
X175269000Y-119447000D02*
X175269000Y-116610000D01*
X175269000Y-114530000D02*
X175269000Y-111693000D01*
X175229000Y-119433000D02*
X175229000Y-116610000D01*
X175229000Y-114530000D02*
X175229000Y-111707000D01*
X175189000Y-119420000D02*
X175189000Y-116610000D01*
X175189000Y-114530000D02*
X175189000Y-111720000D01*
X175149000Y-119405000D02*
X175149000Y-116610000D01*
X175149000Y-114530000D02*
X175149000Y-111735000D01*
X175109000Y-119391000D02*
X175109000Y-116610000D01*
X175109000Y-114530000D02*
X175109000Y-111749000D01*
X175069000Y-119375000D02*
X175069000Y-116610000D01*
X175069000Y-114530000D02*
X175069000Y-111765000D01*
X175029000Y-119360000D02*
X175029000Y-116610000D01*
X175029000Y-114530000D02*
X175029000Y-111780000D01*
X174989000Y-119344000D02*
X174989000Y-116610000D01*
X174989000Y-114530000D02*
X174989000Y-111796000D01*
X174949000Y-119327000D02*
X174949000Y-116610000D01*
X174949000Y-114530000D02*
X174949000Y-111813000D01*
X174909000Y-119310000D02*
X174909000Y-116610000D01*
X174909000Y-114530000D02*
X174909000Y-111830000D01*
X174869000Y-119292000D02*
X174869000Y-116610000D01*
X174869000Y-114530000D02*
X174869000Y-111848000D01*
X174829000Y-119274000D02*
X174829000Y-116610000D01*
X174829000Y-114530000D02*
X174829000Y-111866000D01*
X174789000Y-119256000D02*
X174789000Y-116610000D01*
X174789000Y-114530000D02*
X174789000Y-111884000D01*
X174749000Y-119236000D02*
X174749000Y-116610000D01*
X174749000Y-114530000D02*
X174749000Y-111904000D01*
X174709000Y-119217000D02*
X174709000Y-116610000D01*
X174709000Y-114530000D02*
X174709000Y-111923000D01*
X174669000Y-119197000D02*
X174669000Y-116610000D01*
X174669000Y-114530000D02*
X174669000Y-111943000D01*
X174629000Y-119176000D02*
X174629000Y-116610000D01*
X174629000Y-114530000D02*
X174629000Y-111964000D01*
X174589000Y-119154000D02*
X174589000Y-116610000D01*
X174589000Y-114530000D02*
X174589000Y-111986000D01*
X174549000Y-119132000D02*
X174549000Y-116610000D01*
X174549000Y-114530000D02*
X174549000Y-112008000D01*
X174509000Y-119110000D02*
X174509000Y-116610000D01*
X174509000Y-114530000D02*
X174509000Y-112030000D01*
X174469000Y-119087000D02*
X174469000Y-116610000D01*
X174469000Y-114530000D02*
X174469000Y-112053000D01*
X174429000Y-119063000D02*
X174429000Y-116610000D01*
X174429000Y-114530000D02*
X174429000Y-112077000D01*
X174389000Y-119039000D02*
X174389000Y-116610000D01*
X174389000Y-114530000D02*
X174389000Y-112101000D01*
X174349000Y-119014000D02*
X174349000Y-116610000D01*
X174349000Y-114530000D02*
X174349000Y-112126000D01*
X174309000Y-118988000D02*
X174309000Y-116610000D01*
X174309000Y-114530000D02*
X174309000Y-112152000D01*
X174269000Y-118962000D02*
X174269000Y-116610000D01*
X174269000Y-114530000D02*
X174269000Y-112178000D01*
X174229000Y-118935000D02*
X174229000Y-112205000D01*
X174189000Y-118908000D02*
X174189000Y-112232000D01*
X174149000Y-118879000D02*
X174149000Y-112261000D01*
X174109000Y-118850000D02*
X174109000Y-112290000D01*
X174069000Y-118820000D02*
X174069000Y-112320000D01*
X174029000Y-118790000D02*
X174029000Y-112350000D01*
X173989000Y-118759000D02*
X173989000Y-112381000D01*
X173949000Y-118726000D02*
X173949000Y-112414000D01*
X173909000Y-118694000D02*
X173909000Y-112446000D01*
X173869000Y-118660000D02*
X173869000Y-112480000D01*
X173829000Y-118625000D02*
X173829000Y-112515000D01*
X173789000Y-118589000D02*
X173789000Y-112551000D01*
X173749000Y-118553000D02*
X173749000Y-112587000D01*
X173709000Y-118515000D02*
X173709000Y-112625000D01*
X173669000Y-118477000D02*
X173669000Y-112663000D01*
X173629000Y-118437000D02*
X173629000Y-112703000D01*
X173589000Y-118396000D02*
X173589000Y-112744000D01*
X173549000Y-118354000D02*
X173549000Y-112786000D01*
X173509000Y-118311000D02*
X173509000Y-112829000D01*
X173469000Y-118267000D02*
X173469000Y-112873000D01*
X173429000Y-118221000D02*
X173429000Y-112919000D01*
X173389000Y-118174000D02*
X173389000Y-112966000D01*
X173349000Y-118126000D02*
X173349000Y-113014000D01*
X173309000Y-118075000D02*
X173309000Y-113065000D01*
X173269000Y-118024000D02*
X173269000Y-113116000D01*
X173229000Y-117970000D02*
X173229000Y-113170000D01*
X173189000Y-117915000D02*
X173189000Y-113225000D01*
X173149000Y-117857000D02*
X173149000Y-113283000D01*
X173109000Y-117798000D02*
X173109000Y-113342000D01*
X173069000Y-117736000D02*
X173069000Y-113404000D01*
X173029000Y-117672000D02*
X173029000Y-113468000D01*
X172989000Y-117604000D02*
X172989000Y-113536000D01*
X172949000Y-117534000D02*
X172949000Y-113606000D01*
X172909000Y-117460000D02*
X172909000Y-113680000D01*
X172869000Y-117383000D02*
X172869000Y-113757000D01*
X172829000Y-117301000D02*
X172829000Y-113839000D01*
X172789000Y-117215000D02*
X172789000Y-113925000D01*
X172749000Y-117122000D02*
X172749000Y-114018000D01*
X172709000Y-117023000D02*
X172709000Y-114117000D01*
X172669000Y-116916000D02*
X172669000Y-114224000D01*
X172629000Y-116799000D02*
X172629000Y-114341000D01*
X172589000Y-116668000D02*
X172589000Y-114472000D01*
X172549000Y-116518000D02*
X172549000Y-114622000D01*
X172509000Y-116338000D02*
X172509000Y-114802000D01*
X172469000Y-116103000D02*
X172469000Y-115037000D01*
X180959698Y-117885000D02*
X180159698Y-117885000D01*
X180559698Y-118285000D02*
X180559698Y-117485000D01*
X203379698Y-105585000D02*
X203379698Y-104785000D01*
X203779698Y-105185000D02*
X202979698Y-105185000D01*
X195289000Y-103403000D02*
X195289000Y-102337000D01*
X195329000Y-103638000D02*
X195329000Y-102102000D01*
X195369000Y-103818000D02*
X195369000Y-101922000D01*
X195409000Y-103968000D02*
X195409000Y-101772000D01*
X195449000Y-104099000D02*
X195449000Y-101641000D01*
X195489000Y-104216000D02*
X195489000Y-101524000D01*
X195529000Y-104323000D02*
X195529000Y-101417000D01*
X195569000Y-104422000D02*
X195569000Y-101318000D01*
X195609000Y-104515000D02*
X195609000Y-101225000D01*
X195649000Y-104601000D02*
X195649000Y-101139000D01*
X195689000Y-104683000D02*
X195689000Y-101057000D01*
X195729000Y-104760000D02*
X195729000Y-100980000D01*
X195769000Y-104834000D02*
X195769000Y-100906000D01*
X195809000Y-104904000D02*
X195809000Y-100836000D01*
X195849000Y-104972000D02*
X195849000Y-100768000D01*
X195889000Y-105036000D02*
X195889000Y-100704000D01*
X195929000Y-105098000D02*
X195929000Y-100642000D01*
X195969000Y-105157000D02*
X195969000Y-100583000D01*
X196009000Y-105215000D02*
X196009000Y-100525000D01*
X196049000Y-105270000D02*
X196049000Y-100470000D01*
X196089000Y-105324000D02*
X196089000Y-100416000D01*
X196129000Y-105375000D02*
X196129000Y-100365000D01*
X196169000Y-105426000D02*
X196169000Y-100314000D01*
X196209000Y-105474000D02*
X196209000Y-100266000D01*
X196249000Y-105521000D02*
X196249000Y-100219000D01*
X196289000Y-105567000D02*
X196289000Y-100173000D01*
X196329000Y-105611000D02*
X196329000Y-100129000D01*
X196369000Y-105654000D02*
X196369000Y-100086000D01*
X196409000Y-105696000D02*
X196409000Y-100044000D01*
X196449000Y-105737000D02*
X196449000Y-100003000D01*
X196489000Y-105777000D02*
X196489000Y-99963000D01*
X196529000Y-105815000D02*
X196529000Y-99925000D01*
X196569000Y-105853000D02*
X196569000Y-99887000D01*
X196609000Y-105889000D02*
X196609000Y-99851000D01*
X196649000Y-105925000D02*
X196649000Y-99815000D01*
X196689000Y-105960000D02*
X196689000Y-99780000D01*
X196729000Y-105994000D02*
X196729000Y-99746000D01*
X196769000Y-106026000D02*
X196769000Y-99714000D01*
X196809000Y-106059000D02*
X196809000Y-99681000D01*
X196849000Y-106090000D02*
X196849000Y-99650000D01*
X196889000Y-106120000D02*
X196889000Y-99620000D01*
X196929000Y-106150000D02*
X196929000Y-99590000D01*
X196969000Y-106179000D02*
X196969000Y-99561000D01*
X197009000Y-106208000D02*
X197009000Y-99532000D01*
X197049000Y-106235000D02*
X197049000Y-99505000D01*
X197089000Y-101830000D02*
X197089000Y-99478000D01*
X197089000Y-106262000D02*
X197089000Y-103910000D01*
X197129000Y-101830000D02*
X197129000Y-99452000D01*
X197129000Y-106288000D02*
X197129000Y-103910000D01*
X197169000Y-101830000D02*
X197169000Y-99426000D01*
X197169000Y-106314000D02*
X197169000Y-103910000D01*
X197209000Y-101830000D02*
X197209000Y-99401000D01*
X197209000Y-106339000D02*
X197209000Y-103910000D01*
X197249000Y-101830000D02*
X197249000Y-99377000D01*
X197249000Y-106363000D02*
X197249000Y-103910000D01*
X197289000Y-101830000D02*
X197289000Y-99353000D01*
X197289000Y-106387000D02*
X197289000Y-103910000D01*
X197329000Y-101830000D02*
X197329000Y-99330000D01*
X197329000Y-106410000D02*
X197329000Y-103910000D01*
X197369000Y-101830000D02*
X197369000Y-99308000D01*
X197369000Y-106432000D02*
X197369000Y-103910000D01*
X197409000Y-101830000D02*
X197409000Y-99286000D01*
X197409000Y-106454000D02*
X197409000Y-103910000D01*
X197449000Y-101830000D02*
X197449000Y-99264000D01*
X197449000Y-106476000D02*
X197449000Y-103910000D01*
X197489000Y-101830000D02*
X197489000Y-99243000D01*
X197489000Y-106497000D02*
X197489000Y-103910000D01*
X197529000Y-101830000D02*
X197529000Y-99223000D01*
X197529000Y-106517000D02*
X197529000Y-103910000D01*
X197569000Y-101830000D02*
X197569000Y-99204000D01*
X197569000Y-106536000D02*
X197569000Y-103910000D01*
X197609000Y-101830000D02*
X197609000Y-99184000D01*
X197609000Y-106556000D02*
X197609000Y-103910000D01*
X197649000Y-101830000D02*
X197649000Y-99166000D01*
X197649000Y-106574000D02*
X197649000Y-103910000D01*
X197689000Y-101830000D02*
X197689000Y-99148000D01*
X197689000Y-106592000D02*
X197689000Y-103910000D01*
X197729000Y-101830000D02*
X197729000Y-99130000D01*
X197729000Y-106610000D02*
X197729000Y-103910000D01*
X197769000Y-101830000D02*
X197769000Y-99113000D01*
X197769000Y-106627000D02*
X197769000Y-103910000D01*
X197809000Y-101830000D02*
X197809000Y-99096000D01*
X197809000Y-106644000D02*
X197809000Y-103910000D01*
X197849000Y-101830000D02*
X197849000Y-99080000D01*
X197849000Y-106660000D02*
X197849000Y-103910000D01*
X197889000Y-101830000D02*
X197889000Y-99065000D01*
X197889000Y-106675000D02*
X197889000Y-103910000D01*
X197929000Y-101830000D02*
X197929000Y-99049000D01*
X197929000Y-106691000D02*
X197929000Y-103910000D01*
X197969000Y-101830000D02*
X197969000Y-99035000D01*
X197969000Y-106705000D02*
X197969000Y-103910000D01*
X198009000Y-101830000D02*
X198009000Y-99020000D01*
X198009000Y-106720000D02*
X198009000Y-103910000D01*
X198049000Y-101830000D02*
X198049000Y-99007000D01*
X198049000Y-106733000D02*
X198049000Y-103910000D01*
X198089000Y-101830000D02*
X198089000Y-98993000D01*
X198089000Y-106747000D02*
X198089000Y-103910000D01*
X198129000Y-101830000D02*
X198129000Y-98981000D01*
X198129000Y-106759000D02*
X198129000Y-103910000D01*
X198169000Y-101830000D02*
X198169000Y-98968000D01*
X198169000Y-106772000D02*
X198169000Y-103910000D01*
X198209000Y-101830000D02*
X198209000Y-98956000D01*
X198209000Y-106784000D02*
X198209000Y-103910000D01*
X198249000Y-101830000D02*
X198249000Y-98945000D01*
X198249000Y-106795000D02*
X198249000Y-103910000D01*
X198289000Y-101830000D02*
X198289000Y-98934000D01*
X198289000Y-106806000D02*
X198289000Y-103910000D01*
X198329000Y-101830000D02*
X198329000Y-98923000D01*
X198329000Y-106817000D02*
X198329000Y-103910000D01*
X198369000Y-101830000D02*
X198369000Y-98913000D01*
X198369000Y-106827000D02*
X198369000Y-103910000D01*
X198409000Y-101830000D02*
X198409000Y-98903000D01*
X198409000Y-106837000D02*
X198409000Y-103910000D01*
X198449000Y-101830000D02*
X198449000Y-98894000D01*
X198449000Y-106846000D02*
X198449000Y-103910000D01*
X198489000Y-101830000D02*
X198489000Y-98885000D01*
X198489000Y-106855000D02*
X198489000Y-103910000D01*
X198529000Y-101830000D02*
X198529000Y-98876000D01*
X198529000Y-106864000D02*
X198529000Y-103910000D01*
X198569000Y-101830000D02*
X198569000Y-98868000D01*
X198569000Y-106872000D02*
X198569000Y-103910000D01*
X198609000Y-101830000D02*
X198609000Y-98860000D01*
X198609000Y-106880000D02*
X198609000Y-103910000D01*
X198649000Y-101830000D02*
X198649000Y-98853000D01*
X198649000Y-106887000D02*
X198649000Y-103910000D01*
X198690000Y-101830000D02*
X198690000Y-98846000D01*
X198690000Y-106894000D02*
X198690000Y-103910000D01*
X198730000Y-101830000D02*
X198730000Y-98840000D01*
X198730000Y-106900000D02*
X198730000Y-103910000D01*
X198770000Y-101830000D02*
X198770000Y-98833000D01*
X198770000Y-106907000D02*
X198770000Y-103910000D01*
X198810000Y-101830000D02*
X198810000Y-98828000D01*
X198810000Y-106912000D02*
X198810000Y-103910000D01*
X198850000Y-101830000D02*
X198850000Y-98822000D01*
X198850000Y-106918000D02*
X198850000Y-103910000D01*
X198890000Y-101830000D02*
X198890000Y-98818000D01*
X198890000Y-106922000D02*
X198890000Y-103910000D01*
X198930000Y-101830000D02*
X198930000Y-98813000D01*
X198930000Y-106927000D02*
X198930000Y-103910000D01*
X198970000Y-101830000D02*
X198970000Y-98809000D01*
X198970000Y-106931000D02*
X198970000Y-103910000D01*
X199010000Y-101830000D02*
X199010000Y-98805000D01*
X199010000Y-106935000D02*
X199010000Y-103910000D01*
X199050000Y-101830000D02*
X199050000Y-98802000D01*
X199050000Y-106938000D02*
X199050000Y-103910000D01*
X199090000Y-101830000D02*
X199090000Y-98799000D01*
X199090000Y-106941000D02*
X199090000Y-103910000D01*
X199130000Y-101830000D02*
X199130000Y-98796000D01*
X199130000Y-106944000D02*
X199130000Y-103910000D01*
X199170000Y-106946000D02*
X199170000Y-98794000D01*
X199210000Y-106947000D02*
X199210000Y-98793000D01*
X199250000Y-106949000D02*
X199250000Y-98791000D01*
X199290000Y-106950000D02*
X199290000Y-98790000D01*
X199330000Y-106950000D02*
X199330000Y-98790000D01*
X199370000Y-106950000D02*
X199370000Y-98790000D01*
X203490000Y-102870000D02*
G75*
G03*
X203490000Y-102870000I-4120000J0D01*
G01*
X180630000Y-102870000D02*
G75*
G03*
X180630000Y-102870000I-4120000J0D01*
G01*
X176510000Y-106950000D02*
X176510000Y-98790000D01*
X176470000Y-106950000D02*
X176470000Y-98790000D01*
X176430000Y-106950000D02*
X176430000Y-98790000D01*
X176390000Y-106949000D02*
X176390000Y-98791000D01*
X176350000Y-106947000D02*
X176350000Y-98793000D01*
X176310000Y-106946000D02*
X176310000Y-98794000D01*
X176270000Y-106944000D02*
X176270000Y-103910000D01*
X176270000Y-101830000D02*
X176270000Y-98796000D01*
X176230000Y-106941000D02*
X176230000Y-103910000D01*
X176230000Y-101830000D02*
X176230000Y-98799000D01*
X176190000Y-106938000D02*
X176190000Y-103910000D01*
X176190000Y-101830000D02*
X176190000Y-98802000D01*
X176150000Y-106935000D02*
X176150000Y-103910000D01*
X176150000Y-101830000D02*
X176150000Y-98805000D01*
X176110000Y-106931000D02*
X176110000Y-103910000D01*
X176110000Y-101830000D02*
X176110000Y-98809000D01*
X176070000Y-106927000D02*
X176070000Y-103910000D01*
X176070000Y-101830000D02*
X176070000Y-98813000D01*
X176030000Y-106922000D02*
X176030000Y-103910000D01*
X176030000Y-101830000D02*
X176030000Y-98818000D01*
X175990000Y-106918000D02*
X175990000Y-103910000D01*
X175990000Y-101830000D02*
X175990000Y-98822000D01*
X175950000Y-106912000D02*
X175950000Y-103910000D01*
X175950000Y-101830000D02*
X175950000Y-98828000D01*
X175910000Y-106907000D02*
X175910000Y-103910000D01*
X175910000Y-101830000D02*
X175910000Y-98833000D01*
X175870000Y-106900000D02*
X175870000Y-103910000D01*
X175870000Y-101830000D02*
X175870000Y-98840000D01*
X175830000Y-106894000D02*
X175830000Y-103910000D01*
X175830000Y-101830000D02*
X175830000Y-98846000D01*
X175789000Y-106887000D02*
X175789000Y-103910000D01*
X175789000Y-101830000D02*
X175789000Y-98853000D01*
X175749000Y-106880000D02*
X175749000Y-103910000D01*
X175749000Y-101830000D02*
X175749000Y-98860000D01*
X175709000Y-106872000D02*
X175709000Y-103910000D01*
X175709000Y-101830000D02*
X175709000Y-98868000D01*
X175669000Y-106864000D02*
X175669000Y-103910000D01*
X175669000Y-101830000D02*
X175669000Y-98876000D01*
X175629000Y-106855000D02*
X175629000Y-103910000D01*
X175629000Y-101830000D02*
X175629000Y-98885000D01*
X175589000Y-106846000D02*
X175589000Y-103910000D01*
X175589000Y-101830000D02*
X175589000Y-98894000D01*
X175549000Y-106837000D02*
X175549000Y-103910000D01*
X175549000Y-101830000D02*
X175549000Y-98903000D01*
X175509000Y-106827000D02*
X175509000Y-103910000D01*
X175509000Y-101830000D02*
X175509000Y-98913000D01*
X175469000Y-106817000D02*
X175469000Y-103910000D01*
X175469000Y-101830000D02*
X175469000Y-98923000D01*
X175429000Y-106806000D02*
X175429000Y-103910000D01*
X175429000Y-101830000D02*
X175429000Y-98934000D01*
X175389000Y-106795000D02*
X175389000Y-103910000D01*
X175389000Y-101830000D02*
X175389000Y-98945000D01*
X175349000Y-106784000D02*
X175349000Y-103910000D01*
X175349000Y-101830000D02*
X175349000Y-98956000D01*
X175309000Y-106772000D02*
X175309000Y-103910000D01*
X175309000Y-101830000D02*
X175309000Y-98968000D01*
X175269000Y-106759000D02*
X175269000Y-103910000D01*
X175269000Y-101830000D02*
X175269000Y-98981000D01*
X175229000Y-106747000D02*
X175229000Y-103910000D01*
X175229000Y-101830000D02*
X175229000Y-98993000D01*
X175189000Y-106733000D02*
X175189000Y-103910000D01*
X175189000Y-101830000D02*
X175189000Y-99007000D01*
X175149000Y-106720000D02*
X175149000Y-103910000D01*
X175149000Y-101830000D02*
X175149000Y-99020000D01*
X175109000Y-106705000D02*
X175109000Y-103910000D01*
X175109000Y-101830000D02*
X175109000Y-99035000D01*
X175069000Y-106691000D02*
X175069000Y-103910000D01*
X175069000Y-101830000D02*
X175069000Y-99049000D01*
X175029000Y-106675000D02*
X175029000Y-103910000D01*
X175029000Y-101830000D02*
X175029000Y-99065000D01*
X174989000Y-106660000D02*
X174989000Y-103910000D01*
X174989000Y-101830000D02*
X174989000Y-99080000D01*
X174949000Y-106644000D02*
X174949000Y-103910000D01*
X174949000Y-101830000D02*
X174949000Y-99096000D01*
X174909000Y-106627000D02*
X174909000Y-103910000D01*
X174909000Y-101830000D02*
X174909000Y-99113000D01*
X174869000Y-106610000D02*
X174869000Y-103910000D01*
X174869000Y-101830000D02*
X174869000Y-99130000D01*
X174829000Y-106592000D02*
X174829000Y-103910000D01*
X174829000Y-101830000D02*
X174829000Y-99148000D01*
X174789000Y-106574000D02*
X174789000Y-103910000D01*
X174789000Y-101830000D02*
X174789000Y-99166000D01*
X174749000Y-106556000D02*
X174749000Y-103910000D01*
X174749000Y-101830000D02*
X174749000Y-99184000D01*
X174709000Y-106536000D02*
X174709000Y-103910000D01*
X174709000Y-101830000D02*
X174709000Y-99204000D01*
X174669000Y-106517000D02*
X174669000Y-103910000D01*
X174669000Y-101830000D02*
X174669000Y-99223000D01*
X174629000Y-106497000D02*
X174629000Y-103910000D01*
X174629000Y-101830000D02*
X174629000Y-99243000D01*
X174589000Y-106476000D02*
X174589000Y-103910000D01*
X174589000Y-101830000D02*
X174589000Y-99264000D01*
X174549000Y-106454000D02*
X174549000Y-103910000D01*
X174549000Y-101830000D02*
X174549000Y-99286000D01*
X174509000Y-106432000D02*
X174509000Y-103910000D01*
X174509000Y-101830000D02*
X174509000Y-99308000D01*
X174469000Y-106410000D02*
X174469000Y-103910000D01*
X174469000Y-101830000D02*
X174469000Y-99330000D01*
X174429000Y-106387000D02*
X174429000Y-103910000D01*
X174429000Y-101830000D02*
X174429000Y-99353000D01*
X174389000Y-106363000D02*
X174389000Y-103910000D01*
X174389000Y-101830000D02*
X174389000Y-99377000D01*
X174349000Y-106339000D02*
X174349000Y-103910000D01*
X174349000Y-101830000D02*
X174349000Y-99401000D01*
X174309000Y-106314000D02*
X174309000Y-103910000D01*
X174309000Y-101830000D02*
X174309000Y-99426000D01*
X174269000Y-106288000D02*
X174269000Y-103910000D01*
X174269000Y-101830000D02*
X174269000Y-99452000D01*
X174229000Y-106262000D02*
X174229000Y-103910000D01*
X174229000Y-101830000D02*
X174229000Y-99478000D01*
X174189000Y-106235000D02*
X174189000Y-99505000D01*
X174149000Y-106208000D02*
X174149000Y-99532000D01*
X174109000Y-106179000D02*
X174109000Y-99561000D01*
X174069000Y-106150000D02*
X174069000Y-99590000D01*
X174029000Y-106120000D02*
X174029000Y-99620000D01*
X173989000Y-106090000D02*
X173989000Y-99650000D01*
X173949000Y-106059000D02*
X173949000Y-99681000D01*
X173909000Y-106026000D02*
X173909000Y-99714000D01*
X173869000Y-105994000D02*
X173869000Y-99746000D01*
X173829000Y-105960000D02*
X173829000Y-99780000D01*
X173789000Y-105925000D02*
X173789000Y-99815000D01*
X173749000Y-105889000D02*
X173749000Y-99851000D01*
X173709000Y-105853000D02*
X173709000Y-99887000D01*
X173669000Y-105815000D02*
X173669000Y-99925000D01*
X173629000Y-105777000D02*
X173629000Y-99963000D01*
X173589000Y-105737000D02*
X173589000Y-100003000D01*
X173549000Y-105696000D02*
X173549000Y-100044000D01*
X173509000Y-105654000D02*
X173509000Y-100086000D01*
X173469000Y-105611000D02*
X173469000Y-100129000D01*
X173429000Y-105567000D02*
X173429000Y-100173000D01*
X173389000Y-105521000D02*
X173389000Y-100219000D01*
X173349000Y-105474000D02*
X173349000Y-100266000D01*
X173309000Y-105426000D02*
X173309000Y-100314000D01*
X173269000Y-105375000D02*
X173269000Y-100365000D01*
X173229000Y-105324000D02*
X173229000Y-100416000D01*
X173189000Y-105270000D02*
X173189000Y-100470000D01*
X173149000Y-105215000D02*
X173149000Y-100525000D01*
X173109000Y-105157000D02*
X173109000Y-100583000D01*
X173069000Y-105098000D02*
X173069000Y-100642000D01*
X173029000Y-105036000D02*
X173029000Y-100704000D01*
X172989000Y-104972000D02*
X172989000Y-100768000D01*
X172949000Y-104904000D02*
X172949000Y-100836000D01*
X172909000Y-104834000D02*
X172909000Y-100906000D01*
X172869000Y-104760000D02*
X172869000Y-100980000D01*
X172829000Y-104683000D02*
X172829000Y-101057000D01*
X172789000Y-104601000D02*
X172789000Y-101139000D01*
X172749000Y-104515000D02*
X172749000Y-101225000D01*
X172709000Y-104422000D02*
X172709000Y-101318000D01*
X172669000Y-104323000D02*
X172669000Y-101417000D01*
X172629000Y-104216000D02*
X172629000Y-101524000D01*
X172589000Y-104099000D02*
X172589000Y-101641000D01*
X172549000Y-103968000D02*
X172549000Y-101772000D01*
X172509000Y-103818000D02*
X172509000Y-101922000D01*
X172469000Y-103638000D02*
X172469000Y-102102000D01*
X172429000Y-103403000D02*
X172429000Y-102337000D01*
X180919698Y-105185000D02*
X180119698Y-105185000D01*
X180519698Y-105585000D02*
X180519698Y-104785000D01*
X218260302Y-100155000D02*
X218260302Y-100955000D01*
X217860302Y-100555000D02*
X218660302Y-100555000D01*
X226351000Y-102337000D02*
X226351000Y-103403000D01*
X226311000Y-102102000D02*
X226311000Y-103638000D01*
X226271000Y-101922000D02*
X226271000Y-103818000D01*
X226231000Y-101772000D02*
X226231000Y-103968000D01*
X226191000Y-101641000D02*
X226191000Y-104099000D01*
X226151000Y-101524000D02*
X226151000Y-104216000D01*
X226111000Y-101417000D02*
X226111000Y-104323000D01*
X226071000Y-101318000D02*
X226071000Y-104422000D01*
X226031000Y-101225000D02*
X226031000Y-104515000D01*
X225991000Y-101139000D02*
X225991000Y-104601000D01*
X225951000Y-101057000D02*
X225951000Y-104683000D01*
X225911000Y-100980000D02*
X225911000Y-104760000D01*
X225871000Y-100906000D02*
X225871000Y-104834000D01*
X225831000Y-100836000D02*
X225831000Y-104904000D01*
X225791000Y-100768000D02*
X225791000Y-104972000D01*
X225751000Y-100704000D02*
X225751000Y-105036000D01*
X225711000Y-100642000D02*
X225711000Y-105098000D01*
X225671000Y-100583000D02*
X225671000Y-105157000D01*
X225631000Y-100525000D02*
X225631000Y-105215000D01*
X225591000Y-100470000D02*
X225591000Y-105270000D01*
X225551000Y-100416000D02*
X225551000Y-105324000D01*
X225511000Y-100365000D02*
X225511000Y-105375000D01*
X225471000Y-100314000D02*
X225471000Y-105426000D01*
X225431000Y-100266000D02*
X225431000Y-105474000D01*
X225391000Y-100219000D02*
X225391000Y-105521000D01*
X225351000Y-100173000D02*
X225351000Y-105567000D01*
X225311000Y-100129000D02*
X225311000Y-105611000D01*
X225271000Y-100086000D02*
X225271000Y-105654000D01*
X225231000Y-100044000D02*
X225231000Y-105696000D01*
X225191000Y-100003000D02*
X225191000Y-105737000D01*
X225151000Y-99963000D02*
X225151000Y-105777000D01*
X225111000Y-99925000D02*
X225111000Y-105815000D01*
X225071000Y-99887000D02*
X225071000Y-105853000D01*
X225031000Y-99851000D02*
X225031000Y-105889000D01*
X224991000Y-99815000D02*
X224991000Y-105925000D01*
X224951000Y-99780000D02*
X224951000Y-105960000D01*
X224911000Y-99746000D02*
X224911000Y-105994000D01*
X224871000Y-99714000D02*
X224871000Y-106026000D01*
X224831000Y-99681000D02*
X224831000Y-106059000D01*
X224791000Y-99650000D02*
X224791000Y-106090000D01*
X224751000Y-99620000D02*
X224751000Y-106120000D01*
X224711000Y-99590000D02*
X224711000Y-106150000D01*
X224671000Y-99561000D02*
X224671000Y-106179000D01*
X224631000Y-99532000D02*
X224631000Y-106208000D01*
X224591000Y-99505000D02*
X224591000Y-106235000D01*
X224551000Y-103910000D02*
X224551000Y-106262000D01*
X224551000Y-99478000D02*
X224551000Y-101830000D01*
X224511000Y-103910000D02*
X224511000Y-106288000D01*
X224511000Y-99452000D02*
X224511000Y-101830000D01*
X224471000Y-103910000D02*
X224471000Y-106314000D01*
X224471000Y-99426000D02*
X224471000Y-101830000D01*
X224431000Y-103910000D02*
X224431000Y-106339000D01*
X224431000Y-99401000D02*
X224431000Y-101830000D01*
X224391000Y-103910000D02*
X224391000Y-106363000D01*
X224391000Y-99377000D02*
X224391000Y-101830000D01*
X224351000Y-103910000D02*
X224351000Y-106387000D01*
X224351000Y-99353000D02*
X224351000Y-101830000D01*
X224311000Y-103910000D02*
X224311000Y-106410000D01*
X224311000Y-99330000D02*
X224311000Y-101830000D01*
X224271000Y-103910000D02*
X224271000Y-106432000D01*
X224271000Y-99308000D02*
X224271000Y-101830000D01*
X224231000Y-103910000D02*
X224231000Y-106454000D01*
X224231000Y-99286000D02*
X224231000Y-101830000D01*
X224191000Y-103910000D02*
X224191000Y-106476000D01*
X224191000Y-99264000D02*
X224191000Y-101830000D01*
X224151000Y-103910000D02*
X224151000Y-106497000D01*
X224151000Y-99243000D02*
X224151000Y-101830000D01*
X224111000Y-103910000D02*
X224111000Y-106517000D01*
X224111000Y-99223000D02*
X224111000Y-101830000D01*
X224071000Y-103910000D02*
X224071000Y-106536000D01*
X224071000Y-99204000D02*
X224071000Y-101830000D01*
X224031000Y-103910000D02*
X224031000Y-106556000D01*
X224031000Y-99184000D02*
X224031000Y-101830000D01*
X223991000Y-103910000D02*
X223991000Y-106574000D01*
X223991000Y-99166000D02*
X223991000Y-101830000D01*
X223951000Y-103910000D02*
X223951000Y-106592000D01*
X223951000Y-99148000D02*
X223951000Y-101830000D01*
X223911000Y-103910000D02*
X223911000Y-106610000D01*
X223911000Y-99130000D02*
X223911000Y-101830000D01*
X223871000Y-103910000D02*
X223871000Y-106627000D01*
X223871000Y-99113000D02*
X223871000Y-101830000D01*
X223831000Y-103910000D02*
X223831000Y-106644000D01*
X223831000Y-99096000D02*
X223831000Y-101830000D01*
X223791000Y-103910000D02*
X223791000Y-106660000D01*
X223791000Y-99080000D02*
X223791000Y-101830000D01*
X223751000Y-103910000D02*
X223751000Y-106675000D01*
X223751000Y-99065000D02*
X223751000Y-101830000D01*
X223711000Y-103910000D02*
X223711000Y-106691000D01*
X223711000Y-99049000D02*
X223711000Y-101830000D01*
X223671000Y-103910000D02*
X223671000Y-106705000D01*
X223671000Y-99035000D02*
X223671000Y-101830000D01*
X223631000Y-103910000D02*
X223631000Y-106720000D01*
X223631000Y-99020000D02*
X223631000Y-101830000D01*
X223591000Y-103910000D02*
X223591000Y-106733000D01*
X223591000Y-99007000D02*
X223591000Y-101830000D01*
X223551000Y-103910000D02*
X223551000Y-106747000D01*
X223551000Y-98993000D02*
X223551000Y-101830000D01*
X223511000Y-103910000D02*
X223511000Y-106759000D01*
X223511000Y-98981000D02*
X223511000Y-101830000D01*
X223471000Y-103910000D02*
X223471000Y-106772000D01*
X223471000Y-98968000D02*
X223471000Y-101830000D01*
X223431000Y-103910000D02*
X223431000Y-106784000D01*
X223431000Y-98956000D02*
X223431000Y-101830000D01*
X223391000Y-103910000D02*
X223391000Y-106795000D01*
X223391000Y-98945000D02*
X223391000Y-101830000D01*
X223351000Y-103910000D02*
X223351000Y-106806000D01*
X223351000Y-98934000D02*
X223351000Y-101830000D01*
X223311000Y-103910000D02*
X223311000Y-106817000D01*
X223311000Y-98923000D02*
X223311000Y-101830000D01*
X223271000Y-103910000D02*
X223271000Y-106827000D01*
X223271000Y-98913000D02*
X223271000Y-101830000D01*
X223231000Y-103910000D02*
X223231000Y-106837000D01*
X223231000Y-98903000D02*
X223231000Y-101830000D01*
X223191000Y-103910000D02*
X223191000Y-106846000D01*
X223191000Y-98894000D02*
X223191000Y-101830000D01*
X223151000Y-103910000D02*
X223151000Y-106855000D01*
X223151000Y-98885000D02*
X223151000Y-101830000D01*
X223111000Y-103910000D02*
X223111000Y-106864000D01*
X223111000Y-98876000D02*
X223111000Y-101830000D01*
X223071000Y-103910000D02*
X223071000Y-106872000D01*
X223071000Y-98868000D02*
X223071000Y-101830000D01*
X223031000Y-103910000D02*
X223031000Y-106880000D01*
X223031000Y-98860000D02*
X223031000Y-101830000D01*
X222991000Y-103910000D02*
X222991000Y-106887000D01*
X222991000Y-98853000D02*
X222991000Y-101830000D01*
X222950000Y-103910000D02*
X222950000Y-106894000D01*
X222950000Y-98846000D02*
X222950000Y-101830000D01*
X222910000Y-103910000D02*
X222910000Y-106900000D01*
X222910000Y-98840000D02*
X222910000Y-101830000D01*
X222870000Y-103910000D02*
X222870000Y-106907000D01*
X222870000Y-98833000D02*
X222870000Y-101830000D01*
X222830000Y-103910000D02*
X222830000Y-106912000D01*
X222830000Y-98828000D02*
X222830000Y-101830000D01*
X222790000Y-103910000D02*
X222790000Y-106918000D01*
X222790000Y-98822000D02*
X222790000Y-101830000D01*
X222750000Y-103910000D02*
X222750000Y-106922000D01*
X222750000Y-98818000D02*
X222750000Y-101830000D01*
X222710000Y-103910000D02*
X222710000Y-106927000D01*
X222710000Y-98813000D02*
X222710000Y-101830000D01*
X222670000Y-103910000D02*
X222670000Y-106931000D01*
X222670000Y-98809000D02*
X222670000Y-101830000D01*
X222630000Y-103910000D02*
X222630000Y-106935000D01*
X222630000Y-98805000D02*
X222630000Y-101830000D01*
X222590000Y-103910000D02*
X222590000Y-106938000D01*
X222590000Y-98802000D02*
X222590000Y-101830000D01*
X222550000Y-103910000D02*
X222550000Y-106941000D01*
X222550000Y-98799000D02*
X222550000Y-101830000D01*
X222510000Y-103910000D02*
X222510000Y-106944000D01*
X222510000Y-98796000D02*
X222510000Y-101830000D01*
X222470000Y-98794000D02*
X222470000Y-106946000D01*
X222430000Y-98793000D02*
X222430000Y-106947000D01*
X222390000Y-98791000D02*
X222390000Y-106949000D01*
X222350000Y-98790000D02*
X222350000Y-106950000D01*
X222310000Y-98790000D02*
X222310000Y-106950000D01*
X222270000Y-98790000D02*
X222270000Y-106950000D01*
X226390000Y-102870000D02*
G75*
G03*
X226390000Y-102870000I-4120000J0D01*
G01*
X242470000Y-92310000D02*
X242470000Y-88070000D01*
X245210000Y-92310000D02*
X245210000Y-88070000D01*
X242470000Y-92310000D02*
X243175000Y-92310000D01*
X244505000Y-92310000D02*
X245210000Y-92310000D01*
X242470000Y-88070000D02*
X243175000Y-88070000D01*
X244505000Y-88070000D02*
X245210000Y-88070000D01*
X167540000Y-61830000D02*
X167540000Y-57590000D01*
X170280000Y-61830000D02*
X170280000Y-57590000D01*
X167540000Y-61830000D02*
X168245000Y-61830000D01*
X169575000Y-61830000D02*
X170280000Y-61830000D01*
X167540000Y-57590000D02*
X168245000Y-57590000D01*
X169575000Y-57590000D02*
X170280000Y-57590000D01*
X169575000Y-100770000D02*
X170280000Y-100770000D01*
X167540000Y-100770000D02*
X168245000Y-100770000D01*
X169575000Y-105010000D02*
X170280000Y-105010000D01*
X167540000Y-105010000D02*
X168245000Y-105010000D01*
X170280000Y-105010000D02*
X170280000Y-100770000D01*
X167540000Y-105010000D02*
X167540000Y-100770000D01*
X211690000Y-58520000D02*
X207450000Y-58520000D01*
X211690000Y-55780000D02*
X207450000Y-55780000D01*
X211690000Y-58520000D02*
X211690000Y-57815000D01*
X211690000Y-56485000D02*
X211690000Y-55780000D01*
X207450000Y-58520000D02*
X207450000Y-57815000D01*
X207450000Y-56485000D02*
X207450000Y-55780000D01*
X216340000Y-89505000D02*
X216340000Y-88800000D01*
X216340000Y-91540000D02*
X216340000Y-90835000D01*
X220580000Y-89505000D02*
X220580000Y-88800000D01*
X220580000Y-91540000D02*
X220580000Y-90835000D01*
X220580000Y-88800000D02*
X216340000Y-88800000D01*
X220580000Y-91540000D02*
X216340000Y-91540000D01*
X280065000Y-100770000D02*
X280770000Y-100770000D01*
X278030000Y-100770000D02*
X278735000Y-100770000D01*
X280065000Y-105010000D02*
X280770000Y-105010000D01*
X278030000Y-105010000D02*
X278735000Y-105010000D01*
X280770000Y-105010000D02*
X280770000Y-100770000D01*
X278030000Y-105010000D02*
X278030000Y-100770000D01*
X273920000Y-96620000D02*
X269680000Y-96620000D01*
X273920000Y-93880000D02*
X269680000Y-93880000D01*
X273920000Y-96620000D02*
X273920000Y-95915000D01*
X273920000Y-94585000D02*
X273920000Y-93880000D01*
X269680000Y-96620000D02*
X269680000Y-95915000D01*
X269680000Y-94585000D02*
X269680000Y-93880000D01*
X264600000Y-94585000D02*
X264600000Y-93880000D01*
X264600000Y-96620000D02*
X264600000Y-95915000D01*
X268840000Y-94585000D02*
X268840000Y-93880000D01*
X268840000Y-96620000D02*
X268840000Y-95915000D01*
X268840000Y-93880000D02*
X264600000Y-93880000D01*
X268840000Y-96620000D02*
X264600000Y-96620000D01*
X260450000Y-110890000D02*
X260450000Y-115130000D01*
X257710000Y-110890000D02*
X257710000Y-115130000D01*
X260450000Y-110890000D02*
X259745000Y-110890000D01*
X258415000Y-110890000D02*
X257710000Y-110890000D01*
X260450000Y-115130000D02*
X259745000Y-115130000D01*
X258415000Y-115130000D02*
X257710000Y-115130000D01*
X253170000Y-20925000D02*
X253170000Y-20220000D01*
X253170000Y-22960000D02*
X253170000Y-22255000D01*
X257410000Y-20925000D02*
X257410000Y-20220000D01*
X257410000Y-22960000D02*
X257410000Y-22255000D01*
X257410000Y-20220000D02*
X253170000Y-20220000D01*
X257410000Y-22960000D02*
X253170000Y-22960000D01*
X286355000Y-31310000D02*
X285650000Y-31310000D01*
X288390000Y-31310000D02*
X287685000Y-31310000D01*
X286355000Y-27070000D02*
X285650000Y-27070000D01*
X288390000Y-27070000D02*
X287685000Y-27070000D01*
X285650000Y-27070000D02*
X285650000Y-31310000D01*
X288390000Y-27070000D02*
X288390000Y-31310000D01*
X165540000Y-20925000D02*
X165540000Y-20220000D01*
X165540000Y-22960000D02*
X165540000Y-22255000D01*
X169780000Y-20925000D02*
X169780000Y-20220000D01*
X169780000Y-22960000D02*
X169780000Y-22255000D01*
X169780000Y-20220000D02*
X165540000Y-20220000D01*
X169780000Y-22960000D02*
X165540000Y-22960000D01*
X228500000Y-103700000D02*
X228500000Y-99460000D01*
X231240000Y-103700000D02*
X231240000Y-99460000D01*
X228500000Y-103700000D02*
X229205000Y-103700000D01*
X230535000Y-103700000D02*
X231240000Y-103700000D01*
X228500000Y-99460000D02*
X229205000Y-99460000D01*
X230535000Y-99460000D02*
X231240000Y-99460000D01*
X264765000Y-78300000D02*
X264060000Y-78300000D01*
X266800000Y-78300000D02*
X266095000Y-78300000D01*
X264765000Y-74060000D02*
X264060000Y-74060000D01*
X266800000Y-74060000D02*
X266095000Y-74060000D01*
X264060000Y-74060000D02*
X264060000Y-78300000D01*
X266800000Y-74060000D02*
X266800000Y-78300000D01*
X242470000Y-74530000D02*
X242470000Y-70290000D01*
X245210000Y-74530000D02*
X245210000Y-70290000D01*
X242470000Y-74530000D02*
X243175000Y-74530000D01*
X244505000Y-74530000D02*
X245210000Y-74530000D01*
X242470000Y-70290000D02*
X243175000Y-70290000D01*
X244505000Y-70290000D02*
X245210000Y-70290000D01*
X207450000Y-20925000D02*
X207450000Y-20220000D01*
X207450000Y-22960000D02*
X207450000Y-22255000D01*
X211690000Y-20925000D02*
X211690000Y-20220000D01*
X211690000Y-22960000D02*
X211690000Y-22255000D01*
X211690000Y-20220000D02*
X207450000Y-20220000D01*
X211690000Y-22960000D02*
X207450000Y-22960000D01*
X216880000Y-86460000D02*
X237030000Y-86460000D01*
X237780000Y-85710000D02*
X237780000Y-74310000D01*
X237030000Y-73560000D02*
X217630000Y-73560000D01*
X216880000Y-74310000D02*
X216880000Y-86460000D01*
X237030000Y-86460000D02*
G75*
G03*
X237780000Y-85710000I0J750000D01*
G01*
X237780000Y-74310000D02*
G75*
G03*
X237030000Y-73560000I-750000J0D01*
G01*
X217630000Y-73560000D02*
G75*
G03*
X216880000Y-74310000I0J-750000D01*
G01*
X204950000Y-109590000D02*
X207550000Y-109590000D01*
X204950000Y-124290000D02*
X204950000Y-109590000D01*
X214150000Y-109590000D02*
X214150000Y-111490000D01*
X211450000Y-109590000D02*
X214150000Y-109590000D01*
X214150000Y-124290000D02*
X204950000Y-124290000D01*
X214150000Y-115490000D02*
X214150000Y-124290000D01*
X204750000Y-110440000D02*
X204750000Y-109390000D01*
X205800000Y-109390000D02*
X204750000Y-109390000D01*
X173930000Y-21590000D02*
X173930000Y-20260000D01*
X173930000Y-20260000D02*
X175260000Y-20260000D01*
X176530000Y-20260000D02*
X179130000Y-20260000D01*
X179130000Y-22920000D02*
X179130000Y-20260000D01*
X176530000Y-22920000D02*
X179130000Y-22920000D01*
X176530000Y-22920000D02*
X176530000Y-20260000D01*
X229930000Y-116840000D02*
X229930000Y-118170000D01*
X229930000Y-118170000D02*
X228600000Y-118170000D01*
X227330000Y-118170000D02*
X222190000Y-118170000D01*
X222190000Y-115510000D02*
X222190000Y-118170000D01*
X227330000Y-115510000D02*
X222190000Y-115510000D01*
X227330000Y-115510000D02*
X227330000Y-118170000D01*
X245840000Y-107270000D02*
X246340000Y-107770000D01*
X246840000Y-107270000D02*
X245840000Y-107270000D01*
X246340000Y-107770000D02*
X246840000Y-107270000D01*
X238930000Y-124710000D02*
X238930000Y-116350000D01*
X251250000Y-124710000D02*
X238930000Y-124710000D01*
X251250000Y-116350000D02*
X251250000Y-124710000D01*
X238930000Y-107990000D02*
X238930000Y-112250000D01*
X251250000Y-107990000D02*
X238930000Y-107990000D01*
X251250000Y-112250000D02*
X251250000Y-107990000D01*
X162620000Y-20260000D02*
X162620000Y-21590000D01*
X161290000Y-20260000D02*
X162620000Y-20260000D01*
X160020000Y-20260000D02*
X160020000Y-22920000D01*
X160020000Y-22920000D02*
X144720000Y-22920000D01*
X160020000Y-20260000D02*
X144720000Y-20260000D01*
X144720000Y-20260000D02*
X144720000Y-22920000D01*
X167360000Y-121585000D02*
X167360000Y-117135000D01*
X167360000Y-115735000D02*
X167360000Y-113435000D01*
X167360000Y-112035000D02*
X167360000Y-111315000D01*
X167360000Y-111315000D02*
X164680000Y-111315000D01*
X162380000Y-111315000D02*
X158710000Y-111315000D01*
X156410000Y-111315000D02*
X155180000Y-111315000D01*
X155180000Y-111315000D02*
X155180000Y-121135000D01*
X165880000Y-122955000D02*
X165020000Y-122955000D01*
X269688000Y-77530000D02*
X269688000Y-76200000D01*
X271018000Y-77530000D02*
X269688000Y-77530000D01*
X269688000Y-74930000D02*
X269688000Y-72330000D01*
X272288000Y-74930000D02*
X269688000Y-74930000D01*
X272288000Y-77530000D02*
X272288000Y-74930000D01*
X269688000Y-72330000D02*
X279968000Y-72330000D01*
X272288000Y-77530000D02*
X279968000Y-77530000D01*
X279968000Y-77530000D02*
X279968000Y-72330000D01*
X167510000Y-52070000D02*
X170310000Y-52070000D01*
X167510000Y-26500000D02*
X167510000Y-54780000D01*
X170310000Y-26500000D02*
X167510000Y-26500000D01*
X170310000Y-54780000D02*
X170310000Y-26500000D01*
X167510000Y-54780000D02*
X170310000Y-54780000D01*
X257680000Y-103040000D02*
X260480000Y-103040000D01*
X260480000Y-103040000D02*
X260480000Y-90000000D01*
X260480000Y-90000000D02*
X257680000Y-90000000D01*
X257680000Y-90000000D02*
X257680000Y-103040000D01*
X257680000Y-100330000D02*
X260480000Y-100330000D01*
X167510000Y-74930000D02*
X170310000Y-74930000D01*
X167510000Y-64600000D02*
X167510000Y-77640000D01*
X170310000Y-64600000D02*
X167510000Y-64600000D01*
X170310000Y-77640000D02*
X170310000Y-64600000D01*
X167510000Y-77640000D02*
X170310000Y-77640000D01*
X148720000Y-110490000D02*
X145920000Y-110490000D01*
X148720000Y-123360000D02*
X148720000Y-107780000D01*
X145920000Y-123360000D02*
X148720000Y-123360000D01*
X145920000Y-107780000D02*
X145920000Y-123360000D01*
X148720000Y-107780000D02*
X145920000Y-107780000D01*
X265180000Y-113840000D02*
X265180000Y-115340000D01*
X266430000Y-117840000D02*
X270930000Y-117840000D01*
X272180000Y-115340000D02*
X272180000Y-113840000D01*
X270930000Y-111340000D02*
X266430000Y-111340000D01*
X190500000Y-112030000D02*
X190500000Y-114570000D01*
X187960000Y-112030000D02*
X187960000Y-114570000D01*
X185420000Y-112030000D02*
X185420000Y-114570000D01*
X193080000Y-96140000D02*
X193080000Y-112030000D01*
X182840000Y-96140000D02*
X182840000Y-112030000D01*
X182840000Y-96140000D02*
X193080000Y-96140000D01*
X182840000Y-112030000D02*
X193080000Y-112030000D01*
X212671000Y-99600000D02*
X212671000Y-101110000D01*
X208970000Y-99600000D02*
X208970000Y-101110000D01*
X205700000Y-101110000D02*
X215940000Y-101110000D01*
X215940000Y-99600000D02*
X215940000Y-104241000D01*
X205700000Y-99600000D02*
X205700000Y-104241000D01*
X205700000Y-104241000D02*
X215940000Y-104241000D01*
X205700000Y-99600000D02*
X215940000Y-99600000D01*
X163890000Y-99330000D02*
X163890000Y-97680000D01*
X163890000Y-97680000D02*
X145990000Y-97680000D01*
X145990000Y-97680000D02*
X145990000Y-102980000D01*
X145990000Y-102980000D02*
X163890000Y-102980000D01*
X163890000Y-102980000D02*
X163890000Y-101330000D01*
X163890000Y-101330000D02*
G75*
G02*
X163890000Y-99330000I0J1000000D01*
G01*
X209260000Y-62170000D02*
X208010000Y-62170000D01*
X209260000Y-87690000D02*
X209260000Y-62170000D01*
X204760000Y-87690000D02*
X209260000Y-87690000D01*
X204760000Y-62170000D02*
X204760000Y-87690000D01*
X206010000Y-62170000D02*
X204760000Y-62170000D01*
X208010000Y-62170000D02*
G75*
G02*
X206010000Y-62170000I-1000000J0D01*
G01*
X264100000Y-100620000D02*
X264100000Y-101870000D01*
X274380000Y-100620000D02*
X264100000Y-100620000D01*
X274380000Y-105120000D02*
X274380000Y-100620000D01*
X264100000Y-105120000D02*
X274380000Y-105120000D01*
X264100000Y-103870000D02*
X264100000Y-105120000D01*
X264100000Y-101870000D02*
G75*
G02*
X264100000Y-103870000I0J-1000000D01*
G01*
X247920000Y-26915000D02*
X242860000Y-26915000D01*
X242860000Y-26915000D02*
X242860000Y-67675000D01*
X242860000Y-67675000D02*
X254980000Y-67675000D01*
X254980000Y-67675000D02*
X254980000Y-26915000D01*
X254980000Y-26915000D02*
X249920000Y-26915000D01*
X249920000Y-26915000D02*
G75*
G02*
X247920000Y-26915000I-1000000J0D01*
G01*
X279110000Y-26915000D02*
X274050000Y-26915000D01*
X279110000Y-62595000D02*
X279110000Y-26915000D01*
X266990000Y-62595000D02*
X279110000Y-62595000D01*
X266990000Y-26915000D02*
X266990000Y-62595000D01*
X272050000Y-26915000D02*
X266990000Y-26915000D01*
X274050000Y-26915000D02*
G75*
G02*
X272050000Y-26915000I-1000000J0D01*
G01*
X157190000Y-26610000D02*
X152130000Y-26610000D01*
X157190000Y-77530000D02*
X157190000Y-26610000D01*
X145070000Y-77530000D02*
X157190000Y-77530000D01*
X145070000Y-26610000D02*
X145070000Y-77530000D01*
X150130000Y-26610000D02*
X145070000Y-26610000D01*
X152130000Y-26610000D02*
G75*
G02*
X150130000Y-26610000I-1000000J0D01*
G01*
X234890000Y-96810000D02*
X234890000Y-98060000D01*
X252790000Y-96810000D02*
X234890000Y-96810000D01*
X252790000Y-101310000D02*
X252790000Y-96810000D01*
X234890000Y-101310000D02*
X252790000Y-101310000D01*
X234890000Y-100060000D02*
X234890000Y-101310000D01*
X234890000Y-98060000D02*
G75*
G02*
X234890000Y-100060000I0J-1000000D01*
G01*
X269688000Y-81170000D02*
X269688000Y-82820000D01*
X279968000Y-81170000D02*
X269688000Y-81170000D01*
X279968000Y-86470000D02*
X279968000Y-81170000D01*
X269688000Y-86470000D02*
X279968000Y-86470000D01*
X269688000Y-84820000D02*
X269688000Y-86470000D01*
X269688000Y-82820000D02*
G75*
G02*
X269688000Y-84820000I0J-1000000D01*
G01*
X242510000Y-78630000D02*
X242510000Y-80280000D01*
X260410000Y-78630000D02*
X242510000Y-78630000D01*
X260410000Y-83930000D02*
X260410000Y-78630000D01*
X242510000Y-83930000D02*
X260410000Y-83930000D01*
X242510000Y-82280000D02*
X242510000Y-83930000D01*
X242510000Y-80280000D02*
G75*
G02*
X242510000Y-82280000I0J-1000000D01*
G01*
X206010000Y-26610000D02*
X204760000Y-26610000D01*
X204760000Y-26610000D02*
X204760000Y-52130000D01*
X204760000Y-52130000D02*
X209260000Y-52130000D01*
X209260000Y-52130000D02*
X209260000Y-26610000D01*
X209260000Y-26610000D02*
X208010000Y-26610000D01*
X208010000Y-26610000D02*
G75*
G02*
X206010000Y-26610000I-1000000J0D01*
G01*
X154345000Y-82565000D02*
X148095000Y-82565000D01*
X154345000Y-87615000D02*
X148095000Y-87615000D01*
X154345000Y-82565000D02*
G75*
G02*
X154345000Y-87615000I0J-2525000D01*
G01*
X148095000Y-82565000D02*
G75*
G03*
X148095000Y-87615000I0J-2525000D01*
G01*
D11*
X233810952Y-24447142D02*
X233763333Y-24494761D01*
X233620476Y-24542380D01*
X233525238Y-24542380D01*
X233382380Y-24494761D01*
X233287142Y-24399523D01*
X233239523Y-24304285D01*
X233191904Y-24113809D01*
X233191904Y-23970952D01*
X233239523Y-23780476D01*
X233287142Y-23685238D01*
X233382380Y-23590000D01*
X233525238Y-23542380D01*
X233620476Y-23542380D01*
X233763333Y-23590000D01*
X233810952Y-23637619D01*
X234191904Y-23637619D02*
X234239523Y-23590000D01*
X234334761Y-23542380D01*
X234572857Y-23542380D01*
X234668095Y-23590000D01*
X234715714Y-23637619D01*
X234763333Y-23732857D01*
X234763333Y-23828095D01*
X234715714Y-23970952D01*
X234144285Y-24542380D01*
X234763333Y-24542380D01*
X235382380Y-23542380D02*
X235477619Y-23542380D01*
X235572857Y-23590000D01*
X235620476Y-23637619D01*
X235668095Y-23732857D01*
X235715714Y-23923333D01*
X235715714Y-24161428D01*
X235668095Y-24351904D01*
X235620476Y-24447142D01*
X235572857Y-24494761D01*
X235477619Y-24542380D01*
X235382380Y-24542380D01*
X235287142Y-24494761D01*
X235239523Y-24447142D01*
X235191904Y-24351904D01*
X235144285Y-24161428D01*
X235144285Y-23923333D01*
X235191904Y-23732857D01*
X235239523Y-23637619D01*
X235287142Y-23590000D01*
X235382380Y-23542380D01*
X236668095Y-24542380D02*
X236096666Y-24542380D01*
X236382380Y-24542380D02*
X236382380Y-23542380D01*
X236287142Y-23685238D01*
X236191904Y-23780476D01*
X236096666Y-23828095D01*
X226710714Y-25367380D02*
X226710714Y-26176904D01*
X226758333Y-26272142D01*
X226805952Y-26319761D01*
X226901190Y-26367380D01*
X227091666Y-26367380D01*
X227186904Y-26319761D01*
X227234523Y-26272142D01*
X227282142Y-26176904D01*
X227282142Y-25367380D01*
X227710714Y-25462619D02*
X227758333Y-25415000D01*
X227853571Y-25367380D01*
X228091666Y-25367380D01*
X228186904Y-25415000D01*
X228234523Y-25462619D01*
X228282142Y-25557857D01*
X228282142Y-25653095D01*
X228234523Y-25795952D01*
X227663095Y-26367380D01*
X228282142Y-26367380D01*
X228901190Y-25367380D02*
X228996428Y-25367380D01*
X229091666Y-25415000D01*
X229139285Y-25462619D01*
X229186904Y-25557857D01*
X229234523Y-25748333D01*
X229234523Y-25986428D01*
X229186904Y-26176904D01*
X229139285Y-26272142D01*
X229091666Y-26319761D01*
X228996428Y-26367380D01*
X228901190Y-26367380D01*
X228805952Y-26319761D01*
X228758333Y-26272142D01*
X228710714Y-26176904D01*
X228663095Y-25986428D01*
X228663095Y-25748333D01*
X228710714Y-25557857D01*
X228758333Y-25462619D01*
X228805952Y-25415000D01*
X228901190Y-25367380D01*
X230186904Y-26367380D02*
X229615476Y-26367380D01*
X229901190Y-26367380D02*
X229901190Y-25367380D01*
X229805952Y-25510238D01*
X229710714Y-25605476D01*
X229615476Y-25653095D01*
X149889523Y-18652380D02*
X149889523Y-17652380D01*
X150127619Y-17652380D01*
X150270476Y-17700000D01*
X150365714Y-17795238D01*
X150413333Y-17890476D01*
X150460952Y-18080952D01*
X150460952Y-18223809D01*
X150413333Y-18414285D01*
X150365714Y-18509523D01*
X150270476Y-18604761D01*
X150127619Y-18652380D01*
X149889523Y-18652380D01*
X150794285Y-17652380D02*
X151413333Y-17652380D01*
X151080000Y-18033333D01*
X151222857Y-18033333D01*
X151318095Y-18080952D01*
X151365714Y-18128571D01*
X151413333Y-18223809D01*
X151413333Y-18461904D01*
X151365714Y-18557142D01*
X151318095Y-18604761D01*
X151222857Y-18652380D01*
X150937142Y-18652380D01*
X150841904Y-18604761D01*
X150794285Y-18557142D01*
X152032380Y-17652380D02*
X152127619Y-17652380D01*
X152222857Y-17700000D01*
X152270476Y-17747619D01*
X152318095Y-17842857D01*
X152365714Y-18033333D01*
X152365714Y-18271428D01*
X152318095Y-18461904D01*
X152270476Y-18557142D01*
X152222857Y-18604761D01*
X152127619Y-18652380D01*
X152032380Y-18652380D01*
X151937142Y-18604761D01*
X151889523Y-18557142D01*
X151841904Y-18461904D01*
X151794285Y-18271428D01*
X151794285Y-18033333D01*
X151841904Y-17842857D01*
X151889523Y-17747619D01*
X151937142Y-17700000D01*
X152032380Y-17652380D01*
X153318095Y-18652380D02*
X152746666Y-18652380D01*
X153032380Y-18652380D02*
X153032380Y-17652380D01*
X152937142Y-17795238D01*
X152841904Y-17890476D01*
X152746666Y-17938095D01*
X155789523Y-18652380D02*
X155789523Y-17652380D01*
X156027619Y-17652380D01*
X156170476Y-17700000D01*
X156265714Y-17795238D01*
X156313333Y-17890476D01*
X156360952Y-18080952D01*
X156360952Y-18223809D01*
X156313333Y-18414285D01*
X156265714Y-18509523D01*
X156170476Y-18604761D01*
X156027619Y-18652380D01*
X155789523Y-18652380D01*
X156694285Y-17652380D02*
X157313333Y-17652380D01*
X156980000Y-18033333D01*
X157122857Y-18033333D01*
X157218095Y-18080952D01*
X157265714Y-18128571D01*
X157313333Y-18223809D01*
X157313333Y-18461904D01*
X157265714Y-18557142D01*
X157218095Y-18604761D01*
X157122857Y-18652380D01*
X156837142Y-18652380D01*
X156741904Y-18604761D01*
X156694285Y-18557142D01*
X157932380Y-17652380D02*
X158027619Y-17652380D01*
X158122857Y-17700000D01*
X158170476Y-17747619D01*
X158218095Y-17842857D01*
X158265714Y-18033333D01*
X158265714Y-18271428D01*
X158218095Y-18461904D01*
X158170476Y-18557142D01*
X158122857Y-18604761D01*
X158027619Y-18652380D01*
X157932380Y-18652380D01*
X157837142Y-18604761D01*
X157789523Y-18557142D01*
X157741904Y-18461904D01*
X157694285Y-18271428D01*
X157694285Y-18033333D01*
X157741904Y-17842857D01*
X157789523Y-17747619D01*
X157837142Y-17700000D01*
X157932380Y-17652380D01*
X158884761Y-17652380D02*
X158980000Y-17652380D01*
X159075238Y-17700000D01*
X159122857Y-17747619D01*
X159170476Y-17842857D01*
X159218095Y-18033333D01*
X159218095Y-18271428D01*
X159170476Y-18461904D01*
X159122857Y-18557142D01*
X159075238Y-18604761D01*
X158980000Y-18652380D01*
X158884761Y-18652380D01*
X158789523Y-18604761D01*
X158741904Y-18557142D01*
X158694285Y-18461904D01*
X158646666Y-18271428D01*
X158646666Y-18033333D01*
X158694285Y-17842857D01*
X158741904Y-17747619D01*
X158789523Y-17700000D01*
X158884761Y-17652380D01*
X138938095Y-13232380D02*
X138938095Y-12232380D01*
X138938095Y-12708571D02*
X139509523Y-12708571D01*
X139509523Y-13232380D02*
X139509523Y-12232380D01*
X139890476Y-12232380D02*
X140509523Y-12232380D01*
X140176190Y-12613333D01*
X140319047Y-12613333D01*
X140414285Y-12660952D01*
X140461904Y-12708571D01*
X140509523Y-12803809D01*
X140509523Y-13041904D01*
X140461904Y-13137142D01*
X140414285Y-13184761D01*
X140319047Y-13232380D01*
X140033333Y-13232380D01*
X139938095Y-13184761D01*
X139890476Y-13137142D01*
X138938095Y-111022380D02*
X138938095Y-110022380D01*
X138938095Y-110498571D02*
X139509523Y-110498571D01*
X139509523Y-111022380D02*
X139509523Y-110022380D01*
X139938095Y-110117619D02*
X139985714Y-110070000D01*
X140080952Y-110022380D01*
X140319047Y-110022380D01*
X140414285Y-110070000D01*
X140461904Y-110117619D01*
X140509523Y-110212857D01*
X140509523Y-110308095D01*
X140461904Y-110450952D01*
X139890476Y-111022380D01*
X140509523Y-111022380D01*
X283718095Y-111022380D02*
X283718095Y-110022380D01*
X283718095Y-110498571D02*
X284289523Y-110498571D01*
X284289523Y-111022380D02*
X284289523Y-110022380D01*
X285289523Y-111022380D02*
X284718095Y-111022380D01*
X285003809Y-111022380D02*
X285003809Y-110022380D01*
X284908571Y-110165238D01*
X284813333Y-110260476D01*
X284718095Y-110308095D01*
X283718095Y-13232380D02*
X283718095Y-12232380D01*
X283718095Y-12708571D02*
X284289523Y-12708571D01*
X284289523Y-13232380D02*
X284289523Y-12232380D01*
X284956190Y-12232380D02*
X285051428Y-12232380D01*
X285146666Y-12280000D01*
X285194285Y-12327619D01*
X285241904Y-12422857D01*
X285289523Y-12613333D01*
X285289523Y-12851428D01*
X285241904Y-13041904D01*
X285194285Y-13137142D01*
X285146666Y-13184761D01*
X285051428Y-13232380D01*
X284956190Y-13232380D01*
X284860952Y-13184761D01*
X284813333Y-13137142D01*
X284765714Y-13041904D01*
X284718095Y-12851428D01*
X284718095Y-12613333D01*
X284765714Y-12422857D01*
X284813333Y-12327619D01*
X284860952Y-12280000D01*
X284956190Y-12232380D01*
X183705714Y-25062380D02*
X183705714Y-25871904D01*
X183753333Y-25967142D01*
X183800952Y-26014761D01*
X183896190Y-26062380D01*
X184086666Y-26062380D01*
X184181904Y-26014761D01*
X184229523Y-25967142D01*
X184277142Y-25871904D01*
X184277142Y-25062380D01*
X185277142Y-26062380D02*
X184705714Y-26062380D01*
X184991428Y-26062380D02*
X184991428Y-25062380D01*
X184896190Y-25205238D01*
X184800952Y-25300476D01*
X184705714Y-25348095D01*
X185896190Y-25062380D02*
X185991428Y-25062380D01*
X186086666Y-25110000D01*
X186134285Y-25157619D01*
X186181904Y-25252857D01*
X186229523Y-25443333D01*
X186229523Y-25681428D01*
X186181904Y-25871904D01*
X186134285Y-25967142D01*
X186086666Y-26014761D01*
X185991428Y-26062380D01*
X185896190Y-26062380D01*
X185800952Y-26014761D01*
X185753333Y-25967142D01*
X185705714Y-25871904D01*
X185658095Y-25681428D01*
X185658095Y-25443333D01*
X185705714Y-25252857D01*
X185753333Y-25157619D01*
X185800952Y-25110000D01*
X185896190Y-25062380D01*
X186848571Y-25062380D02*
X186943809Y-25062380D01*
X187039047Y-25110000D01*
X187086666Y-25157619D01*
X187134285Y-25252857D01*
X187181904Y-25443333D01*
X187181904Y-25681428D01*
X187134285Y-25871904D01*
X187086666Y-25967142D01*
X187039047Y-26014761D01*
X186943809Y-26062380D01*
X186848571Y-26062380D01*
X186753333Y-26014761D01*
X186705714Y-25967142D01*
X186658095Y-25871904D01*
X186610476Y-25681428D01*
X186610476Y-25443333D01*
X186658095Y-25252857D01*
X186705714Y-25157619D01*
X186753333Y-25110000D01*
X186848571Y-25062380D01*
X157880952Y-87137619D02*
X157928571Y-87090000D01*
X158023809Y-87042380D01*
X158261904Y-87042380D01*
X158357142Y-87090000D01*
X158404761Y-87137619D01*
X158452380Y-87232857D01*
X158452380Y-87328095D01*
X158404761Y-87470952D01*
X157833333Y-88042380D01*
X158452380Y-88042380D01*
X158833333Y-87137619D02*
X158880952Y-87090000D01*
X158976190Y-87042380D01*
X159214285Y-87042380D01*
X159309523Y-87090000D01*
X159357142Y-87137619D01*
X159404761Y-87232857D01*
X159404761Y-87328095D01*
X159357142Y-87470952D01*
X158785714Y-88042380D01*
X159404761Y-88042380D01*
X159833333Y-87375714D02*
X159833333Y-88375714D01*
X159833333Y-87423333D02*
X159928571Y-87375714D01*
X160119047Y-87375714D01*
X160214285Y-87423333D01*
X160261904Y-87470952D01*
X160309523Y-87566190D01*
X160309523Y-87851904D01*
X160261904Y-87947142D01*
X160214285Y-87994761D01*
X160119047Y-88042380D01*
X159928571Y-88042380D01*
X159833333Y-87994761D01*
X161071428Y-87518571D02*
X160738095Y-87518571D01*
X160738095Y-88042380D02*
X160738095Y-87042380D01*
X161214285Y-87042380D01*
X162119047Y-88042380D02*
X161547619Y-88042380D01*
X161833333Y-88042380D02*
X161833333Y-87042380D01*
X161738095Y-87185238D01*
X161642857Y-87280476D01*
X161547619Y-87328095D01*
X140140952Y-82137619D02*
X140188571Y-82090000D01*
X140283809Y-82042380D01*
X140521904Y-82042380D01*
X140617142Y-82090000D01*
X140664761Y-82137619D01*
X140712380Y-82232857D01*
X140712380Y-82328095D01*
X140664761Y-82470952D01*
X140093333Y-83042380D01*
X140712380Y-83042380D01*
X141093333Y-82137619D02*
X141140952Y-82090000D01*
X141236190Y-82042380D01*
X141474285Y-82042380D01*
X141569523Y-82090000D01*
X141617142Y-82137619D01*
X141664761Y-82232857D01*
X141664761Y-82328095D01*
X141617142Y-82470952D01*
X141045714Y-83042380D01*
X141664761Y-83042380D01*
X142093333Y-82375714D02*
X142093333Y-83375714D01*
X142093333Y-82423333D02*
X142188571Y-82375714D01*
X142379047Y-82375714D01*
X142474285Y-82423333D01*
X142521904Y-82470952D01*
X142569523Y-82566190D01*
X142569523Y-82851904D01*
X142521904Y-82947142D01*
X142474285Y-82994761D01*
X142379047Y-83042380D01*
X142188571Y-83042380D01*
X142093333Y-82994761D01*
X143331428Y-82518571D02*
X142998095Y-82518571D01*
X142998095Y-83042380D02*
X142998095Y-82042380D01*
X143474285Y-82042380D01*
X143807619Y-82137619D02*
X143855238Y-82090000D01*
X143950476Y-82042380D01*
X144188571Y-82042380D01*
X144283809Y-82090000D01*
X144331428Y-82137619D01*
X144379047Y-82232857D01*
X144379047Y-82328095D01*
X144331428Y-82470952D01*
X143760000Y-83042380D01*
X144379047Y-83042380D01*
X176383333Y-121177142D02*
X176335714Y-121224761D01*
X176192857Y-121272380D01*
X176097619Y-121272380D01*
X175954761Y-121224761D01*
X175859523Y-121129523D01*
X175811904Y-121034285D01*
X175764285Y-120843809D01*
X175764285Y-120700952D01*
X175811904Y-120510476D01*
X175859523Y-120415238D01*
X175954761Y-120320000D01*
X176097619Y-120272380D01*
X176192857Y-120272380D01*
X176335714Y-120320000D01*
X176383333Y-120367619D01*
X177335714Y-121272380D02*
X176764285Y-121272380D01*
X177050000Y-121272380D02*
X177050000Y-120272380D01*
X176954761Y-120415238D01*
X176859523Y-120510476D01*
X176764285Y-120558095D01*
X199203333Y-108477142D02*
X199155714Y-108524761D01*
X199012857Y-108572380D01*
X198917619Y-108572380D01*
X198774761Y-108524761D01*
X198679523Y-108429523D01*
X198631904Y-108334285D01*
X198584285Y-108143809D01*
X198584285Y-108000952D01*
X198631904Y-107810476D01*
X198679523Y-107715238D01*
X198774761Y-107620000D01*
X198917619Y-107572380D01*
X199012857Y-107572380D01*
X199155714Y-107620000D01*
X199203333Y-107667619D01*
X199584285Y-107667619D02*
X199631904Y-107620000D01*
X199727142Y-107572380D01*
X199965238Y-107572380D01*
X200060476Y-107620000D01*
X200108095Y-107667619D01*
X200155714Y-107762857D01*
X200155714Y-107858095D01*
X200108095Y-108000952D01*
X199536666Y-108572380D01*
X200155714Y-108572380D01*
X176343333Y-108477142D02*
X176295714Y-108524761D01*
X176152857Y-108572380D01*
X176057619Y-108572380D01*
X175914761Y-108524761D01*
X175819523Y-108429523D01*
X175771904Y-108334285D01*
X175724285Y-108143809D01*
X175724285Y-108000952D01*
X175771904Y-107810476D01*
X175819523Y-107715238D01*
X175914761Y-107620000D01*
X176057619Y-107572380D01*
X176152857Y-107572380D01*
X176295714Y-107620000D01*
X176343333Y-107667619D01*
X176676666Y-107572380D02*
X177295714Y-107572380D01*
X176962380Y-107953333D01*
X177105238Y-107953333D01*
X177200476Y-108000952D01*
X177248095Y-108048571D01*
X177295714Y-108143809D01*
X177295714Y-108381904D01*
X177248095Y-108477142D01*
X177200476Y-108524761D01*
X177105238Y-108572380D01*
X176819523Y-108572380D01*
X176724285Y-108524761D01*
X176676666Y-108477142D01*
X222103333Y-97977142D02*
X222055714Y-98024761D01*
X221912857Y-98072380D01*
X221817619Y-98072380D01*
X221674761Y-98024761D01*
X221579523Y-97929523D01*
X221531904Y-97834285D01*
X221484285Y-97643809D01*
X221484285Y-97500952D01*
X221531904Y-97310476D01*
X221579523Y-97215238D01*
X221674761Y-97120000D01*
X221817619Y-97072380D01*
X221912857Y-97072380D01*
X222055714Y-97120000D01*
X222103333Y-97167619D01*
X222960476Y-97405714D02*
X222960476Y-98072380D01*
X222722380Y-97024761D02*
X222484285Y-97739047D01*
X223103333Y-97739047D01*
X241697142Y-90356666D02*
X241744761Y-90404285D01*
X241792380Y-90547142D01*
X241792380Y-90642380D01*
X241744761Y-90785238D01*
X241649523Y-90880476D01*
X241554285Y-90928095D01*
X241363809Y-90975714D01*
X241220952Y-90975714D01*
X241030476Y-90928095D01*
X240935238Y-90880476D01*
X240840000Y-90785238D01*
X240792380Y-90642380D01*
X240792380Y-90547142D01*
X240840000Y-90404285D01*
X240887619Y-90356666D01*
X240792380Y-90023333D02*
X240792380Y-89356666D01*
X241792380Y-89785238D01*
X166767142Y-60829047D02*
X166814761Y-60876666D01*
X166862380Y-61019523D01*
X166862380Y-61114761D01*
X166814761Y-61257619D01*
X166719523Y-61352857D01*
X166624285Y-61400476D01*
X166433809Y-61448095D01*
X166290952Y-61448095D01*
X166100476Y-61400476D01*
X166005238Y-61352857D01*
X165910000Y-61257619D01*
X165862380Y-61114761D01*
X165862380Y-61019523D01*
X165910000Y-60876666D01*
X165957619Y-60829047D01*
X166862380Y-59876666D02*
X166862380Y-60448095D01*
X166862380Y-60162380D02*
X165862380Y-60162380D01*
X166005238Y-60257619D01*
X166100476Y-60352857D01*
X166148095Y-60448095D01*
X165862380Y-59257619D02*
X165862380Y-59162380D01*
X165910000Y-59067142D01*
X165957619Y-59019523D01*
X166052857Y-58971904D01*
X166243333Y-58924285D01*
X166481428Y-58924285D01*
X166671904Y-58971904D01*
X166767142Y-59019523D01*
X166814761Y-59067142D01*
X166862380Y-59162380D01*
X166862380Y-59257619D01*
X166814761Y-59352857D01*
X166767142Y-59400476D01*
X166671904Y-59448095D01*
X166481428Y-59495714D01*
X166243333Y-59495714D01*
X166052857Y-59448095D01*
X165957619Y-59400476D01*
X165910000Y-59352857D01*
X165862380Y-59257619D01*
X165862380Y-58305238D02*
X165862380Y-58210000D01*
X165910000Y-58114761D01*
X165957619Y-58067142D01*
X166052857Y-58019523D01*
X166243333Y-57971904D01*
X166481428Y-57971904D01*
X166671904Y-58019523D01*
X166767142Y-58067142D01*
X166814761Y-58114761D01*
X166862380Y-58210000D01*
X166862380Y-58305238D01*
X166814761Y-58400476D01*
X166767142Y-58448095D01*
X166671904Y-58495714D01*
X166481428Y-58543333D01*
X166243333Y-58543333D01*
X166052857Y-58495714D01*
X165957619Y-58448095D01*
X165910000Y-58400476D01*
X165862380Y-58305238D01*
X166767142Y-104009047D02*
X166814761Y-104056666D01*
X166862380Y-104199523D01*
X166862380Y-104294761D01*
X166814761Y-104437619D01*
X166719523Y-104532857D01*
X166624285Y-104580476D01*
X166433809Y-104628095D01*
X166290952Y-104628095D01*
X166100476Y-104580476D01*
X166005238Y-104532857D01*
X165910000Y-104437619D01*
X165862380Y-104294761D01*
X165862380Y-104199523D01*
X165910000Y-104056666D01*
X165957619Y-104009047D01*
X166862380Y-103056666D02*
X166862380Y-103628095D01*
X166862380Y-103342380D02*
X165862380Y-103342380D01*
X166005238Y-103437619D01*
X166100476Y-103532857D01*
X166148095Y-103628095D01*
X165862380Y-102437619D02*
X165862380Y-102342380D01*
X165910000Y-102247142D01*
X165957619Y-102199523D01*
X166052857Y-102151904D01*
X166243333Y-102104285D01*
X166481428Y-102104285D01*
X166671904Y-102151904D01*
X166767142Y-102199523D01*
X166814761Y-102247142D01*
X166862380Y-102342380D01*
X166862380Y-102437619D01*
X166814761Y-102532857D01*
X166767142Y-102580476D01*
X166671904Y-102628095D01*
X166481428Y-102675714D01*
X166243333Y-102675714D01*
X166052857Y-102628095D01*
X165957619Y-102580476D01*
X165910000Y-102532857D01*
X165862380Y-102437619D01*
X166862380Y-101151904D02*
X166862380Y-101723333D01*
X166862380Y-101437619D02*
X165862380Y-101437619D01*
X166005238Y-101532857D01*
X166100476Y-101628095D01*
X166148095Y-101723333D01*
X208450952Y-60007142D02*
X208403333Y-60054761D01*
X208260476Y-60102380D01*
X208165238Y-60102380D01*
X208022380Y-60054761D01*
X207927142Y-59959523D01*
X207879523Y-59864285D01*
X207831904Y-59673809D01*
X207831904Y-59530952D01*
X207879523Y-59340476D01*
X207927142Y-59245238D01*
X208022380Y-59150000D01*
X208165238Y-59102380D01*
X208260476Y-59102380D01*
X208403333Y-59150000D01*
X208450952Y-59197619D01*
X209403333Y-60102380D02*
X208831904Y-60102380D01*
X209117619Y-60102380D02*
X209117619Y-59102380D01*
X209022380Y-59245238D01*
X208927142Y-59340476D01*
X208831904Y-59388095D01*
X210022380Y-59102380D02*
X210117619Y-59102380D01*
X210212857Y-59150000D01*
X210260476Y-59197619D01*
X210308095Y-59292857D01*
X210355714Y-59483333D01*
X210355714Y-59721428D01*
X210308095Y-59911904D01*
X210260476Y-60007142D01*
X210212857Y-60054761D01*
X210117619Y-60102380D01*
X210022380Y-60102380D01*
X209927142Y-60054761D01*
X209879523Y-60007142D01*
X209831904Y-59911904D01*
X209784285Y-59721428D01*
X209784285Y-59483333D01*
X209831904Y-59292857D01*
X209879523Y-59197619D01*
X209927142Y-59150000D01*
X210022380Y-59102380D01*
X210736666Y-59197619D02*
X210784285Y-59150000D01*
X210879523Y-59102380D01*
X211117619Y-59102380D01*
X211212857Y-59150000D01*
X211260476Y-59197619D01*
X211308095Y-59292857D01*
X211308095Y-59388095D01*
X211260476Y-59530952D01*
X210689047Y-60102380D01*
X211308095Y-60102380D01*
X217340952Y-93027142D02*
X217293333Y-93074761D01*
X217150476Y-93122380D01*
X217055238Y-93122380D01*
X216912380Y-93074761D01*
X216817142Y-92979523D01*
X216769523Y-92884285D01*
X216721904Y-92693809D01*
X216721904Y-92550952D01*
X216769523Y-92360476D01*
X216817142Y-92265238D01*
X216912380Y-92170000D01*
X217055238Y-92122380D01*
X217150476Y-92122380D01*
X217293333Y-92170000D01*
X217340952Y-92217619D01*
X218293333Y-93122380D02*
X217721904Y-93122380D01*
X218007619Y-93122380D02*
X218007619Y-92122380D01*
X217912380Y-92265238D01*
X217817142Y-92360476D01*
X217721904Y-92408095D01*
X218912380Y-92122380D02*
X219007619Y-92122380D01*
X219102857Y-92170000D01*
X219150476Y-92217619D01*
X219198095Y-92312857D01*
X219245714Y-92503333D01*
X219245714Y-92741428D01*
X219198095Y-92931904D01*
X219150476Y-93027142D01*
X219102857Y-93074761D01*
X219007619Y-93122380D01*
X218912380Y-93122380D01*
X218817142Y-93074761D01*
X218769523Y-93027142D01*
X218721904Y-92931904D01*
X218674285Y-92741428D01*
X218674285Y-92503333D01*
X218721904Y-92312857D01*
X218769523Y-92217619D01*
X218817142Y-92170000D01*
X218912380Y-92122380D01*
X219579047Y-92122380D02*
X220198095Y-92122380D01*
X219864761Y-92503333D01*
X220007619Y-92503333D01*
X220102857Y-92550952D01*
X220150476Y-92598571D01*
X220198095Y-92693809D01*
X220198095Y-92931904D01*
X220150476Y-93027142D01*
X220102857Y-93074761D01*
X220007619Y-93122380D01*
X219721904Y-93122380D01*
X219626666Y-93074761D01*
X219579047Y-93027142D01*
X277257142Y-104009047D02*
X277304761Y-104056666D01*
X277352380Y-104199523D01*
X277352380Y-104294761D01*
X277304761Y-104437619D01*
X277209523Y-104532857D01*
X277114285Y-104580476D01*
X276923809Y-104628095D01*
X276780952Y-104628095D01*
X276590476Y-104580476D01*
X276495238Y-104532857D01*
X276400000Y-104437619D01*
X276352380Y-104294761D01*
X276352380Y-104199523D01*
X276400000Y-104056666D01*
X276447619Y-104009047D01*
X277352380Y-103056666D02*
X277352380Y-103628095D01*
X277352380Y-103342380D02*
X276352380Y-103342380D01*
X276495238Y-103437619D01*
X276590476Y-103532857D01*
X276638095Y-103628095D01*
X277352380Y-102104285D02*
X277352380Y-102675714D01*
X277352380Y-102390000D02*
X276352380Y-102390000D01*
X276495238Y-102485238D01*
X276590476Y-102580476D01*
X276638095Y-102675714D01*
X276352380Y-101485238D02*
X276352380Y-101390000D01*
X276400000Y-101294761D01*
X276447619Y-101247142D01*
X276542857Y-101199523D01*
X276733333Y-101151904D01*
X276971428Y-101151904D01*
X277161904Y-101199523D01*
X277257142Y-101247142D01*
X277304761Y-101294761D01*
X277352380Y-101390000D01*
X277352380Y-101485238D01*
X277304761Y-101580476D01*
X277257142Y-101628095D01*
X277161904Y-101675714D01*
X276971428Y-101723333D01*
X276733333Y-101723333D01*
X276542857Y-101675714D01*
X276447619Y-101628095D01*
X276400000Y-101580476D01*
X276352380Y-101485238D01*
X275740952Y-96877142D02*
X275693333Y-96924761D01*
X275550476Y-96972380D01*
X275455238Y-96972380D01*
X275312380Y-96924761D01*
X275217142Y-96829523D01*
X275169523Y-96734285D01*
X275121904Y-96543809D01*
X275121904Y-96400952D01*
X275169523Y-96210476D01*
X275217142Y-96115238D01*
X275312380Y-96020000D01*
X275455238Y-95972380D01*
X275550476Y-95972380D01*
X275693333Y-96020000D01*
X275740952Y-96067619D01*
X276693333Y-96972380D02*
X276121904Y-96972380D01*
X276407619Y-96972380D02*
X276407619Y-95972380D01*
X276312380Y-96115238D01*
X276217142Y-96210476D01*
X276121904Y-96258095D01*
X277645714Y-96972380D02*
X277074285Y-96972380D01*
X277360000Y-96972380D02*
X277360000Y-95972380D01*
X277264761Y-96115238D01*
X277169523Y-96210476D01*
X277074285Y-96258095D01*
X278598095Y-96972380D02*
X278026666Y-96972380D01*
X278312380Y-96972380D02*
X278312380Y-95972380D01*
X278217142Y-96115238D01*
X278121904Y-96210476D01*
X278026666Y-96258095D01*
X265580952Y-91797142D02*
X265533333Y-91844761D01*
X265390476Y-91892380D01*
X265295238Y-91892380D01*
X265152380Y-91844761D01*
X265057142Y-91749523D01*
X265009523Y-91654285D01*
X264961904Y-91463809D01*
X264961904Y-91320952D01*
X265009523Y-91130476D01*
X265057142Y-91035238D01*
X265152380Y-90940000D01*
X265295238Y-90892380D01*
X265390476Y-90892380D01*
X265533333Y-90940000D01*
X265580952Y-90987619D01*
X266533333Y-91892380D02*
X265961904Y-91892380D01*
X266247619Y-91892380D02*
X266247619Y-90892380D01*
X266152380Y-91035238D01*
X266057142Y-91130476D01*
X265961904Y-91178095D01*
X267485714Y-91892380D02*
X266914285Y-91892380D01*
X267200000Y-91892380D02*
X267200000Y-90892380D01*
X267104761Y-91035238D01*
X267009523Y-91130476D01*
X266914285Y-91178095D01*
X267866666Y-90987619D02*
X267914285Y-90940000D01*
X268009523Y-90892380D01*
X268247619Y-90892380D01*
X268342857Y-90940000D01*
X268390476Y-90987619D01*
X268438095Y-91082857D01*
X268438095Y-91178095D01*
X268390476Y-91320952D01*
X267819047Y-91892380D01*
X268438095Y-91892380D01*
X261937142Y-114129047D02*
X261984761Y-114176666D01*
X262032380Y-114319523D01*
X262032380Y-114414761D01*
X261984761Y-114557619D01*
X261889523Y-114652857D01*
X261794285Y-114700476D01*
X261603809Y-114748095D01*
X261460952Y-114748095D01*
X261270476Y-114700476D01*
X261175238Y-114652857D01*
X261080000Y-114557619D01*
X261032380Y-114414761D01*
X261032380Y-114319523D01*
X261080000Y-114176666D01*
X261127619Y-114129047D01*
X262032380Y-113176666D02*
X262032380Y-113748095D01*
X262032380Y-113462380D02*
X261032380Y-113462380D01*
X261175238Y-113557619D01*
X261270476Y-113652857D01*
X261318095Y-113748095D01*
X262032380Y-112224285D02*
X262032380Y-112795714D01*
X262032380Y-112510000D02*
X261032380Y-112510000D01*
X261175238Y-112605238D01*
X261270476Y-112700476D01*
X261318095Y-112795714D01*
X261032380Y-111890952D02*
X261032380Y-111271904D01*
X261413333Y-111605238D01*
X261413333Y-111462380D01*
X261460952Y-111367142D01*
X261508571Y-111319523D01*
X261603809Y-111271904D01*
X261841904Y-111271904D01*
X261937142Y-111319523D01*
X261984761Y-111367142D01*
X262032380Y-111462380D01*
X262032380Y-111748095D01*
X261984761Y-111843333D01*
X261937142Y-111890952D01*
X254170952Y-24447142D02*
X254123333Y-24494761D01*
X253980476Y-24542380D01*
X253885238Y-24542380D01*
X253742380Y-24494761D01*
X253647142Y-24399523D01*
X253599523Y-24304285D01*
X253551904Y-24113809D01*
X253551904Y-23970952D01*
X253599523Y-23780476D01*
X253647142Y-23685238D01*
X253742380Y-23590000D01*
X253885238Y-23542380D01*
X253980476Y-23542380D01*
X254123333Y-23590000D01*
X254170952Y-23637619D01*
X254551904Y-23637619D02*
X254599523Y-23590000D01*
X254694761Y-23542380D01*
X254932857Y-23542380D01*
X255028095Y-23590000D01*
X255075714Y-23637619D01*
X255123333Y-23732857D01*
X255123333Y-23828095D01*
X255075714Y-23970952D01*
X254504285Y-24542380D01*
X255123333Y-24542380D01*
X255742380Y-23542380D02*
X255837619Y-23542380D01*
X255932857Y-23590000D01*
X255980476Y-23637619D01*
X256028095Y-23732857D01*
X256075714Y-23923333D01*
X256075714Y-24161428D01*
X256028095Y-24351904D01*
X255980476Y-24447142D01*
X255932857Y-24494761D01*
X255837619Y-24542380D01*
X255742380Y-24542380D01*
X255647142Y-24494761D01*
X255599523Y-24447142D01*
X255551904Y-24351904D01*
X255504285Y-24161428D01*
X255504285Y-23923333D01*
X255551904Y-23732857D01*
X255599523Y-23637619D01*
X255647142Y-23590000D01*
X255742380Y-23542380D01*
X256694761Y-23542380D02*
X256790000Y-23542380D01*
X256885238Y-23590000D01*
X256932857Y-23637619D01*
X256980476Y-23732857D01*
X257028095Y-23923333D01*
X257028095Y-24161428D01*
X256980476Y-24351904D01*
X256932857Y-24447142D01*
X256885238Y-24494761D01*
X256790000Y-24542380D01*
X256694761Y-24542380D01*
X256599523Y-24494761D01*
X256551904Y-24447142D01*
X256504285Y-24351904D01*
X256456666Y-24161428D01*
X256456666Y-23923333D01*
X256504285Y-23732857D01*
X256551904Y-23637619D01*
X256599523Y-23590000D01*
X256694761Y-23542380D01*
X289877142Y-30309047D02*
X289924761Y-30356666D01*
X289972380Y-30499523D01*
X289972380Y-30594761D01*
X289924761Y-30737619D01*
X289829523Y-30832857D01*
X289734285Y-30880476D01*
X289543809Y-30928095D01*
X289400952Y-30928095D01*
X289210476Y-30880476D01*
X289115238Y-30832857D01*
X289020000Y-30737619D01*
X288972380Y-30594761D01*
X288972380Y-30499523D01*
X289020000Y-30356666D01*
X289067619Y-30309047D01*
X289067619Y-29928095D02*
X289020000Y-29880476D01*
X288972380Y-29785238D01*
X288972380Y-29547142D01*
X289020000Y-29451904D01*
X289067619Y-29404285D01*
X289162857Y-29356666D01*
X289258095Y-29356666D01*
X289400952Y-29404285D01*
X289972380Y-29975714D01*
X289972380Y-29356666D01*
X288972380Y-28737619D02*
X288972380Y-28642380D01*
X289020000Y-28547142D01*
X289067619Y-28499523D01*
X289162857Y-28451904D01*
X289353333Y-28404285D01*
X289591428Y-28404285D01*
X289781904Y-28451904D01*
X289877142Y-28499523D01*
X289924761Y-28547142D01*
X289972380Y-28642380D01*
X289972380Y-28737619D01*
X289924761Y-28832857D01*
X289877142Y-28880476D01*
X289781904Y-28928095D01*
X289591428Y-28975714D01*
X289353333Y-28975714D01*
X289162857Y-28928095D01*
X289067619Y-28880476D01*
X289020000Y-28832857D01*
X288972380Y-28737619D01*
X289067619Y-28023333D02*
X289020000Y-27975714D01*
X288972380Y-27880476D01*
X288972380Y-27642380D01*
X289020000Y-27547142D01*
X289067619Y-27499523D01*
X289162857Y-27451904D01*
X289258095Y-27451904D01*
X289400952Y-27499523D01*
X289972380Y-28070952D01*
X289972380Y-27451904D01*
X166540952Y-24447142D02*
X166493333Y-24494761D01*
X166350476Y-24542380D01*
X166255238Y-24542380D01*
X166112380Y-24494761D01*
X166017142Y-24399523D01*
X165969523Y-24304285D01*
X165921904Y-24113809D01*
X165921904Y-23970952D01*
X165969523Y-23780476D01*
X166017142Y-23685238D01*
X166112380Y-23590000D01*
X166255238Y-23542380D01*
X166350476Y-23542380D01*
X166493333Y-23590000D01*
X166540952Y-23637619D01*
X166874285Y-23542380D02*
X167493333Y-23542380D01*
X167160000Y-23923333D01*
X167302857Y-23923333D01*
X167398095Y-23970952D01*
X167445714Y-24018571D01*
X167493333Y-24113809D01*
X167493333Y-24351904D01*
X167445714Y-24447142D01*
X167398095Y-24494761D01*
X167302857Y-24542380D01*
X167017142Y-24542380D01*
X166921904Y-24494761D01*
X166874285Y-24447142D01*
X168112380Y-23542380D02*
X168207619Y-23542380D01*
X168302857Y-23590000D01*
X168350476Y-23637619D01*
X168398095Y-23732857D01*
X168445714Y-23923333D01*
X168445714Y-24161428D01*
X168398095Y-24351904D01*
X168350476Y-24447142D01*
X168302857Y-24494761D01*
X168207619Y-24542380D01*
X168112380Y-24542380D01*
X168017142Y-24494761D01*
X167969523Y-24447142D01*
X167921904Y-24351904D01*
X167874285Y-24161428D01*
X167874285Y-23923333D01*
X167921904Y-23732857D01*
X167969523Y-23637619D01*
X168017142Y-23590000D01*
X168112380Y-23542380D01*
X169064761Y-23542380D02*
X169160000Y-23542380D01*
X169255238Y-23590000D01*
X169302857Y-23637619D01*
X169350476Y-23732857D01*
X169398095Y-23923333D01*
X169398095Y-24161428D01*
X169350476Y-24351904D01*
X169302857Y-24447142D01*
X169255238Y-24494761D01*
X169160000Y-24542380D01*
X169064761Y-24542380D01*
X168969523Y-24494761D01*
X168921904Y-24447142D01*
X168874285Y-24351904D01*
X168826666Y-24161428D01*
X168826666Y-23923333D01*
X168874285Y-23732857D01*
X168921904Y-23637619D01*
X168969523Y-23590000D01*
X169064761Y-23542380D01*
X227727142Y-102699047D02*
X227774761Y-102746666D01*
X227822380Y-102889523D01*
X227822380Y-102984761D01*
X227774761Y-103127619D01*
X227679523Y-103222857D01*
X227584285Y-103270476D01*
X227393809Y-103318095D01*
X227250952Y-103318095D01*
X227060476Y-103270476D01*
X226965238Y-103222857D01*
X226870000Y-103127619D01*
X226822380Y-102984761D01*
X226822380Y-102889523D01*
X226870000Y-102746666D01*
X226917619Y-102699047D01*
X226822380Y-102365714D02*
X226822380Y-101746666D01*
X227203333Y-102080000D01*
X227203333Y-101937142D01*
X227250952Y-101841904D01*
X227298571Y-101794285D01*
X227393809Y-101746666D01*
X227631904Y-101746666D01*
X227727142Y-101794285D01*
X227774761Y-101841904D01*
X227822380Y-101937142D01*
X227822380Y-102222857D01*
X227774761Y-102318095D01*
X227727142Y-102365714D01*
X226822380Y-101127619D02*
X226822380Y-101032380D01*
X226870000Y-100937142D01*
X226917619Y-100889523D01*
X227012857Y-100841904D01*
X227203333Y-100794285D01*
X227441428Y-100794285D01*
X227631904Y-100841904D01*
X227727142Y-100889523D01*
X227774761Y-100937142D01*
X227822380Y-101032380D01*
X227822380Y-101127619D01*
X227774761Y-101222857D01*
X227727142Y-101270476D01*
X227631904Y-101318095D01*
X227441428Y-101365714D01*
X227203333Y-101365714D01*
X227012857Y-101318095D01*
X226917619Y-101270476D01*
X226870000Y-101222857D01*
X226822380Y-101127619D01*
X227822380Y-99841904D02*
X227822380Y-100413333D01*
X227822380Y-100127619D02*
X226822380Y-100127619D01*
X226965238Y-100222857D01*
X227060476Y-100318095D01*
X227108095Y-100413333D01*
X268287142Y-77299047D02*
X268334761Y-77346666D01*
X268382380Y-77489523D01*
X268382380Y-77584761D01*
X268334761Y-77727619D01*
X268239523Y-77822857D01*
X268144285Y-77870476D01*
X267953809Y-77918095D01*
X267810952Y-77918095D01*
X267620476Y-77870476D01*
X267525238Y-77822857D01*
X267430000Y-77727619D01*
X267382380Y-77584761D01*
X267382380Y-77489523D01*
X267430000Y-77346666D01*
X267477619Y-77299047D01*
X267382380Y-76965714D02*
X267382380Y-76346666D01*
X267763333Y-76680000D01*
X267763333Y-76537142D01*
X267810952Y-76441904D01*
X267858571Y-76394285D01*
X267953809Y-76346666D01*
X268191904Y-76346666D01*
X268287142Y-76394285D01*
X268334761Y-76441904D01*
X268382380Y-76537142D01*
X268382380Y-76822857D01*
X268334761Y-76918095D01*
X268287142Y-76965714D01*
X267382380Y-76013333D02*
X267382380Y-75394285D01*
X267763333Y-75727619D01*
X267763333Y-75584761D01*
X267810952Y-75489523D01*
X267858571Y-75441904D01*
X267953809Y-75394285D01*
X268191904Y-75394285D01*
X268287142Y-75441904D01*
X268334761Y-75489523D01*
X268382380Y-75584761D01*
X268382380Y-75870476D01*
X268334761Y-75965714D01*
X268287142Y-76013333D01*
X267382380Y-74775238D02*
X267382380Y-74680000D01*
X267430000Y-74584761D01*
X267477619Y-74537142D01*
X267572857Y-74489523D01*
X267763333Y-74441904D01*
X268001428Y-74441904D01*
X268191904Y-74489523D01*
X268287142Y-74537142D01*
X268334761Y-74584761D01*
X268382380Y-74680000D01*
X268382380Y-74775238D01*
X268334761Y-74870476D01*
X268287142Y-74918095D01*
X268191904Y-74965714D01*
X268001428Y-75013333D01*
X267763333Y-75013333D01*
X267572857Y-74965714D01*
X267477619Y-74918095D01*
X267430000Y-74870476D01*
X267382380Y-74775238D01*
X241697142Y-73529047D02*
X241744761Y-73576666D01*
X241792380Y-73719523D01*
X241792380Y-73814761D01*
X241744761Y-73957619D01*
X241649523Y-74052857D01*
X241554285Y-74100476D01*
X241363809Y-74148095D01*
X241220952Y-74148095D01*
X241030476Y-74100476D01*
X240935238Y-74052857D01*
X240840000Y-73957619D01*
X240792380Y-73814761D01*
X240792380Y-73719523D01*
X240840000Y-73576666D01*
X240887619Y-73529047D01*
X240792380Y-73195714D02*
X240792380Y-72576666D01*
X241173333Y-72910000D01*
X241173333Y-72767142D01*
X241220952Y-72671904D01*
X241268571Y-72624285D01*
X241363809Y-72576666D01*
X241601904Y-72576666D01*
X241697142Y-72624285D01*
X241744761Y-72671904D01*
X241792380Y-72767142D01*
X241792380Y-73052857D01*
X241744761Y-73148095D01*
X241697142Y-73195714D01*
X240792380Y-72243333D02*
X240792380Y-71624285D01*
X241173333Y-71957619D01*
X241173333Y-71814761D01*
X241220952Y-71719523D01*
X241268571Y-71671904D01*
X241363809Y-71624285D01*
X241601904Y-71624285D01*
X241697142Y-71671904D01*
X241744761Y-71719523D01*
X241792380Y-71814761D01*
X241792380Y-72100476D01*
X241744761Y-72195714D01*
X241697142Y-72243333D01*
X241792380Y-70671904D02*
X241792380Y-71243333D01*
X241792380Y-70957619D02*
X240792380Y-70957619D01*
X240935238Y-71052857D01*
X241030476Y-71148095D01*
X241078095Y-71243333D01*
X208450952Y-24447142D02*
X208403333Y-24494761D01*
X208260476Y-24542380D01*
X208165238Y-24542380D01*
X208022380Y-24494761D01*
X207927142Y-24399523D01*
X207879523Y-24304285D01*
X207831904Y-24113809D01*
X207831904Y-23970952D01*
X207879523Y-23780476D01*
X207927142Y-23685238D01*
X208022380Y-23590000D01*
X208165238Y-23542380D01*
X208260476Y-23542380D01*
X208403333Y-23590000D01*
X208450952Y-23637619D01*
X209308095Y-23875714D02*
X209308095Y-24542380D01*
X209070000Y-23494761D02*
X208831904Y-24209047D01*
X209450952Y-24209047D01*
X210022380Y-23542380D02*
X210117619Y-23542380D01*
X210212857Y-23590000D01*
X210260476Y-23637619D01*
X210308095Y-23732857D01*
X210355714Y-23923333D01*
X210355714Y-24161428D01*
X210308095Y-24351904D01*
X210260476Y-24447142D01*
X210212857Y-24494761D01*
X210117619Y-24542380D01*
X210022380Y-24542380D01*
X209927142Y-24494761D01*
X209879523Y-24447142D01*
X209831904Y-24351904D01*
X209784285Y-24161428D01*
X209784285Y-23923333D01*
X209831904Y-23732857D01*
X209879523Y-23637619D01*
X209927142Y-23590000D01*
X210022380Y-23542380D01*
X210974761Y-23542380D02*
X211070000Y-23542380D01*
X211165238Y-23590000D01*
X211212857Y-23637619D01*
X211260476Y-23732857D01*
X211308095Y-23923333D01*
X211308095Y-24161428D01*
X211260476Y-24351904D01*
X211212857Y-24447142D01*
X211165238Y-24494761D01*
X211070000Y-24542380D01*
X210974761Y-24542380D01*
X210879523Y-24494761D01*
X210831904Y-24447142D01*
X210784285Y-24351904D01*
X210736666Y-24161428D01*
X210736666Y-23923333D01*
X210784285Y-23732857D01*
X210831904Y-23637619D01*
X210879523Y-23590000D01*
X210974761Y-23542380D01*
X226258571Y-72917142D02*
X226210952Y-72964761D01*
X226068095Y-73012380D01*
X225972857Y-73012380D01*
X225830000Y-72964761D01*
X225734761Y-72869523D01*
X225687142Y-72774285D01*
X225639523Y-72583809D01*
X225639523Y-72440952D01*
X225687142Y-72250476D01*
X225734761Y-72155238D01*
X225830000Y-72060000D01*
X225972857Y-72012380D01*
X226068095Y-72012380D01*
X226210952Y-72060000D01*
X226258571Y-72107619D01*
X227163333Y-73012380D02*
X226687142Y-73012380D01*
X226687142Y-72012380D01*
X227496666Y-73012380D02*
X227496666Y-72012380D01*
X228068095Y-73012380D02*
X227639523Y-72440952D01*
X228068095Y-72012380D02*
X227496666Y-72583809D01*
X229020476Y-73012380D02*
X228449047Y-73012380D01*
X228734761Y-73012380D02*
X228734761Y-72012380D01*
X228639523Y-72155238D01*
X228544285Y-72250476D01*
X228449047Y-72298095D01*
X214752380Y-119273333D02*
X215466666Y-119273333D01*
X215609523Y-119320952D01*
X215704761Y-119416190D01*
X215752380Y-119559047D01*
X215752380Y-119654285D01*
X214752380Y-118606666D02*
X214752380Y-118511428D01*
X214800000Y-118416190D01*
X214847619Y-118368571D01*
X214942857Y-118320952D01*
X215133333Y-118273333D01*
X215371428Y-118273333D01*
X215561904Y-118320952D01*
X215657142Y-118368571D01*
X215704761Y-118416190D01*
X215752380Y-118511428D01*
X215752380Y-118606666D01*
X215704761Y-118701904D01*
X215657142Y-118749523D01*
X215561904Y-118797142D01*
X215371428Y-118844761D01*
X215133333Y-118844761D01*
X214942857Y-118797142D01*
X214847619Y-118749523D01*
X214800000Y-118701904D01*
X214752380Y-118606666D01*
X171942380Y-22875714D02*
X172656666Y-22875714D01*
X172799523Y-22923333D01*
X172894761Y-23018571D01*
X172942380Y-23161428D01*
X172942380Y-23256666D01*
X171942380Y-22494761D02*
X171942380Y-21875714D01*
X172323333Y-22209047D01*
X172323333Y-22066190D01*
X172370952Y-21970952D01*
X172418571Y-21923333D01*
X172513809Y-21875714D01*
X172751904Y-21875714D01*
X172847142Y-21923333D01*
X172894761Y-21970952D01*
X172942380Y-22066190D01*
X172942380Y-22351904D01*
X172894761Y-22447142D01*
X172847142Y-22494761D01*
X171942380Y-21256666D02*
X171942380Y-21161428D01*
X171990000Y-21066190D01*
X172037619Y-21018571D01*
X172132857Y-20970952D01*
X172323333Y-20923333D01*
X172561428Y-20923333D01*
X172751904Y-20970952D01*
X172847142Y-21018571D01*
X172894761Y-21066190D01*
X172942380Y-21161428D01*
X172942380Y-21256666D01*
X172894761Y-21351904D01*
X172847142Y-21399523D01*
X172751904Y-21447142D01*
X172561428Y-21494761D01*
X172323333Y-21494761D01*
X172132857Y-21447142D01*
X172037619Y-21399523D01*
X171990000Y-21351904D01*
X171942380Y-21256666D01*
X171942380Y-20304285D02*
X171942380Y-20209047D01*
X171990000Y-20113809D01*
X172037619Y-20066190D01*
X172132857Y-20018571D01*
X172323333Y-19970952D01*
X172561428Y-19970952D01*
X172751904Y-20018571D01*
X172847142Y-20066190D01*
X172894761Y-20113809D01*
X172942380Y-20209047D01*
X172942380Y-20304285D01*
X172894761Y-20399523D01*
X172847142Y-20447142D01*
X172751904Y-20494761D01*
X172561428Y-20542380D01*
X172323333Y-20542380D01*
X172132857Y-20494761D01*
X172037619Y-20447142D01*
X171990000Y-20399523D01*
X171942380Y-20304285D01*
X230822380Y-118125714D02*
X231536666Y-118125714D01*
X231679523Y-118173333D01*
X231774761Y-118268571D01*
X231822380Y-118411428D01*
X231822380Y-118506666D01*
X230822380Y-117744761D02*
X230822380Y-117125714D01*
X231203333Y-117459047D01*
X231203333Y-117316190D01*
X231250952Y-117220952D01*
X231298571Y-117173333D01*
X231393809Y-117125714D01*
X231631904Y-117125714D01*
X231727142Y-117173333D01*
X231774761Y-117220952D01*
X231822380Y-117316190D01*
X231822380Y-117601904D01*
X231774761Y-117697142D01*
X231727142Y-117744761D01*
X230822380Y-116506666D02*
X230822380Y-116411428D01*
X230870000Y-116316190D01*
X230917619Y-116268571D01*
X231012857Y-116220952D01*
X231203333Y-116173333D01*
X231441428Y-116173333D01*
X231631904Y-116220952D01*
X231727142Y-116268571D01*
X231774761Y-116316190D01*
X231822380Y-116411428D01*
X231822380Y-116506666D01*
X231774761Y-116601904D01*
X231727142Y-116649523D01*
X231631904Y-116697142D01*
X231441428Y-116744761D01*
X231203333Y-116744761D01*
X231012857Y-116697142D01*
X230917619Y-116649523D01*
X230870000Y-116601904D01*
X230822380Y-116506666D01*
X231822380Y-115220952D02*
X231822380Y-115792380D01*
X231822380Y-115506666D02*
X230822380Y-115506666D01*
X230965238Y-115601904D01*
X231060476Y-115697142D01*
X231108095Y-115792380D01*
X253562380Y-117635714D02*
X254276666Y-117635714D01*
X254419523Y-117683333D01*
X254514761Y-117778571D01*
X254562380Y-117921428D01*
X254562380Y-118016666D01*
X253562380Y-117254761D02*
X253562380Y-116635714D01*
X253943333Y-116969047D01*
X253943333Y-116826190D01*
X253990952Y-116730952D01*
X254038571Y-116683333D01*
X254133809Y-116635714D01*
X254371904Y-116635714D01*
X254467142Y-116683333D01*
X254514761Y-116730952D01*
X254562380Y-116826190D01*
X254562380Y-117111904D01*
X254514761Y-117207142D01*
X254467142Y-117254761D01*
X253562380Y-116016666D02*
X253562380Y-115921428D01*
X253610000Y-115826190D01*
X253657619Y-115778571D01*
X253752857Y-115730952D01*
X253943333Y-115683333D01*
X254181428Y-115683333D01*
X254371904Y-115730952D01*
X254467142Y-115778571D01*
X254514761Y-115826190D01*
X254562380Y-115921428D01*
X254562380Y-116016666D01*
X254514761Y-116111904D01*
X254467142Y-116159523D01*
X254371904Y-116207142D01*
X254181428Y-116254761D01*
X253943333Y-116254761D01*
X253752857Y-116207142D01*
X253657619Y-116159523D01*
X253610000Y-116111904D01*
X253562380Y-116016666D01*
X253657619Y-115302380D02*
X253610000Y-115254761D01*
X253562380Y-115159523D01*
X253562380Y-114921428D01*
X253610000Y-114826190D01*
X253657619Y-114778571D01*
X253752857Y-114730952D01*
X253848095Y-114730952D01*
X253990952Y-114778571D01*
X254562380Y-115350000D01*
X254562380Y-114730952D01*
X163072380Y-22875714D02*
X163786666Y-22875714D01*
X163929523Y-22923333D01*
X164024761Y-23018571D01*
X164072380Y-23161428D01*
X164072380Y-23256666D01*
X163072380Y-22494761D02*
X163072380Y-21875714D01*
X163453333Y-22209047D01*
X163453333Y-22066190D01*
X163500952Y-21970952D01*
X163548571Y-21923333D01*
X163643809Y-21875714D01*
X163881904Y-21875714D01*
X163977142Y-21923333D01*
X164024761Y-21970952D01*
X164072380Y-22066190D01*
X164072380Y-22351904D01*
X164024761Y-22447142D01*
X163977142Y-22494761D01*
X163072380Y-21256666D02*
X163072380Y-21161428D01*
X163120000Y-21066190D01*
X163167619Y-21018571D01*
X163262857Y-20970952D01*
X163453333Y-20923333D01*
X163691428Y-20923333D01*
X163881904Y-20970952D01*
X163977142Y-21018571D01*
X164024761Y-21066190D01*
X164072380Y-21161428D01*
X164072380Y-21256666D01*
X164024761Y-21351904D01*
X163977142Y-21399523D01*
X163881904Y-21447142D01*
X163691428Y-21494761D01*
X163453333Y-21494761D01*
X163262857Y-21447142D01*
X163167619Y-21399523D01*
X163120000Y-21351904D01*
X163072380Y-21256666D01*
X163072380Y-20590000D02*
X163072380Y-19970952D01*
X163453333Y-20304285D01*
X163453333Y-20161428D01*
X163500952Y-20066190D01*
X163548571Y-20018571D01*
X163643809Y-19970952D01*
X163881904Y-19970952D01*
X163977142Y-20018571D01*
X164024761Y-20066190D01*
X164072380Y-20161428D01*
X164072380Y-20447142D01*
X164024761Y-20542380D01*
X163977142Y-20590000D01*
X160004285Y-123767380D02*
X160004285Y-124481666D01*
X159956666Y-124624523D01*
X159861428Y-124719761D01*
X159718571Y-124767380D01*
X159623333Y-124767380D01*
X160385238Y-123767380D02*
X161004285Y-123767380D01*
X160670952Y-124148333D01*
X160813809Y-124148333D01*
X160909047Y-124195952D01*
X160956666Y-124243571D01*
X161004285Y-124338809D01*
X161004285Y-124576904D01*
X160956666Y-124672142D01*
X160909047Y-124719761D01*
X160813809Y-124767380D01*
X160528095Y-124767380D01*
X160432857Y-124719761D01*
X160385238Y-124672142D01*
X161385238Y-123862619D02*
X161432857Y-123815000D01*
X161528095Y-123767380D01*
X161766190Y-123767380D01*
X161861428Y-123815000D01*
X161909047Y-123862619D01*
X161956666Y-123957857D01*
X161956666Y-124053095D01*
X161909047Y-124195952D01*
X161337619Y-124767380D01*
X161956666Y-124767380D01*
X162575714Y-123767380D02*
X162670952Y-123767380D01*
X162766190Y-123815000D01*
X162813809Y-123862619D01*
X162861428Y-123957857D01*
X162909047Y-124148333D01*
X162909047Y-124386428D01*
X162861428Y-124576904D01*
X162813809Y-124672142D01*
X162766190Y-124719761D01*
X162670952Y-124767380D01*
X162575714Y-124767380D01*
X162480476Y-124719761D01*
X162432857Y-124672142D01*
X162385238Y-124576904D01*
X162337619Y-124386428D01*
X162337619Y-124148333D01*
X162385238Y-123957857D01*
X162432857Y-123862619D01*
X162480476Y-123815000D01*
X162575714Y-123767380D01*
X268140380Y-76215714D02*
X268854666Y-76215714D01*
X268997523Y-76263333D01*
X269092761Y-76358571D01*
X269140380Y-76501428D01*
X269140380Y-76596666D01*
X268140380Y-75834761D02*
X268140380Y-75215714D01*
X268521333Y-75549047D01*
X268521333Y-75406190D01*
X268568952Y-75310952D01*
X268616571Y-75263333D01*
X268711809Y-75215714D01*
X268949904Y-75215714D01*
X269045142Y-75263333D01*
X269092761Y-75310952D01*
X269140380Y-75406190D01*
X269140380Y-75691904D01*
X269092761Y-75787142D01*
X269045142Y-75834761D01*
X268140380Y-74882380D02*
X268140380Y-74263333D01*
X268521333Y-74596666D01*
X268521333Y-74453809D01*
X268568952Y-74358571D01*
X268616571Y-74310952D01*
X268711809Y-74263333D01*
X268949904Y-74263333D01*
X269045142Y-74310952D01*
X269092761Y-74358571D01*
X269140380Y-74453809D01*
X269140380Y-74739523D01*
X269092761Y-74834761D01*
X269045142Y-74882380D01*
X268140380Y-73644285D02*
X268140380Y-73549047D01*
X268188000Y-73453809D01*
X268235619Y-73406190D01*
X268330857Y-73358571D01*
X268521333Y-73310952D01*
X268759428Y-73310952D01*
X268949904Y-73358571D01*
X269045142Y-73406190D01*
X269092761Y-73453809D01*
X269140380Y-73549047D01*
X269140380Y-73644285D01*
X269092761Y-73739523D01*
X269045142Y-73787142D01*
X268949904Y-73834761D01*
X268759428Y-73882380D01*
X268521333Y-73882380D01*
X268330857Y-73834761D01*
X268235619Y-73787142D01*
X268188000Y-73739523D01*
X268140380Y-73644285D01*
X166962380Y-40060476D02*
X166486190Y-40393809D01*
X166962380Y-40631904D02*
X165962380Y-40631904D01*
X165962380Y-40250952D01*
X166010000Y-40155714D01*
X166057619Y-40108095D01*
X166152857Y-40060476D01*
X166295714Y-40060476D01*
X166390952Y-40108095D01*
X166438571Y-40155714D01*
X166486190Y-40250952D01*
X166486190Y-40631904D01*
X166962380Y-39631904D02*
X165962380Y-39631904D01*
X166962380Y-39060476D01*
X165962380Y-39060476D01*
X166962380Y-38060476D02*
X166962380Y-38631904D01*
X166962380Y-38346190D02*
X165962380Y-38346190D01*
X166105238Y-38441428D01*
X166200476Y-38536666D01*
X166248095Y-38631904D01*
X257132380Y-96892857D02*
X256656190Y-97226190D01*
X257132380Y-97464285D02*
X256132380Y-97464285D01*
X256132380Y-97083333D01*
X256180000Y-96988095D01*
X256227619Y-96940476D01*
X256322857Y-96892857D01*
X256465714Y-96892857D01*
X256560952Y-96940476D01*
X256608571Y-96988095D01*
X256656190Y-97083333D01*
X256656190Y-97464285D01*
X257132380Y-96464285D02*
X256132380Y-96464285D01*
X257132380Y-95892857D01*
X256132380Y-95892857D01*
X256132380Y-95511904D02*
X256132380Y-94892857D01*
X256513333Y-95226190D01*
X256513333Y-95083333D01*
X256560952Y-94988095D01*
X256608571Y-94940476D01*
X256703809Y-94892857D01*
X256941904Y-94892857D01*
X257037142Y-94940476D01*
X257084761Y-94988095D01*
X257132380Y-95083333D01*
X257132380Y-95369047D01*
X257084761Y-95464285D01*
X257037142Y-95511904D01*
X256132380Y-94273809D02*
X256132380Y-94178571D01*
X256180000Y-94083333D01*
X256227619Y-94035714D01*
X256322857Y-93988095D01*
X256513333Y-93940476D01*
X256751428Y-93940476D01*
X256941904Y-93988095D01*
X257037142Y-94035714D01*
X257084761Y-94083333D01*
X257132380Y-94178571D01*
X257132380Y-94273809D01*
X257084761Y-94369047D01*
X257037142Y-94416666D01*
X256941904Y-94464285D01*
X256751428Y-94511904D01*
X256513333Y-94511904D01*
X256322857Y-94464285D01*
X256227619Y-94416666D01*
X256180000Y-94369047D01*
X256132380Y-94273809D01*
X256132380Y-93321428D02*
X256132380Y-93226190D01*
X256180000Y-93130952D01*
X256227619Y-93083333D01*
X256322857Y-93035714D01*
X256513333Y-92988095D01*
X256751428Y-92988095D01*
X256941904Y-93035714D01*
X257037142Y-93083333D01*
X257084761Y-93130952D01*
X257132380Y-93226190D01*
X257132380Y-93321428D01*
X257084761Y-93416666D01*
X257037142Y-93464285D01*
X256941904Y-93511904D01*
X256751428Y-93559523D01*
X256513333Y-93559523D01*
X256322857Y-93511904D01*
X256227619Y-93464285D01*
X256180000Y-93416666D01*
X256132380Y-93321428D01*
X166962380Y-71492857D02*
X166486190Y-71826190D01*
X166962380Y-72064285D02*
X165962380Y-72064285D01*
X165962380Y-71683333D01*
X166010000Y-71588095D01*
X166057619Y-71540476D01*
X166152857Y-71492857D01*
X166295714Y-71492857D01*
X166390952Y-71540476D01*
X166438571Y-71588095D01*
X166486190Y-71683333D01*
X166486190Y-72064285D01*
X166962380Y-71064285D02*
X165962380Y-71064285D01*
X166962380Y-70492857D01*
X165962380Y-70492857D01*
X165962380Y-70111904D02*
X165962380Y-69492857D01*
X166343333Y-69826190D01*
X166343333Y-69683333D01*
X166390952Y-69588095D01*
X166438571Y-69540476D01*
X166533809Y-69492857D01*
X166771904Y-69492857D01*
X166867142Y-69540476D01*
X166914761Y-69588095D01*
X166962380Y-69683333D01*
X166962380Y-69969047D01*
X166914761Y-70064285D01*
X166867142Y-70111904D01*
X165962380Y-68873809D02*
X165962380Y-68778571D01*
X166010000Y-68683333D01*
X166057619Y-68635714D01*
X166152857Y-68588095D01*
X166343333Y-68540476D01*
X166581428Y-68540476D01*
X166771904Y-68588095D01*
X166867142Y-68635714D01*
X166914761Y-68683333D01*
X166962380Y-68778571D01*
X166962380Y-68873809D01*
X166914761Y-68969047D01*
X166867142Y-69016666D01*
X166771904Y-69064285D01*
X166581428Y-69111904D01*
X166343333Y-69111904D01*
X166152857Y-69064285D01*
X166057619Y-69016666D01*
X166010000Y-68969047D01*
X165962380Y-68873809D01*
X166962380Y-67588095D02*
X166962380Y-68159523D01*
X166962380Y-67873809D02*
X165962380Y-67873809D01*
X166105238Y-67969047D01*
X166200476Y-68064285D01*
X166248095Y-68159523D01*
X150172380Y-118482857D02*
X149696190Y-118816190D01*
X150172380Y-119054285D02*
X149172380Y-119054285D01*
X149172380Y-118673333D01*
X149220000Y-118578095D01*
X149267619Y-118530476D01*
X149362857Y-118482857D01*
X149505714Y-118482857D01*
X149600952Y-118530476D01*
X149648571Y-118578095D01*
X149696190Y-118673333D01*
X149696190Y-119054285D01*
X150172380Y-118054285D02*
X149172380Y-118054285D01*
X150172380Y-117482857D01*
X149172380Y-117482857D01*
X149172380Y-117101904D02*
X149172380Y-116482857D01*
X149553333Y-116816190D01*
X149553333Y-116673333D01*
X149600952Y-116578095D01*
X149648571Y-116530476D01*
X149743809Y-116482857D01*
X149981904Y-116482857D01*
X150077142Y-116530476D01*
X150124761Y-116578095D01*
X150172380Y-116673333D01*
X150172380Y-116959047D01*
X150124761Y-117054285D01*
X150077142Y-117101904D01*
X149267619Y-116101904D02*
X149220000Y-116054285D01*
X149172380Y-115959047D01*
X149172380Y-115720952D01*
X149220000Y-115625714D01*
X149267619Y-115578095D01*
X149362857Y-115530476D01*
X149458095Y-115530476D01*
X149600952Y-115578095D01*
X150172380Y-116149523D01*
X150172380Y-115530476D01*
X149172380Y-114911428D02*
X149172380Y-114816190D01*
X149220000Y-114720952D01*
X149267619Y-114673333D01*
X149362857Y-114625714D01*
X149553333Y-114578095D01*
X149791428Y-114578095D01*
X149981904Y-114625714D01*
X150077142Y-114673333D01*
X150124761Y-114720952D01*
X150172380Y-114816190D01*
X150172380Y-114911428D01*
X150124761Y-115006666D01*
X150077142Y-115054285D01*
X149981904Y-115101904D01*
X149791428Y-115149523D01*
X149553333Y-115149523D01*
X149362857Y-115101904D01*
X149267619Y-115054285D01*
X149220000Y-115006666D01*
X149172380Y-114911428D01*
X266394285Y-119244761D02*
X266537142Y-119292380D01*
X266775238Y-119292380D01*
X266870476Y-119244761D01*
X266918095Y-119197142D01*
X266965714Y-119101904D01*
X266965714Y-119006666D01*
X266918095Y-118911428D01*
X266870476Y-118863809D01*
X266775238Y-118816190D01*
X266584761Y-118768571D01*
X266489523Y-118720952D01*
X266441904Y-118673333D01*
X266394285Y-118578095D01*
X266394285Y-118482857D01*
X266441904Y-118387619D01*
X266489523Y-118340000D01*
X266584761Y-118292380D01*
X266822857Y-118292380D01*
X266965714Y-118340000D01*
X267299047Y-118292380D02*
X267537142Y-119292380D01*
X267727619Y-118578095D01*
X267918095Y-119292380D01*
X268156190Y-118292380D01*
X269060952Y-119292380D02*
X268489523Y-119292380D01*
X268775238Y-119292380D02*
X268775238Y-118292380D01*
X268680000Y-118435238D01*
X268584761Y-118530476D01*
X268489523Y-118578095D01*
X270013333Y-119292380D02*
X269441904Y-119292380D01*
X269727619Y-119292380D02*
X269727619Y-118292380D01*
X269632380Y-118435238D01*
X269537142Y-118530476D01*
X269441904Y-118578095D01*
X270632380Y-118292380D02*
X270727619Y-118292380D01*
X270822857Y-118340000D01*
X270870476Y-118387619D01*
X270918095Y-118482857D01*
X270965714Y-118673333D01*
X270965714Y-118911428D01*
X270918095Y-119101904D01*
X270870476Y-119197142D01*
X270822857Y-119244761D01*
X270727619Y-119292380D01*
X270632380Y-119292380D01*
X270537142Y-119244761D01*
X270489523Y-119197142D01*
X270441904Y-119101904D01*
X270394285Y-118911428D01*
X270394285Y-118673333D01*
X270441904Y-118482857D01*
X270489523Y-118387619D01*
X270537142Y-118340000D01*
X270632380Y-118292380D01*
X187198095Y-94592380D02*
X187198095Y-95401904D01*
X187245714Y-95497142D01*
X187293333Y-95544761D01*
X187388571Y-95592380D01*
X187579047Y-95592380D01*
X187674285Y-95544761D01*
X187721904Y-95497142D01*
X187769523Y-95401904D01*
X187769523Y-94592380D01*
X188769523Y-95592380D02*
X188198095Y-95592380D01*
X188483809Y-95592380D02*
X188483809Y-94592380D01*
X188388571Y-94735238D01*
X188293333Y-94830476D01*
X188198095Y-94878095D01*
X210058095Y-98052380D02*
X210058095Y-98861904D01*
X210105714Y-98957142D01*
X210153333Y-99004761D01*
X210248571Y-99052380D01*
X210439047Y-99052380D01*
X210534285Y-99004761D01*
X210581904Y-98957142D01*
X210629523Y-98861904D01*
X210629523Y-98052380D01*
X211058095Y-98147619D02*
X211105714Y-98100000D01*
X211200952Y-98052380D01*
X211439047Y-98052380D01*
X211534285Y-98100000D01*
X211581904Y-98147619D01*
X211629523Y-98242857D01*
X211629523Y-98338095D01*
X211581904Y-98480952D01*
X211010476Y-99052380D01*
X211629523Y-99052380D01*
X164342380Y-102044285D02*
X165151904Y-102044285D01*
X165247142Y-101996666D01*
X165294761Y-101949047D01*
X165342380Y-101853809D01*
X165342380Y-101663333D01*
X165294761Y-101568095D01*
X165247142Y-101520476D01*
X165151904Y-101472857D01*
X164342380Y-101472857D01*
X165342380Y-100472857D02*
X165342380Y-101044285D01*
X165342380Y-100758571D02*
X164342380Y-100758571D01*
X164485238Y-100853809D01*
X164580476Y-100949047D01*
X164628095Y-101044285D01*
X164342380Y-99853809D02*
X164342380Y-99758571D01*
X164390000Y-99663333D01*
X164437619Y-99615714D01*
X164532857Y-99568095D01*
X164723333Y-99520476D01*
X164961428Y-99520476D01*
X165151904Y-99568095D01*
X165247142Y-99615714D01*
X165294761Y-99663333D01*
X165342380Y-99758571D01*
X165342380Y-99853809D01*
X165294761Y-99949047D01*
X165247142Y-99996666D01*
X165151904Y-100044285D01*
X164961428Y-100091904D01*
X164723333Y-100091904D01*
X164532857Y-100044285D01*
X164437619Y-99996666D01*
X164390000Y-99949047D01*
X164342380Y-99853809D01*
X165342380Y-98568095D02*
X165342380Y-99139523D01*
X165342380Y-98853809D02*
X164342380Y-98853809D01*
X164485238Y-98949047D01*
X164580476Y-99044285D01*
X164628095Y-99139523D01*
X205295714Y-60622380D02*
X205295714Y-61431904D01*
X205343333Y-61527142D01*
X205390952Y-61574761D01*
X205486190Y-61622380D01*
X205676666Y-61622380D01*
X205771904Y-61574761D01*
X205819523Y-61527142D01*
X205867142Y-61431904D01*
X205867142Y-60622380D01*
X206867142Y-61622380D02*
X206295714Y-61622380D01*
X206581428Y-61622380D02*
X206581428Y-60622380D01*
X206486190Y-60765238D01*
X206390952Y-60860476D01*
X206295714Y-60908095D01*
X207486190Y-60622380D02*
X207581428Y-60622380D01*
X207676666Y-60670000D01*
X207724285Y-60717619D01*
X207771904Y-60812857D01*
X207819523Y-61003333D01*
X207819523Y-61241428D01*
X207771904Y-61431904D01*
X207724285Y-61527142D01*
X207676666Y-61574761D01*
X207581428Y-61622380D01*
X207486190Y-61622380D01*
X207390952Y-61574761D01*
X207343333Y-61527142D01*
X207295714Y-61431904D01*
X207248095Y-61241428D01*
X207248095Y-61003333D01*
X207295714Y-60812857D01*
X207343333Y-60717619D01*
X207390952Y-60670000D01*
X207486190Y-60622380D01*
X208200476Y-60717619D02*
X208248095Y-60670000D01*
X208343333Y-60622380D01*
X208581428Y-60622380D01*
X208676666Y-60670000D01*
X208724285Y-60717619D01*
X208771904Y-60812857D01*
X208771904Y-60908095D01*
X208724285Y-61050952D01*
X208152857Y-61622380D01*
X208771904Y-61622380D01*
X262552380Y-104584285D02*
X263361904Y-104584285D01*
X263457142Y-104536666D01*
X263504761Y-104489047D01*
X263552380Y-104393809D01*
X263552380Y-104203333D01*
X263504761Y-104108095D01*
X263457142Y-104060476D01*
X263361904Y-104012857D01*
X262552380Y-104012857D01*
X263552380Y-103012857D02*
X263552380Y-103584285D01*
X263552380Y-103298571D02*
X262552380Y-103298571D01*
X262695238Y-103393809D01*
X262790476Y-103489047D01*
X262838095Y-103584285D01*
X263552380Y-102060476D02*
X263552380Y-102631904D01*
X263552380Y-102346190D02*
X262552380Y-102346190D01*
X262695238Y-102441428D01*
X262790476Y-102536666D01*
X262838095Y-102631904D01*
X262552380Y-101441428D02*
X262552380Y-101346190D01*
X262600000Y-101250952D01*
X262647619Y-101203333D01*
X262742857Y-101155714D01*
X262933333Y-101108095D01*
X263171428Y-101108095D01*
X263361904Y-101155714D01*
X263457142Y-101203333D01*
X263504761Y-101250952D01*
X263552380Y-101346190D01*
X263552380Y-101441428D01*
X263504761Y-101536666D01*
X263457142Y-101584285D01*
X263361904Y-101631904D01*
X263171428Y-101679523D01*
X262933333Y-101679523D01*
X262742857Y-101631904D01*
X262647619Y-101584285D01*
X262600000Y-101536666D01*
X262552380Y-101441428D01*
X247205714Y-25367380D02*
X247205714Y-26176904D01*
X247253333Y-26272142D01*
X247300952Y-26319761D01*
X247396190Y-26367380D01*
X247586666Y-26367380D01*
X247681904Y-26319761D01*
X247729523Y-26272142D01*
X247777142Y-26176904D01*
X247777142Y-25367380D01*
X248205714Y-25462619D02*
X248253333Y-25415000D01*
X248348571Y-25367380D01*
X248586666Y-25367380D01*
X248681904Y-25415000D01*
X248729523Y-25462619D01*
X248777142Y-25557857D01*
X248777142Y-25653095D01*
X248729523Y-25795952D01*
X248158095Y-26367380D01*
X248777142Y-26367380D01*
X249396190Y-25367380D02*
X249491428Y-25367380D01*
X249586666Y-25415000D01*
X249634285Y-25462619D01*
X249681904Y-25557857D01*
X249729523Y-25748333D01*
X249729523Y-25986428D01*
X249681904Y-26176904D01*
X249634285Y-26272142D01*
X249586666Y-26319761D01*
X249491428Y-26367380D01*
X249396190Y-26367380D01*
X249300952Y-26319761D01*
X249253333Y-26272142D01*
X249205714Y-26176904D01*
X249158095Y-25986428D01*
X249158095Y-25748333D01*
X249205714Y-25557857D01*
X249253333Y-25462619D01*
X249300952Y-25415000D01*
X249396190Y-25367380D01*
X250348571Y-25367380D02*
X250443809Y-25367380D01*
X250539047Y-25415000D01*
X250586666Y-25462619D01*
X250634285Y-25557857D01*
X250681904Y-25748333D01*
X250681904Y-25986428D01*
X250634285Y-26176904D01*
X250586666Y-26272142D01*
X250539047Y-26319761D01*
X250443809Y-26367380D01*
X250348571Y-26367380D01*
X250253333Y-26319761D01*
X250205714Y-26272142D01*
X250158095Y-26176904D01*
X250110476Y-25986428D01*
X250110476Y-25748333D01*
X250158095Y-25557857D01*
X250205714Y-25462619D01*
X250253333Y-25415000D01*
X250348571Y-25367380D01*
X271335714Y-25367380D02*
X271335714Y-26176904D01*
X271383333Y-26272142D01*
X271430952Y-26319761D01*
X271526190Y-26367380D01*
X271716666Y-26367380D01*
X271811904Y-26319761D01*
X271859523Y-26272142D01*
X271907142Y-26176904D01*
X271907142Y-25367380D01*
X272335714Y-25462619D02*
X272383333Y-25415000D01*
X272478571Y-25367380D01*
X272716666Y-25367380D01*
X272811904Y-25415000D01*
X272859523Y-25462619D01*
X272907142Y-25557857D01*
X272907142Y-25653095D01*
X272859523Y-25795952D01*
X272288095Y-26367380D01*
X272907142Y-26367380D01*
X273526190Y-25367380D02*
X273621428Y-25367380D01*
X273716666Y-25415000D01*
X273764285Y-25462619D01*
X273811904Y-25557857D01*
X273859523Y-25748333D01*
X273859523Y-25986428D01*
X273811904Y-26176904D01*
X273764285Y-26272142D01*
X273716666Y-26319761D01*
X273621428Y-26367380D01*
X273526190Y-26367380D01*
X273430952Y-26319761D01*
X273383333Y-26272142D01*
X273335714Y-26176904D01*
X273288095Y-25986428D01*
X273288095Y-25748333D01*
X273335714Y-25557857D01*
X273383333Y-25462619D01*
X273430952Y-25415000D01*
X273526190Y-25367380D01*
X274240476Y-25462619D02*
X274288095Y-25415000D01*
X274383333Y-25367380D01*
X274621428Y-25367380D01*
X274716666Y-25415000D01*
X274764285Y-25462619D01*
X274811904Y-25557857D01*
X274811904Y-25653095D01*
X274764285Y-25795952D01*
X274192857Y-26367380D01*
X274811904Y-26367380D01*
X149415714Y-25062380D02*
X149415714Y-25871904D01*
X149463333Y-25967142D01*
X149510952Y-26014761D01*
X149606190Y-26062380D01*
X149796666Y-26062380D01*
X149891904Y-26014761D01*
X149939523Y-25967142D01*
X149987142Y-25871904D01*
X149987142Y-25062380D01*
X150368095Y-25062380D02*
X150987142Y-25062380D01*
X150653809Y-25443333D01*
X150796666Y-25443333D01*
X150891904Y-25490952D01*
X150939523Y-25538571D01*
X150987142Y-25633809D01*
X150987142Y-25871904D01*
X150939523Y-25967142D01*
X150891904Y-26014761D01*
X150796666Y-26062380D01*
X150510952Y-26062380D01*
X150415714Y-26014761D01*
X150368095Y-25967142D01*
X151606190Y-25062380D02*
X151701428Y-25062380D01*
X151796666Y-25110000D01*
X151844285Y-25157619D01*
X151891904Y-25252857D01*
X151939523Y-25443333D01*
X151939523Y-25681428D01*
X151891904Y-25871904D01*
X151844285Y-25967142D01*
X151796666Y-26014761D01*
X151701428Y-26062380D01*
X151606190Y-26062380D01*
X151510952Y-26014761D01*
X151463333Y-25967142D01*
X151415714Y-25871904D01*
X151368095Y-25681428D01*
X151368095Y-25443333D01*
X151415714Y-25252857D01*
X151463333Y-25157619D01*
X151510952Y-25110000D01*
X151606190Y-25062380D01*
X152558571Y-25062380D02*
X152653809Y-25062380D01*
X152749047Y-25110000D01*
X152796666Y-25157619D01*
X152844285Y-25252857D01*
X152891904Y-25443333D01*
X152891904Y-25681428D01*
X152844285Y-25871904D01*
X152796666Y-25967142D01*
X152749047Y-26014761D01*
X152653809Y-26062380D01*
X152558571Y-26062380D01*
X152463333Y-26014761D01*
X152415714Y-25967142D01*
X152368095Y-25871904D01*
X152320476Y-25681428D01*
X152320476Y-25443333D01*
X152368095Y-25252857D01*
X152415714Y-25157619D01*
X152463333Y-25110000D01*
X152558571Y-25062380D01*
X233342380Y-100774285D02*
X234151904Y-100774285D01*
X234247142Y-100726666D01*
X234294761Y-100679047D01*
X234342380Y-100583809D01*
X234342380Y-100393333D01*
X234294761Y-100298095D01*
X234247142Y-100250476D01*
X234151904Y-100202857D01*
X233342380Y-100202857D01*
X233342380Y-99821904D02*
X233342380Y-99202857D01*
X233723333Y-99536190D01*
X233723333Y-99393333D01*
X233770952Y-99298095D01*
X233818571Y-99250476D01*
X233913809Y-99202857D01*
X234151904Y-99202857D01*
X234247142Y-99250476D01*
X234294761Y-99298095D01*
X234342380Y-99393333D01*
X234342380Y-99679047D01*
X234294761Y-99774285D01*
X234247142Y-99821904D01*
X233342380Y-98583809D02*
X233342380Y-98488571D01*
X233390000Y-98393333D01*
X233437619Y-98345714D01*
X233532857Y-98298095D01*
X233723333Y-98250476D01*
X233961428Y-98250476D01*
X234151904Y-98298095D01*
X234247142Y-98345714D01*
X234294761Y-98393333D01*
X234342380Y-98488571D01*
X234342380Y-98583809D01*
X234294761Y-98679047D01*
X234247142Y-98726666D01*
X234151904Y-98774285D01*
X233961428Y-98821904D01*
X233723333Y-98821904D01*
X233532857Y-98774285D01*
X233437619Y-98726666D01*
X233390000Y-98679047D01*
X233342380Y-98583809D01*
X234342380Y-97298095D02*
X234342380Y-97869523D01*
X234342380Y-97583809D02*
X233342380Y-97583809D01*
X233485238Y-97679047D01*
X233580476Y-97774285D01*
X233628095Y-97869523D01*
X268140380Y-85534285D02*
X268949904Y-85534285D01*
X269045142Y-85486666D01*
X269092761Y-85439047D01*
X269140380Y-85343809D01*
X269140380Y-85153333D01*
X269092761Y-85058095D01*
X269045142Y-85010476D01*
X268949904Y-84962857D01*
X268140380Y-84962857D01*
X268140380Y-84581904D02*
X268140380Y-83962857D01*
X268521333Y-84296190D01*
X268521333Y-84153333D01*
X268568952Y-84058095D01*
X268616571Y-84010476D01*
X268711809Y-83962857D01*
X268949904Y-83962857D01*
X269045142Y-84010476D01*
X269092761Y-84058095D01*
X269140380Y-84153333D01*
X269140380Y-84439047D01*
X269092761Y-84534285D01*
X269045142Y-84581904D01*
X268140380Y-83629523D02*
X268140380Y-83010476D01*
X268521333Y-83343809D01*
X268521333Y-83200952D01*
X268568952Y-83105714D01*
X268616571Y-83058095D01*
X268711809Y-83010476D01*
X268949904Y-83010476D01*
X269045142Y-83058095D01*
X269092761Y-83105714D01*
X269140380Y-83200952D01*
X269140380Y-83486666D01*
X269092761Y-83581904D01*
X269045142Y-83629523D01*
X268140380Y-82391428D02*
X268140380Y-82296190D01*
X268188000Y-82200952D01*
X268235619Y-82153333D01*
X268330857Y-82105714D01*
X268521333Y-82058095D01*
X268759428Y-82058095D01*
X268949904Y-82105714D01*
X269045142Y-82153333D01*
X269092761Y-82200952D01*
X269140380Y-82296190D01*
X269140380Y-82391428D01*
X269092761Y-82486666D01*
X269045142Y-82534285D01*
X268949904Y-82581904D01*
X268759428Y-82629523D01*
X268521333Y-82629523D01*
X268330857Y-82581904D01*
X268235619Y-82534285D01*
X268188000Y-82486666D01*
X268140380Y-82391428D01*
X240962380Y-82994285D02*
X241771904Y-82994285D01*
X241867142Y-82946666D01*
X241914761Y-82899047D01*
X241962380Y-82803809D01*
X241962380Y-82613333D01*
X241914761Y-82518095D01*
X241867142Y-82470476D01*
X241771904Y-82422857D01*
X240962380Y-82422857D01*
X240962380Y-82041904D02*
X240962380Y-81422857D01*
X241343333Y-81756190D01*
X241343333Y-81613333D01*
X241390952Y-81518095D01*
X241438571Y-81470476D01*
X241533809Y-81422857D01*
X241771904Y-81422857D01*
X241867142Y-81470476D01*
X241914761Y-81518095D01*
X241962380Y-81613333D01*
X241962380Y-81899047D01*
X241914761Y-81994285D01*
X241867142Y-82041904D01*
X240962380Y-81089523D02*
X240962380Y-80470476D01*
X241343333Y-80803809D01*
X241343333Y-80660952D01*
X241390952Y-80565714D01*
X241438571Y-80518095D01*
X241533809Y-80470476D01*
X241771904Y-80470476D01*
X241867142Y-80518095D01*
X241914761Y-80565714D01*
X241962380Y-80660952D01*
X241962380Y-80946666D01*
X241914761Y-81041904D01*
X241867142Y-81089523D01*
X241962380Y-79518095D02*
X241962380Y-80089523D01*
X241962380Y-79803809D02*
X240962380Y-79803809D01*
X241105238Y-79899047D01*
X241200476Y-79994285D01*
X241248095Y-80089523D01*
X205295714Y-25062380D02*
X205295714Y-25871904D01*
X205343333Y-25967142D01*
X205390952Y-26014761D01*
X205486190Y-26062380D01*
X205676666Y-26062380D01*
X205771904Y-26014761D01*
X205819523Y-25967142D01*
X205867142Y-25871904D01*
X205867142Y-25062380D01*
X206771904Y-25395714D02*
X206771904Y-26062380D01*
X206533809Y-25014761D02*
X206295714Y-25729047D01*
X206914761Y-25729047D01*
X207486190Y-25062380D02*
X207581428Y-25062380D01*
X207676666Y-25110000D01*
X207724285Y-25157619D01*
X207771904Y-25252857D01*
X207819523Y-25443333D01*
X207819523Y-25681428D01*
X207771904Y-25871904D01*
X207724285Y-25967142D01*
X207676666Y-26014761D01*
X207581428Y-26062380D01*
X207486190Y-26062380D01*
X207390952Y-26014761D01*
X207343333Y-25967142D01*
X207295714Y-25871904D01*
X207248095Y-25681428D01*
X207248095Y-25443333D01*
X207295714Y-25252857D01*
X207343333Y-25157619D01*
X207390952Y-25110000D01*
X207486190Y-25062380D01*
X208438571Y-25062380D02*
X208533809Y-25062380D01*
X208629047Y-25110000D01*
X208676666Y-25157619D01*
X208724285Y-25252857D01*
X208771904Y-25443333D01*
X208771904Y-25681428D01*
X208724285Y-25871904D01*
X208676666Y-25967142D01*
X208629047Y-26014761D01*
X208533809Y-26062380D01*
X208438571Y-26062380D01*
X208343333Y-26014761D01*
X208295714Y-25967142D01*
X208248095Y-25871904D01*
X208200476Y-25681428D01*
X208200476Y-25443333D01*
X208248095Y-25252857D01*
X208295714Y-25157619D01*
X208343333Y-25110000D01*
X208438571Y-25062380D01*
X149791428Y-88591190D02*
X149791428Y-89067380D01*
X149458095Y-88067380D02*
X149791428Y-88591190D01*
X150124761Y-88067380D01*
X150362857Y-88067380D02*
X150981904Y-88067380D01*
X150648571Y-88448333D01*
X150791428Y-88448333D01*
X150886666Y-88495952D01*
X150934285Y-88543571D01*
X150981904Y-88638809D01*
X150981904Y-88876904D01*
X150934285Y-88972142D01*
X150886666Y-89019761D01*
X150791428Y-89067380D01*
X150505714Y-89067380D01*
X150410476Y-89019761D01*
X150362857Y-88972142D01*
X151600952Y-88067380D02*
X151696190Y-88067380D01*
X151791428Y-88115000D01*
X151839047Y-88162619D01*
X151886666Y-88257857D01*
X151934285Y-88448333D01*
X151934285Y-88686428D01*
X151886666Y-88876904D01*
X151839047Y-88972142D01*
X151791428Y-89019761D01*
X151696190Y-89067380D01*
X151600952Y-89067380D01*
X151505714Y-89019761D01*
X151458095Y-88972142D01*
X151410476Y-88876904D01*
X151362857Y-88686428D01*
X151362857Y-88448333D01*
X151410476Y-88257857D01*
X151458095Y-88162619D01*
X151505714Y-88115000D01*
X151600952Y-88067380D01*
X152553333Y-88067380D02*
X152648571Y-88067380D01*
X152743809Y-88115000D01*
X152791428Y-88162619D01*
X152839047Y-88257857D01*
X152886666Y-88448333D01*
X152886666Y-88686428D01*
X152839047Y-88876904D01*
X152791428Y-88972142D01*
X152743809Y-89019761D01*
X152648571Y-89067380D01*
X152553333Y-89067380D01*
X152458095Y-89019761D01*
X152410476Y-88972142D01*
X152362857Y-88876904D01*
X152315238Y-88686428D01*
X152315238Y-88448333D01*
X152362857Y-88257857D01*
X152410476Y-88162619D01*
X152458095Y-88115000D01*
X152553333Y-88067380D01*
%LPC*%
D12*
X233680000Y-21590000D03*
X236180000Y-21590000D03*
D13*
X220805000Y-28245000D03*
D14*
X236045000Y-66345000D03*
X220805000Y-30785000D03*
X236045000Y-63805000D03*
X220805000Y-33325000D03*
X236045000Y-61265000D03*
X220805000Y-35865000D03*
X236045000Y-58725000D03*
X220805000Y-38405000D03*
X236045000Y-56185000D03*
X220805000Y-40945000D03*
X236045000Y-53645000D03*
X220805000Y-43485000D03*
X236045000Y-51105000D03*
X220805000Y-46025000D03*
X236045000Y-48565000D03*
X220805000Y-48565000D03*
X236045000Y-46025000D03*
X220805000Y-51105000D03*
X236045000Y-43485000D03*
X220805000Y-53645000D03*
X236045000Y-40945000D03*
X220805000Y-56185000D03*
X236045000Y-38405000D03*
X220805000Y-58725000D03*
X236045000Y-35865000D03*
X220805000Y-61265000D03*
X236045000Y-33325000D03*
X220805000Y-63805000D03*
X236045000Y-30785000D03*
X220805000Y-66345000D03*
X236045000Y-28245000D03*
D15*
X150310000Y-15240000D03*
D16*
X152850000Y-15240000D03*
D15*
X156210000Y-15240000D03*
D16*
X158750000Y-15240000D03*
D17*
X139700000Y-17780000D03*
X139700000Y-115570000D03*
X284480000Y-115570000D03*
X284480000Y-17780000D03*
D14*
X193040000Y-27940000D03*
X177800000Y-86360000D03*
X193040000Y-30480000D03*
X177800000Y-83820000D03*
X193040000Y-33020000D03*
X177800000Y-81280000D03*
X193040000Y-35560000D03*
X177800000Y-78740000D03*
X193040000Y-38100000D03*
X177800000Y-76200000D03*
X193040000Y-40640000D03*
X177800000Y-73660000D03*
X193040000Y-43180000D03*
X177800000Y-71120000D03*
X193040000Y-45720000D03*
X177800000Y-68580000D03*
X193040000Y-48260000D03*
X177800000Y-66040000D03*
X193040000Y-50800000D03*
X177800000Y-63500000D03*
X193040000Y-53340000D03*
X177800000Y-60960000D03*
X193040000Y-55880000D03*
X177800000Y-58420000D03*
X193040000Y-58420000D03*
X177800000Y-55880000D03*
X193040000Y-60960000D03*
X177800000Y-53340000D03*
X193040000Y-63500000D03*
X177800000Y-50800000D03*
X193040000Y-66040000D03*
X177800000Y-48260000D03*
X193040000Y-68580000D03*
X177800000Y-45720000D03*
X193040000Y-71120000D03*
X177800000Y-43180000D03*
X193040000Y-73660000D03*
X177800000Y-40640000D03*
X193040000Y-76200000D03*
X177800000Y-38100000D03*
X193040000Y-78740000D03*
X177800000Y-35560000D03*
X193040000Y-81280000D03*
X177800000Y-33020000D03*
X193040000Y-83820000D03*
X177800000Y-30480000D03*
X193040000Y-86360000D03*
D13*
X177800000Y-27940000D03*
D12*
X158750000Y-85090000D03*
X161250000Y-85090000D03*
X141010000Y-85090000D03*
X143510000Y-85090000D03*
X175300000Y-115570000D03*
D18*
X177800000Y-115570000D03*
X200620000Y-102870000D03*
D12*
X198120000Y-102870000D03*
X175260000Y-102870000D03*
D18*
X177760000Y-102870000D03*
X221020000Y-102870000D03*
D12*
X223520000Y-102870000D03*
X243840000Y-88940000D03*
X243840000Y-91440000D03*
X168910000Y-58460000D03*
X168910000Y-60960000D03*
X168910000Y-104140000D03*
X168910000Y-101640000D03*
X208320000Y-57150000D03*
X210820000Y-57150000D03*
X219710000Y-90170000D03*
X217210000Y-90170000D03*
X279400000Y-104140000D03*
X279400000Y-101640000D03*
X270550000Y-95250000D03*
X273050000Y-95250000D03*
X267970000Y-95250000D03*
X265470000Y-95250000D03*
X259080000Y-114260000D03*
X259080000Y-111760000D03*
X256540000Y-21590000D03*
X254040000Y-21590000D03*
X287020000Y-27940000D03*
X287020000Y-30440000D03*
X168910000Y-21590000D03*
X166410000Y-21590000D03*
X229870000Y-100330000D03*
X229870000Y-102830000D03*
X265430000Y-74930000D03*
X265430000Y-77430000D03*
X243840000Y-71160000D03*
X243840000Y-73660000D03*
X210820000Y-21590000D03*
X208320000Y-21590000D03*
D18*
X219710000Y-83820000D03*
D12*
X219710000Y-76200000D03*
X234950000Y-76200000D03*
X234950000Y-83820000D03*
D19*
X209550000Y-110490000D03*
G36*
G01*
X210550000Y-117990000D02*
X208550000Y-117990000D01*
G75*
G02*
X207800000Y-117240000I0J750000D01*
G01*
X207800000Y-115740000D01*
G75*
G02*
X208550000Y-114990000I750000J0D01*
G01*
X210550000Y-114990000D01*
G75*
G02*
X211300000Y-115740000I0J-750000D01*
G01*
X211300000Y-117240000D01*
G75*
G02*
X210550000Y-117990000I-750000J0D01*
G01*
G37*
G36*
G01*
X215125000Y-115240000D02*
X213375000Y-115240000D01*
G75*
G02*
X212500000Y-114365000I0J875000D01*
G01*
X212500000Y-112615000D01*
G75*
G02*
X213375000Y-111740000I875000J0D01*
G01*
X215125000Y-111740000D01*
G75*
G02*
X216000000Y-112615000I0J-875000D01*
G01*
X216000000Y-114365000D01*
G75*
G02*
X215125000Y-115240000I-875000J0D01*
G01*
G37*
D20*
X175260000Y-21590000D03*
D21*
X177800000Y-21590000D03*
D20*
X228600000Y-116840000D03*
D21*
X226060000Y-116840000D03*
X223520000Y-116840000D03*
D20*
X246340000Y-109590000D03*
D22*
X243840000Y-109590000D03*
X243840000Y-111590000D03*
X246340000Y-111590000D03*
D23*
X251110000Y-114300000D03*
X239070000Y-114300000D03*
D20*
X161290000Y-21590000D03*
D21*
X158750000Y-21590000D03*
X156210000Y-21590000D03*
X153670000Y-21590000D03*
X151130000Y-21590000D03*
X148590000Y-21590000D03*
X146050000Y-21590000D03*
D24*
X164395000Y-122585000D03*
D25*
X156745000Y-122585000D03*
D24*
X163295000Y-122585000D03*
X162195000Y-122585000D03*
X161095000Y-122585000D03*
X159995000Y-122585000D03*
X158895000Y-122585000D03*
X157795000Y-122585000D03*
D26*
X155535000Y-122235000D03*
D27*
X166855000Y-122460000D03*
D28*
X167030000Y-112735000D03*
X167030000Y-116435000D03*
D29*
X163530000Y-111760000D03*
X157560000Y-111760000D03*
D20*
X271018000Y-76200000D03*
D21*
X271018000Y-73660000D03*
X273558000Y-76200000D03*
X273558000Y-73660000D03*
X276098000Y-76200000D03*
X276098000Y-73660000D03*
X278638000Y-76200000D03*
X278638000Y-73660000D03*
D18*
X168910000Y-53340000D03*
D30*
X168910000Y-50800000D03*
X168910000Y-48260000D03*
X168910000Y-45720000D03*
X168910000Y-43180000D03*
X168910000Y-40640000D03*
X168910000Y-38100000D03*
X168910000Y-35560000D03*
X168910000Y-33020000D03*
X168910000Y-30480000D03*
X168910000Y-27940000D03*
X259080000Y-91440000D03*
X259080000Y-93980000D03*
X259080000Y-96520000D03*
X259080000Y-99060000D03*
D18*
X259080000Y-101600000D03*
X168910000Y-76200000D03*
D30*
X168910000Y-73660000D03*
X168910000Y-71120000D03*
X168910000Y-68580000D03*
X168910000Y-66040000D03*
D18*
X147320000Y-109220000D03*
D30*
X147320000Y-111760000D03*
X147320000Y-114300000D03*
X147320000Y-116840000D03*
X147320000Y-119380000D03*
X147320000Y-121920000D03*
D31*
X271930000Y-112340000D03*
X271930000Y-116840000D03*
X265430000Y-112340000D03*
X265430000Y-116840000D03*
D32*
X187960000Y-99060000D03*
D33*
X185420000Y-115720000D03*
D34*
X187960000Y-115720000D03*
X190500000Y-115720000D03*
D33*
X208280000Y-102870000D03*
D34*
X210820000Y-102870000D03*
X213360000Y-102870000D03*
D30*
X162560000Y-104140000D03*
X147320000Y-96520000D03*
X160020000Y-104140000D03*
X149860000Y-96520000D03*
X157480000Y-104140000D03*
X152400000Y-96520000D03*
X154940000Y-104140000D03*
X154940000Y-96520000D03*
X152400000Y-104140000D03*
X157480000Y-96520000D03*
X149860000Y-104140000D03*
X160020000Y-96520000D03*
X147320000Y-104140000D03*
D18*
X162560000Y-96520000D03*
D13*
X203200000Y-63500000D03*
D14*
X210820000Y-86360000D03*
X203200000Y-66040000D03*
X210820000Y-83820000D03*
X203200000Y-68580000D03*
X210820000Y-81280000D03*
X203200000Y-71120000D03*
X210820000Y-78740000D03*
X203200000Y-73660000D03*
X210820000Y-76200000D03*
X203200000Y-76200000D03*
X210820000Y-73660000D03*
X203200000Y-78740000D03*
X210820000Y-71120000D03*
X203200000Y-81280000D03*
X210820000Y-68580000D03*
X203200000Y-83820000D03*
X210820000Y-66040000D03*
X203200000Y-86360000D03*
X210820000Y-63500000D03*
D35*
X265430000Y-106680000D03*
D36*
X273050000Y-99060000D03*
X267970000Y-106680000D03*
X270510000Y-99060000D03*
X270510000Y-106680000D03*
X267970000Y-99060000D03*
X273050000Y-106680000D03*
X265430000Y-99060000D03*
D14*
X256540000Y-28245000D03*
X241300000Y-66345000D03*
X256540000Y-30785000D03*
X241300000Y-63805000D03*
X256540000Y-33325000D03*
X241300000Y-61265000D03*
X256540000Y-35865000D03*
X241300000Y-58725000D03*
X256540000Y-38405000D03*
X241300000Y-56185000D03*
X256540000Y-40945000D03*
X241300000Y-53645000D03*
X256540000Y-43485000D03*
X241300000Y-51105000D03*
X256540000Y-46025000D03*
X241300000Y-48565000D03*
X256540000Y-48565000D03*
X241300000Y-46025000D03*
X256540000Y-51105000D03*
X241300000Y-43485000D03*
X256540000Y-53645000D03*
X241300000Y-40945000D03*
X256540000Y-56185000D03*
X241300000Y-38405000D03*
X256540000Y-58725000D03*
X241300000Y-35865000D03*
X256540000Y-61265000D03*
X241300000Y-33325000D03*
X256540000Y-63805000D03*
X241300000Y-30785000D03*
X256540000Y-66345000D03*
D13*
X241300000Y-28245000D03*
X265430000Y-28245000D03*
D14*
X280670000Y-61265000D03*
X265430000Y-30785000D03*
X280670000Y-58725000D03*
X265430000Y-33325000D03*
X280670000Y-56185000D03*
X265430000Y-35865000D03*
X280670000Y-53645000D03*
X265430000Y-38405000D03*
X280670000Y-51105000D03*
X265430000Y-40945000D03*
X280670000Y-48565000D03*
X265430000Y-43485000D03*
X280670000Y-46025000D03*
X265430000Y-46025000D03*
X280670000Y-43485000D03*
X265430000Y-48565000D03*
X280670000Y-40945000D03*
X265430000Y-51105000D03*
X280670000Y-38405000D03*
X265430000Y-53645000D03*
X280670000Y-35865000D03*
X265430000Y-56185000D03*
X280670000Y-33325000D03*
X265430000Y-58725000D03*
X280670000Y-30785000D03*
X265430000Y-61265000D03*
X280670000Y-28245000D03*
D13*
X143510000Y-27940000D03*
D14*
X158750000Y-76200000D03*
X143510000Y-30480000D03*
X158750000Y-73660000D03*
X143510000Y-33020000D03*
X158750000Y-71120000D03*
X143510000Y-35560000D03*
X158750000Y-68580000D03*
X143510000Y-38100000D03*
X158750000Y-66040000D03*
X143510000Y-40640000D03*
X158750000Y-63500000D03*
X143510000Y-43180000D03*
X158750000Y-60960000D03*
X143510000Y-45720000D03*
X158750000Y-58420000D03*
X143510000Y-48260000D03*
X158750000Y-55880000D03*
X143510000Y-50800000D03*
X158750000Y-53340000D03*
X143510000Y-53340000D03*
X158750000Y-50800000D03*
X143510000Y-55880000D03*
X158750000Y-48260000D03*
X143510000Y-58420000D03*
X158750000Y-45720000D03*
X143510000Y-60960000D03*
X158750000Y-43180000D03*
X143510000Y-63500000D03*
X158750000Y-40640000D03*
X143510000Y-66040000D03*
X158750000Y-38100000D03*
X143510000Y-68580000D03*
X158750000Y-35560000D03*
X143510000Y-71120000D03*
X158750000Y-33020000D03*
X143510000Y-73660000D03*
X158750000Y-30480000D03*
X143510000Y-76200000D03*
X158750000Y-27940000D03*
D35*
X236220000Y-102870000D03*
D36*
X251460000Y-95250000D03*
X238760000Y-102870000D03*
X248920000Y-95250000D03*
X241300000Y-102870000D03*
X246380000Y-95250000D03*
X243840000Y-102870000D03*
X243840000Y-95250000D03*
X246380000Y-102870000D03*
X241300000Y-95250000D03*
X248920000Y-102870000D03*
X238760000Y-95250000D03*
X251460000Y-102870000D03*
X236220000Y-95250000D03*
D18*
X271018000Y-87630000D03*
D30*
X278638000Y-80010000D03*
X273558000Y-87630000D03*
X276098000Y-80010000D03*
X276098000Y-87630000D03*
X273558000Y-80010000D03*
X278638000Y-87630000D03*
X271018000Y-80010000D03*
D18*
X243840000Y-85090000D03*
D30*
X259080000Y-77470000D03*
X246380000Y-85090000D03*
X256540000Y-77470000D03*
X248920000Y-85090000D03*
X254000000Y-77470000D03*
X251460000Y-85090000D03*
X251460000Y-77470000D03*
X254000000Y-85090000D03*
X248920000Y-77470000D03*
X256540000Y-85090000D03*
X246380000Y-77470000D03*
X259080000Y-85090000D03*
X243840000Y-77470000D03*
D14*
X210820000Y-27940000D03*
X203200000Y-50800000D03*
X210820000Y-30480000D03*
X203200000Y-48260000D03*
X210820000Y-33020000D03*
X203200000Y-45720000D03*
X210820000Y-35560000D03*
X203200000Y-43180000D03*
X210820000Y-38100000D03*
X203200000Y-40640000D03*
X210820000Y-40640000D03*
X203200000Y-38100000D03*
X210820000Y-43180000D03*
X203200000Y-35560000D03*
X210820000Y-45720000D03*
X203200000Y-33020000D03*
X210820000Y-48260000D03*
X203200000Y-30480000D03*
X210820000Y-50800000D03*
D13*
X203200000Y-27940000D03*
D37*
X153670000Y-85090000D03*
X148770000Y-85090000D03*
M02*
