G04 #@! TF.GenerationSoftware,KiCad,Pcbnew,(5.1.10)-1*
G04 #@! TF.CreationDate,2021-12-04T13:17:27-06:00*
G04 #@! TF.ProjectId,68k8,36386b38-2e6b-4696-9361-645f70636258,rev?*
G04 #@! TF.SameCoordinates,Original*
G04 #@! TF.FileFunction,Soldermask,Bot*
G04 #@! TF.FilePolarity,Negative*
%FSLAX46Y46*%
G04 Gerber Fmt 4.6, Leading zero omitted, Abs format (unit mm)*
G04 Created by KiCad (PCBNEW (5.1.10)-1) date 2021-12-04 13:17:27*
%MOMM*%
%LPD*%
G01*
G04 APERTURE LIST*
%ADD10O,1.600000X1.600000*%
%ADD11C,1.600000*%
%ADD12C,1.800000*%
%ADD13R,1.800000X1.800000*%
%ADD14R,3.500000X3.500000*%
%ADD15R,2.400000X1.600000*%
%ADD16O,2.400000X1.600000*%
%ADD17C,4.000000*%
%ADD18R,1.600000X1.600000*%
%ADD19R,1.700000X1.700000*%
%ADD20O,1.700000X1.700000*%
%ADD21C,1.700000*%
%ADD22C,3.500000*%
%ADD23C,2.000000*%
%ADD24O,3.500000X3.500000*%
%ADD25R,1.905000X2.000000*%
%ADD26O,1.905000X2.000000*%
%ADD27R,1.600000X2.400000*%
%ADD28O,1.600000X2.400000*%
%ADD29C,1.500000*%
G04 APERTURE END LIST*
D10*
X274574000Y-71628000D03*
D11*
X272034000Y-71628000D03*
D12*
X277876000Y-71628000D03*
D13*
X280416000Y-71628000D03*
G36*
G01*
X249415000Y-117018000D02*
X247665000Y-117018000D01*
G75*
G02*
X246790000Y-116143000I0J875000D01*
G01*
X246790000Y-114393000D01*
G75*
G02*
X247665000Y-113518000I875000J0D01*
G01*
X249415000Y-113518000D01*
G75*
G02*
X250290000Y-114393000I0J-875000D01*
G01*
X250290000Y-116143000D01*
G75*
G02*
X249415000Y-117018000I-875000J0D01*
G01*
G37*
G36*
G01*
X244840000Y-119768000D02*
X242840000Y-119768000D01*
G75*
G02*
X242090000Y-119018000I0J750000D01*
G01*
X242090000Y-117518000D01*
G75*
G02*
X242840000Y-116768000I750000J0D01*
G01*
X244840000Y-116768000D01*
G75*
G02*
X245590000Y-117518000I0J-750000D01*
G01*
X245590000Y-119018000D01*
G75*
G02*
X244840000Y-119768000I-750000J0D01*
G01*
G37*
D14*
X243840000Y-112268000D03*
D11*
X233680000Y-21590000D03*
X236180000Y-21590000D03*
D15*
X220805000Y-28245000D03*
D16*
X236045000Y-66345000D03*
X220805000Y-30785000D03*
X236045000Y-63805000D03*
X220805000Y-33325000D03*
X236045000Y-61265000D03*
X220805000Y-35865000D03*
X236045000Y-58725000D03*
X220805000Y-38405000D03*
X236045000Y-56185000D03*
X220805000Y-40945000D03*
X236045000Y-53645000D03*
X220805000Y-43485000D03*
X236045000Y-51105000D03*
X220805000Y-46025000D03*
X236045000Y-48565000D03*
X220805000Y-48565000D03*
X236045000Y-46025000D03*
X220805000Y-51105000D03*
X236045000Y-43485000D03*
X220805000Y-53645000D03*
X236045000Y-40945000D03*
X220805000Y-56185000D03*
X236045000Y-38405000D03*
X220805000Y-58725000D03*
X236045000Y-35865000D03*
X220805000Y-61265000D03*
X236045000Y-33325000D03*
X220805000Y-63805000D03*
X236045000Y-30785000D03*
X220805000Y-66345000D03*
X236045000Y-28245000D03*
D12*
X139700000Y-88900000D03*
D13*
X139700000Y-86360000D03*
D12*
X139700000Y-82550000D03*
D13*
X139700000Y-80010000D03*
D17*
X139700000Y-17780000D03*
X139700000Y-115570000D03*
X284480000Y-115570000D03*
X284480000Y-17780000D03*
D16*
X193040000Y-27940000D03*
X177800000Y-86360000D03*
X193040000Y-30480000D03*
X177800000Y-83820000D03*
X193040000Y-33020000D03*
X177800000Y-81280000D03*
X193040000Y-35560000D03*
X177800000Y-78740000D03*
X193040000Y-38100000D03*
X177800000Y-76200000D03*
X193040000Y-40640000D03*
X177800000Y-73660000D03*
X193040000Y-43180000D03*
X177800000Y-71120000D03*
X193040000Y-45720000D03*
X177800000Y-68580000D03*
X193040000Y-48260000D03*
X177800000Y-66040000D03*
X193040000Y-50800000D03*
X177800000Y-63500000D03*
X193040000Y-53340000D03*
X177800000Y-60960000D03*
X193040000Y-55880000D03*
X177800000Y-58420000D03*
X193040000Y-58420000D03*
X177800000Y-55880000D03*
X193040000Y-60960000D03*
X177800000Y-53340000D03*
X193040000Y-63500000D03*
X177800000Y-50800000D03*
X193040000Y-66040000D03*
X177800000Y-48260000D03*
X193040000Y-68580000D03*
X177800000Y-45720000D03*
X193040000Y-71120000D03*
X177800000Y-43180000D03*
X193040000Y-73660000D03*
X177800000Y-40640000D03*
X193040000Y-76200000D03*
X177800000Y-38100000D03*
X193040000Y-78740000D03*
X177800000Y-35560000D03*
X193040000Y-81280000D03*
X177800000Y-33020000D03*
X193040000Y-83820000D03*
X177800000Y-30480000D03*
X193040000Y-86360000D03*
D15*
X177800000Y-27940000D03*
D11*
X153670000Y-90210000D03*
X153670000Y-92710000D03*
X148590000Y-92670000D03*
X148590000Y-90170000D03*
X212130000Y-101600000D03*
D18*
X214630000Y-101600000D03*
X269240000Y-91440000D03*
D11*
X266740000Y-91440000D03*
X201970000Y-97790000D03*
D18*
X204470000Y-97790000D03*
X279400000Y-91440000D03*
D11*
X281900000Y-91440000D03*
X247690000Y-92710000D03*
X250190000Y-92710000D03*
X168910000Y-58460000D03*
X168910000Y-60960000D03*
X189230000Y-97790000D03*
X186730000Y-97790000D03*
X208320000Y-57150000D03*
X210820000Y-57150000D03*
X219710000Y-90170000D03*
X217210000Y-90170000D03*
X256540000Y-83820000D03*
X256540000Y-81320000D03*
X247690000Y-74930000D03*
X250190000Y-74930000D03*
X245110000Y-74930000D03*
X242610000Y-74930000D03*
X267970000Y-78780000D03*
X267970000Y-81280000D03*
X256540000Y-21590000D03*
X254040000Y-21590000D03*
X287020000Y-27940000D03*
X287020000Y-30440000D03*
X158750000Y-21590000D03*
X156250000Y-21590000D03*
X237490000Y-102910000D03*
X237490000Y-105410000D03*
X170180000Y-92710000D03*
X167680000Y-92710000D03*
X158790000Y-92710000D03*
X161290000Y-92710000D03*
X210820000Y-21590000D03*
X208320000Y-21590000D03*
D18*
X219710000Y-83820000D03*
D11*
X219710000Y-76200000D03*
X234950000Y-76200000D03*
X234950000Y-83820000D03*
D19*
X137414000Y-50800000D03*
D20*
X137414000Y-53340000D03*
D19*
X255270000Y-116840000D03*
D20*
X255270000Y-114300000D03*
X255270000Y-111760000D03*
D19*
X270470000Y-110860000D03*
D21*
X267970000Y-110860000D03*
X267970000Y-112860000D03*
X270470000Y-112860000D03*
D22*
X275240000Y-115570000D03*
X263200000Y-115570000D03*
D19*
X139700000Y-92710000D03*
D20*
X139700000Y-95250000D03*
X139700000Y-97790000D03*
X139700000Y-100330000D03*
X139700000Y-102870000D03*
X139700000Y-105410000D03*
X139700000Y-107950000D03*
D19*
X161290000Y-119380000D03*
D20*
X161290000Y-116840000D03*
X163830000Y-119380000D03*
X163830000Y-116840000D03*
X166370000Y-119380000D03*
X166370000Y-116840000D03*
X168910000Y-119380000D03*
X168910000Y-116840000D03*
D18*
X168910000Y-53340000D03*
D10*
X168910000Y-50800000D03*
X168910000Y-48260000D03*
X168910000Y-45720000D03*
X168910000Y-43180000D03*
X168910000Y-40640000D03*
X168910000Y-38100000D03*
X168910000Y-35560000D03*
X168910000Y-33020000D03*
X168910000Y-30480000D03*
X168910000Y-27940000D03*
X175260000Y-115570000D03*
X175260000Y-113030000D03*
X175260000Y-110490000D03*
X175260000Y-107950000D03*
D18*
X175260000Y-105410000D03*
X168910000Y-76200000D03*
D10*
X168910000Y-73660000D03*
X168910000Y-71120000D03*
X168910000Y-68580000D03*
X168910000Y-66040000D03*
D18*
X195580000Y-105410000D03*
D10*
X195580000Y-107950000D03*
X195580000Y-110490000D03*
X195580000Y-113030000D03*
X195580000Y-115570000D03*
X195580000Y-118110000D03*
D23*
X272900000Y-81970000D03*
X272900000Y-77470000D03*
X279400000Y-81970000D03*
X279400000Y-77470000D03*
D24*
X227330000Y-100180000D03*
D25*
X224790000Y-116840000D03*
D26*
X227330000Y-116840000D03*
X229870000Y-116840000D03*
D25*
X269240000Y-102870000D03*
D26*
X271780000Y-102870000D03*
X274320000Y-102870000D03*
D10*
X189230000Y-104140000D03*
X181610000Y-119380000D03*
X189230000Y-106680000D03*
X181610000Y-116840000D03*
X189230000Y-109220000D03*
X181610000Y-114300000D03*
X189230000Y-111760000D03*
X181610000Y-111760000D03*
X189230000Y-114300000D03*
X181610000Y-109220000D03*
X189230000Y-116840000D03*
X181610000Y-106680000D03*
X189230000Y-119380000D03*
D18*
X181610000Y-104140000D03*
D15*
X203200000Y-63500000D03*
D16*
X210820000Y-86360000D03*
X203200000Y-66040000D03*
X210820000Y-83820000D03*
X203200000Y-68580000D03*
X210820000Y-81280000D03*
X203200000Y-71120000D03*
X210820000Y-78740000D03*
X203200000Y-73660000D03*
X210820000Y-76200000D03*
X203200000Y-76200000D03*
X210820000Y-73660000D03*
X203200000Y-78740000D03*
X210820000Y-71120000D03*
X203200000Y-81280000D03*
X210820000Y-68580000D03*
X203200000Y-83820000D03*
X210820000Y-66040000D03*
X203200000Y-86360000D03*
X210820000Y-63500000D03*
D27*
X242570000Y-86360000D03*
D28*
X250190000Y-78740000D03*
X245110000Y-86360000D03*
X247650000Y-78740000D03*
X247650000Y-86360000D03*
X245110000Y-78740000D03*
X250190000Y-86360000D03*
X242570000Y-78740000D03*
D16*
X256540000Y-28245000D03*
X241300000Y-66345000D03*
X256540000Y-30785000D03*
X241300000Y-63805000D03*
X256540000Y-33325000D03*
X241300000Y-61265000D03*
X256540000Y-35865000D03*
X241300000Y-58725000D03*
X256540000Y-38405000D03*
X241300000Y-56185000D03*
X256540000Y-40945000D03*
X241300000Y-53645000D03*
X256540000Y-43485000D03*
X241300000Y-51105000D03*
X256540000Y-46025000D03*
X241300000Y-48565000D03*
X256540000Y-48565000D03*
X241300000Y-46025000D03*
X256540000Y-51105000D03*
X241300000Y-43485000D03*
X256540000Y-53645000D03*
X241300000Y-40945000D03*
X256540000Y-56185000D03*
X241300000Y-38405000D03*
X256540000Y-58725000D03*
X241300000Y-35865000D03*
X256540000Y-61265000D03*
X241300000Y-33325000D03*
X256540000Y-63805000D03*
X241300000Y-30785000D03*
X256540000Y-66345000D03*
D15*
X241300000Y-28245000D03*
X265430000Y-28245000D03*
D16*
X280670000Y-61265000D03*
X265430000Y-30785000D03*
X280670000Y-58725000D03*
X265430000Y-33325000D03*
X280670000Y-56185000D03*
X265430000Y-35865000D03*
X280670000Y-53645000D03*
X265430000Y-38405000D03*
X280670000Y-51105000D03*
X265430000Y-40945000D03*
X280670000Y-48565000D03*
X265430000Y-43485000D03*
X280670000Y-46025000D03*
X265430000Y-46025000D03*
X280670000Y-43485000D03*
X265430000Y-48565000D03*
X280670000Y-40945000D03*
X265430000Y-51105000D03*
X280670000Y-38405000D03*
X265430000Y-53645000D03*
X280670000Y-35865000D03*
X265430000Y-56185000D03*
X280670000Y-33325000D03*
X265430000Y-58725000D03*
X280670000Y-30785000D03*
X265430000Y-61265000D03*
X280670000Y-28245000D03*
D15*
X143510000Y-27940000D03*
D16*
X158750000Y-76200000D03*
X143510000Y-30480000D03*
X158750000Y-73660000D03*
X143510000Y-33020000D03*
X158750000Y-71120000D03*
X143510000Y-35560000D03*
X158750000Y-68580000D03*
X143510000Y-38100000D03*
X158750000Y-66040000D03*
X143510000Y-40640000D03*
X158750000Y-63500000D03*
X143510000Y-43180000D03*
X158750000Y-60960000D03*
X143510000Y-45720000D03*
X158750000Y-58420000D03*
X143510000Y-48260000D03*
X158750000Y-55880000D03*
X143510000Y-50800000D03*
X158750000Y-53340000D03*
X143510000Y-53340000D03*
X158750000Y-50800000D03*
X143510000Y-55880000D03*
X158750000Y-48260000D03*
X143510000Y-58420000D03*
X158750000Y-45720000D03*
X143510000Y-60960000D03*
X158750000Y-43180000D03*
X143510000Y-63500000D03*
X158750000Y-40640000D03*
X143510000Y-66040000D03*
X158750000Y-38100000D03*
X143510000Y-68580000D03*
X158750000Y-35560000D03*
X143510000Y-71120000D03*
X158750000Y-33020000D03*
X143510000Y-73660000D03*
X158750000Y-30480000D03*
X143510000Y-76200000D03*
X158750000Y-27940000D03*
D27*
X242570000Y-104140000D03*
D28*
X257810000Y-96520000D03*
X245110000Y-104140000D03*
X255270000Y-96520000D03*
X247650000Y-104140000D03*
X252730000Y-96520000D03*
X250190000Y-104140000D03*
X250190000Y-96520000D03*
X252730000Y-104140000D03*
X247650000Y-96520000D03*
X255270000Y-104140000D03*
X245110000Y-96520000D03*
X257810000Y-104140000D03*
X242570000Y-96520000D03*
D18*
X161290000Y-104140000D03*
D10*
X168910000Y-111760000D03*
X161290000Y-106680000D03*
X168910000Y-109220000D03*
X161290000Y-109220000D03*
X168910000Y-106680000D03*
X161290000Y-111760000D03*
X168910000Y-104140000D03*
D18*
X147320000Y-104140000D03*
D10*
X154940000Y-119380000D03*
X147320000Y-106680000D03*
X154940000Y-116840000D03*
X147320000Y-109220000D03*
X154940000Y-114300000D03*
X147320000Y-111760000D03*
X154940000Y-111760000D03*
X147320000Y-114300000D03*
X154940000Y-109220000D03*
X147320000Y-116840000D03*
X154940000Y-106680000D03*
X147320000Y-119380000D03*
X154940000Y-104140000D03*
D16*
X210820000Y-27940000D03*
X203200000Y-50800000D03*
X210820000Y-30480000D03*
X203200000Y-48260000D03*
X210820000Y-33020000D03*
X203200000Y-45720000D03*
X210820000Y-35560000D03*
X203200000Y-43180000D03*
X210820000Y-38100000D03*
X203200000Y-40640000D03*
X210820000Y-40640000D03*
X203200000Y-38100000D03*
X210820000Y-43180000D03*
X203200000Y-35560000D03*
X210820000Y-45720000D03*
X203200000Y-33020000D03*
X210820000Y-48260000D03*
X203200000Y-30480000D03*
X210820000Y-50800000D03*
D15*
X203200000Y-27940000D03*
D29*
X153670000Y-85090000D03*
X148770000Y-85090000D03*
M02*
