%FSLAX45Y45*%
G04 Gerber Fmt 4.5, Leading zero omitted, Abs format (unit mm)*
G04 Created by KiCad (PCBNEW (5.1.10)-1) date 2021-12-04 16:57:53*
%MOMM*%
%LPD*%
G01*
G04 APERTURE LIST*
%TA.AperFunction,Profile*%
%ADD10C,0.100000*%
%TD*%
%ADD11C,0.200000*%
%ADD12C,0.300000*%
G04 APERTURE END LIST*
D10*
X29210000Y-1016000D02*
X29210000Y-12446000D01*
X13208000Y-1016000D02*
X29210000Y-1016000D01*
X13208000Y-12446000D02*
X13208000Y-1016000D01*
X29210000Y-12446000D02*
X13208000Y-12446000D01*
D11*
X14618600Y-5921300D02*
X14658600Y-5961300D01*
X14658600Y-5921300D02*
X14618600Y-5961300D01*
X14839000Y-12172000D02*
X14879000Y-12212000D01*
X14879000Y-12172000D02*
X14839000Y-12212000D01*
X14966000Y-11791000D02*
X15006000Y-11831000D01*
X15006000Y-11791000D02*
X14966000Y-11831000D01*
X15169200Y-5466400D02*
X15209200Y-5506400D01*
X15209200Y-5466400D02*
X15169200Y-5506400D01*
X15601000Y-1681800D02*
X15641000Y-1721800D01*
X15641000Y-1681800D02*
X15601000Y-1721800D01*
X15601000Y-9505000D02*
X15641000Y-9545000D01*
X15641000Y-9505000D02*
X15601000Y-9545000D01*
X15728000Y-9632000D02*
X15768000Y-9672000D01*
X15768000Y-9632000D02*
X15728000Y-9672000D01*
X15728000Y-11156000D02*
X15768000Y-11196000D01*
X15768000Y-11156000D02*
X15728000Y-11196000D01*
X15804200Y-8082600D02*
X15844200Y-8122600D01*
X15844200Y-8082600D02*
X15804200Y-8122600D01*
X15804200Y-8539800D02*
X15844200Y-8579800D01*
X15844200Y-8539800D02*
X15804200Y-8579800D01*
X15840500Y-11522500D02*
X15880500Y-11562500D01*
X15880500Y-11522500D02*
X15840500Y-11562500D01*
X16108650Y-8304100D02*
X16148650Y-8344100D01*
X16148650Y-8304100D02*
X16108650Y-8344100D01*
X16134400Y-5390200D02*
X16174400Y-5430200D01*
X16174400Y-5390200D02*
X16134400Y-5430200D01*
X16338440Y-5523390D02*
X16378440Y-5563390D01*
X16378440Y-5523390D02*
X16338440Y-5563390D01*
X16481690Y-2708820D02*
X16521690Y-2748820D01*
X16521690Y-2708820D02*
X16481690Y-2748820D01*
X16588730Y-5470950D02*
X16628730Y-5510950D01*
X16628730Y-5470950D02*
X16588730Y-5510950D01*
X16594450Y-5626110D02*
X16634450Y-5666110D01*
X16634450Y-5626110D02*
X16594450Y-5666110D01*
X16693200Y-2139000D02*
X16733200Y-2179000D01*
X16733200Y-2139000D02*
X16693200Y-2179000D01*
X16871000Y-8438200D02*
X16911000Y-8478200D01*
X16911000Y-8438200D02*
X16871000Y-8478200D01*
X16896400Y-9860600D02*
X16936400Y-9900600D01*
X16936400Y-9860600D02*
X16896400Y-9900600D01*
X16991450Y-3886100D02*
X17031450Y-3926100D01*
X17031450Y-3886100D02*
X16991450Y-3926100D01*
X17070500Y-6330000D02*
X17110500Y-6370000D01*
X17110500Y-6330000D02*
X17070500Y-6370000D01*
X17289490Y-2873290D02*
X17329490Y-2913290D01*
X17329490Y-2873290D02*
X17289490Y-2913290D01*
X17324560Y-3671470D02*
X17364560Y-3711470D01*
X17364560Y-3671470D02*
X17324560Y-3711470D01*
X17354140Y-5976610D02*
X17394140Y-6016610D01*
X17394140Y-5976610D02*
X17354140Y-6016610D01*
X17379000Y-12172000D02*
X17419000Y-12212000D01*
X17419000Y-12172000D02*
X17379000Y-12212000D01*
X17535830Y-2927730D02*
X17575830Y-2967730D01*
X17575830Y-2927730D02*
X17535830Y-2967730D01*
X17542190Y-7940790D02*
X17582190Y-7980790D01*
X17582190Y-7940790D02*
X17542190Y-7980790D01*
X17728450Y-10318700D02*
X17768450Y-10358700D01*
X17768450Y-10318700D02*
X17728450Y-10358700D01*
X17887000Y-10267000D02*
X17927000Y-10307000D01*
X17927000Y-10267000D02*
X17887000Y-10307000D01*
X17912400Y-9860600D02*
X17952400Y-9900600D01*
X17952400Y-9860600D02*
X17912400Y-9900600D01*
X17927480Y-6495060D02*
X17967480Y-6535060D01*
X17967480Y-6495060D02*
X17927480Y-6535060D01*
X17992750Y-8012400D02*
X18032750Y-8052400D01*
X18032750Y-8012400D02*
X17992750Y-8052400D01*
X18057530Y-3095490D02*
X18097530Y-3135490D01*
X18097530Y-3095490D02*
X18057530Y-3135490D01*
X18094490Y-3870750D02*
X18134490Y-3910750D01*
X18134490Y-3870750D02*
X18094490Y-3910750D01*
X18304450Y-4157570D02*
X18344450Y-4197570D01*
X18344450Y-4157570D02*
X18304450Y-4197570D01*
X18330480Y-5064890D02*
X18370480Y-5104890D01*
X18370480Y-5064890D02*
X18330480Y-5104890D01*
X18445800Y-10013000D02*
X18485800Y-10053000D01*
X18485800Y-10013000D02*
X18445800Y-10053000D01*
X18445800Y-10419400D02*
X18485800Y-10459400D01*
X18485800Y-10419400D02*
X18445800Y-10459400D01*
X18649000Y-11283000D02*
X18689000Y-11323000D01*
X18689000Y-11283000D02*
X18649000Y-11323000D01*
X18982970Y-7246330D02*
X19022970Y-7286330D01*
X19022970Y-7246330D02*
X18982970Y-7286330D01*
X19023540Y-2820290D02*
X19063540Y-2860290D01*
X19063540Y-2820290D02*
X19023540Y-2860290D01*
X19125090Y-6978960D02*
X19165090Y-7018960D01*
X19165090Y-6978960D02*
X19125090Y-7018960D01*
X19165840Y-2533660D02*
X19205840Y-2573660D01*
X19205840Y-2533660D02*
X19165840Y-2573660D01*
X19481530Y-7515650D02*
X19521530Y-7555650D01*
X19521530Y-7515650D02*
X19481530Y-7555650D01*
X19518340Y-4875240D02*
X19558340Y-4915240D01*
X19558340Y-4875240D02*
X19518340Y-4915240D01*
X19572360Y-4755080D02*
X19612360Y-4795080D01*
X19612360Y-4755080D02*
X19572360Y-4795080D01*
X19654020Y-6424190D02*
X19694020Y-6464190D01*
X19694020Y-6424190D02*
X19654020Y-6464190D01*
X19867735Y-11334265D02*
X19907735Y-11374265D01*
X19907735Y-11334265D02*
X19867735Y-11374265D01*
X20099630Y-3654300D02*
X20139630Y-3694300D01*
X20139630Y-3654300D02*
X20099630Y-3694300D01*
X20136800Y-3944530D02*
X20176800Y-3984530D01*
X20176800Y-3944530D02*
X20136800Y-3984530D01*
X20249860Y-5915620D02*
X20289860Y-5955620D01*
X20289860Y-5915620D02*
X20249860Y-5955620D01*
X20300000Y-9047800D02*
X20340000Y-9087800D01*
X20340000Y-9047800D02*
X20300000Y-9087800D01*
X20645590Y-4369560D02*
X20685590Y-4409560D01*
X20685590Y-4369560D02*
X20645590Y-4409560D01*
X20683630Y-4474700D02*
X20723630Y-4514700D01*
X20723630Y-4474700D02*
X20683630Y-4514700D01*
X20685080Y-5551830D02*
X20725080Y-5591830D01*
X20725080Y-5551830D02*
X20685080Y-5591830D01*
X20708110Y-3427010D02*
X20748110Y-3467010D01*
X20748110Y-3427010D02*
X20708110Y-3467010D01*
X20735300Y-5922240D02*
X20775300Y-5962240D01*
X20775300Y-5922240D02*
X20735300Y-5962240D01*
X20808000Y-5060000D02*
X20848000Y-5100000D01*
X20848000Y-5060000D02*
X20808000Y-5100000D01*
X20808000Y-10521000D02*
X20848000Y-10561000D01*
X20848000Y-10521000D02*
X20808000Y-10561000D01*
X20881250Y-6295910D02*
X20921250Y-6335910D01*
X20921250Y-6295910D02*
X20881250Y-6335910D01*
X20881250Y-7368820D02*
X20921250Y-7408820D01*
X20921250Y-7368820D02*
X20881250Y-7408820D01*
X20897580Y-3712610D02*
X20937580Y-3752610D01*
X20937580Y-3712610D02*
X20897580Y-3752610D01*
X20909150Y-2538410D02*
X20949150Y-2578410D01*
X20949150Y-2538410D02*
X20909150Y-2578410D01*
X21278790Y-2725700D02*
X21318790Y-2765700D01*
X21318790Y-2725700D02*
X21278790Y-2765700D01*
X21305620Y-2860860D02*
X21345620Y-2900860D01*
X21345620Y-2860860D02*
X21305620Y-2900860D01*
X21305810Y-7354840D02*
X21345810Y-7394840D01*
X21345810Y-7354840D02*
X21305810Y-7394840D01*
X21336440Y-3588590D02*
X21376440Y-3628590D01*
X21376440Y-3588590D02*
X21336440Y-3628590D01*
X21351810Y-3741100D02*
X21391810Y-3781100D01*
X21391810Y-3741100D02*
X21351810Y-3781100D01*
X21357210Y-3131270D02*
X21397210Y-3171270D01*
X21397210Y-3131270D02*
X21357210Y-3171270D01*
X21519200Y-9759000D02*
X21559200Y-9799000D01*
X21559200Y-9759000D02*
X21519200Y-9799000D01*
X21722400Y-6965000D02*
X21762400Y-7005000D01*
X21762400Y-6965000D02*
X21722400Y-7005000D01*
X21895230Y-7262800D02*
X21935230Y-7302800D01*
X21935230Y-7262800D02*
X21895230Y-7302800D01*
X22240730Y-5473730D02*
X22280730Y-5513730D01*
X22280730Y-5473730D02*
X22240730Y-5513730D01*
X22263240Y-5259220D02*
X22303240Y-5299220D01*
X22303240Y-5259220D02*
X22263240Y-5299220D01*
X22307020Y-7557190D02*
X22347020Y-7597190D01*
X22347020Y-7557190D02*
X22307020Y-7597190D01*
X22368950Y-5153230D02*
X22408950Y-5193230D01*
X22408950Y-5153230D02*
X22368950Y-5193230D01*
X22384970Y-4829370D02*
X22424970Y-4869370D01*
X22424970Y-4829370D02*
X22384970Y-4869370D01*
X22815980Y-5517010D02*
X22855980Y-5557010D01*
X22855980Y-5517010D02*
X22815980Y-5557010D01*
X22879860Y-4498790D02*
X22919860Y-4538790D01*
X22919860Y-4498790D02*
X22879860Y-4538790D01*
X26523000Y-6812600D02*
X26563000Y-6852600D01*
X26563000Y-6812600D02*
X26523000Y-6852600D01*
X26523000Y-10013000D02*
X26563000Y-10053000D01*
X26563000Y-10013000D02*
X26523000Y-10053000D01*
X26650000Y-9886000D02*
X26690000Y-9926000D01*
X26690000Y-9886000D02*
X26650000Y-9926000D01*
X14391000Y-2794000D02*
G75*
G03*
X14391000Y-2794000I-40000J0D01*
G01*
X14391000Y-3048000D02*
G75*
G03*
X14391000Y-3048000I-40000J0D01*
G01*
X14391000Y-3302000D02*
G75*
G03*
X14391000Y-3302000I-40000J0D01*
G01*
X14391000Y-3556000D02*
G75*
G03*
X14391000Y-3556000I-40000J0D01*
G01*
X14391000Y-3810000D02*
G75*
G03*
X14391000Y-3810000I-40000J0D01*
G01*
X14391000Y-4064000D02*
G75*
G03*
X14391000Y-4064000I-40000J0D01*
G01*
X14391000Y-4318000D02*
G75*
G03*
X14391000Y-4318000I-40000J0D01*
G01*
X14391000Y-4572000D02*
G75*
G03*
X14391000Y-4572000I-40000J0D01*
G01*
X14391000Y-4826000D02*
G75*
G03*
X14391000Y-4826000I-40000J0D01*
G01*
X14391000Y-5080000D02*
G75*
G03*
X14391000Y-5080000I-40000J0D01*
G01*
X14391000Y-5334000D02*
G75*
G03*
X14391000Y-5334000I-40000J0D01*
G01*
X14391000Y-5588000D02*
G75*
G03*
X14391000Y-5588000I-40000J0D01*
G01*
X14391000Y-5842000D02*
G75*
G03*
X14391000Y-5842000I-40000J0D01*
G01*
X14391000Y-6096000D02*
G75*
G03*
X14391000Y-6096000I-40000J0D01*
G01*
X14391000Y-6350000D02*
G75*
G03*
X14391000Y-6350000I-40000J0D01*
G01*
X14391000Y-6604000D02*
G75*
G03*
X14391000Y-6604000I-40000J0D01*
G01*
X14391000Y-6858000D02*
G75*
G03*
X14391000Y-6858000I-40000J0D01*
G01*
X14391000Y-7112000D02*
G75*
G03*
X14391000Y-7112000I-40000J0D01*
G01*
X14391000Y-7366000D02*
G75*
G03*
X14391000Y-7366000I-40000J0D01*
G01*
X14391000Y-7620000D02*
G75*
G03*
X14391000Y-7620000I-40000J0D01*
G01*
X14772000Y-10414000D02*
G75*
G03*
X14772000Y-10414000I-40000J0D01*
G01*
X14772000Y-10668000D02*
G75*
G03*
X14772000Y-10668000I-40000J0D01*
G01*
X14772000Y-10922000D02*
G75*
G03*
X14772000Y-10922000I-40000J0D01*
G01*
X14772000Y-11176000D02*
G75*
G03*
X14772000Y-11176000I-40000J0D01*
G01*
X14772000Y-11430000D02*
G75*
G03*
X14772000Y-11430000I-40000J0D01*
G01*
X14772000Y-11684000D02*
G75*
G03*
X14772000Y-11684000I-40000J0D01*
G01*
X14772000Y-11938000D02*
G75*
G03*
X14772000Y-11938000I-40000J0D01*
G01*
X14899000Y-9017000D02*
G75*
G03*
X14899000Y-9017000I-40000J0D01*
G01*
X14899000Y-9267000D02*
G75*
G03*
X14899000Y-9267000I-40000J0D01*
G01*
X14917000Y-8509000D02*
G75*
G03*
X14917000Y-8509000I-40000J0D01*
G01*
X15407000Y-8509000D02*
G75*
G03*
X15407000Y-8509000I-40000J0D01*
G01*
X15407000Y-9021000D02*
G75*
G03*
X15407000Y-9021000I-40000J0D01*
G01*
X15407000Y-9271000D02*
G75*
G03*
X15407000Y-9271000I-40000J0D01*
G01*
X15534000Y-10414000D02*
G75*
G03*
X15534000Y-10414000I-40000J0D01*
G01*
X15534000Y-10668000D02*
G75*
G03*
X15534000Y-10668000I-40000J0D01*
G01*
X15534000Y-10922000D02*
G75*
G03*
X15534000Y-10922000I-40000J0D01*
G01*
X15534000Y-11176000D02*
G75*
G03*
X15534000Y-11176000I-40000J0D01*
G01*
X15534000Y-11430000D02*
G75*
G03*
X15534000Y-11430000I-40000J0D01*
G01*
X15534000Y-11684000D02*
G75*
G03*
X15534000Y-11684000I-40000J0D01*
G01*
X15534000Y-11938000D02*
G75*
G03*
X15534000Y-11938000I-40000J0D01*
G01*
X15665000Y-2159000D02*
G75*
G03*
X15665000Y-2159000I-40000J0D01*
G01*
X15915000Y-2159000D02*
G75*
G03*
X15915000Y-2159000I-40000J0D01*
G01*
X15915000Y-2794000D02*
G75*
G03*
X15915000Y-2794000I-40000J0D01*
G01*
X15915000Y-3048000D02*
G75*
G03*
X15915000Y-3048000I-40000J0D01*
G01*
X15915000Y-3302000D02*
G75*
G03*
X15915000Y-3302000I-40000J0D01*
G01*
X15915000Y-3556000D02*
G75*
G03*
X15915000Y-3556000I-40000J0D01*
G01*
X15915000Y-3810000D02*
G75*
G03*
X15915000Y-3810000I-40000J0D01*
G01*
X15915000Y-4064000D02*
G75*
G03*
X15915000Y-4064000I-40000J0D01*
G01*
X15915000Y-4318000D02*
G75*
G03*
X15915000Y-4318000I-40000J0D01*
G01*
X15915000Y-4572000D02*
G75*
G03*
X15915000Y-4572000I-40000J0D01*
G01*
X15915000Y-4826000D02*
G75*
G03*
X15915000Y-4826000I-40000J0D01*
G01*
X15915000Y-5080000D02*
G75*
G03*
X15915000Y-5080000I-40000J0D01*
G01*
X15915000Y-5334000D02*
G75*
G03*
X15915000Y-5334000I-40000J0D01*
G01*
X15915000Y-5588000D02*
G75*
G03*
X15915000Y-5588000I-40000J0D01*
G01*
X15915000Y-5842000D02*
G75*
G03*
X15915000Y-5842000I-40000J0D01*
G01*
X15915000Y-6096000D02*
G75*
G03*
X15915000Y-6096000I-40000J0D01*
G01*
X15915000Y-6350000D02*
G75*
G03*
X15915000Y-6350000I-40000J0D01*
G01*
X15915000Y-6604000D02*
G75*
G03*
X15915000Y-6604000I-40000J0D01*
G01*
X15915000Y-6858000D02*
G75*
G03*
X15915000Y-6858000I-40000J0D01*
G01*
X15915000Y-7112000D02*
G75*
G03*
X15915000Y-7112000I-40000J0D01*
G01*
X15915000Y-7366000D02*
G75*
G03*
X15915000Y-7366000I-40000J0D01*
G01*
X15915000Y-7620000D02*
G75*
G03*
X15915000Y-7620000I-40000J0D01*
G01*
X15919000Y-9271000D02*
G75*
G03*
X15919000Y-9271000I-40000J0D01*
G01*
X16169000Y-9271000D02*
G75*
G03*
X16169000Y-9271000I-40000J0D01*
G01*
X16169000Y-10414000D02*
G75*
G03*
X16169000Y-10414000I-40000J0D01*
G01*
X16169000Y-10668000D02*
G75*
G03*
X16169000Y-10668000I-40000J0D01*
G01*
X16169000Y-10922000D02*
G75*
G03*
X16169000Y-10922000I-40000J0D01*
G01*
X16169000Y-11176000D02*
G75*
G03*
X16169000Y-11176000I-40000J0D01*
G01*
X16808000Y-9271000D02*
G75*
G03*
X16808000Y-9271000I-40000J0D01*
G01*
X16931000Y-2794000D02*
G75*
G03*
X16931000Y-2794000I-40000J0D01*
G01*
X16931000Y-3048000D02*
G75*
G03*
X16931000Y-3048000I-40000J0D01*
G01*
X16931000Y-3302000D02*
G75*
G03*
X16931000Y-3302000I-40000J0D01*
G01*
X16931000Y-3556000D02*
G75*
G03*
X16931000Y-3556000I-40000J0D01*
G01*
X16931000Y-3810000D02*
G75*
G03*
X16931000Y-3810000I-40000J0D01*
G01*
X16931000Y-4064000D02*
G75*
G03*
X16931000Y-4064000I-40000J0D01*
G01*
X16931000Y-4318000D02*
G75*
G03*
X16931000Y-4318000I-40000J0D01*
G01*
X16931000Y-4572000D02*
G75*
G03*
X16931000Y-4572000I-40000J0D01*
G01*
X16931000Y-4826000D02*
G75*
G03*
X16931000Y-4826000I-40000J0D01*
G01*
X16931000Y-5080000D02*
G75*
G03*
X16931000Y-5080000I-40000J0D01*
G01*
X16931000Y-5334000D02*
G75*
G03*
X16931000Y-5334000I-40000J0D01*
G01*
X16931000Y-5846000D02*
G75*
G03*
X16931000Y-5846000I-40000J0D01*
G01*
X16931000Y-6096000D02*
G75*
G03*
X16931000Y-6096000I-40000J0D01*
G01*
X16931000Y-6604000D02*
G75*
G03*
X16931000Y-6604000I-40000J0D01*
G01*
X16931000Y-6858000D02*
G75*
G03*
X16931000Y-6858000I-40000J0D01*
G01*
X16931000Y-7112000D02*
G75*
G03*
X16931000Y-7112000I-40000J0D01*
G01*
X16931000Y-7366000D02*
G75*
G03*
X16931000Y-7366000I-40000J0D01*
G01*
X16931000Y-7620000D02*
G75*
G03*
X16931000Y-7620000I-40000J0D01*
G01*
X16931000Y-10414000D02*
G75*
G03*
X16931000Y-10414000I-40000J0D01*
G01*
X16931000Y-10668000D02*
G75*
G03*
X16931000Y-10668000I-40000J0D01*
G01*
X16931000Y-10922000D02*
G75*
G03*
X16931000Y-10922000I-40000J0D01*
G01*
X16931000Y-11176000D02*
G75*
G03*
X16931000Y-11176000I-40000J0D01*
G01*
X17058000Y-9271000D02*
G75*
G03*
X17058000Y-9271000I-40000J0D01*
G01*
X17566000Y-10541000D02*
G75*
G03*
X17566000Y-10541000I-40000J0D01*
G01*
X17566000Y-10795000D02*
G75*
G03*
X17566000Y-10795000I-40000J0D01*
G01*
X17566000Y-11049000D02*
G75*
G03*
X17566000Y-11049000I-40000J0D01*
G01*
X17566000Y-11303000D02*
G75*
G03*
X17566000Y-11303000I-40000J0D01*
G01*
X17566000Y-11557000D02*
G75*
G03*
X17566000Y-11557000I-40000J0D01*
G01*
X17820000Y-2794000D02*
G75*
G03*
X17820000Y-2794000I-40000J0D01*
G01*
X17820000Y-3048000D02*
G75*
G03*
X17820000Y-3048000I-40000J0D01*
G01*
X17820000Y-3302000D02*
G75*
G03*
X17820000Y-3302000I-40000J0D01*
G01*
X17820000Y-3556000D02*
G75*
G03*
X17820000Y-3556000I-40000J0D01*
G01*
X17820000Y-3810000D02*
G75*
G03*
X17820000Y-3810000I-40000J0D01*
G01*
X17820000Y-4064000D02*
G75*
G03*
X17820000Y-4064000I-40000J0D01*
G01*
X17820000Y-4318000D02*
G75*
G03*
X17820000Y-4318000I-40000J0D01*
G01*
X17820000Y-4572000D02*
G75*
G03*
X17820000Y-4572000I-40000J0D01*
G01*
X17820000Y-4826000D02*
G75*
G03*
X17820000Y-4826000I-40000J0D01*
G01*
X17820000Y-5080000D02*
G75*
G03*
X17820000Y-5080000I-40000J0D01*
G01*
X17820000Y-5334000D02*
G75*
G03*
X17820000Y-5334000I-40000J0D01*
G01*
X17820000Y-5588000D02*
G75*
G03*
X17820000Y-5588000I-40000J0D01*
G01*
X17820000Y-5842000D02*
G75*
G03*
X17820000Y-5842000I-40000J0D01*
G01*
X17820000Y-6096000D02*
G75*
G03*
X17820000Y-6096000I-40000J0D01*
G01*
X17820000Y-6350000D02*
G75*
G03*
X17820000Y-6350000I-40000J0D01*
G01*
X17820000Y-6604000D02*
G75*
G03*
X17820000Y-6604000I-40000J0D01*
G01*
X17820000Y-6858000D02*
G75*
G03*
X17820000Y-6858000I-40000J0D01*
G01*
X17820000Y-7112000D02*
G75*
G03*
X17820000Y-7112000I-40000J0D01*
G01*
X17820000Y-7366000D02*
G75*
G03*
X17820000Y-7366000I-40000J0D01*
G01*
X17820000Y-7620000D02*
G75*
G03*
X17820000Y-7620000I-40000J0D01*
G01*
X17820000Y-7874000D02*
G75*
G03*
X17820000Y-7874000I-40000J0D01*
G01*
X17820000Y-8128000D02*
G75*
G03*
X17820000Y-8128000I-40000J0D01*
G01*
X17820000Y-8382000D02*
G75*
G03*
X17820000Y-8382000I-40000J0D01*
G01*
X17820000Y-8636000D02*
G75*
G03*
X17820000Y-8636000I-40000J0D01*
G01*
X18201000Y-10414000D02*
G75*
G03*
X18201000Y-10414000I-40000J0D01*
G01*
X18201000Y-10668000D02*
G75*
G03*
X18201000Y-10668000I-40000J0D01*
G01*
X18201000Y-10922000D02*
G75*
G03*
X18201000Y-10922000I-40000J0D01*
G01*
X18201000Y-11176000D02*
G75*
G03*
X18201000Y-11176000I-40000J0D01*
G01*
X18201000Y-11430000D02*
G75*
G03*
X18201000Y-11430000I-40000J0D01*
G01*
X18201000Y-11684000D02*
G75*
G03*
X18201000Y-11684000I-40000J0D01*
G01*
X18201000Y-11938000D02*
G75*
G03*
X18201000Y-11938000I-40000J0D01*
G01*
X18713000Y-9779000D02*
G75*
G03*
X18713000Y-9779000I-40000J0D01*
G01*
X18963000Y-9779000D02*
G75*
G03*
X18963000Y-9779000I-40000J0D01*
G01*
X18963000Y-10414000D02*
G75*
G03*
X18963000Y-10414000I-40000J0D01*
G01*
X18963000Y-10668000D02*
G75*
G03*
X18963000Y-10668000I-40000J0D01*
G01*
X18963000Y-10922000D02*
G75*
G03*
X18963000Y-10922000I-40000J0D01*
G01*
X18963000Y-11176000D02*
G75*
G03*
X18963000Y-11176000I-40000J0D01*
G01*
X18963000Y-11430000D02*
G75*
G03*
X18963000Y-11430000I-40000J0D01*
G01*
X18963000Y-11684000D02*
G75*
G03*
X18963000Y-11684000I-40000J0D01*
G01*
X18963000Y-11938000D02*
G75*
G03*
X18963000Y-11938000I-40000J0D01*
G01*
X19344000Y-2794000D02*
G75*
G03*
X19344000Y-2794000I-40000J0D01*
G01*
X19344000Y-3048000D02*
G75*
G03*
X19344000Y-3048000I-40000J0D01*
G01*
X19344000Y-3302000D02*
G75*
G03*
X19344000Y-3302000I-40000J0D01*
G01*
X19344000Y-3556000D02*
G75*
G03*
X19344000Y-3556000I-40000J0D01*
G01*
X19344000Y-3810000D02*
G75*
G03*
X19344000Y-3810000I-40000J0D01*
G01*
X19344000Y-4064000D02*
G75*
G03*
X19344000Y-4064000I-40000J0D01*
G01*
X19344000Y-4318000D02*
G75*
G03*
X19344000Y-4318000I-40000J0D01*
G01*
X19344000Y-4572000D02*
G75*
G03*
X19344000Y-4572000I-40000J0D01*
G01*
X19344000Y-4826000D02*
G75*
G03*
X19344000Y-4826000I-40000J0D01*
G01*
X19344000Y-5080000D02*
G75*
G03*
X19344000Y-5080000I-40000J0D01*
G01*
X19344000Y-5334000D02*
G75*
G03*
X19344000Y-5334000I-40000J0D01*
G01*
X19344000Y-5588000D02*
G75*
G03*
X19344000Y-5588000I-40000J0D01*
G01*
X19344000Y-5842000D02*
G75*
G03*
X19344000Y-5842000I-40000J0D01*
G01*
X19344000Y-6096000D02*
G75*
G03*
X19344000Y-6096000I-40000J0D01*
G01*
X19344000Y-6350000D02*
G75*
G03*
X19344000Y-6350000I-40000J0D01*
G01*
X19344000Y-6604000D02*
G75*
G03*
X19344000Y-6604000I-40000J0D01*
G01*
X19344000Y-6858000D02*
G75*
G03*
X19344000Y-6858000I-40000J0D01*
G01*
X19344000Y-7112000D02*
G75*
G03*
X19344000Y-7112000I-40000J0D01*
G01*
X19344000Y-7366000D02*
G75*
G03*
X19344000Y-7366000I-40000J0D01*
G01*
X19344000Y-7620000D02*
G75*
G03*
X19344000Y-7620000I-40000J0D01*
G01*
X19344000Y-7874000D02*
G75*
G03*
X19344000Y-7874000I-40000J0D01*
G01*
X19344000Y-8128000D02*
G75*
G03*
X19344000Y-8128000I-40000J0D01*
G01*
X19344000Y-8382000D02*
G75*
G03*
X19344000Y-8382000I-40000J0D01*
G01*
X19344000Y-8636000D02*
G75*
G03*
X19344000Y-8636000I-40000J0D01*
G01*
X19598000Y-10541000D02*
G75*
G03*
X19598000Y-10541000I-40000J0D01*
G01*
X19598000Y-10795000D02*
G75*
G03*
X19598000Y-10795000I-40000J0D01*
G01*
X19598000Y-11049000D02*
G75*
G03*
X19598000Y-11049000I-40000J0D01*
G01*
X19598000Y-11303000D02*
G75*
G03*
X19598000Y-11303000I-40000J0D01*
G01*
X19598000Y-11557000D02*
G75*
G03*
X19598000Y-11557000I-40000J0D01*
G01*
X19598000Y-11811000D02*
G75*
G03*
X19598000Y-11811000I-40000J0D01*
G01*
X20237000Y-9779000D02*
G75*
G03*
X20237000Y-9779000I-40000J0D01*
G01*
X20360000Y-2794000D02*
G75*
G03*
X20360000Y-2794000I-40000J0D01*
G01*
X20360000Y-3048000D02*
G75*
G03*
X20360000Y-3048000I-40000J0D01*
G01*
X20360000Y-3302000D02*
G75*
G03*
X20360000Y-3302000I-40000J0D01*
G01*
X20360000Y-3556000D02*
G75*
G03*
X20360000Y-3556000I-40000J0D01*
G01*
X20360000Y-3810000D02*
G75*
G03*
X20360000Y-3810000I-40000J0D01*
G01*
X20360000Y-4064000D02*
G75*
G03*
X20360000Y-4064000I-40000J0D01*
G01*
X20360000Y-4318000D02*
G75*
G03*
X20360000Y-4318000I-40000J0D01*
G01*
X20360000Y-4572000D02*
G75*
G03*
X20360000Y-4572000I-40000J0D01*
G01*
X20360000Y-4826000D02*
G75*
G03*
X20360000Y-4826000I-40000J0D01*
G01*
X20360000Y-5080000D02*
G75*
G03*
X20360000Y-5080000I-40000J0D01*
G01*
X20360000Y-6350000D02*
G75*
G03*
X20360000Y-6350000I-40000J0D01*
G01*
X20360000Y-6604000D02*
G75*
G03*
X20360000Y-6604000I-40000J0D01*
G01*
X20360000Y-6858000D02*
G75*
G03*
X20360000Y-6858000I-40000J0D01*
G01*
X20360000Y-7112000D02*
G75*
G03*
X20360000Y-7112000I-40000J0D01*
G01*
X20360000Y-7366000D02*
G75*
G03*
X20360000Y-7366000I-40000J0D01*
G01*
X20360000Y-7620000D02*
G75*
G03*
X20360000Y-7620000I-40000J0D01*
G01*
X20360000Y-7874000D02*
G75*
G03*
X20360000Y-7874000I-40000J0D01*
G01*
X20360000Y-8128000D02*
G75*
G03*
X20360000Y-8128000I-40000J0D01*
G01*
X20360000Y-8382000D02*
G75*
G03*
X20360000Y-8382000I-40000J0D01*
G01*
X20360000Y-8636000D02*
G75*
G03*
X20360000Y-8636000I-40000J0D01*
G01*
X20487000Y-9779000D02*
G75*
G03*
X20487000Y-9779000I-40000J0D01*
G01*
X20872000Y-2159000D02*
G75*
G03*
X20872000Y-2159000I-40000J0D01*
G01*
X20872000Y-5715000D02*
G75*
G03*
X20872000Y-5715000I-40000J0D01*
G01*
X21122000Y-2159000D02*
G75*
G03*
X21122000Y-2159000I-40000J0D01*
G01*
X21122000Y-2794000D02*
G75*
G03*
X21122000Y-2794000I-40000J0D01*
G01*
X21122000Y-3048000D02*
G75*
G03*
X21122000Y-3048000I-40000J0D01*
G01*
X21122000Y-3302000D02*
G75*
G03*
X21122000Y-3302000I-40000J0D01*
G01*
X21122000Y-3556000D02*
G75*
G03*
X21122000Y-3556000I-40000J0D01*
G01*
X21122000Y-3810000D02*
G75*
G03*
X21122000Y-3810000I-40000J0D01*
G01*
X21122000Y-4064000D02*
G75*
G03*
X21122000Y-4064000I-40000J0D01*
G01*
X21122000Y-4318000D02*
G75*
G03*
X21122000Y-4318000I-40000J0D01*
G01*
X21122000Y-4572000D02*
G75*
G03*
X21122000Y-4572000I-40000J0D01*
G01*
X21122000Y-4826000D02*
G75*
G03*
X21122000Y-4826000I-40000J0D01*
G01*
X21122000Y-5080000D02*
G75*
G03*
X21122000Y-5080000I-40000J0D01*
G01*
X21122000Y-5715000D02*
G75*
G03*
X21122000Y-5715000I-40000J0D01*
G01*
X21122000Y-6350000D02*
G75*
G03*
X21122000Y-6350000I-40000J0D01*
G01*
X21122000Y-6604000D02*
G75*
G03*
X21122000Y-6604000I-40000J0D01*
G01*
X21122000Y-6858000D02*
G75*
G03*
X21122000Y-6858000I-40000J0D01*
G01*
X21122000Y-7112000D02*
G75*
G03*
X21122000Y-7112000I-40000J0D01*
G01*
X21122000Y-7366000D02*
G75*
G03*
X21122000Y-7366000I-40000J0D01*
G01*
X21122000Y-7620000D02*
G75*
G03*
X21122000Y-7620000I-40000J0D01*
G01*
X21122000Y-7874000D02*
G75*
G03*
X21122000Y-7874000I-40000J0D01*
G01*
X21122000Y-8128000D02*
G75*
G03*
X21122000Y-8128000I-40000J0D01*
G01*
X21122000Y-8382000D02*
G75*
G03*
X21122000Y-8382000I-40000J0D01*
G01*
X21122000Y-8636000D02*
G75*
G03*
X21122000Y-8636000I-40000J0D01*
G01*
X21253000Y-10160000D02*
G75*
G03*
X21253000Y-10160000I-40000J0D01*
G01*
X21503000Y-10160000D02*
G75*
G03*
X21503000Y-10160000I-40000J0D01*
G01*
X21761000Y-9017000D02*
G75*
G03*
X21761000Y-9017000I-40000J0D01*
G01*
X22011000Y-7620000D02*
G75*
G03*
X22011000Y-7620000I-40000J0D01*
G01*
X22011000Y-8382000D02*
G75*
G03*
X22011000Y-8382000I-40000J0D01*
G01*
X22011000Y-9017000D02*
G75*
G03*
X22011000Y-9017000I-40000J0D01*
G01*
X22120500Y-2824500D02*
G75*
G03*
X22120500Y-2824500I-40000J0D01*
G01*
X22120500Y-3078500D02*
G75*
G03*
X22120500Y-3078500I-40000J0D01*
G01*
X22120500Y-3332500D02*
G75*
G03*
X22120500Y-3332500I-40000J0D01*
G01*
X22120500Y-3586500D02*
G75*
G03*
X22120500Y-3586500I-40000J0D01*
G01*
X22120500Y-3840500D02*
G75*
G03*
X22120500Y-3840500I-40000J0D01*
G01*
X22120500Y-4094500D02*
G75*
G03*
X22120500Y-4094500I-40000J0D01*
G01*
X22120500Y-4348500D02*
G75*
G03*
X22120500Y-4348500I-40000J0D01*
G01*
X22120500Y-4602500D02*
G75*
G03*
X22120500Y-4602500I-40000J0D01*
G01*
X22120500Y-4856500D02*
G75*
G03*
X22120500Y-4856500I-40000J0D01*
G01*
X22120500Y-5110500D02*
G75*
G03*
X22120500Y-5110500I-40000J0D01*
G01*
X22120500Y-5364500D02*
G75*
G03*
X22120500Y-5364500I-40000J0D01*
G01*
X22120500Y-5618500D02*
G75*
G03*
X22120500Y-5618500I-40000J0D01*
G01*
X22120500Y-5872500D02*
G75*
G03*
X22120500Y-5872500I-40000J0D01*
G01*
X22120500Y-6126500D02*
G75*
G03*
X22120500Y-6126500I-40000J0D01*
G01*
X22120500Y-6380500D02*
G75*
G03*
X22120500Y-6380500I-40000J0D01*
G01*
X22120500Y-6634500D02*
G75*
G03*
X22120500Y-6634500I-40000J0D01*
G01*
X23408000Y-2159000D02*
G75*
G03*
X23408000Y-2159000I-40000J0D01*
G01*
X23535000Y-7620000D02*
G75*
G03*
X23535000Y-7620000I-40000J0D01*
G01*
X23535000Y-8382000D02*
G75*
G03*
X23535000Y-8382000I-40000J0D01*
G01*
X23644500Y-2824500D02*
G75*
G03*
X23644500Y-2824500I-40000J0D01*
G01*
X23644500Y-3078500D02*
G75*
G03*
X23644500Y-3078500I-40000J0D01*
G01*
X23644500Y-3332500D02*
G75*
G03*
X23644500Y-3332500I-40000J0D01*
G01*
X23644500Y-3586500D02*
G75*
G03*
X23644500Y-3586500I-40000J0D01*
G01*
X23644500Y-3840500D02*
G75*
G03*
X23644500Y-3840500I-40000J0D01*
G01*
X23644500Y-4094500D02*
G75*
G03*
X23644500Y-4094500I-40000J0D01*
G01*
X23644500Y-4348500D02*
G75*
G03*
X23644500Y-4348500I-40000J0D01*
G01*
X23644500Y-4602500D02*
G75*
G03*
X23644500Y-4602500I-40000J0D01*
G01*
X23644500Y-4856500D02*
G75*
G03*
X23644500Y-4856500I-40000J0D01*
G01*
X23644500Y-5110500D02*
G75*
G03*
X23644500Y-5110500I-40000J0D01*
G01*
X23644500Y-5364500D02*
G75*
G03*
X23644500Y-5364500I-40000J0D01*
G01*
X23644500Y-5618500D02*
G75*
G03*
X23644500Y-5618500I-40000J0D01*
G01*
X23644500Y-5872500D02*
G75*
G03*
X23644500Y-5872500I-40000J0D01*
G01*
X23644500Y-6126500D02*
G75*
G03*
X23644500Y-6126500I-40000J0D01*
G01*
X23644500Y-6380500D02*
G75*
G03*
X23644500Y-6380500I-40000J0D01*
G01*
X23644500Y-6634500D02*
G75*
G03*
X23644500Y-6634500I-40000J0D01*
G01*
X23658000Y-2159000D02*
G75*
G03*
X23658000Y-2159000I-40000J0D01*
G01*
X23789000Y-10291000D02*
G75*
G03*
X23789000Y-10291000I-40000J0D01*
G01*
X23789000Y-10541000D02*
G75*
G03*
X23789000Y-10541000I-40000J0D01*
G01*
X24170000Y-2824500D02*
G75*
G03*
X24170000Y-2824500I-40000J0D01*
G01*
X24170000Y-3078500D02*
G75*
G03*
X24170000Y-3078500I-40000J0D01*
G01*
X24170000Y-3332500D02*
G75*
G03*
X24170000Y-3332500I-40000J0D01*
G01*
X24170000Y-3586500D02*
G75*
G03*
X24170000Y-3586500I-40000J0D01*
G01*
X24170000Y-3840500D02*
G75*
G03*
X24170000Y-3840500I-40000J0D01*
G01*
X24170000Y-4094500D02*
G75*
G03*
X24170000Y-4094500I-40000J0D01*
G01*
X24170000Y-4348500D02*
G75*
G03*
X24170000Y-4348500I-40000J0D01*
G01*
X24170000Y-4602500D02*
G75*
G03*
X24170000Y-4602500I-40000J0D01*
G01*
X24170000Y-4856500D02*
G75*
G03*
X24170000Y-4856500I-40000J0D01*
G01*
X24170000Y-5110500D02*
G75*
G03*
X24170000Y-5110500I-40000J0D01*
G01*
X24170000Y-5364500D02*
G75*
G03*
X24170000Y-5364500I-40000J0D01*
G01*
X24170000Y-5618500D02*
G75*
G03*
X24170000Y-5618500I-40000J0D01*
G01*
X24170000Y-5872500D02*
G75*
G03*
X24170000Y-5872500I-40000J0D01*
G01*
X24170000Y-6126500D02*
G75*
G03*
X24170000Y-6126500I-40000J0D01*
G01*
X24170000Y-6380500D02*
G75*
G03*
X24170000Y-6380500I-40000J0D01*
G01*
X24170000Y-6634500D02*
G75*
G03*
X24170000Y-6634500I-40000J0D01*
G01*
X24297000Y-7874000D02*
G75*
G03*
X24297000Y-7874000I-40000J0D01*
G01*
X24297000Y-8636000D02*
G75*
G03*
X24297000Y-8636000I-40000J0D01*
G01*
X24297000Y-9652000D02*
G75*
G03*
X24297000Y-9652000I-40000J0D01*
G01*
X24297000Y-10414000D02*
G75*
G03*
X24297000Y-10414000I-40000J0D01*
G01*
X24301000Y-7493000D02*
G75*
G03*
X24301000Y-7493000I-40000J0D01*
G01*
X24551000Y-7493000D02*
G75*
G03*
X24551000Y-7493000I-40000J0D01*
G01*
X24551000Y-7874000D02*
G75*
G03*
X24551000Y-7874000I-40000J0D01*
G01*
X24551000Y-8636000D02*
G75*
G03*
X24551000Y-8636000I-40000J0D01*
G01*
X24551000Y-9652000D02*
G75*
G03*
X24551000Y-9652000I-40000J0D01*
G01*
X24551000Y-10414000D02*
G75*
G03*
X24551000Y-10414000I-40000J0D01*
G01*
X24805000Y-7874000D02*
G75*
G03*
X24805000Y-7874000I-40000J0D01*
G01*
X24805000Y-8636000D02*
G75*
G03*
X24805000Y-8636000I-40000J0D01*
G01*
X24805000Y-9652000D02*
G75*
G03*
X24805000Y-9652000I-40000J0D01*
G01*
X24805000Y-10414000D02*
G75*
G03*
X24805000Y-10414000I-40000J0D01*
G01*
X24809000Y-7493000D02*
G75*
G03*
X24809000Y-7493000I-40000J0D01*
G01*
X24809000Y-9271000D02*
G75*
G03*
X24809000Y-9271000I-40000J0D01*
G01*
X25059000Y-7493000D02*
G75*
G03*
X25059000Y-7493000I-40000J0D01*
G01*
X25059000Y-7874000D02*
G75*
G03*
X25059000Y-7874000I-40000J0D01*
G01*
X25059000Y-8636000D02*
G75*
G03*
X25059000Y-8636000I-40000J0D01*
G01*
X25059000Y-9271000D02*
G75*
G03*
X25059000Y-9271000I-40000J0D01*
G01*
X25059000Y-9652000D02*
G75*
G03*
X25059000Y-9652000I-40000J0D01*
G01*
X25059000Y-10414000D02*
G75*
G03*
X25059000Y-10414000I-40000J0D01*
G01*
X25313000Y-9652000D02*
G75*
G03*
X25313000Y-9652000I-40000J0D01*
G01*
X25313000Y-10414000D02*
G75*
G03*
X25313000Y-10414000I-40000J0D01*
G01*
X25444000Y-2159000D02*
G75*
G03*
X25444000Y-2159000I-40000J0D01*
G01*
X25567000Y-9652000D02*
G75*
G03*
X25567000Y-9652000I-40000J0D01*
G01*
X25567000Y-10414000D02*
G75*
G03*
X25567000Y-10414000I-40000J0D01*
G01*
X25694000Y-2159000D02*
G75*
G03*
X25694000Y-2159000I-40000J0D01*
G01*
X25694000Y-2824500D02*
G75*
G03*
X25694000Y-2824500I-40000J0D01*
G01*
X25694000Y-3078500D02*
G75*
G03*
X25694000Y-3078500I-40000J0D01*
G01*
X25694000Y-3332500D02*
G75*
G03*
X25694000Y-3332500I-40000J0D01*
G01*
X25694000Y-3586500D02*
G75*
G03*
X25694000Y-3586500I-40000J0D01*
G01*
X25694000Y-3840500D02*
G75*
G03*
X25694000Y-3840500I-40000J0D01*
G01*
X25694000Y-4094500D02*
G75*
G03*
X25694000Y-4094500I-40000J0D01*
G01*
X25694000Y-4348500D02*
G75*
G03*
X25694000Y-4348500I-40000J0D01*
G01*
X25694000Y-4602500D02*
G75*
G03*
X25694000Y-4602500I-40000J0D01*
G01*
X25694000Y-4856500D02*
G75*
G03*
X25694000Y-4856500I-40000J0D01*
G01*
X25694000Y-5110500D02*
G75*
G03*
X25694000Y-5110500I-40000J0D01*
G01*
X25694000Y-5364500D02*
G75*
G03*
X25694000Y-5364500I-40000J0D01*
G01*
X25694000Y-5618500D02*
G75*
G03*
X25694000Y-5618500I-40000J0D01*
G01*
X25694000Y-5872500D02*
G75*
G03*
X25694000Y-5872500I-40000J0D01*
G01*
X25694000Y-6126500D02*
G75*
G03*
X25694000Y-6126500I-40000J0D01*
G01*
X25694000Y-6380500D02*
G75*
G03*
X25694000Y-6380500I-40000J0D01*
G01*
X25694000Y-6634500D02*
G75*
G03*
X25694000Y-6634500I-40000J0D01*
G01*
X25694000Y-8132000D02*
G75*
G03*
X25694000Y-8132000I-40000J0D01*
G01*
X25694000Y-8382000D02*
G75*
G03*
X25694000Y-8382000I-40000J0D01*
G01*
X25821000Y-9652000D02*
G75*
G03*
X25821000Y-9652000I-40000J0D01*
G01*
X25821000Y-10414000D02*
G75*
G03*
X25821000Y-10414000I-40000J0D01*
G01*
X26583000Y-2824500D02*
G75*
G03*
X26583000Y-2824500I-40000J0D01*
G01*
X26583000Y-3078500D02*
G75*
G03*
X26583000Y-3078500I-40000J0D01*
G01*
X26583000Y-3332500D02*
G75*
G03*
X26583000Y-3332500I-40000J0D01*
G01*
X26583000Y-3586500D02*
G75*
G03*
X26583000Y-3586500I-40000J0D01*
G01*
X26583000Y-3840500D02*
G75*
G03*
X26583000Y-3840500I-40000J0D01*
G01*
X26583000Y-4094500D02*
G75*
G03*
X26583000Y-4094500I-40000J0D01*
G01*
X26583000Y-4348500D02*
G75*
G03*
X26583000Y-4348500I-40000J0D01*
G01*
X26583000Y-4602500D02*
G75*
G03*
X26583000Y-4602500I-40000J0D01*
G01*
X26583000Y-4856500D02*
G75*
G03*
X26583000Y-4856500I-40000J0D01*
G01*
X26583000Y-5110500D02*
G75*
G03*
X26583000Y-5110500I-40000J0D01*
G01*
X26583000Y-5364500D02*
G75*
G03*
X26583000Y-5364500I-40000J0D01*
G01*
X26583000Y-5618500D02*
G75*
G03*
X26583000Y-5618500I-40000J0D01*
G01*
X26583000Y-5872500D02*
G75*
G03*
X26583000Y-5872500I-40000J0D01*
G01*
X26583000Y-6126500D02*
G75*
G03*
X26583000Y-6126500I-40000J0D01*
G01*
X26714000Y-9144000D02*
G75*
G03*
X26714000Y-9144000I-40000J0D01*
G01*
X26837000Y-7878000D02*
G75*
G03*
X26837000Y-7878000I-40000J0D01*
G01*
X26837000Y-8128000D02*
G75*
G03*
X26837000Y-8128000I-40000J0D01*
G01*
X26964000Y-9144000D02*
G75*
G03*
X26964000Y-9144000I-40000J0D01*
G01*
X27243400Y-7162800D02*
G75*
G03*
X27243400Y-7162800I-40000J0D01*
G01*
X27497400Y-7162800D02*
G75*
G03*
X27497400Y-7162800I-40000J0D01*
G01*
X27980000Y-9144000D02*
G75*
G03*
X27980000Y-9144000I-40000J0D01*
G01*
X28107000Y-2824500D02*
G75*
G03*
X28107000Y-2824500I-40000J0D01*
G01*
X28107000Y-3078500D02*
G75*
G03*
X28107000Y-3078500I-40000J0D01*
G01*
X28107000Y-3332500D02*
G75*
G03*
X28107000Y-3332500I-40000J0D01*
G01*
X28107000Y-3586500D02*
G75*
G03*
X28107000Y-3586500I-40000J0D01*
G01*
X28107000Y-3840500D02*
G75*
G03*
X28107000Y-3840500I-40000J0D01*
G01*
X28107000Y-4094500D02*
G75*
G03*
X28107000Y-4094500I-40000J0D01*
G01*
X28107000Y-4348500D02*
G75*
G03*
X28107000Y-4348500I-40000J0D01*
G01*
X28107000Y-4602500D02*
G75*
G03*
X28107000Y-4602500I-40000J0D01*
G01*
X28107000Y-4856500D02*
G75*
G03*
X28107000Y-4856500I-40000J0D01*
G01*
X28107000Y-5110500D02*
G75*
G03*
X28107000Y-5110500I-40000J0D01*
G01*
X28107000Y-5364500D02*
G75*
G03*
X28107000Y-5364500I-40000J0D01*
G01*
X28107000Y-5618500D02*
G75*
G03*
X28107000Y-5618500I-40000J0D01*
G01*
X28107000Y-5872500D02*
G75*
G03*
X28107000Y-5872500I-40000J0D01*
G01*
X28107000Y-6126500D02*
G75*
G03*
X28107000Y-6126500I-40000J0D01*
G01*
X28230000Y-9144000D02*
G75*
G03*
X28230000Y-9144000I-40000J0D01*
G01*
X28742000Y-2794000D02*
G75*
G03*
X28742000Y-2794000I-40000J0D01*
G01*
X28742000Y-3044000D02*
G75*
G03*
X28742000Y-3044000I-40000J0D01*
G01*
X13970000Y-7956000D02*
X13970000Y-8046000D01*
X13925000Y-8001000D02*
X14015000Y-8001000D01*
X13970000Y-8210000D02*
X13970000Y-8300000D01*
X13925000Y-8255000D02*
X14015000Y-8255000D01*
X13970000Y-8591000D02*
X13970000Y-8681000D01*
X13925000Y-8636000D02*
X14015000Y-8636000D01*
X13970000Y-8845000D02*
X13970000Y-8935000D01*
X13925000Y-8890000D02*
X14015000Y-8890000D01*
X27787600Y-7117800D02*
X27787600Y-7207800D01*
X27742600Y-7162800D02*
X27832600Y-7162800D01*
X28041600Y-7117800D02*
X28041600Y-7207800D01*
X27996600Y-7162800D02*
X28086600Y-7162800D01*
X26829527Y-11118527D02*
X26829527Y-11053473D01*
X26764473Y-11053473D01*
X26764473Y-11118527D01*
X26829527Y-11118527D01*
X26829527Y-11318527D02*
X26829527Y-11253473D01*
X26764473Y-11253473D01*
X26764473Y-11318527D01*
X26829527Y-11318527D01*
X27079527Y-11118527D02*
X27079527Y-11053473D01*
X27014473Y-11053473D01*
X27014473Y-11118527D01*
X27079527Y-11118527D01*
X27079527Y-11318527D02*
X27079527Y-11253473D01*
X27014473Y-11253473D01*
X27014473Y-11318527D01*
X27079527Y-11318527D01*
X13741400Y-5130000D02*
X13791400Y-5080000D01*
X13741400Y-5030000D01*
X13691400Y-5080000D01*
X13741400Y-5130000D01*
X13741400Y-5384000D02*
X13791400Y-5334000D01*
X13741400Y-5284000D01*
X13691400Y-5334000D01*
X13741400Y-5384000D01*
X13970000Y-9321000D02*
X14020000Y-9271000D01*
X13970000Y-9221000D01*
X13920000Y-9271000D01*
X13970000Y-9321000D01*
X13970000Y-9575000D02*
X14020000Y-9525000D01*
X13970000Y-9475000D01*
X13920000Y-9525000D01*
X13970000Y-9575000D01*
X13970000Y-9829000D02*
X14020000Y-9779000D01*
X13970000Y-9729000D01*
X13920000Y-9779000D01*
X13970000Y-9829000D01*
X13970000Y-10083000D02*
X14020000Y-10033000D01*
X13970000Y-9983000D01*
X13920000Y-10033000D01*
X13970000Y-10083000D01*
X13970000Y-10337000D02*
X14020000Y-10287000D01*
X13970000Y-10237000D01*
X13920000Y-10287000D01*
X13970000Y-10337000D01*
X13970000Y-10591000D02*
X14020000Y-10541000D01*
X13970000Y-10491000D01*
X13920000Y-10541000D01*
X13970000Y-10591000D01*
X13970000Y-10845000D02*
X14020000Y-10795000D01*
X13970000Y-10745000D01*
X13920000Y-10795000D01*
X13970000Y-10845000D01*
X16129000Y-11734000D02*
X16179000Y-11684000D01*
X16129000Y-11634000D01*
X16079000Y-11684000D01*
X16129000Y-11734000D01*
X16129000Y-11988000D02*
X16179000Y-11938000D01*
X16129000Y-11888000D01*
X16079000Y-11938000D01*
X16129000Y-11988000D01*
X16383000Y-11734000D02*
X16433000Y-11684000D01*
X16383000Y-11634000D01*
X16333000Y-11684000D01*
X16383000Y-11734000D01*
X16383000Y-11988000D02*
X16433000Y-11938000D01*
X16383000Y-11888000D01*
X16333000Y-11938000D01*
X16383000Y-11988000D01*
X16637000Y-11734000D02*
X16687000Y-11684000D01*
X16637000Y-11634000D01*
X16587000Y-11684000D01*
X16637000Y-11734000D01*
X16637000Y-11988000D02*
X16687000Y-11938000D01*
X16637000Y-11888000D01*
X16587000Y-11938000D01*
X16637000Y-11988000D01*
X16891000Y-11734000D02*
X16941000Y-11684000D01*
X16891000Y-11634000D01*
X16841000Y-11684000D01*
X16891000Y-11734000D01*
X16891000Y-11988000D02*
X16941000Y-11938000D01*
X16891000Y-11888000D01*
X16841000Y-11938000D01*
X16891000Y-11988000D01*
X24079200Y-11276800D02*
X24129200Y-11226800D01*
X24079200Y-11176800D01*
X24029200Y-11226800D01*
X24079200Y-11276800D01*
X23979200Y-11266800D02*
X24179200Y-11266800D01*
X23979200Y-11186800D02*
X24179200Y-11186800D01*
X24179200Y-11266800D02*
G75*
G03*
X24179200Y-11186800I0J40000D01*
G01*
X23979200Y-11186800D02*
G75*
G03*
X23979200Y-11266800I0J-40000D01*
G01*
X24079200Y-11876800D02*
X24129200Y-11826800D01*
X24079200Y-11776800D01*
X24029200Y-11826800D01*
X24079200Y-11876800D01*
X23979200Y-11866800D02*
X24179200Y-11866800D01*
X23979200Y-11786800D02*
X24179200Y-11786800D01*
X24179200Y-11866800D02*
G75*
G03*
X24179200Y-11786800I0J40000D01*
G01*
X23979200Y-11786800D02*
G75*
G03*
X23979200Y-11866800I0J-40000D01*
G01*
X24549200Y-11576800D02*
X24599200Y-11526800D01*
X24549200Y-11476800D01*
X24499200Y-11526800D01*
X24549200Y-11576800D01*
X24589200Y-11626800D02*
X24589200Y-11426800D01*
X24509200Y-11626800D02*
X24509200Y-11426800D01*
X24589200Y-11426800D02*
G75*
G03*
X24509200Y-11426800I-40000J0D01*
G01*
X24509200Y-11626800D02*
G75*
G03*
X24589200Y-11626800I40000J0D01*
G01*
X25527000Y-11480000D02*
X25577000Y-11430000D01*
X25527000Y-11380000D01*
X25477000Y-11430000D01*
X25527000Y-11480000D01*
X25527000Y-11734000D02*
X25577000Y-11684000D01*
X25527000Y-11634000D01*
X25477000Y-11684000D01*
X25527000Y-11734000D01*
X25527000Y-11988000D02*
X25577000Y-11938000D01*
X25527000Y-11888000D01*
X25477000Y-11938000D01*
X25527000Y-11988000D01*
X22424000Y-11629000D02*
X22534000Y-11739000D01*
X22534000Y-11629000D02*
X22424000Y-11739000D01*
X22534000Y-11684000D02*
G75*
G03*
X22534000Y-11684000I-55000J0D01*
G01*
X22678000Y-11629000D02*
X22788000Y-11739000D01*
X22788000Y-11629000D02*
X22678000Y-11739000D01*
X22788000Y-11684000D02*
G75*
G03*
X22788000Y-11684000I-55000J0D01*
G01*
X22932000Y-11629000D02*
X23042000Y-11739000D01*
X23042000Y-11629000D02*
X22932000Y-11739000D01*
X23042000Y-11684000D02*
G75*
G03*
X23042000Y-11684000I-55000J0D01*
G01*
X24862400Y-10994000D02*
X24972400Y-11104000D01*
X24972400Y-10994000D02*
X24862400Y-11104000D01*
X24972400Y-11049000D02*
G75*
G03*
X24972400Y-11049000I-55000J0D01*
G01*
X25878400Y-10994000D02*
X25988400Y-11104000D01*
X25988400Y-10994000D02*
X25878400Y-11104000D01*
X25988400Y-11049000D02*
G75*
G03*
X25988400Y-11049000I-55000J0D01*
G01*
X26869000Y-10232000D02*
X26979000Y-10342000D01*
X26979000Y-10232000D02*
X26869000Y-10342000D01*
X26979000Y-10287000D02*
G75*
G03*
X26979000Y-10287000I-55000J0D01*
G01*
X27123000Y-10232000D02*
X27233000Y-10342000D01*
X27233000Y-10232000D02*
X27123000Y-10342000D01*
X27233000Y-10287000D02*
G75*
G03*
X27233000Y-10287000I-55000J0D01*
G01*
X27235000Y-7692000D02*
X27345000Y-7802000D01*
X27345000Y-7692000D02*
X27235000Y-7802000D01*
X27345000Y-7747000D02*
G75*
G03*
X27345000Y-7747000I-55000J0D01*
G01*
X27235000Y-8142000D02*
X27345000Y-8252000D01*
X27345000Y-8142000D02*
X27235000Y-8252000D01*
X27345000Y-8197000D02*
G75*
G03*
X27345000Y-8197000I-55000J0D01*
G01*
X27377000Y-10232000D02*
X27487000Y-10342000D01*
X27487000Y-10232000D02*
X27377000Y-10342000D01*
X27487000Y-10287000D02*
G75*
G03*
X27487000Y-10287000I-55000J0D01*
G01*
X27885000Y-7692000D02*
X27995000Y-7802000D01*
X27995000Y-7692000D02*
X27885000Y-7802000D01*
X27995000Y-7747000D02*
G75*
G03*
X27995000Y-7747000I-55000J0D01*
G01*
X27885000Y-8142000D02*
X27995000Y-8252000D01*
X27995000Y-8142000D02*
X27885000Y-8252000D01*
X27995000Y-8197000D02*
G75*
G03*
X27995000Y-8197000I-55000J0D01*
G01*
X26203500Y-11440500D02*
X26436500Y-11673500D01*
X26436500Y-11440500D02*
X26203500Y-11673500D01*
X26320000Y-11440500D02*
X26320000Y-11673500D01*
X26203500Y-11557000D02*
X26436500Y-11557000D01*
X27407500Y-11440500D02*
X27640500Y-11673500D01*
X27640500Y-11440500D02*
X27407500Y-11673500D01*
X27524000Y-11440500D02*
X27524000Y-11673500D01*
X27407500Y-11557000D02*
X27640500Y-11557000D01*
D12*
X13489428Y-12916714D02*
X13489428Y-12616714D01*
X13560857Y-12616714D01*
X13603714Y-12631000D01*
X13632286Y-12659571D01*
X13646571Y-12688143D01*
X13660857Y-12745286D01*
X13660857Y-12788143D01*
X13646571Y-12845286D01*
X13632286Y-12873857D01*
X13603714Y-12902429D01*
X13560857Y-12916714D01*
X13489428Y-12916714D01*
X13789428Y-12916714D02*
X13789428Y-12716714D01*
X13789428Y-12773857D02*
X13803714Y-12745286D01*
X13818000Y-12731000D01*
X13846571Y-12716714D01*
X13875143Y-12716714D01*
X13975143Y-12916714D02*
X13975143Y-12716714D01*
X13975143Y-12616714D02*
X13960857Y-12631000D01*
X13975143Y-12645286D01*
X13989428Y-12631000D01*
X13975143Y-12616714D01*
X13975143Y-12645286D01*
X14160857Y-12916714D02*
X14132286Y-12902429D01*
X14118000Y-12873857D01*
X14118000Y-12616714D01*
X14318000Y-12916714D02*
X14289428Y-12902429D01*
X14275143Y-12873857D01*
X14275143Y-12616714D01*
X14660857Y-12916714D02*
X14660857Y-12616714D01*
X14760857Y-12831000D01*
X14860857Y-12616714D01*
X14860857Y-12916714D01*
X15132286Y-12916714D02*
X15132286Y-12759571D01*
X15118000Y-12731000D01*
X15089428Y-12716714D01*
X15032286Y-12716714D01*
X15003714Y-12731000D01*
X15132286Y-12902429D02*
X15103714Y-12916714D01*
X15032286Y-12916714D01*
X15003714Y-12902429D01*
X14989428Y-12873857D01*
X14989428Y-12845286D01*
X15003714Y-12816714D01*
X15032286Y-12802429D01*
X15103714Y-12802429D01*
X15132286Y-12788143D01*
X15275143Y-12716714D02*
X15275143Y-13016714D01*
X15275143Y-12731000D02*
X15303714Y-12716714D01*
X15360857Y-12716714D01*
X15389428Y-12731000D01*
X15403714Y-12745286D01*
X15418000Y-12773857D01*
X15418000Y-12859571D01*
X15403714Y-12888143D01*
X15389428Y-12902429D01*
X15360857Y-12916714D01*
X15303714Y-12916714D01*
X15275143Y-12902429D01*
X15546571Y-12888143D02*
X15560857Y-12902429D01*
X15546571Y-12916714D01*
X15532286Y-12902429D01*
X15546571Y-12888143D01*
X15546571Y-12916714D01*
X15546571Y-12731000D02*
X15560857Y-12745286D01*
X15546571Y-12759571D01*
X15532286Y-12745286D01*
X15546571Y-12731000D01*
X15546571Y-12759571D01*
X13163000Y-13391000D02*
X13203000Y-13431000D01*
X13203000Y-13391000D02*
X13163000Y-13431000D01*
X13546571Y-13246714D02*
X13575143Y-13246714D01*
X13603714Y-13261000D01*
X13618000Y-13275286D01*
X13632286Y-13303857D01*
X13646571Y-13361000D01*
X13646571Y-13432429D01*
X13632286Y-13489571D01*
X13618000Y-13518143D01*
X13603714Y-13532429D01*
X13575143Y-13546714D01*
X13546571Y-13546714D01*
X13518000Y-13532429D01*
X13503714Y-13518143D01*
X13489428Y-13489571D01*
X13475143Y-13432429D01*
X13475143Y-13361000D01*
X13489428Y-13303857D01*
X13503714Y-13275286D01*
X13518000Y-13261000D01*
X13546571Y-13246714D01*
X13775143Y-13518143D02*
X13789428Y-13532429D01*
X13775143Y-13546714D01*
X13760857Y-13532429D01*
X13775143Y-13518143D01*
X13775143Y-13546714D01*
X14046571Y-13346714D02*
X14046571Y-13546714D01*
X13975143Y-13232429D02*
X13903714Y-13446714D01*
X14089428Y-13446714D01*
X14260857Y-13246714D02*
X14289428Y-13246714D01*
X14318000Y-13261000D01*
X14332286Y-13275286D01*
X14346571Y-13303857D01*
X14360857Y-13361000D01*
X14360857Y-13432429D01*
X14346571Y-13489571D01*
X14332286Y-13518143D01*
X14318000Y-13532429D01*
X14289428Y-13546714D01*
X14260857Y-13546714D01*
X14232286Y-13532429D01*
X14218000Y-13518143D01*
X14203714Y-13489571D01*
X14189428Y-13432429D01*
X14189428Y-13361000D01*
X14203714Y-13303857D01*
X14218000Y-13275286D01*
X14232286Y-13261000D01*
X14260857Y-13246714D01*
X14546571Y-13246714D02*
X14575143Y-13246714D01*
X14603714Y-13261000D01*
X14618000Y-13275286D01*
X14632286Y-13303857D01*
X14646571Y-13361000D01*
X14646571Y-13432429D01*
X14632286Y-13489571D01*
X14618000Y-13518143D01*
X14603714Y-13532429D01*
X14575143Y-13546714D01*
X14546571Y-13546714D01*
X14518000Y-13532429D01*
X14503714Y-13518143D01*
X14489428Y-13489571D01*
X14475143Y-13432429D01*
X14475143Y-13361000D01*
X14489428Y-13303857D01*
X14503714Y-13275286D01*
X14518000Y-13261000D01*
X14546571Y-13246714D01*
X14775143Y-13546714D02*
X14775143Y-13346714D01*
X14775143Y-13375286D02*
X14789428Y-13361000D01*
X14818000Y-13346714D01*
X14860857Y-13346714D01*
X14889428Y-13361000D01*
X14903714Y-13389571D01*
X14903714Y-13546714D01*
X14903714Y-13389571D02*
X14918000Y-13361000D01*
X14946571Y-13346714D01*
X14989428Y-13346714D01*
X15018000Y-13361000D01*
X15032286Y-13389571D01*
X15032286Y-13546714D01*
X15175143Y-13546714D02*
X15175143Y-13346714D01*
X15175143Y-13375286D02*
X15189428Y-13361000D01*
X15218000Y-13346714D01*
X15260857Y-13346714D01*
X15289428Y-13361000D01*
X15303714Y-13389571D01*
X15303714Y-13546714D01*
X15303714Y-13389571D02*
X15318000Y-13361000D01*
X15346571Y-13346714D01*
X15389428Y-13346714D01*
X15418000Y-13361000D01*
X15432286Y-13389571D01*
X15432286Y-13546714D01*
X16018000Y-13232429D02*
X15760857Y-13618143D01*
X16403714Y-13246714D02*
X16432286Y-13246714D01*
X16460857Y-13261000D01*
X16475143Y-13275286D01*
X16489428Y-13303857D01*
X16503714Y-13361000D01*
X16503714Y-13432429D01*
X16489428Y-13489571D01*
X16475143Y-13518143D01*
X16460857Y-13532429D01*
X16432286Y-13546714D01*
X16403714Y-13546714D01*
X16375143Y-13532429D01*
X16360857Y-13518143D01*
X16346571Y-13489571D01*
X16332286Y-13432429D01*
X16332286Y-13361000D01*
X16346571Y-13303857D01*
X16360857Y-13275286D01*
X16375143Y-13261000D01*
X16403714Y-13246714D01*
X16632286Y-13518143D02*
X16646571Y-13532429D01*
X16632286Y-13546714D01*
X16618000Y-13532429D01*
X16632286Y-13518143D01*
X16632286Y-13546714D01*
X16832286Y-13246714D02*
X16860857Y-13246714D01*
X16889428Y-13261000D01*
X16903714Y-13275286D01*
X16918000Y-13303857D01*
X16932286Y-13361000D01*
X16932286Y-13432429D01*
X16918000Y-13489571D01*
X16903714Y-13518143D01*
X16889428Y-13532429D01*
X16860857Y-13546714D01*
X16832286Y-13546714D01*
X16803714Y-13532429D01*
X16789428Y-13518143D01*
X16775143Y-13489571D01*
X16760857Y-13432429D01*
X16760857Y-13361000D01*
X16775143Y-13303857D01*
X16789428Y-13275286D01*
X16803714Y-13261000D01*
X16832286Y-13246714D01*
X17218000Y-13546714D02*
X17046571Y-13546714D01*
X17132286Y-13546714D02*
X17132286Y-13246714D01*
X17103714Y-13289571D01*
X17075143Y-13318143D01*
X17046571Y-13332429D01*
X17489428Y-13246714D02*
X17346571Y-13246714D01*
X17332286Y-13389571D01*
X17346571Y-13375286D01*
X17375143Y-13361000D01*
X17446571Y-13361000D01*
X17475143Y-13375286D01*
X17489428Y-13389571D01*
X17503714Y-13418143D01*
X17503714Y-13489571D01*
X17489428Y-13518143D01*
X17475143Y-13532429D01*
X17446571Y-13546714D01*
X17375143Y-13546714D01*
X17346571Y-13532429D01*
X17332286Y-13518143D01*
X17603714Y-13246714D02*
X17803714Y-13246714D01*
X17675143Y-13546714D01*
X17903714Y-13246714D02*
X17903714Y-13303857D01*
X18018000Y-13246714D02*
X18018000Y-13303857D01*
X18460857Y-13661000D02*
X18446571Y-13646714D01*
X18418000Y-13603857D01*
X18403714Y-13575286D01*
X18389428Y-13532429D01*
X18375143Y-13461000D01*
X18375143Y-13403857D01*
X18389428Y-13332429D01*
X18403714Y-13289571D01*
X18418000Y-13261000D01*
X18446571Y-13218143D01*
X18460857Y-13203857D01*
X18618000Y-13375286D02*
X18589428Y-13361000D01*
X18575143Y-13346714D01*
X18560857Y-13318143D01*
X18560857Y-13303857D01*
X18575143Y-13275286D01*
X18589428Y-13261000D01*
X18618000Y-13246714D01*
X18675143Y-13246714D01*
X18703714Y-13261000D01*
X18718000Y-13275286D01*
X18732286Y-13303857D01*
X18732286Y-13318143D01*
X18718000Y-13346714D01*
X18703714Y-13361000D01*
X18675143Y-13375286D01*
X18618000Y-13375286D01*
X18589428Y-13389571D01*
X18575143Y-13403857D01*
X18560857Y-13432429D01*
X18560857Y-13489571D01*
X18575143Y-13518143D01*
X18589428Y-13532429D01*
X18618000Y-13546714D01*
X18675143Y-13546714D01*
X18703714Y-13532429D01*
X18718000Y-13518143D01*
X18732286Y-13489571D01*
X18732286Y-13432429D01*
X18718000Y-13403857D01*
X18703714Y-13389571D01*
X18675143Y-13375286D01*
X18832286Y-13246714D02*
X19018000Y-13246714D01*
X18918000Y-13361000D01*
X18960857Y-13361000D01*
X18989428Y-13375286D01*
X19003714Y-13389571D01*
X19018000Y-13418143D01*
X19018000Y-13489571D01*
X19003714Y-13518143D01*
X18989428Y-13532429D01*
X18960857Y-13546714D01*
X18875143Y-13546714D01*
X18846571Y-13532429D01*
X18832286Y-13518143D01*
X19375143Y-13546714D02*
X19375143Y-13246714D01*
X19503714Y-13546714D02*
X19503714Y-13389571D01*
X19489428Y-13361000D01*
X19460857Y-13346714D01*
X19418000Y-13346714D01*
X19389428Y-13361000D01*
X19375143Y-13375286D01*
X19689428Y-13546714D02*
X19660857Y-13532429D01*
X19646571Y-13518143D01*
X19632286Y-13489571D01*
X19632286Y-13403857D01*
X19646571Y-13375286D01*
X19660857Y-13361000D01*
X19689428Y-13346714D01*
X19732286Y-13346714D01*
X19760857Y-13361000D01*
X19775143Y-13375286D01*
X19789428Y-13403857D01*
X19789428Y-13489571D01*
X19775143Y-13518143D01*
X19760857Y-13532429D01*
X19732286Y-13546714D01*
X19689428Y-13546714D01*
X19960857Y-13546714D02*
X19932286Y-13532429D01*
X19918000Y-13503857D01*
X19918000Y-13246714D01*
X20189428Y-13532429D02*
X20160857Y-13546714D01*
X20103714Y-13546714D01*
X20075143Y-13532429D01*
X20060857Y-13503857D01*
X20060857Y-13389571D01*
X20075143Y-13361000D01*
X20103714Y-13346714D01*
X20160857Y-13346714D01*
X20189428Y-13361000D01*
X20203714Y-13389571D01*
X20203714Y-13418143D01*
X20060857Y-13446714D01*
X20318000Y-13532429D02*
X20346571Y-13546714D01*
X20403714Y-13546714D01*
X20432286Y-13532429D01*
X20446571Y-13503857D01*
X20446571Y-13489571D01*
X20432286Y-13461000D01*
X20403714Y-13446714D01*
X20360857Y-13446714D01*
X20332286Y-13432429D01*
X20318000Y-13403857D01*
X20318000Y-13389571D01*
X20332286Y-13361000D01*
X20360857Y-13346714D01*
X20403714Y-13346714D01*
X20432286Y-13361000D01*
X20546571Y-13661000D02*
X20560857Y-13646714D01*
X20589428Y-13603857D01*
X20603714Y-13575286D01*
X20618000Y-13532429D01*
X20632286Y-13461000D01*
X20632286Y-13403857D01*
X20618000Y-13332429D01*
X20603714Y-13289571D01*
X20589428Y-13261000D01*
X20560857Y-13218143D01*
X20546571Y-13203857D01*
X13203000Y-13807000D02*
G75*
G03*
X13203000Y-13807000I-40000J0D01*
G01*
X13546571Y-13642714D02*
X13575143Y-13642714D01*
X13603714Y-13657000D01*
X13618000Y-13671286D01*
X13632286Y-13699857D01*
X13646571Y-13757000D01*
X13646571Y-13828429D01*
X13632286Y-13885571D01*
X13618000Y-13914143D01*
X13603714Y-13928429D01*
X13575143Y-13942714D01*
X13546571Y-13942714D01*
X13518000Y-13928429D01*
X13503714Y-13914143D01*
X13489428Y-13885571D01*
X13475143Y-13828429D01*
X13475143Y-13757000D01*
X13489428Y-13699857D01*
X13503714Y-13671286D01*
X13518000Y-13657000D01*
X13546571Y-13642714D01*
X13775143Y-13914143D02*
X13789428Y-13928429D01*
X13775143Y-13942714D01*
X13760857Y-13928429D01*
X13775143Y-13914143D01*
X13775143Y-13942714D01*
X13960857Y-13771286D02*
X13932286Y-13757000D01*
X13918000Y-13742714D01*
X13903714Y-13714143D01*
X13903714Y-13699857D01*
X13918000Y-13671286D01*
X13932286Y-13657000D01*
X13960857Y-13642714D01*
X14018000Y-13642714D01*
X14046571Y-13657000D01*
X14060857Y-13671286D01*
X14075143Y-13699857D01*
X14075143Y-13714143D01*
X14060857Y-13742714D01*
X14046571Y-13757000D01*
X14018000Y-13771286D01*
X13960857Y-13771286D01*
X13932286Y-13785571D01*
X13918000Y-13799857D01*
X13903714Y-13828429D01*
X13903714Y-13885571D01*
X13918000Y-13914143D01*
X13932286Y-13928429D01*
X13960857Y-13942714D01*
X14018000Y-13942714D01*
X14046571Y-13928429D01*
X14060857Y-13914143D01*
X14075143Y-13885571D01*
X14075143Y-13828429D01*
X14060857Y-13799857D01*
X14046571Y-13785571D01*
X14018000Y-13771286D01*
X14260857Y-13642714D02*
X14289428Y-13642714D01*
X14318000Y-13657000D01*
X14332286Y-13671286D01*
X14346571Y-13699857D01*
X14360857Y-13757000D01*
X14360857Y-13828429D01*
X14346571Y-13885571D01*
X14332286Y-13914143D01*
X14318000Y-13928429D01*
X14289428Y-13942714D01*
X14260857Y-13942714D01*
X14232286Y-13928429D01*
X14218000Y-13914143D01*
X14203714Y-13885571D01*
X14189428Y-13828429D01*
X14189428Y-13757000D01*
X14203714Y-13699857D01*
X14218000Y-13671286D01*
X14232286Y-13657000D01*
X14260857Y-13642714D01*
X14546571Y-13642714D02*
X14575143Y-13642714D01*
X14603714Y-13657000D01*
X14618000Y-13671286D01*
X14632286Y-13699857D01*
X14646571Y-13757000D01*
X14646571Y-13828429D01*
X14632286Y-13885571D01*
X14618000Y-13914143D01*
X14603714Y-13928429D01*
X14575143Y-13942714D01*
X14546571Y-13942714D01*
X14518000Y-13928429D01*
X14503714Y-13914143D01*
X14489428Y-13885571D01*
X14475143Y-13828429D01*
X14475143Y-13757000D01*
X14489428Y-13699857D01*
X14503714Y-13671286D01*
X14518000Y-13657000D01*
X14546571Y-13642714D01*
X14775143Y-13942714D02*
X14775143Y-13742714D01*
X14775143Y-13771286D02*
X14789428Y-13757000D01*
X14818000Y-13742714D01*
X14860857Y-13742714D01*
X14889428Y-13757000D01*
X14903714Y-13785571D01*
X14903714Y-13942714D01*
X14903714Y-13785571D02*
X14918000Y-13757000D01*
X14946571Y-13742714D01*
X14989428Y-13742714D01*
X15018000Y-13757000D01*
X15032286Y-13785571D01*
X15032286Y-13942714D01*
X15175143Y-13942714D02*
X15175143Y-13742714D01*
X15175143Y-13771286D02*
X15189428Y-13757000D01*
X15218000Y-13742714D01*
X15260857Y-13742714D01*
X15289428Y-13757000D01*
X15303714Y-13785571D01*
X15303714Y-13942714D01*
X15303714Y-13785571D02*
X15318000Y-13757000D01*
X15346571Y-13742714D01*
X15389428Y-13742714D01*
X15418000Y-13757000D01*
X15432286Y-13785571D01*
X15432286Y-13942714D01*
X16018000Y-13628429D02*
X15760857Y-14014143D01*
X16403714Y-13642714D02*
X16432286Y-13642714D01*
X16460857Y-13657000D01*
X16475143Y-13671286D01*
X16489428Y-13699857D01*
X16503714Y-13757000D01*
X16503714Y-13828429D01*
X16489428Y-13885571D01*
X16475143Y-13914143D01*
X16460857Y-13928429D01*
X16432286Y-13942714D01*
X16403714Y-13942714D01*
X16375143Y-13928429D01*
X16360857Y-13914143D01*
X16346571Y-13885571D01*
X16332286Y-13828429D01*
X16332286Y-13757000D01*
X16346571Y-13699857D01*
X16360857Y-13671286D01*
X16375143Y-13657000D01*
X16403714Y-13642714D01*
X16632286Y-13914143D02*
X16646571Y-13928429D01*
X16632286Y-13942714D01*
X16618000Y-13928429D01*
X16632286Y-13914143D01*
X16632286Y-13942714D01*
X16832286Y-13642714D02*
X16860857Y-13642714D01*
X16889428Y-13657000D01*
X16903714Y-13671286D01*
X16918000Y-13699857D01*
X16932286Y-13757000D01*
X16932286Y-13828429D01*
X16918000Y-13885571D01*
X16903714Y-13914143D01*
X16889428Y-13928429D01*
X16860857Y-13942714D01*
X16832286Y-13942714D01*
X16803714Y-13928429D01*
X16789428Y-13914143D01*
X16775143Y-13885571D01*
X16760857Y-13828429D01*
X16760857Y-13757000D01*
X16775143Y-13699857D01*
X16789428Y-13671286D01*
X16803714Y-13657000D01*
X16832286Y-13642714D01*
X17032286Y-13642714D02*
X17218000Y-13642714D01*
X17118000Y-13757000D01*
X17160857Y-13757000D01*
X17189428Y-13771286D01*
X17203714Y-13785571D01*
X17218000Y-13814143D01*
X17218000Y-13885571D01*
X17203714Y-13914143D01*
X17189428Y-13928429D01*
X17160857Y-13942714D01*
X17075143Y-13942714D01*
X17046571Y-13928429D01*
X17032286Y-13914143D01*
X17503714Y-13942714D02*
X17332286Y-13942714D01*
X17418000Y-13942714D02*
X17418000Y-13642714D01*
X17389428Y-13685571D01*
X17360857Y-13714143D01*
X17332286Y-13728429D01*
X17775143Y-13642714D02*
X17632286Y-13642714D01*
X17618000Y-13785571D01*
X17632286Y-13771286D01*
X17660857Y-13757000D01*
X17732286Y-13757000D01*
X17760857Y-13771286D01*
X17775143Y-13785571D01*
X17789428Y-13814143D01*
X17789428Y-13885571D01*
X17775143Y-13914143D01*
X17760857Y-13928429D01*
X17732286Y-13942714D01*
X17660857Y-13942714D01*
X17632286Y-13928429D01*
X17618000Y-13914143D01*
X17903714Y-13642714D02*
X17903714Y-13699857D01*
X18018000Y-13642714D02*
X18018000Y-13699857D01*
X18460857Y-14057000D02*
X18446571Y-14042714D01*
X18418000Y-13999857D01*
X18403714Y-13971286D01*
X18389428Y-13928429D01*
X18375143Y-13857000D01*
X18375143Y-13799857D01*
X18389428Y-13728429D01*
X18403714Y-13685571D01*
X18418000Y-13657000D01*
X18446571Y-13614143D01*
X18460857Y-13599857D01*
X18546571Y-13642714D02*
X18732286Y-13642714D01*
X18632286Y-13757000D01*
X18675143Y-13757000D01*
X18703714Y-13771286D01*
X18718000Y-13785571D01*
X18732286Y-13814143D01*
X18732286Y-13885571D01*
X18718000Y-13914143D01*
X18703714Y-13928429D01*
X18675143Y-13942714D01*
X18589428Y-13942714D01*
X18560857Y-13928429D01*
X18546571Y-13914143D01*
X19003714Y-13642714D02*
X18860857Y-13642714D01*
X18846571Y-13785571D01*
X18860857Y-13771286D01*
X18889428Y-13757000D01*
X18960857Y-13757000D01*
X18989428Y-13771286D01*
X19003714Y-13785571D01*
X19018000Y-13814143D01*
X19018000Y-13885571D01*
X19003714Y-13914143D01*
X18989428Y-13928429D01*
X18960857Y-13942714D01*
X18889428Y-13942714D01*
X18860857Y-13928429D01*
X18846571Y-13914143D01*
X19160857Y-13942714D02*
X19218000Y-13942714D01*
X19246571Y-13928429D01*
X19260857Y-13914143D01*
X19289428Y-13871286D01*
X19303714Y-13814143D01*
X19303714Y-13699857D01*
X19289428Y-13671286D01*
X19275143Y-13657000D01*
X19246571Y-13642714D01*
X19189428Y-13642714D01*
X19160857Y-13657000D01*
X19146571Y-13671286D01*
X19132286Y-13699857D01*
X19132286Y-13771286D01*
X19146571Y-13799857D01*
X19160857Y-13814143D01*
X19189428Y-13828429D01*
X19246571Y-13828429D01*
X19275143Y-13814143D01*
X19289428Y-13799857D01*
X19303714Y-13771286D01*
X19660857Y-13942714D02*
X19660857Y-13642714D01*
X19789428Y-13942714D02*
X19789428Y-13785571D01*
X19775143Y-13757000D01*
X19746571Y-13742714D01*
X19703714Y-13742714D01*
X19675143Y-13757000D01*
X19660857Y-13771286D01*
X19975143Y-13942714D02*
X19946571Y-13928429D01*
X19932286Y-13914143D01*
X19918000Y-13885571D01*
X19918000Y-13799857D01*
X19932286Y-13771286D01*
X19946571Y-13757000D01*
X19975143Y-13742714D01*
X20018000Y-13742714D01*
X20046571Y-13757000D01*
X20060857Y-13771286D01*
X20075143Y-13799857D01*
X20075143Y-13885571D01*
X20060857Y-13914143D01*
X20046571Y-13928429D01*
X20018000Y-13942714D01*
X19975143Y-13942714D01*
X20246571Y-13942714D02*
X20218000Y-13928429D01*
X20203714Y-13899857D01*
X20203714Y-13642714D01*
X20475143Y-13928429D02*
X20446571Y-13942714D01*
X20389428Y-13942714D01*
X20360857Y-13928429D01*
X20346571Y-13899857D01*
X20346571Y-13785571D01*
X20360857Y-13757000D01*
X20389428Y-13742714D01*
X20446571Y-13742714D01*
X20475143Y-13757000D01*
X20489428Y-13785571D01*
X20489428Y-13814143D01*
X20346571Y-13842714D01*
X20603714Y-13928429D02*
X20632286Y-13942714D01*
X20689428Y-13942714D01*
X20718000Y-13928429D01*
X20732286Y-13899857D01*
X20732286Y-13885571D01*
X20718000Y-13857000D01*
X20689428Y-13842714D01*
X20646571Y-13842714D01*
X20618000Y-13828429D01*
X20603714Y-13799857D01*
X20603714Y-13785571D01*
X20618000Y-13757000D01*
X20646571Y-13742714D01*
X20689428Y-13742714D01*
X20718000Y-13757000D01*
X20832286Y-14057000D02*
X20846571Y-14042714D01*
X20875143Y-13999857D01*
X20889428Y-13971286D01*
X20903714Y-13928429D01*
X20918000Y-13857000D01*
X20918000Y-13799857D01*
X20903714Y-13728429D01*
X20889428Y-13685571D01*
X20875143Y-13657000D01*
X20846571Y-13614143D01*
X20832286Y-13599857D01*
X13158000Y-14158000D02*
X13158000Y-14248000D01*
X13113000Y-14203000D02*
X13203000Y-14203000D01*
X13546571Y-14038714D02*
X13575143Y-14038714D01*
X13603714Y-14053000D01*
X13618000Y-14067286D01*
X13632286Y-14095857D01*
X13646571Y-14153000D01*
X13646571Y-14224429D01*
X13632286Y-14281571D01*
X13618000Y-14310143D01*
X13603714Y-14324429D01*
X13575143Y-14338714D01*
X13546571Y-14338714D01*
X13518000Y-14324429D01*
X13503714Y-14310143D01*
X13489428Y-14281571D01*
X13475143Y-14224429D01*
X13475143Y-14153000D01*
X13489428Y-14095857D01*
X13503714Y-14067286D01*
X13518000Y-14053000D01*
X13546571Y-14038714D01*
X13775143Y-14310143D02*
X13789428Y-14324429D01*
X13775143Y-14338714D01*
X13760857Y-14324429D01*
X13775143Y-14310143D01*
X13775143Y-14338714D01*
X13932286Y-14338714D02*
X13989428Y-14338714D01*
X14018000Y-14324429D01*
X14032286Y-14310143D01*
X14060857Y-14267286D01*
X14075143Y-14210143D01*
X14075143Y-14095857D01*
X14060857Y-14067286D01*
X14046571Y-14053000D01*
X14018000Y-14038714D01*
X13960857Y-14038714D01*
X13932286Y-14053000D01*
X13918000Y-14067286D01*
X13903714Y-14095857D01*
X13903714Y-14167286D01*
X13918000Y-14195857D01*
X13932286Y-14210143D01*
X13960857Y-14224429D01*
X14018000Y-14224429D01*
X14046571Y-14210143D01*
X14060857Y-14195857D01*
X14075143Y-14167286D01*
X14260857Y-14038714D02*
X14289428Y-14038714D01*
X14318000Y-14053000D01*
X14332286Y-14067286D01*
X14346571Y-14095857D01*
X14360857Y-14153000D01*
X14360857Y-14224429D01*
X14346571Y-14281571D01*
X14332286Y-14310143D01*
X14318000Y-14324429D01*
X14289428Y-14338714D01*
X14260857Y-14338714D01*
X14232286Y-14324429D01*
X14218000Y-14310143D01*
X14203714Y-14281571D01*
X14189428Y-14224429D01*
X14189428Y-14153000D01*
X14203714Y-14095857D01*
X14218000Y-14067286D01*
X14232286Y-14053000D01*
X14260857Y-14038714D01*
X14546571Y-14038714D02*
X14575143Y-14038714D01*
X14603714Y-14053000D01*
X14618000Y-14067286D01*
X14632286Y-14095857D01*
X14646571Y-14153000D01*
X14646571Y-14224429D01*
X14632286Y-14281571D01*
X14618000Y-14310143D01*
X14603714Y-14324429D01*
X14575143Y-14338714D01*
X14546571Y-14338714D01*
X14518000Y-14324429D01*
X14503714Y-14310143D01*
X14489428Y-14281571D01*
X14475143Y-14224429D01*
X14475143Y-14153000D01*
X14489428Y-14095857D01*
X14503714Y-14067286D01*
X14518000Y-14053000D01*
X14546571Y-14038714D01*
X14775143Y-14338714D02*
X14775143Y-14138714D01*
X14775143Y-14167286D02*
X14789428Y-14153000D01*
X14818000Y-14138714D01*
X14860857Y-14138714D01*
X14889428Y-14153000D01*
X14903714Y-14181571D01*
X14903714Y-14338714D01*
X14903714Y-14181571D02*
X14918000Y-14153000D01*
X14946571Y-14138714D01*
X14989428Y-14138714D01*
X15018000Y-14153000D01*
X15032286Y-14181571D01*
X15032286Y-14338714D01*
X15175143Y-14338714D02*
X15175143Y-14138714D01*
X15175143Y-14167286D02*
X15189428Y-14153000D01*
X15218000Y-14138714D01*
X15260857Y-14138714D01*
X15289428Y-14153000D01*
X15303714Y-14181571D01*
X15303714Y-14338714D01*
X15303714Y-14181571D02*
X15318000Y-14153000D01*
X15346571Y-14138714D01*
X15389428Y-14138714D01*
X15418000Y-14153000D01*
X15432286Y-14181571D01*
X15432286Y-14338714D01*
X16018000Y-14024429D02*
X15760857Y-14410143D01*
X16403714Y-14038714D02*
X16432286Y-14038714D01*
X16460857Y-14053000D01*
X16475143Y-14067286D01*
X16489428Y-14095857D01*
X16503714Y-14153000D01*
X16503714Y-14224429D01*
X16489428Y-14281571D01*
X16475143Y-14310143D01*
X16460857Y-14324429D01*
X16432286Y-14338714D01*
X16403714Y-14338714D01*
X16375143Y-14324429D01*
X16360857Y-14310143D01*
X16346571Y-14281571D01*
X16332286Y-14224429D01*
X16332286Y-14153000D01*
X16346571Y-14095857D01*
X16360857Y-14067286D01*
X16375143Y-14053000D01*
X16403714Y-14038714D01*
X16632286Y-14310143D02*
X16646571Y-14324429D01*
X16632286Y-14338714D01*
X16618000Y-14324429D01*
X16632286Y-14310143D01*
X16632286Y-14338714D01*
X16832286Y-14038714D02*
X16860857Y-14038714D01*
X16889428Y-14053000D01*
X16903714Y-14067286D01*
X16918000Y-14095857D01*
X16932286Y-14153000D01*
X16932286Y-14224429D01*
X16918000Y-14281571D01*
X16903714Y-14310143D01*
X16889428Y-14324429D01*
X16860857Y-14338714D01*
X16832286Y-14338714D01*
X16803714Y-14324429D01*
X16789428Y-14310143D01*
X16775143Y-14281571D01*
X16760857Y-14224429D01*
X16760857Y-14153000D01*
X16775143Y-14095857D01*
X16789428Y-14067286D01*
X16803714Y-14053000D01*
X16832286Y-14038714D01*
X17032286Y-14038714D02*
X17218000Y-14038714D01*
X17118000Y-14153000D01*
X17160857Y-14153000D01*
X17189428Y-14167286D01*
X17203714Y-14181571D01*
X17218000Y-14210143D01*
X17218000Y-14281571D01*
X17203714Y-14310143D01*
X17189428Y-14324429D01*
X17160857Y-14338714D01*
X17075143Y-14338714D01*
X17046571Y-14324429D01*
X17032286Y-14310143D01*
X17489428Y-14038714D02*
X17346571Y-14038714D01*
X17332286Y-14181571D01*
X17346571Y-14167286D01*
X17375143Y-14153000D01*
X17446571Y-14153000D01*
X17475143Y-14167286D01*
X17489428Y-14181571D01*
X17503714Y-14210143D01*
X17503714Y-14281571D01*
X17489428Y-14310143D01*
X17475143Y-14324429D01*
X17446571Y-14338714D01*
X17375143Y-14338714D01*
X17346571Y-14324429D01*
X17332286Y-14310143D01*
X17760857Y-14138714D02*
X17760857Y-14338714D01*
X17689428Y-14024429D02*
X17618000Y-14238714D01*
X17803714Y-14238714D01*
X17903714Y-14038714D02*
X17903714Y-14095857D01*
X18018000Y-14038714D02*
X18018000Y-14095857D01*
X18460857Y-14453000D02*
X18446571Y-14438714D01*
X18418000Y-14395857D01*
X18403714Y-14367286D01*
X18389428Y-14324429D01*
X18375143Y-14253000D01*
X18375143Y-14195857D01*
X18389428Y-14124429D01*
X18403714Y-14081571D01*
X18418000Y-14053000D01*
X18446571Y-14010143D01*
X18460857Y-13995857D01*
X18703714Y-14038714D02*
X18646571Y-14038714D01*
X18618000Y-14053000D01*
X18603714Y-14067286D01*
X18575143Y-14110143D01*
X18560857Y-14167286D01*
X18560857Y-14281571D01*
X18575143Y-14310143D01*
X18589428Y-14324429D01*
X18618000Y-14338714D01*
X18675143Y-14338714D01*
X18703714Y-14324429D01*
X18718000Y-14310143D01*
X18732286Y-14281571D01*
X18732286Y-14210143D01*
X18718000Y-14181571D01*
X18703714Y-14167286D01*
X18675143Y-14153000D01*
X18618000Y-14153000D01*
X18589428Y-14167286D01*
X18575143Y-14181571D01*
X18560857Y-14210143D01*
X19089428Y-14338714D02*
X19089428Y-14038714D01*
X19218000Y-14338714D02*
X19218000Y-14181571D01*
X19203714Y-14153000D01*
X19175143Y-14138714D01*
X19132286Y-14138714D01*
X19103714Y-14153000D01*
X19089428Y-14167286D01*
X19403714Y-14338714D02*
X19375143Y-14324429D01*
X19360857Y-14310143D01*
X19346571Y-14281571D01*
X19346571Y-14195857D01*
X19360857Y-14167286D01*
X19375143Y-14153000D01*
X19403714Y-14138714D01*
X19446571Y-14138714D01*
X19475143Y-14153000D01*
X19489428Y-14167286D01*
X19503714Y-14195857D01*
X19503714Y-14281571D01*
X19489428Y-14310143D01*
X19475143Y-14324429D01*
X19446571Y-14338714D01*
X19403714Y-14338714D01*
X19675143Y-14338714D02*
X19646571Y-14324429D01*
X19632286Y-14295857D01*
X19632286Y-14038714D01*
X19903714Y-14324429D02*
X19875143Y-14338714D01*
X19818000Y-14338714D01*
X19789428Y-14324429D01*
X19775143Y-14295857D01*
X19775143Y-14181571D01*
X19789428Y-14153000D01*
X19818000Y-14138714D01*
X19875143Y-14138714D01*
X19903714Y-14153000D01*
X19918000Y-14181571D01*
X19918000Y-14210143D01*
X19775143Y-14238714D01*
X20032286Y-14324429D02*
X20060857Y-14338714D01*
X20118000Y-14338714D01*
X20146571Y-14324429D01*
X20160857Y-14295857D01*
X20160857Y-14281571D01*
X20146571Y-14253000D01*
X20118000Y-14238714D01*
X20075143Y-14238714D01*
X20046571Y-14224429D01*
X20032286Y-14195857D01*
X20032286Y-14181571D01*
X20046571Y-14153000D01*
X20075143Y-14138714D01*
X20118000Y-14138714D01*
X20146571Y-14153000D01*
X20260857Y-14453000D02*
X20275143Y-14438714D01*
X20303714Y-14395857D01*
X20318000Y-14367286D01*
X20332286Y-14324429D01*
X20346571Y-14253000D01*
X20346571Y-14195857D01*
X20332286Y-14124429D01*
X20318000Y-14081571D01*
X20303714Y-14053000D01*
X20275143Y-14010143D01*
X20260857Y-13995857D01*
X13189527Y-14631527D02*
X13189527Y-14566473D01*
X13124473Y-14566473D01*
X13124473Y-14631527D01*
X13189527Y-14631527D01*
X13546571Y-14434714D02*
X13575143Y-14434714D01*
X13603714Y-14449000D01*
X13618000Y-14463286D01*
X13632286Y-14491857D01*
X13646571Y-14549000D01*
X13646571Y-14620429D01*
X13632286Y-14677571D01*
X13618000Y-14706143D01*
X13603714Y-14720429D01*
X13575143Y-14734714D01*
X13546571Y-14734714D01*
X13518000Y-14720429D01*
X13503714Y-14706143D01*
X13489428Y-14677571D01*
X13475143Y-14620429D01*
X13475143Y-14549000D01*
X13489428Y-14491857D01*
X13503714Y-14463286D01*
X13518000Y-14449000D01*
X13546571Y-14434714D01*
X13775143Y-14706143D02*
X13789428Y-14720429D01*
X13775143Y-14734714D01*
X13760857Y-14720429D01*
X13775143Y-14706143D01*
X13775143Y-14734714D01*
X13932286Y-14734714D02*
X13989428Y-14734714D01*
X14018000Y-14720429D01*
X14032286Y-14706143D01*
X14060857Y-14663286D01*
X14075143Y-14606143D01*
X14075143Y-14491857D01*
X14060857Y-14463286D01*
X14046571Y-14449000D01*
X14018000Y-14434714D01*
X13960857Y-14434714D01*
X13932286Y-14449000D01*
X13918000Y-14463286D01*
X13903714Y-14491857D01*
X13903714Y-14563286D01*
X13918000Y-14591857D01*
X13932286Y-14606143D01*
X13960857Y-14620429D01*
X14018000Y-14620429D01*
X14046571Y-14606143D01*
X14060857Y-14591857D01*
X14075143Y-14563286D01*
X14189428Y-14463286D02*
X14203714Y-14449000D01*
X14232286Y-14434714D01*
X14303714Y-14434714D01*
X14332286Y-14449000D01*
X14346571Y-14463286D01*
X14360857Y-14491857D01*
X14360857Y-14520429D01*
X14346571Y-14563286D01*
X14175143Y-14734714D01*
X14360857Y-14734714D01*
X14546571Y-14434714D02*
X14575143Y-14434714D01*
X14603714Y-14449000D01*
X14618000Y-14463286D01*
X14632286Y-14491857D01*
X14646571Y-14549000D01*
X14646571Y-14620429D01*
X14632286Y-14677571D01*
X14618000Y-14706143D01*
X14603714Y-14720429D01*
X14575143Y-14734714D01*
X14546571Y-14734714D01*
X14518000Y-14720429D01*
X14503714Y-14706143D01*
X14489428Y-14677571D01*
X14475143Y-14620429D01*
X14475143Y-14549000D01*
X14489428Y-14491857D01*
X14503714Y-14463286D01*
X14518000Y-14449000D01*
X14546571Y-14434714D01*
X14775143Y-14734714D02*
X14775143Y-14534714D01*
X14775143Y-14563286D02*
X14789428Y-14549000D01*
X14818000Y-14534714D01*
X14860857Y-14534714D01*
X14889428Y-14549000D01*
X14903714Y-14577571D01*
X14903714Y-14734714D01*
X14903714Y-14577571D02*
X14918000Y-14549000D01*
X14946571Y-14534714D01*
X14989428Y-14534714D01*
X15018000Y-14549000D01*
X15032286Y-14577571D01*
X15032286Y-14734714D01*
X15175143Y-14734714D02*
X15175143Y-14534714D01*
X15175143Y-14563286D02*
X15189428Y-14549000D01*
X15218000Y-14534714D01*
X15260857Y-14534714D01*
X15289428Y-14549000D01*
X15303714Y-14577571D01*
X15303714Y-14734714D01*
X15303714Y-14577571D02*
X15318000Y-14549000D01*
X15346571Y-14534714D01*
X15389428Y-14534714D01*
X15418000Y-14549000D01*
X15432286Y-14577571D01*
X15432286Y-14734714D01*
X16018000Y-14420429D02*
X15760857Y-14806143D01*
X16403714Y-14434714D02*
X16432286Y-14434714D01*
X16460857Y-14449000D01*
X16475143Y-14463286D01*
X16489428Y-14491857D01*
X16503714Y-14549000D01*
X16503714Y-14620429D01*
X16489428Y-14677571D01*
X16475143Y-14706143D01*
X16460857Y-14720429D01*
X16432286Y-14734714D01*
X16403714Y-14734714D01*
X16375143Y-14720429D01*
X16360857Y-14706143D01*
X16346571Y-14677571D01*
X16332286Y-14620429D01*
X16332286Y-14549000D01*
X16346571Y-14491857D01*
X16360857Y-14463286D01*
X16375143Y-14449000D01*
X16403714Y-14434714D01*
X16632286Y-14706143D02*
X16646571Y-14720429D01*
X16632286Y-14734714D01*
X16618000Y-14720429D01*
X16632286Y-14706143D01*
X16632286Y-14734714D01*
X16832286Y-14434714D02*
X16860857Y-14434714D01*
X16889428Y-14449000D01*
X16903714Y-14463286D01*
X16918000Y-14491857D01*
X16932286Y-14549000D01*
X16932286Y-14620429D01*
X16918000Y-14677571D01*
X16903714Y-14706143D01*
X16889428Y-14720429D01*
X16860857Y-14734714D01*
X16832286Y-14734714D01*
X16803714Y-14720429D01*
X16789428Y-14706143D01*
X16775143Y-14677571D01*
X16760857Y-14620429D01*
X16760857Y-14549000D01*
X16775143Y-14491857D01*
X16789428Y-14463286D01*
X16803714Y-14449000D01*
X16832286Y-14434714D01*
X17032286Y-14434714D02*
X17218000Y-14434714D01*
X17118000Y-14549000D01*
X17160857Y-14549000D01*
X17189428Y-14563286D01*
X17203714Y-14577571D01*
X17218000Y-14606143D01*
X17218000Y-14677571D01*
X17203714Y-14706143D01*
X17189428Y-14720429D01*
X17160857Y-14734714D01*
X17075143Y-14734714D01*
X17046571Y-14720429D01*
X17032286Y-14706143D01*
X17475143Y-14434714D02*
X17418000Y-14434714D01*
X17389428Y-14449000D01*
X17375143Y-14463286D01*
X17346571Y-14506143D01*
X17332286Y-14563286D01*
X17332286Y-14677571D01*
X17346571Y-14706143D01*
X17360857Y-14720429D01*
X17389428Y-14734714D01*
X17446571Y-14734714D01*
X17475143Y-14720429D01*
X17489428Y-14706143D01*
X17503714Y-14677571D01*
X17503714Y-14606143D01*
X17489428Y-14577571D01*
X17475143Y-14563286D01*
X17446571Y-14549000D01*
X17389428Y-14549000D01*
X17360857Y-14563286D01*
X17346571Y-14577571D01*
X17332286Y-14606143D01*
X17618000Y-14463286D02*
X17632286Y-14449000D01*
X17660857Y-14434714D01*
X17732286Y-14434714D01*
X17760857Y-14449000D01*
X17775143Y-14463286D01*
X17789428Y-14491857D01*
X17789428Y-14520429D01*
X17775143Y-14563286D01*
X17603714Y-14734714D01*
X17789428Y-14734714D01*
X17903714Y-14434714D02*
X17903714Y-14491857D01*
X18018000Y-14434714D02*
X18018000Y-14491857D01*
X18460857Y-14849000D02*
X18446571Y-14834714D01*
X18418000Y-14791857D01*
X18403714Y-14763286D01*
X18389428Y-14720429D01*
X18375143Y-14649000D01*
X18375143Y-14591857D01*
X18389428Y-14520429D01*
X18403714Y-14477571D01*
X18418000Y-14449000D01*
X18446571Y-14406143D01*
X18460857Y-14391857D01*
X18703714Y-14534714D02*
X18703714Y-14734714D01*
X18632286Y-14420429D02*
X18560857Y-14634714D01*
X18746571Y-14634714D01*
X19089428Y-14734714D02*
X19089428Y-14434714D01*
X19218000Y-14734714D02*
X19218000Y-14577571D01*
X19203714Y-14549000D01*
X19175143Y-14534714D01*
X19132286Y-14534714D01*
X19103714Y-14549000D01*
X19089428Y-14563286D01*
X19403714Y-14734714D02*
X19375143Y-14720429D01*
X19360857Y-14706143D01*
X19346571Y-14677571D01*
X19346571Y-14591857D01*
X19360857Y-14563286D01*
X19375143Y-14549000D01*
X19403714Y-14534714D01*
X19446571Y-14534714D01*
X19475143Y-14549000D01*
X19489428Y-14563286D01*
X19503714Y-14591857D01*
X19503714Y-14677571D01*
X19489428Y-14706143D01*
X19475143Y-14720429D01*
X19446571Y-14734714D01*
X19403714Y-14734714D01*
X19675143Y-14734714D02*
X19646571Y-14720429D01*
X19632286Y-14691857D01*
X19632286Y-14434714D01*
X19903714Y-14720429D02*
X19875143Y-14734714D01*
X19818000Y-14734714D01*
X19789428Y-14720429D01*
X19775143Y-14691857D01*
X19775143Y-14577571D01*
X19789428Y-14549000D01*
X19818000Y-14534714D01*
X19875143Y-14534714D01*
X19903714Y-14549000D01*
X19918000Y-14577571D01*
X19918000Y-14606143D01*
X19775143Y-14634714D01*
X20032286Y-14720429D02*
X20060857Y-14734714D01*
X20118000Y-14734714D01*
X20146571Y-14720429D01*
X20160857Y-14691857D01*
X20160857Y-14677571D01*
X20146571Y-14649000D01*
X20118000Y-14634714D01*
X20075143Y-14634714D01*
X20046571Y-14620429D01*
X20032286Y-14591857D01*
X20032286Y-14577571D01*
X20046571Y-14549000D01*
X20075143Y-14534714D01*
X20118000Y-14534714D01*
X20146571Y-14549000D01*
X20260857Y-14849000D02*
X20275143Y-14834714D01*
X20303714Y-14791857D01*
X20318000Y-14763286D01*
X20332286Y-14720429D01*
X20346571Y-14649000D01*
X20346571Y-14591857D01*
X20332286Y-14520429D01*
X20318000Y-14477571D01*
X20303714Y-14449000D01*
X20275143Y-14406143D01*
X20260857Y-14391857D01*
X13153000Y-15045000D02*
X13203000Y-14995000D01*
X13153000Y-14945000D01*
X13103000Y-14995000D01*
X13153000Y-15045000D01*
X13646571Y-15130714D02*
X13475143Y-15130714D01*
X13560857Y-15130714D02*
X13560857Y-14830714D01*
X13532286Y-14873571D01*
X13503714Y-14902143D01*
X13475143Y-14916429D01*
X13775143Y-15102143D02*
X13789428Y-15116429D01*
X13775143Y-15130714D01*
X13760857Y-15116429D01*
X13775143Y-15102143D01*
X13775143Y-15130714D01*
X13975143Y-14830714D02*
X14003714Y-14830714D01*
X14032286Y-14845000D01*
X14046571Y-14859286D01*
X14060857Y-14887857D01*
X14075143Y-14945000D01*
X14075143Y-15016429D01*
X14060857Y-15073571D01*
X14046571Y-15102143D01*
X14032286Y-15116429D01*
X14003714Y-15130714D01*
X13975143Y-15130714D01*
X13946571Y-15116429D01*
X13932286Y-15102143D01*
X13918000Y-15073571D01*
X13903714Y-15016429D01*
X13903714Y-14945000D01*
X13918000Y-14887857D01*
X13932286Y-14859286D01*
X13946571Y-14845000D01*
X13975143Y-14830714D01*
X14260857Y-14830714D02*
X14289428Y-14830714D01*
X14318000Y-14845000D01*
X14332286Y-14859286D01*
X14346571Y-14887857D01*
X14360857Y-14945000D01*
X14360857Y-15016429D01*
X14346571Y-15073571D01*
X14332286Y-15102143D01*
X14318000Y-15116429D01*
X14289428Y-15130714D01*
X14260857Y-15130714D01*
X14232286Y-15116429D01*
X14218000Y-15102143D01*
X14203714Y-15073571D01*
X14189428Y-15016429D01*
X14189428Y-14945000D01*
X14203714Y-14887857D01*
X14218000Y-14859286D01*
X14232286Y-14845000D01*
X14260857Y-14830714D01*
X14546571Y-14830714D02*
X14575143Y-14830714D01*
X14603714Y-14845000D01*
X14618000Y-14859286D01*
X14632286Y-14887857D01*
X14646571Y-14945000D01*
X14646571Y-15016429D01*
X14632286Y-15073571D01*
X14618000Y-15102143D01*
X14603714Y-15116429D01*
X14575143Y-15130714D01*
X14546571Y-15130714D01*
X14518000Y-15116429D01*
X14503714Y-15102143D01*
X14489428Y-15073571D01*
X14475143Y-15016429D01*
X14475143Y-14945000D01*
X14489428Y-14887857D01*
X14503714Y-14859286D01*
X14518000Y-14845000D01*
X14546571Y-14830714D01*
X14775143Y-15130714D02*
X14775143Y-14930714D01*
X14775143Y-14959286D02*
X14789428Y-14945000D01*
X14818000Y-14930714D01*
X14860857Y-14930714D01*
X14889428Y-14945000D01*
X14903714Y-14973571D01*
X14903714Y-15130714D01*
X14903714Y-14973571D02*
X14918000Y-14945000D01*
X14946571Y-14930714D01*
X14989428Y-14930714D01*
X15018000Y-14945000D01*
X15032286Y-14973571D01*
X15032286Y-15130714D01*
X15175143Y-15130714D02*
X15175143Y-14930714D01*
X15175143Y-14959286D02*
X15189428Y-14945000D01*
X15218000Y-14930714D01*
X15260857Y-14930714D01*
X15289428Y-14945000D01*
X15303714Y-14973571D01*
X15303714Y-15130714D01*
X15303714Y-14973571D02*
X15318000Y-14945000D01*
X15346571Y-14930714D01*
X15389428Y-14930714D01*
X15418000Y-14945000D01*
X15432286Y-14973571D01*
X15432286Y-15130714D01*
X16018000Y-14816429D02*
X15760857Y-15202143D01*
X16403714Y-14830714D02*
X16432286Y-14830714D01*
X16460857Y-14845000D01*
X16475143Y-14859286D01*
X16489428Y-14887857D01*
X16503714Y-14945000D01*
X16503714Y-15016429D01*
X16489428Y-15073571D01*
X16475143Y-15102143D01*
X16460857Y-15116429D01*
X16432286Y-15130714D01*
X16403714Y-15130714D01*
X16375143Y-15116429D01*
X16360857Y-15102143D01*
X16346571Y-15073571D01*
X16332286Y-15016429D01*
X16332286Y-14945000D01*
X16346571Y-14887857D01*
X16360857Y-14859286D01*
X16375143Y-14845000D01*
X16403714Y-14830714D01*
X16632286Y-15102143D02*
X16646571Y-15116429D01*
X16632286Y-15130714D01*
X16618000Y-15116429D01*
X16632286Y-15102143D01*
X16632286Y-15130714D01*
X16832286Y-14830714D02*
X16860857Y-14830714D01*
X16889428Y-14845000D01*
X16903714Y-14859286D01*
X16918000Y-14887857D01*
X16932286Y-14945000D01*
X16932286Y-15016429D01*
X16918000Y-15073571D01*
X16903714Y-15102143D01*
X16889428Y-15116429D01*
X16860857Y-15130714D01*
X16832286Y-15130714D01*
X16803714Y-15116429D01*
X16789428Y-15102143D01*
X16775143Y-15073571D01*
X16760857Y-15016429D01*
X16760857Y-14945000D01*
X16775143Y-14887857D01*
X16789428Y-14859286D01*
X16803714Y-14845000D01*
X16832286Y-14830714D01*
X17032286Y-14830714D02*
X17218000Y-14830714D01*
X17118000Y-14945000D01*
X17160857Y-14945000D01*
X17189428Y-14959286D01*
X17203714Y-14973571D01*
X17218000Y-15002143D01*
X17218000Y-15073571D01*
X17203714Y-15102143D01*
X17189428Y-15116429D01*
X17160857Y-15130714D01*
X17075143Y-15130714D01*
X17046571Y-15116429D01*
X17032286Y-15102143D01*
X17360857Y-15130714D02*
X17418000Y-15130714D01*
X17446571Y-15116429D01*
X17460857Y-15102143D01*
X17489428Y-15059286D01*
X17503714Y-15002143D01*
X17503714Y-14887857D01*
X17489428Y-14859286D01*
X17475143Y-14845000D01*
X17446571Y-14830714D01*
X17389428Y-14830714D01*
X17360857Y-14845000D01*
X17346571Y-14859286D01*
X17332286Y-14887857D01*
X17332286Y-14959286D01*
X17346571Y-14987857D01*
X17360857Y-15002143D01*
X17389428Y-15016429D01*
X17446571Y-15016429D01*
X17475143Y-15002143D01*
X17489428Y-14987857D01*
X17503714Y-14959286D01*
X17760857Y-14930714D02*
X17760857Y-15130714D01*
X17689428Y-14816429D02*
X17618000Y-15030714D01*
X17803714Y-15030714D01*
X17903714Y-14830714D02*
X17903714Y-14887857D01*
X18018000Y-14830714D02*
X18018000Y-14887857D01*
X18460857Y-15245000D02*
X18446571Y-15230714D01*
X18418000Y-15187857D01*
X18403714Y-15159286D01*
X18389428Y-15116429D01*
X18375143Y-15045000D01*
X18375143Y-14987857D01*
X18389428Y-14916429D01*
X18403714Y-14873571D01*
X18418000Y-14845000D01*
X18446571Y-14802143D01*
X18460857Y-14787857D01*
X18560857Y-14859286D02*
X18575143Y-14845000D01*
X18603714Y-14830714D01*
X18675143Y-14830714D01*
X18703714Y-14845000D01*
X18718000Y-14859286D01*
X18732286Y-14887857D01*
X18732286Y-14916429D01*
X18718000Y-14959286D01*
X18546571Y-15130714D01*
X18732286Y-15130714D01*
X18918000Y-14830714D02*
X18946571Y-14830714D01*
X18975143Y-14845000D01*
X18989428Y-14859286D01*
X19003714Y-14887857D01*
X19018000Y-14945000D01*
X19018000Y-15016429D01*
X19003714Y-15073571D01*
X18989428Y-15102143D01*
X18975143Y-15116429D01*
X18946571Y-15130714D01*
X18918000Y-15130714D01*
X18889428Y-15116429D01*
X18875143Y-15102143D01*
X18860857Y-15073571D01*
X18846571Y-15016429D01*
X18846571Y-14945000D01*
X18860857Y-14887857D01*
X18875143Y-14859286D01*
X18889428Y-14845000D01*
X18918000Y-14830714D01*
X19375143Y-15130714D02*
X19375143Y-14830714D01*
X19503714Y-15130714D02*
X19503714Y-14973571D01*
X19489428Y-14945000D01*
X19460857Y-14930714D01*
X19418000Y-14930714D01*
X19389428Y-14945000D01*
X19375143Y-14959286D01*
X19689428Y-15130714D02*
X19660857Y-15116429D01*
X19646571Y-15102143D01*
X19632286Y-15073571D01*
X19632286Y-14987857D01*
X19646571Y-14959286D01*
X19660857Y-14945000D01*
X19689428Y-14930714D01*
X19732286Y-14930714D01*
X19760857Y-14945000D01*
X19775143Y-14959286D01*
X19789428Y-14987857D01*
X19789428Y-15073571D01*
X19775143Y-15102143D01*
X19760857Y-15116429D01*
X19732286Y-15130714D01*
X19689428Y-15130714D01*
X19960857Y-15130714D02*
X19932286Y-15116429D01*
X19918000Y-15087857D01*
X19918000Y-14830714D01*
X20189428Y-15116429D02*
X20160857Y-15130714D01*
X20103714Y-15130714D01*
X20075143Y-15116429D01*
X20060857Y-15087857D01*
X20060857Y-14973571D01*
X20075143Y-14945000D01*
X20103714Y-14930714D01*
X20160857Y-14930714D01*
X20189428Y-14945000D01*
X20203714Y-14973571D01*
X20203714Y-15002143D01*
X20060857Y-15030714D01*
X20318000Y-15116429D02*
X20346571Y-15130714D01*
X20403714Y-15130714D01*
X20432286Y-15116429D01*
X20446571Y-15087857D01*
X20446571Y-15073571D01*
X20432286Y-15045000D01*
X20403714Y-15030714D01*
X20360857Y-15030714D01*
X20332286Y-15016429D01*
X20318000Y-14987857D01*
X20318000Y-14973571D01*
X20332286Y-14945000D01*
X20360857Y-14930714D01*
X20403714Y-14930714D01*
X20432286Y-14945000D01*
X20803714Y-15016429D02*
X21032286Y-15016429D01*
X20918000Y-15130714D02*
X20918000Y-14902143D01*
X21375143Y-14830714D02*
X21560857Y-14830714D01*
X21460857Y-14945000D01*
X21503714Y-14945000D01*
X21532286Y-14959286D01*
X21546571Y-14973571D01*
X21560857Y-15002143D01*
X21560857Y-15073571D01*
X21546571Y-15102143D01*
X21532286Y-15116429D01*
X21503714Y-15130714D01*
X21418000Y-15130714D01*
X21389428Y-15116429D01*
X21375143Y-15102143D01*
X21903714Y-15116429D02*
X21932286Y-15130714D01*
X21989428Y-15130714D01*
X22018000Y-15116429D01*
X22032286Y-15087857D01*
X22032286Y-15073571D01*
X22018000Y-15045000D01*
X21989428Y-15030714D01*
X21946571Y-15030714D01*
X21918000Y-15016429D01*
X21903714Y-14987857D01*
X21903714Y-14973571D01*
X21918000Y-14945000D01*
X21946571Y-14930714D01*
X21989428Y-14930714D01*
X22018000Y-14945000D01*
X22203714Y-15130714D02*
X22175143Y-15116429D01*
X22160857Y-15087857D01*
X22160857Y-14830714D01*
X22360857Y-15130714D02*
X22332286Y-15116429D01*
X22318000Y-15102143D01*
X22303714Y-15073571D01*
X22303714Y-14987857D01*
X22318000Y-14959286D01*
X22332286Y-14945000D01*
X22360857Y-14930714D01*
X22403714Y-14930714D01*
X22432286Y-14945000D01*
X22446571Y-14959286D01*
X22460857Y-14987857D01*
X22460857Y-15073571D01*
X22446571Y-15102143D01*
X22432286Y-15116429D01*
X22403714Y-15130714D01*
X22360857Y-15130714D01*
X22546571Y-14930714D02*
X22660857Y-14930714D01*
X22589428Y-14830714D02*
X22589428Y-15087857D01*
X22603714Y-15116429D01*
X22632286Y-15130714D01*
X22660857Y-15130714D01*
X22746571Y-15116429D02*
X22775143Y-15130714D01*
X22832286Y-15130714D01*
X22860857Y-15116429D01*
X22875143Y-15087857D01*
X22875143Y-15073571D01*
X22860857Y-15045000D01*
X22832286Y-15030714D01*
X22789428Y-15030714D01*
X22760857Y-15016429D01*
X22746571Y-14987857D01*
X22746571Y-14973571D01*
X22760857Y-14945000D01*
X22789428Y-14930714D01*
X22832286Y-14930714D01*
X22860857Y-14945000D01*
X22975143Y-15245000D02*
X22989428Y-15230714D01*
X23018000Y-15187857D01*
X23032286Y-15159286D01*
X23046571Y-15116429D01*
X23060857Y-15045000D01*
X23060857Y-14987857D01*
X23046571Y-14916429D01*
X23032286Y-14873571D01*
X23018000Y-14845000D01*
X22989428Y-14802143D01*
X22975143Y-14787857D01*
X13093000Y-15336000D02*
X13203000Y-15446000D01*
X13203000Y-15336000D02*
X13093000Y-15446000D01*
X13203000Y-15391000D02*
G75*
G03*
X13203000Y-15391000I-55000J0D01*
G01*
X13646571Y-15526714D02*
X13475143Y-15526714D01*
X13560857Y-15526714D02*
X13560857Y-15226714D01*
X13532286Y-15269571D01*
X13503714Y-15298143D01*
X13475143Y-15312429D01*
X13775143Y-15498143D02*
X13789428Y-15512429D01*
X13775143Y-15526714D01*
X13760857Y-15512429D01*
X13775143Y-15498143D01*
X13775143Y-15526714D01*
X14075143Y-15526714D02*
X13903714Y-15526714D01*
X13989428Y-15526714D02*
X13989428Y-15226714D01*
X13960857Y-15269571D01*
X13932286Y-15298143D01*
X13903714Y-15312429D01*
X14260857Y-15226714D02*
X14289428Y-15226714D01*
X14318000Y-15241000D01*
X14332286Y-15255286D01*
X14346571Y-15283857D01*
X14360857Y-15341000D01*
X14360857Y-15412429D01*
X14346571Y-15469571D01*
X14332286Y-15498143D01*
X14318000Y-15512429D01*
X14289428Y-15526714D01*
X14260857Y-15526714D01*
X14232286Y-15512429D01*
X14218000Y-15498143D01*
X14203714Y-15469571D01*
X14189428Y-15412429D01*
X14189428Y-15341000D01*
X14203714Y-15283857D01*
X14218000Y-15255286D01*
X14232286Y-15241000D01*
X14260857Y-15226714D01*
X14546571Y-15226714D02*
X14575143Y-15226714D01*
X14603714Y-15241000D01*
X14618000Y-15255286D01*
X14632286Y-15283857D01*
X14646571Y-15341000D01*
X14646571Y-15412429D01*
X14632286Y-15469571D01*
X14618000Y-15498143D01*
X14603714Y-15512429D01*
X14575143Y-15526714D01*
X14546571Y-15526714D01*
X14518000Y-15512429D01*
X14503714Y-15498143D01*
X14489428Y-15469571D01*
X14475143Y-15412429D01*
X14475143Y-15341000D01*
X14489428Y-15283857D01*
X14503714Y-15255286D01*
X14518000Y-15241000D01*
X14546571Y-15226714D01*
X14775143Y-15526714D02*
X14775143Y-15326714D01*
X14775143Y-15355286D02*
X14789428Y-15341000D01*
X14818000Y-15326714D01*
X14860857Y-15326714D01*
X14889428Y-15341000D01*
X14903714Y-15369571D01*
X14903714Y-15526714D01*
X14903714Y-15369571D02*
X14918000Y-15341000D01*
X14946571Y-15326714D01*
X14989428Y-15326714D01*
X15018000Y-15341000D01*
X15032286Y-15369571D01*
X15032286Y-15526714D01*
X15175143Y-15526714D02*
X15175143Y-15326714D01*
X15175143Y-15355286D02*
X15189428Y-15341000D01*
X15218000Y-15326714D01*
X15260857Y-15326714D01*
X15289428Y-15341000D01*
X15303714Y-15369571D01*
X15303714Y-15526714D01*
X15303714Y-15369571D02*
X15318000Y-15341000D01*
X15346571Y-15326714D01*
X15389428Y-15326714D01*
X15418000Y-15341000D01*
X15432286Y-15369571D01*
X15432286Y-15526714D01*
X16018000Y-15212429D02*
X15760857Y-15598143D01*
X16403714Y-15226714D02*
X16432286Y-15226714D01*
X16460857Y-15241000D01*
X16475143Y-15255286D01*
X16489428Y-15283857D01*
X16503714Y-15341000D01*
X16503714Y-15412429D01*
X16489428Y-15469571D01*
X16475143Y-15498143D01*
X16460857Y-15512429D01*
X16432286Y-15526714D01*
X16403714Y-15526714D01*
X16375143Y-15512429D01*
X16360857Y-15498143D01*
X16346571Y-15469571D01*
X16332286Y-15412429D01*
X16332286Y-15341000D01*
X16346571Y-15283857D01*
X16360857Y-15255286D01*
X16375143Y-15241000D01*
X16403714Y-15226714D01*
X16632286Y-15498143D02*
X16646571Y-15512429D01*
X16632286Y-15526714D01*
X16618000Y-15512429D01*
X16632286Y-15498143D01*
X16632286Y-15526714D01*
X16832286Y-15226714D02*
X16860857Y-15226714D01*
X16889428Y-15241000D01*
X16903714Y-15255286D01*
X16918000Y-15283857D01*
X16932286Y-15341000D01*
X16932286Y-15412429D01*
X16918000Y-15469571D01*
X16903714Y-15498143D01*
X16889428Y-15512429D01*
X16860857Y-15526714D01*
X16832286Y-15526714D01*
X16803714Y-15512429D01*
X16789428Y-15498143D01*
X16775143Y-15469571D01*
X16760857Y-15412429D01*
X16760857Y-15341000D01*
X16775143Y-15283857D01*
X16789428Y-15255286D01*
X16803714Y-15241000D01*
X16832286Y-15226714D01*
X17189428Y-15326714D02*
X17189428Y-15526714D01*
X17118000Y-15212429D02*
X17046571Y-15426714D01*
X17232286Y-15426714D01*
X17318000Y-15226714D02*
X17503714Y-15226714D01*
X17403714Y-15341000D01*
X17446571Y-15341000D01*
X17475143Y-15355286D01*
X17489428Y-15369571D01*
X17503714Y-15398143D01*
X17503714Y-15469571D01*
X17489428Y-15498143D01*
X17475143Y-15512429D01*
X17446571Y-15526714D01*
X17360857Y-15526714D01*
X17332286Y-15512429D01*
X17318000Y-15498143D01*
X17603714Y-15226714D02*
X17789428Y-15226714D01*
X17689428Y-15341000D01*
X17732286Y-15341000D01*
X17760857Y-15355286D01*
X17775143Y-15369571D01*
X17789428Y-15398143D01*
X17789428Y-15469571D01*
X17775143Y-15498143D01*
X17760857Y-15512429D01*
X17732286Y-15526714D01*
X17646571Y-15526714D01*
X17618000Y-15512429D01*
X17603714Y-15498143D01*
X17903714Y-15226714D02*
X17903714Y-15283857D01*
X18018000Y-15226714D02*
X18018000Y-15283857D01*
X18460857Y-15641000D02*
X18446571Y-15626714D01*
X18418000Y-15583857D01*
X18403714Y-15555286D01*
X18389428Y-15512429D01*
X18375143Y-15441000D01*
X18375143Y-15383857D01*
X18389428Y-15312429D01*
X18403714Y-15269571D01*
X18418000Y-15241000D01*
X18446571Y-15198143D01*
X18460857Y-15183857D01*
X18732286Y-15526714D02*
X18560857Y-15526714D01*
X18646571Y-15526714D02*
X18646571Y-15226714D01*
X18618000Y-15269571D01*
X18589428Y-15298143D01*
X18560857Y-15312429D01*
X18846571Y-15255286D02*
X18860857Y-15241000D01*
X18889428Y-15226714D01*
X18960857Y-15226714D01*
X18989428Y-15241000D01*
X19003714Y-15255286D01*
X19018000Y-15283857D01*
X19018000Y-15312429D01*
X19003714Y-15355286D01*
X18832286Y-15526714D01*
X19018000Y-15526714D01*
X19375143Y-15526714D02*
X19375143Y-15226714D01*
X19503714Y-15526714D02*
X19503714Y-15369571D01*
X19489428Y-15341000D01*
X19460857Y-15326714D01*
X19418000Y-15326714D01*
X19389428Y-15341000D01*
X19375143Y-15355286D01*
X19689428Y-15526714D02*
X19660857Y-15512429D01*
X19646571Y-15498143D01*
X19632286Y-15469571D01*
X19632286Y-15383857D01*
X19646571Y-15355286D01*
X19660857Y-15341000D01*
X19689428Y-15326714D01*
X19732286Y-15326714D01*
X19760857Y-15341000D01*
X19775143Y-15355286D01*
X19789428Y-15383857D01*
X19789428Y-15469571D01*
X19775143Y-15498143D01*
X19760857Y-15512429D01*
X19732286Y-15526714D01*
X19689428Y-15526714D01*
X19960857Y-15526714D02*
X19932286Y-15512429D01*
X19918000Y-15483857D01*
X19918000Y-15226714D01*
X20189428Y-15512429D02*
X20160857Y-15526714D01*
X20103714Y-15526714D01*
X20075143Y-15512429D01*
X20060857Y-15483857D01*
X20060857Y-15369571D01*
X20075143Y-15341000D01*
X20103714Y-15326714D01*
X20160857Y-15326714D01*
X20189428Y-15341000D01*
X20203714Y-15369571D01*
X20203714Y-15398143D01*
X20060857Y-15426714D01*
X20318000Y-15512429D02*
X20346571Y-15526714D01*
X20403714Y-15526714D01*
X20432286Y-15512429D01*
X20446571Y-15483857D01*
X20446571Y-15469571D01*
X20432286Y-15441000D01*
X20403714Y-15426714D01*
X20360857Y-15426714D01*
X20332286Y-15412429D01*
X20318000Y-15383857D01*
X20318000Y-15369571D01*
X20332286Y-15341000D01*
X20360857Y-15326714D01*
X20403714Y-15326714D01*
X20432286Y-15341000D01*
X20546571Y-15641000D02*
X20560857Y-15626714D01*
X20589428Y-15583857D01*
X20603714Y-15555286D01*
X20618000Y-15512429D01*
X20632286Y-15441000D01*
X20632286Y-15383857D01*
X20618000Y-15312429D01*
X20603714Y-15269571D01*
X20589428Y-15241000D01*
X20560857Y-15198143D01*
X20546571Y-15183857D01*
X12970000Y-15670500D02*
X13203000Y-15903500D01*
X13203000Y-15670500D02*
X12970000Y-15903500D01*
X13086500Y-15670500D02*
X13086500Y-15903500D01*
X12970000Y-15787000D02*
X13203000Y-15787000D01*
X13475143Y-15651286D02*
X13489428Y-15637000D01*
X13518000Y-15622714D01*
X13589428Y-15622714D01*
X13618000Y-15637000D01*
X13632286Y-15651286D01*
X13646571Y-15679857D01*
X13646571Y-15708429D01*
X13632286Y-15751286D01*
X13460857Y-15922714D01*
X13646571Y-15922714D01*
X13775143Y-15894143D02*
X13789428Y-15908429D01*
X13775143Y-15922714D01*
X13760857Y-15908429D01*
X13775143Y-15894143D01*
X13775143Y-15922714D01*
X13889428Y-15622714D02*
X14075143Y-15622714D01*
X13975143Y-15737000D01*
X14018000Y-15737000D01*
X14046571Y-15751286D01*
X14060857Y-15765571D01*
X14075143Y-15794143D01*
X14075143Y-15865571D01*
X14060857Y-15894143D01*
X14046571Y-15908429D01*
X14018000Y-15922714D01*
X13932286Y-15922714D01*
X13903714Y-15908429D01*
X13889428Y-15894143D01*
X14175143Y-15622714D02*
X14360857Y-15622714D01*
X14260857Y-15737000D01*
X14303714Y-15737000D01*
X14332286Y-15751286D01*
X14346571Y-15765571D01*
X14360857Y-15794143D01*
X14360857Y-15865571D01*
X14346571Y-15894143D01*
X14332286Y-15908429D01*
X14303714Y-15922714D01*
X14218000Y-15922714D01*
X14189428Y-15908429D01*
X14175143Y-15894143D01*
X14546571Y-15622714D02*
X14575143Y-15622714D01*
X14603714Y-15637000D01*
X14618000Y-15651286D01*
X14632286Y-15679857D01*
X14646571Y-15737000D01*
X14646571Y-15808429D01*
X14632286Y-15865571D01*
X14618000Y-15894143D01*
X14603714Y-15908429D01*
X14575143Y-15922714D01*
X14546571Y-15922714D01*
X14518000Y-15908429D01*
X14503714Y-15894143D01*
X14489428Y-15865571D01*
X14475143Y-15808429D01*
X14475143Y-15737000D01*
X14489428Y-15679857D01*
X14503714Y-15651286D01*
X14518000Y-15637000D01*
X14546571Y-15622714D01*
X14775143Y-15922714D02*
X14775143Y-15722714D01*
X14775143Y-15751286D02*
X14789428Y-15737000D01*
X14818000Y-15722714D01*
X14860857Y-15722714D01*
X14889428Y-15737000D01*
X14903714Y-15765571D01*
X14903714Y-15922714D01*
X14903714Y-15765571D02*
X14918000Y-15737000D01*
X14946571Y-15722714D01*
X14989428Y-15722714D01*
X15018000Y-15737000D01*
X15032286Y-15765571D01*
X15032286Y-15922714D01*
X15175143Y-15922714D02*
X15175143Y-15722714D01*
X15175143Y-15751286D02*
X15189428Y-15737000D01*
X15218000Y-15722714D01*
X15260857Y-15722714D01*
X15289428Y-15737000D01*
X15303714Y-15765571D01*
X15303714Y-15922714D01*
X15303714Y-15765571D02*
X15318000Y-15737000D01*
X15346571Y-15722714D01*
X15389428Y-15722714D01*
X15418000Y-15737000D01*
X15432286Y-15765571D01*
X15432286Y-15922714D01*
X16018000Y-15608429D02*
X15760857Y-15994143D01*
X16403714Y-15622714D02*
X16432286Y-15622714D01*
X16460857Y-15637000D01*
X16475143Y-15651286D01*
X16489428Y-15679857D01*
X16503714Y-15737000D01*
X16503714Y-15808429D01*
X16489428Y-15865571D01*
X16475143Y-15894143D01*
X16460857Y-15908429D01*
X16432286Y-15922714D01*
X16403714Y-15922714D01*
X16375143Y-15908429D01*
X16360857Y-15894143D01*
X16346571Y-15865571D01*
X16332286Y-15808429D01*
X16332286Y-15737000D01*
X16346571Y-15679857D01*
X16360857Y-15651286D01*
X16375143Y-15637000D01*
X16403714Y-15622714D01*
X16632286Y-15894143D02*
X16646571Y-15908429D01*
X16632286Y-15922714D01*
X16618000Y-15908429D01*
X16632286Y-15894143D01*
X16632286Y-15922714D01*
X16832286Y-15622714D02*
X16860857Y-15622714D01*
X16889428Y-15637000D01*
X16903714Y-15651286D01*
X16918000Y-15679857D01*
X16932286Y-15737000D01*
X16932286Y-15808429D01*
X16918000Y-15865571D01*
X16903714Y-15894143D01*
X16889428Y-15908429D01*
X16860857Y-15922714D01*
X16832286Y-15922714D01*
X16803714Y-15908429D01*
X16789428Y-15894143D01*
X16775143Y-15865571D01*
X16760857Y-15808429D01*
X16760857Y-15737000D01*
X16775143Y-15679857D01*
X16789428Y-15651286D01*
X16803714Y-15637000D01*
X16832286Y-15622714D01*
X17075143Y-15922714D02*
X17132286Y-15922714D01*
X17160857Y-15908429D01*
X17175143Y-15894143D01*
X17203714Y-15851286D01*
X17218000Y-15794143D01*
X17218000Y-15679857D01*
X17203714Y-15651286D01*
X17189428Y-15637000D01*
X17160857Y-15622714D01*
X17103714Y-15622714D01*
X17075143Y-15637000D01*
X17060857Y-15651286D01*
X17046571Y-15679857D01*
X17046571Y-15751286D01*
X17060857Y-15779857D01*
X17075143Y-15794143D01*
X17103714Y-15808429D01*
X17160857Y-15808429D01*
X17189428Y-15794143D01*
X17203714Y-15779857D01*
X17218000Y-15751286D01*
X17503714Y-15922714D02*
X17332286Y-15922714D01*
X17418000Y-15922714D02*
X17418000Y-15622714D01*
X17389428Y-15665571D01*
X17360857Y-15694143D01*
X17332286Y-15708429D01*
X17603714Y-15622714D02*
X17803714Y-15622714D01*
X17675143Y-15922714D01*
X17903714Y-15622714D02*
X17903714Y-15679857D01*
X18018000Y-15622714D02*
X18018000Y-15679857D01*
X18460857Y-16037000D02*
X18446571Y-16022714D01*
X18418000Y-15979857D01*
X18403714Y-15951286D01*
X18389428Y-15908429D01*
X18375143Y-15837000D01*
X18375143Y-15779857D01*
X18389428Y-15708429D01*
X18403714Y-15665571D01*
X18418000Y-15637000D01*
X18446571Y-15594143D01*
X18460857Y-15579857D01*
X18560857Y-15651286D02*
X18575143Y-15637000D01*
X18603714Y-15622714D01*
X18675143Y-15622714D01*
X18703714Y-15637000D01*
X18718000Y-15651286D01*
X18732286Y-15679857D01*
X18732286Y-15708429D01*
X18718000Y-15751286D01*
X18546571Y-15922714D01*
X18732286Y-15922714D01*
X19089428Y-15922714D02*
X19089428Y-15622714D01*
X19218000Y-15922714D02*
X19218000Y-15765571D01*
X19203714Y-15737000D01*
X19175143Y-15722714D01*
X19132286Y-15722714D01*
X19103714Y-15737000D01*
X19089428Y-15751286D01*
X19403714Y-15922714D02*
X19375143Y-15908429D01*
X19360857Y-15894143D01*
X19346571Y-15865571D01*
X19346571Y-15779857D01*
X19360857Y-15751286D01*
X19375143Y-15737000D01*
X19403714Y-15722714D01*
X19446571Y-15722714D01*
X19475143Y-15737000D01*
X19489428Y-15751286D01*
X19503714Y-15779857D01*
X19503714Y-15865571D01*
X19489428Y-15894143D01*
X19475143Y-15908429D01*
X19446571Y-15922714D01*
X19403714Y-15922714D01*
X19675143Y-15922714D02*
X19646571Y-15908429D01*
X19632286Y-15879857D01*
X19632286Y-15622714D01*
X19903714Y-15908429D02*
X19875143Y-15922714D01*
X19818000Y-15922714D01*
X19789428Y-15908429D01*
X19775143Y-15879857D01*
X19775143Y-15765571D01*
X19789428Y-15737000D01*
X19818000Y-15722714D01*
X19875143Y-15722714D01*
X19903714Y-15737000D01*
X19918000Y-15765571D01*
X19918000Y-15794143D01*
X19775143Y-15822714D01*
X20032286Y-15908429D02*
X20060857Y-15922714D01*
X20118000Y-15922714D01*
X20146571Y-15908429D01*
X20160857Y-15879857D01*
X20160857Y-15865571D01*
X20146571Y-15837000D01*
X20118000Y-15822714D01*
X20075143Y-15822714D01*
X20046571Y-15808429D01*
X20032286Y-15779857D01*
X20032286Y-15765571D01*
X20046571Y-15737000D01*
X20075143Y-15722714D01*
X20118000Y-15722714D01*
X20146571Y-15737000D01*
X20260857Y-16037000D02*
X20275143Y-16022714D01*
X20303714Y-15979857D01*
X20318000Y-15951286D01*
X20332286Y-15908429D01*
X20346571Y-15837000D01*
X20346571Y-15779857D01*
X20332286Y-15708429D01*
X20318000Y-15665571D01*
X20303714Y-15637000D01*
X20275143Y-15594143D01*
X20260857Y-15579857D01*
M02*
