G04 #@! TF.GenerationSoftware,KiCad,Pcbnew,(5.1.10)-1*
G04 #@! TF.CreationDate,2021-12-01T19:10:52-06:00*
G04 #@! TF.ProjectId,68k8,36386b38-2e6b-4696-9361-645f70636258,rev?*
G04 #@! TF.SameCoordinates,Original*
G04 #@! TF.FileFunction,Legend,Bot*
G04 #@! TF.FilePolarity,Positive*
%FSLAX46Y46*%
G04 Gerber Fmt 4.6, Leading zero omitted, Abs format (unit mm)*
G04 Created by KiCad (PCBNEW (5.1.10)-1) date 2021-12-01 19:10:52*
%MOMM*%
%LPD*%
G01*
G04 APERTURE LIST*
%ADD10C,1.600000*%
%ADD11R,2.400000X1.600000*%
%ADD12O,2.400000X1.600000*%
%ADD13C,1.800000*%
%ADD14R,1.800000X1.800000*%
%ADD15C,4.000000*%
%ADD16R,1.600000X1.600000*%
%ADD17R,3.500000X3.500000*%
%ADD18R,1.700000X1.700000*%
%ADD19O,1.700000X1.700000*%
%ADD20C,1.700000*%
%ADD21C,3.500000*%
%ADD22O,1.600000X1.600000*%
%ADD23C,2.000000*%
%ADD24O,3.500000X3.500000*%
%ADD25R,1.905000X2.000000*%
%ADD26O,1.905000X2.000000*%
%ADD27R,1.600000X2.400000*%
%ADD28O,1.600000X2.400000*%
%ADD29C,1.500000*%
G04 APERTURE END LIST*
%LPC*%
D10*
X233680000Y-21590000D03*
X236180000Y-21590000D03*
D11*
X220805000Y-28245000D03*
D12*
X236045000Y-66345000D03*
X220805000Y-30785000D03*
X236045000Y-63805000D03*
X220805000Y-33325000D03*
X236045000Y-61265000D03*
X220805000Y-35865000D03*
X236045000Y-58725000D03*
X220805000Y-38405000D03*
X236045000Y-56185000D03*
X220805000Y-40945000D03*
X236045000Y-53645000D03*
X220805000Y-43485000D03*
X236045000Y-51105000D03*
X220805000Y-46025000D03*
X236045000Y-48565000D03*
X220805000Y-48565000D03*
X236045000Y-46025000D03*
X220805000Y-51105000D03*
X236045000Y-43485000D03*
X220805000Y-53645000D03*
X236045000Y-40945000D03*
X220805000Y-56185000D03*
X236045000Y-38405000D03*
X220805000Y-58725000D03*
X236045000Y-35865000D03*
X220805000Y-61265000D03*
X236045000Y-33325000D03*
X220805000Y-63805000D03*
X236045000Y-30785000D03*
X220805000Y-66345000D03*
X236045000Y-28245000D03*
D13*
X150310000Y-15240000D03*
D14*
X152850000Y-15240000D03*
D13*
X156210000Y-15240000D03*
D14*
X158750000Y-15240000D03*
D15*
X139700000Y-17780000D03*
X139700000Y-115570000D03*
X284480000Y-115570000D03*
X284480000Y-17780000D03*
D12*
X193040000Y-27940000D03*
X177800000Y-86360000D03*
X193040000Y-30480000D03*
X177800000Y-83820000D03*
X193040000Y-33020000D03*
X177800000Y-81280000D03*
X193040000Y-35560000D03*
X177800000Y-78740000D03*
X193040000Y-38100000D03*
X177800000Y-76200000D03*
X193040000Y-40640000D03*
X177800000Y-73660000D03*
X193040000Y-43180000D03*
X177800000Y-71120000D03*
X193040000Y-45720000D03*
X177800000Y-68580000D03*
X193040000Y-48260000D03*
X177800000Y-66040000D03*
X193040000Y-50800000D03*
X177800000Y-63500000D03*
X193040000Y-53340000D03*
X177800000Y-60960000D03*
X193040000Y-55880000D03*
X177800000Y-58420000D03*
X193040000Y-58420000D03*
X177800000Y-55880000D03*
X193040000Y-60960000D03*
X177800000Y-53340000D03*
X193040000Y-63500000D03*
X177800000Y-50800000D03*
X193040000Y-66040000D03*
X177800000Y-48260000D03*
X193040000Y-68580000D03*
X177800000Y-45720000D03*
X193040000Y-71120000D03*
X177800000Y-43180000D03*
X193040000Y-73660000D03*
X177800000Y-40640000D03*
X193040000Y-76200000D03*
X177800000Y-38100000D03*
X193040000Y-78740000D03*
X177800000Y-35560000D03*
X193040000Y-81280000D03*
X177800000Y-33020000D03*
X193040000Y-83820000D03*
X177800000Y-30480000D03*
X193040000Y-86360000D03*
D11*
X177800000Y-27940000D03*
D10*
X158750000Y-85090000D03*
X161250000Y-85090000D03*
X141010000Y-85090000D03*
X143510000Y-85090000D03*
X175300000Y-115570000D03*
D16*
X177800000Y-115570000D03*
X200620000Y-102870000D03*
D10*
X198120000Y-102870000D03*
X175260000Y-102870000D03*
D16*
X177760000Y-102870000D03*
X221020000Y-102870000D03*
D10*
X223520000Y-102870000D03*
X243840000Y-88940000D03*
X243840000Y-91440000D03*
X168910000Y-58460000D03*
X168910000Y-60960000D03*
X168910000Y-104140000D03*
X168910000Y-101640000D03*
X208320000Y-57150000D03*
X210820000Y-57150000D03*
X219710000Y-90170000D03*
X217210000Y-90170000D03*
X279400000Y-104140000D03*
X279400000Y-101640000D03*
X270550000Y-95250000D03*
X273050000Y-95250000D03*
X267970000Y-95250000D03*
X265470000Y-95250000D03*
X259080000Y-114260000D03*
X259080000Y-111760000D03*
X256540000Y-21590000D03*
X254040000Y-21590000D03*
X287020000Y-27940000D03*
X287020000Y-30440000D03*
X168910000Y-21590000D03*
X166410000Y-21590000D03*
X229870000Y-100330000D03*
X229870000Y-102830000D03*
X265430000Y-74930000D03*
X265430000Y-77430000D03*
X243840000Y-71160000D03*
X243840000Y-73660000D03*
X210820000Y-21590000D03*
X208320000Y-21590000D03*
D16*
X219710000Y-83820000D03*
D10*
X219710000Y-76200000D03*
X234950000Y-76200000D03*
X234950000Y-83820000D03*
D17*
X209550000Y-110490000D03*
G36*
G01*
X210550000Y-117990000D02*
X208550000Y-117990000D01*
G75*
G02*
X207800000Y-117240000I0J750000D01*
G01*
X207800000Y-115740000D01*
G75*
G02*
X208550000Y-114990000I750000J0D01*
G01*
X210550000Y-114990000D01*
G75*
G02*
X211300000Y-115740000I0J-750000D01*
G01*
X211300000Y-117240000D01*
G75*
G02*
X210550000Y-117990000I-750000J0D01*
G01*
G37*
G36*
G01*
X215125000Y-115240000D02*
X213375000Y-115240000D01*
G75*
G02*
X212500000Y-114365000I0J875000D01*
G01*
X212500000Y-112615000D01*
G75*
G02*
X213375000Y-111740000I875000J0D01*
G01*
X215125000Y-111740000D01*
G75*
G02*
X216000000Y-112615000I0J-875000D01*
G01*
X216000000Y-114365000D01*
G75*
G02*
X215125000Y-115240000I-875000J0D01*
G01*
G37*
D18*
X175260000Y-21590000D03*
D19*
X177800000Y-21590000D03*
D18*
X228600000Y-116840000D03*
D19*
X226060000Y-116840000D03*
X223520000Y-116840000D03*
D18*
X246340000Y-109590000D03*
D20*
X243840000Y-109590000D03*
X243840000Y-111590000D03*
X246340000Y-111590000D03*
D21*
X251110000Y-114300000D03*
X239070000Y-114300000D03*
D18*
X161290000Y-21590000D03*
D19*
X158750000Y-21590000D03*
X156210000Y-21590000D03*
X153670000Y-21590000D03*
X151130000Y-21590000D03*
X148590000Y-21590000D03*
X146050000Y-21590000D03*
D18*
X271018000Y-76200000D03*
D19*
X271018000Y-73660000D03*
X273558000Y-76200000D03*
X273558000Y-73660000D03*
X276098000Y-76200000D03*
X276098000Y-73660000D03*
X278638000Y-76200000D03*
X278638000Y-73660000D03*
D16*
X168910000Y-53340000D03*
D22*
X168910000Y-50800000D03*
X168910000Y-48260000D03*
X168910000Y-45720000D03*
X168910000Y-43180000D03*
X168910000Y-40640000D03*
X168910000Y-38100000D03*
X168910000Y-35560000D03*
X168910000Y-33020000D03*
X168910000Y-30480000D03*
X168910000Y-27940000D03*
X259080000Y-91440000D03*
X259080000Y-93980000D03*
X259080000Y-96520000D03*
X259080000Y-99060000D03*
D16*
X259080000Y-101600000D03*
X168910000Y-76200000D03*
D22*
X168910000Y-73660000D03*
X168910000Y-71120000D03*
X168910000Y-68580000D03*
X168910000Y-66040000D03*
D16*
X147320000Y-109220000D03*
D22*
X147320000Y-111760000D03*
X147320000Y-114300000D03*
X147320000Y-116840000D03*
X147320000Y-119380000D03*
X147320000Y-121920000D03*
D23*
X271930000Y-112340000D03*
X271930000Y-116840000D03*
X265430000Y-112340000D03*
X265430000Y-116840000D03*
D24*
X187960000Y-99060000D03*
D25*
X185420000Y-115720000D03*
D26*
X187960000Y-115720000D03*
X190500000Y-115720000D03*
D25*
X208280000Y-102870000D03*
D26*
X210820000Y-102870000D03*
X213360000Y-102870000D03*
D22*
X162560000Y-104140000D03*
X147320000Y-96520000D03*
X160020000Y-104140000D03*
X149860000Y-96520000D03*
X157480000Y-104140000D03*
X152400000Y-96520000D03*
X154940000Y-104140000D03*
X154940000Y-96520000D03*
X152400000Y-104140000D03*
X157480000Y-96520000D03*
X149860000Y-104140000D03*
X160020000Y-96520000D03*
X147320000Y-104140000D03*
D16*
X162560000Y-96520000D03*
D11*
X203200000Y-63500000D03*
D12*
X210820000Y-86360000D03*
X203200000Y-66040000D03*
X210820000Y-83820000D03*
X203200000Y-68580000D03*
X210820000Y-81280000D03*
X203200000Y-71120000D03*
X210820000Y-78740000D03*
X203200000Y-73660000D03*
X210820000Y-76200000D03*
X203200000Y-76200000D03*
X210820000Y-73660000D03*
X203200000Y-78740000D03*
X210820000Y-71120000D03*
X203200000Y-81280000D03*
X210820000Y-68580000D03*
X203200000Y-83820000D03*
X210820000Y-66040000D03*
X203200000Y-86360000D03*
X210820000Y-63500000D03*
D27*
X265430000Y-106680000D03*
D28*
X273050000Y-99060000D03*
X267970000Y-106680000D03*
X270510000Y-99060000D03*
X270510000Y-106680000D03*
X267970000Y-99060000D03*
X273050000Y-106680000D03*
X265430000Y-99060000D03*
D12*
X256540000Y-28245000D03*
X241300000Y-66345000D03*
X256540000Y-30785000D03*
X241300000Y-63805000D03*
X256540000Y-33325000D03*
X241300000Y-61265000D03*
X256540000Y-35865000D03*
X241300000Y-58725000D03*
X256540000Y-38405000D03*
X241300000Y-56185000D03*
X256540000Y-40945000D03*
X241300000Y-53645000D03*
X256540000Y-43485000D03*
X241300000Y-51105000D03*
X256540000Y-46025000D03*
X241300000Y-48565000D03*
X256540000Y-48565000D03*
X241300000Y-46025000D03*
X256540000Y-51105000D03*
X241300000Y-43485000D03*
X256540000Y-53645000D03*
X241300000Y-40945000D03*
X256540000Y-56185000D03*
X241300000Y-38405000D03*
X256540000Y-58725000D03*
X241300000Y-35865000D03*
X256540000Y-61265000D03*
X241300000Y-33325000D03*
X256540000Y-63805000D03*
X241300000Y-30785000D03*
X256540000Y-66345000D03*
D11*
X241300000Y-28245000D03*
X265430000Y-28245000D03*
D12*
X280670000Y-61265000D03*
X265430000Y-30785000D03*
X280670000Y-58725000D03*
X265430000Y-33325000D03*
X280670000Y-56185000D03*
X265430000Y-35865000D03*
X280670000Y-53645000D03*
X265430000Y-38405000D03*
X280670000Y-51105000D03*
X265430000Y-40945000D03*
X280670000Y-48565000D03*
X265430000Y-43485000D03*
X280670000Y-46025000D03*
X265430000Y-46025000D03*
X280670000Y-43485000D03*
X265430000Y-48565000D03*
X280670000Y-40945000D03*
X265430000Y-51105000D03*
X280670000Y-38405000D03*
X265430000Y-53645000D03*
X280670000Y-35865000D03*
X265430000Y-56185000D03*
X280670000Y-33325000D03*
X265430000Y-58725000D03*
X280670000Y-30785000D03*
X265430000Y-61265000D03*
X280670000Y-28245000D03*
D11*
X143510000Y-27940000D03*
D12*
X158750000Y-76200000D03*
X143510000Y-30480000D03*
X158750000Y-73660000D03*
X143510000Y-33020000D03*
X158750000Y-71120000D03*
X143510000Y-35560000D03*
X158750000Y-68580000D03*
X143510000Y-38100000D03*
X158750000Y-66040000D03*
X143510000Y-40640000D03*
X158750000Y-63500000D03*
X143510000Y-43180000D03*
X158750000Y-60960000D03*
X143510000Y-45720000D03*
X158750000Y-58420000D03*
X143510000Y-48260000D03*
X158750000Y-55880000D03*
X143510000Y-50800000D03*
X158750000Y-53340000D03*
X143510000Y-53340000D03*
X158750000Y-50800000D03*
X143510000Y-55880000D03*
X158750000Y-48260000D03*
X143510000Y-58420000D03*
X158750000Y-45720000D03*
X143510000Y-60960000D03*
X158750000Y-43180000D03*
X143510000Y-63500000D03*
X158750000Y-40640000D03*
X143510000Y-66040000D03*
X158750000Y-38100000D03*
X143510000Y-68580000D03*
X158750000Y-35560000D03*
X143510000Y-71120000D03*
X158750000Y-33020000D03*
X143510000Y-73660000D03*
X158750000Y-30480000D03*
X143510000Y-76200000D03*
X158750000Y-27940000D03*
D27*
X236220000Y-102870000D03*
D28*
X251460000Y-95250000D03*
X238760000Y-102870000D03*
X248920000Y-95250000D03*
X241300000Y-102870000D03*
X246380000Y-95250000D03*
X243840000Y-102870000D03*
X243840000Y-95250000D03*
X246380000Y-102870000D03*
X241300000Y-95250000D03*
X248920000Y-102870000D03*
X238760000Y-95250000D03*
X251460000Y-102870000D03*
X236220000Y-95250000D03*
D16*
X271018000Y-87630000D03*
D22*
X278638000Y-80010000D03*
X273558000Y-87630000D03*
X276098000Y-80010000D03*
X276098000Y-87630000D03*
X273558000Y-80010000D03*
X278638000Y-87630000D03*
X271018000Y-80010000D03*
D16*
X243840000Y-85090000D03*
D22*
X259080000Y-77470000D03*
X246380000Y-85090000D03*
X256540000Y-77470000D03*
X248920000Y-85090000D03*
X254000000Y-77470000D03*
X251460000Y-85090000D03*
X251460000Y-77470000D03*
X254000000Y-85090000D03*
X248920000Y-77470000D03*
X256540000Y-85090000D03*
X246380000Y-77470000D03*
X259080000Y-85090000D03*
X243840000Y-77470000D03*
D12*
X210820000Y-27940000D03*
X203200000Y-50800000D03*
X210820000Y-30480000D03*
X203200000Y-48260000D03*
X210820000Y-33020000D03*
X203200000Y-45720000D03*
X210820000Y-35560000D03*
X203200000Y-43180000D03*
X210820000Y-38100000D03*
X203200000Y-40640000D03*
X210820000Y-40640000D03*
X203200000Y-38100000D03*
X210820000Y-43180000D03*
X203200000Y-35560000D03*
X210820000Y-45720000D03*
X203200000Y-33020000D03*
X210820000Y-48260000D03*
X203200000Y-30480000D03*
X210820000Y-50800000D03*
D11*
X203200000Y-27940000D03*
D29*
X153670000Y-85090000D03*
X148770000Y-85090000D03*
M02*
