M48
; DRILL file {KiCad (5.1.10)-1} date 12/04/21 16:57:52
; FORMAT={-:-/ absolute / metric / decimal}
; #@! TF.CreationDate,2021-12-04T16:57:52-06:00
; #@! TF.GenerationSoftware,Kicad,Pcbnew,(5.1.10)-1
; #@! TF.FileFunction,Plated,1,2,PTH
FMAT,2
METRIC
T1C0.400
T2C0.800
T3C0.900
T4C0.920
T5C1.000
T6C1.100
T7C2.330
%
G90
G05
T1
X146.386Y-59.413
X148.59Y-121.92
X149.86Y-118.11
X151.892Y-54.864
X156.21Y-17.018
X156.21Y-95.25
X157.48Y-96.52
X157.48Y-111.76
X158.242Y-81.026
X158.242Y-85.598
X158.605Y-115.425
X161.286Y-83.241
X161.544Y-54.102
X163.584Y-55.434
X165.017Y-27.288
X166.087Y-54.909
X166.144Y-56.461
X167.132Y-21.59
X168.91Y-84.582
X169.164Y-98.806
X170.114Y-39.061
X170.905Y-63.5
X173.095Y-28.933
X173.446Y-36.915
X173.741Y-59.966
X173.99Y-121.92
X175.558Y-29.477
X175.622Y-79.608
X177.484Y-103.387
X179.07Y-102.87
X179.324Y-98.806
X179.475Y-65.151
X180.127Y-80.324
X180.775Y-31.155
X181.145Y-38.907
X183.244Y-41.776
X183.505Y-50.849
X184.658Y-100.33
X184.658Y-104.394
X186.69Y-113.03
X190.03Y-72.663
X190.435Y-28.403
X191.451Y-69.99
X191.858Y-25.537
X195.015Y-75.356
X195.383Y-48.952
X195.924Y-47.751
X196.74Y-64.442
X198.877Y-113.543
X201.196Y-36.743
X201.568Y-39.645
X202.699Y-59.356
X203.2Y-90.678
X206.656Y-43.896
X207.036Y-44.947
X207.051Y-55.718
X207.281Y-34.47
X207.553Y-59.422
X208.28Y-50.8
X208.28Y-105.41
X209.012Y-63.159
X209.012Y-73.888
X209.176Y-37.326
X209.291Y-25.584
X212.988Y-27.457
X213.256Y-28.809
X213.258Y-73.748
X213.564Y-36.086
X213.718Y-37.611
X213.772Y-31.513
X215.392Y-97.79
X217.424Y-69.85
X219.152Y-72.828
X222.607Y-54.937
X222.832Y-52.792
X223.27Y-75.772
X223.889Y-51.732
X224.05Y-48.494
X228.36Y-55.37
X228.999Y-45.188
X265.43Y-68.326
X265.43Y-100.33
X266.7Y-99.06
T2
X143.51Y-27.94
X143.51Y-30.48
X143.51Y-33.02
X143.51Y-35.56
X143.51Y-38.1
X143.51Y-40.64
X143.51Y-43.18
X143.51Y-45.72
X143.51Y-48.26
X143.51Y-50.8
X143.51Y-53.34
X143.51Y-55.88
X143.51Y-58.42
X143.51Y-60.96
X143.51Y-63.5
X143.51Y-66.04
X143.51Y-68.58
X143.51Y-71.12
X143.51Y-73.66
X143.51Y-76.2
X147.32Y-104.14
X147.32Y-106.68
X147.32Y-109.22
X147.32Y-111.76
X147.32Y-114.3
X147.32Y-116.84
X147.32Y-119.38
X148.59Y-90.17
X148.59Y-92.67
X148.77Y-85.09
X153.67Y-85.09
X153.67Y-90.21
X153.67Y-92.71
X154.94Y-104.14
X154.94Y-106.68
X154.94Y-109.22
X154.94Y-111.76
X154.94Y-114.3
X154.94Y-116.84
X154.94Y-119.38
X156.25Y-21.59
X158.75Y-21.59
X158.75Y-27.94
X158.75Y-30.48
X158.75Y-33.02
X158.75Y-35.56
X158.75Y-38.1
X158.75Y-40.64
X158.75Y-43.18
X158.75Y-45.72
X158.75Y-48.26
X158.75Y-50.8
X158.75Y-53.34
X158.75Y-55.88
X158.75Y-58.42
X158.75Y-60.96
X158.75Y-63.5
X158.75Y-66.04
X158.75Y-68.58
X158.75Y-71.12
X158.75Y-73.66
X158.75Y-76.2
X158.79Y-92.71
X161.29Y-92.71
X161.29Y-104.14
X161.29Y-106.68
X161.29Y-109.22
X161.29Y-111.76
X167.68Y-92.71
X168.91Y-27.94
X168.91Y-30.48
X168.91Y-33.02
X168.91Y-35.56
X168.91Y-38.1
X168.91Y-40.64
X168.91Y-43.18
X168.91Y-45.72
X168.91Y-48.26
X168.91Y-50.8
X168.91Y-53.34
X168.91Y-58.46
X168.91Y-60.96
X168.91Y-66.04
X168.91Y-68.58
X168.91Y-71.12
X168.91Y-73.66
X168.91Y-76.2
X168.91Y-104.14
X168.91Y-106.68
X168.91Y-109.22
X168.91Y-111.76
X170.18Y-92.71
X175.26Y-105.41
X175.26Y-107.95
X175.26Y-110.49
X175.26Y-113.03
X175.26Y-115.57
X177.8Y-27.94
X177.8Y-30.48
X177.8Y-33.02
X177.8Y-35.56
X177.8Y-38.1
X177.8Y-40.64
X177.8Y-43.18
X177.8Y-45.72
X177.8Y-48.26
X177.8Y-50.8
X177.8Y-53.34
X177.8Y-55.88
X177.8Y-58.42
X177.8Y-60.96
X177.8Y-63.5
X177.8Y-66.04
X177.8Y-68.58
X177.8Y-71.12
X177.8Y-73.66
X177.8Y-76.2
X177.8Y-78.74
X177.8Y-81.28
X177.8Y-83.82
X177.8Y-86.36
X181.61Y-104.14
X181.61Y-106.68
X181.61Y-109.22
X181.61Y-111.76
X181.61Y-114.3
X181.61Y-116.84
X181.61Y-119.38
X186.73Y-97.79
X189.23Y-97.79
X189.23Y-104.14
X189.23Y-106.68
X189.23Y-109.22
X189.23Y-111.76
X189.23Y-114.3
X189.23Y-116.84
X189.23Y-119.38
X193.04Y-27.94
X193.04Y-30.48
X193.04Y-33.02
X193.04Y-35.56
X193.04Y-38.1
X193.04Y-40.64
X193.04Y-43.18
X193.04Y-45.72
X193.04Y-48.26
X193.04Y-50.8
X193.04Y-53.34
X193.04Y-55.88
X193.04Y-58.42
X193.04Y-60.96
X193.04Y-63.5
X193.04Y-66.04
X193.04Y-68.58
X193.04Y-71.12
X193.04Y-73.66
X193.04Y-76.2
X193.04Y-78.74
X193.04Y-81.28
X193.04Y-83.82
X193.04Y-86.36
X195.58Y-105.41
X195.58Y-107.95
X195.58Y-110.49
X195.58Y-113.03
X195.58Y-115.57
X195.58Y-118.11
X201.97Y-97.79
X203.2Y-27.94
X203.2Y-30.48
X203.2Y-33.02
X203.2Y-35.56
X203.2Y-38.1
X203.2Y-40.64
X203.2Y-43.18
X203.2Y-45.72
X203.2Y-48.26
X203.2Y-50.8
X203.2Y-63.5
X203.2Y-66.04
X203.2Y-68.58
X203.2Y-71.12
X203.2Y-73.66
X203.2Y-76.2
X203.2Y-78.74
X203.2Y-81.28
X203.2Y-83.82
X203.2Y-86.36
X204.47Y-97.79
X208.32Y-21.59
X208.32Y-57.15
X210.82Y-21.59
X210.82Y-27.94
X210.82Y-30.48
X210.82Y-33.02
X210.82Y-35.56
X210.82Y-38.1
X210.82Y-40.64
X210.82Y-43.18
X210.82Y-45.72
X210.82Y-48.26
X210.82Y-50.8
X210.82Y-57.15
X210.82Y-63.5
X210.82Y-66.04
X210.82Y-68.58
X210.82Y-71.12
X210.82Y-73.66
X210.82Y-76.2
X210.82Y-78.74
X210.82Y-81.28
X210.82Y-83.82
X210.82Y-86.36
X212.13Y-101.6
X214.63Y-101.6
X217.21Y-90.17
X219.71Y-76.2
X219.71Y-83.82
X219.71Y-90.17
X220.805Y-28.245
X220.805Y-30.785
X220.805Y-33.325
X220.805Y-35.865
X220.805Y-38.405
X220.805Y-40.945
X220.805Y-43.485
X220.805Y-46.025
X220.805Y-48.565
X220.805Y-51.105
X220.805Y-53.645
X220.805Y-56.185
X220.805Y-58.725
X220.805Y-61.265
X220.805Y-63.805
X220.805Y-66.345
X233.68Y-21.59
X234.95Y-76.2
X234.95Y-83.82
X236.045Y-28.245
X236.045Y-30.785
X236.045Y-33.325
X236.045Y-35.865
X236.045Y-38.405
X236.045Y-40.945
X236.045Y-43.485
X236.045Y-46.025
X236.045Y-48.565
X236.045Y-51.105
X236.045Y-53.645
X236.045Y-56.185
X236.045Y-58.725
X236.045Y-61.265
X236.045Y-63.805
X236.045Y-66.345
X236.18Y-21.59
X237.49Y-102.91
X237.49Y-105.41
X241.3Y-28.245
X241.3Y-30.785
X241.3Y-33.325
X241.3Y-35.865
X241.3Y-38.405
X241.3Y-40.945
X241.3Y-43.485
X241.3Y-46.025
X241.3Y-48.565
X241.3Y-51.105
X241.3Y-53.645
X241.3Y-56.185
X241.3Y-58.725
X241.3Y-61.265
X241.3Y-63.805
X241.3Y-66.345
X242.57Y-78.74
X242.57Y-86.36
X242.57Y-96.52
X242.57Y-104.14
X242.61Y-74.93
X245.11Y-74.93
X245.11Y-78.74
X245.11Y-86.36
X245.11Y-96.52
X245.11Y-104.14
X247.65Y-78.74
X247.65Y-86.36
X247.65Y-96.52
X247.65Y-104.14
X247.69Y-74.93
X247.69Y-92.71
X250.19Y-74.93
X250.19Y-78.74
X250.19Y-86.36
X250.19Y-92.71
X250.19Y-96.52
X250.19Y-104.14
X252.73Y-96.52
X252.73Y-104.14
X254.04Y-21.59
X255.27Y-96.52
X255.27Y-104.14
X256.54Y-21.59
X256.54Y-28.245
X256.54Y-30.785
X256.54Y-33.325
X256.54Y-35.865
X256.54Y-38.405
X256.54Y-40.945
X256.54Y-43.485
X256.54Y-46.025
X256.54Y-48.565
X256.54Y-51.105
X256.54Y-53.645
X256.54Y-56.185
X256.54Y-58.725
X256.54Y-61.265
X256.54Y-63.805
X256.54Y-66.345
X256.54Y-81.32
X256.54Y-83.82
X257.81Y-96.52
X257.81Y-104.14
X265.43Y-28.245
X265.43Y-30.785
X265.43Y-33.325
X265.43Y-35.865
X265.43Y-38.405
X265.43Y-40.945
X265.43Y-43.485
X265.43Y-46.025
X265.43Y-48.565
X265.43Y-51.105
X265.43Y-53.645
X265.43Y-56.185
X265.43Y-58.725
X265.43Y-61.265
X266.74Y-91.44
X267.97Y-78.78
X267.97Y-81.28
X269.24Y-91.44
X272.034Y-71.628
X274.574Y-71.628
X279.4Y-91.44
X280.67Y-28.245
X280.67Y-30.785
X280.67Y-33.325
X280.67Y-35.865
X280.67Y-38.405
X280.67Y-40.945
X280.67Y-43.485
X280.67Y-46.025
X280.67Y-48.565
X280.67Y-51.105
X280.67Y-53.645
X280.67Y-56.185
X280.67Y-58.725
X280.67Y-61.265
X281.9Y-91.44
X287.02Y-27.94
X287.02Y-30.44
T3
X139.7Y-80.01
X139.7Y-82.55
X139.7Y-86.36
X139.7Y-88.9
X277.876Y-71.628
X280.416Y-71.628
T4
X267.97Y-110.86
X267.97Y-112.86
X270.47Y-110.86
X270.47Y-112.86
T5
X137.414Y-50.8
X137.414Y-53.34
X139.7Y-92.71
X139.7Y-95.25
X139.7Y-97.79
X139.7Y-100.33
X139.7Y-102.87
X139.7Y-105.41
X139.7Y-107.95
X161.29Y-116.84
X161.29Y-119.38
X163.83Y-116.84
X163.83Y-119.38
X166.37Y-116.84
X166.37Y-119.38
X168.91Y-116.84
X168.91Y-119.38
X255.27Y-114.3
X255.27Y-116.84
X255.27Y-119.38
T6
X224.79Y-116.84
X227.33Y-116.84
X229.87Y-116.84
X249.174Y-110.49
X259.334Y-110.49
X269.24Y-102.87
X271.78Y-102.87
X272.9Y-77.47
X272.9Y-81.97
X274.32Y-102.87
X279.4Y-77.47
X279.4Y-81.97
T7
X263.2Y-115.57
X275.24Y-115.57
T5
X239.792Y-112.268G85X241.792Y-112.268
G05
X239.792Y-118.268G85X241.792Y-118.268
G05
X245.492Y-116.268G85X245.492Y-114.268
G05
T0
M30
